<svg xmlns="http://www.w3.org/2000/svg" viewBox="16 16 1541 1438" width="100%" font-family="PingFang SC, Microsoft YaHei, Noto Sans CJK SC, sans-serif" style="background:#1e1e1c">
<rect x="16" y="16" width="1541" height="1438" fill="#1e1e1c"/>
<rect x="40.0" y="40.0" width="138.0" height="53.0" fill="#26261f" stroke="#b4b2a9" stroke-width="1.4" rx="3"/>
<text x="109.0" y="50.0" fill="#f1efe8" font-size="9" text-anchor="middle" font-weight="bold">舞台话筒(有线)</text>
<rect x="40.0" y="119.0" width="138.0" height="53.0" fill="#26261f" stroke="#b4b2a9" stroke-width="1.4" rx="3"/>
<text x="109.0" y="129.0" fill="#f1efe8" font-size="9" text-anchor="middle" font-weight="bold">舞台话筒(有线)</text>
<rect x="40.0" y="198.0" width="138.0" height="53.0" fill="#26261f" stroke="#b4b2a9" stroke-width="1.4" rx="3"/>
<text x="109.0" y="208.0" fill="#f1efe8" font-size="9" text-anchor="middle" font-weight="bold">舞台话筒(有线)</text>
<rect x="40.0" y="277.0" width="138.0" height="53.0" fill="#26261f" stroke="#b4b2a9" stroke-width="1.4" rx="3"/>
<text x="109.0" y="287.0" fill="#f1efe8" font-size="9" text-anchor="middle" font-weight="bold">舞台话筒(有线)</text>
<rect x="40.0" y="356.0" width="138.0" height="53.0" fill="#26261f" stroke="#b4b2a9" stroke-width="1.4" rx="3"/>
<text x="109.0" y="366.0" fill="#f1efe8" font-size="9" text-anchor="middle" font-weight="bold">舞台话筒(有线)</text>
<rect x="40.0" y="435.0" width="138.0" height="53.0" fill="#26261f" stroke="#b4b2a9" stroke-width="1.4" rx="3"/>
<text x="109.0" y="445.0" fill="#f1efe8" font-size="9" text-anchor="middle" font-weight="bold">舞台话筒(有线)</text>
<rect x="40.0" y="514.0" width="138.0" height="53.0" fill="#26261f" stroke="#b4b2a9" stroke-width="1.4" rx="3"/>
<text x="109.0" y="524.0" fill="#f1efe8" font-size="9" text-anchor="middle" font-weight="bold">舞台话筒(有线)</text>
<rect x="40.0" y="593.0" width="138.0" height="53.0" fill="#26261f" stroke="#b4b2a9" stroke-width="1.4" rx="3"/>
<text x="109.0" y="603.0" fill="#f1efe8" font-size="9" text-anchor="middle" font-weight="bold">舞台话筒(有线)</text>
<rect x="690.0" y="40.0" width="138.0" height="75.0" fill="#26261f" stroke="#b4b2a9" stroke-width="1.4" rx="3"/>
<text x="759.0" y="50.0" fill="#f1efe8" font-size="9" text-anchor="middle" font-weight="bold">舞台接口箱</text>
<rect x="690.0" y="141.0" width="138.0" height="75.0" fill="#26261f" stroke="#b4b2a9" stroke-width="1.4" rx="3"/>
<text x="759.0" y="151.0" fill="#f1efe8" font-size="9" text-anchor="middle" font-weight="bold">舞台接口箱</text>
<rect x="248.0" y="40.0" width="164.0" height="405.0" fill="#26261f" stroke="#b4b2a9" stroke-width="1.4" rx="3"/>
<text x="330.0" y="50.0" fill="#f1efe8" font-size="9" text-anchor="middle" font-weight="bold">数字调音台(FOH)</text>
<rect x="482.0" y="40.0" width="138.0" height="152.0" fill="#26261f" stroke="#b4b2a9" stroke-width="1.4" rx="3"/>
<text x="551.0" y="50.0" fill="#f1efe8" font-size="9" text-anchor="middle" font-weight="bold">音频处理器</text>
<text x="551.0" y="60.0" fill="#c4c2b8" font-size="8" text-anchor="middle">BSS</text>
<text x="551.0" y="69.0" fill="#9a978d" font-size="7" text-anchor="middle">BLU-806</text>
<rect x="898.0" y="40.0" width="138.0" height="97.0" fill="#26261f" stroke="#b4b2a9" stroke-width="1.4" rx="3"/>
<text x="967.0" y="50.0" fill="#f1efe8" font-size="9" text-anchor="middle" font-weight="bold">音箱管理器</text>
<rect x="1106.0" y="40.0" width="180.0" height="97.0" fill="#26261f" stroke="#b4b2a9" stroke-width="1.4" rx="3"/>
<text x="1196.0" y="50.0" fill="#f1efe8" font-size="9" text-anchor="middle" font-weight="bold">功率放大器</text>
<text x="1196.0" y="60.0" fill="#c4c2b8" font-size="8" text-anchor="middle">Powersoft</text>
<text x="1196.0" y="69.0" fill="#9a978d" font-size="7" text-anchor="middle">Quattrocanali 4804</text>
<rect x="1106.0" y="163.0" width="180.0" height="97.0" fill="#26261f" stroke="#b4b2a9" stroke-width="1.4" rx="3"/>
<text x="1196.0" y="173.0" fill="#f1efe8" font-size="9" text-anchor="middle" font-weight="bold">功率放大器</text>
<text x="1196.0" y="183.0" fill="#c4c2b8" font-size="8" text-anchor="middle">Powersoft</text>
<text x="1196.0" y="192.0" fill="#9a978d" font-size="7" text-anchor="middle">Quattrocanali 4804</text>
<rect x="1106.0" y="286.0" width="180.0" height="97.0" fill="#26261f" stroke="#b4b2a9" stroke-width="1.4" rx="3"/>
<text x="1196.0" y="296.0" fill="#f1efe8" font-size="9" text-anchor="middle" font-weight="bold">功率放大器</text>
<text x="1196.0" y="306.0" fill="#c4c2b8" font-size="8" text-anchor="middle">Powersoft</text>
<text x="1196.0" y="315.0" fill="#9a978d" font-size="7" text-anchor="middle">Quattrocanali 4804</text>
<rect x="1106.0" y="409.0" width="180.0" height="97.0" fill="#26261f" stroke="#b4b2a9" stroke-width="1.4" rx="3"/>
<text x="1196.0" y="419.0" fill="#f1efe8" font-size="9" text-anchor="middle" font-weight="bold">功率放大器</text>
<text x="1196.0" y="429.0" fill="#c4c2b8" font-size="8" text-anchor="middle">Powersoft</text>
<text x="1196.0" y="438.0" fill="#9a978d" font-size="7" text-anchor="middle">Quattrocanali 4804</text>
<rect x="1356.0" y="40.0" width="177.0" height="53.0" fill="#26261f" stroke="#b4b2a9" stroke-width="1.4" rx="3"/>
<text x="1444.5" y="50.0" fill="#f1efe8" font-size="9" text-anchor="middle" font-weight="bold">主扩扬声器</text>
<text x="1444.5" y="60.0" fill="#c4c2b8" font-size="8" text-anchor="middle">L-Acoustics</text>
<text x="1444.5" y="69.0" fill="#9a978d" font-size="7" text-anchor="middle">KARA</text>
<rect x="1356.0" y="119.0" width="177.0" height="53.0" fill="#26261f" stroke="#b4b2a9" stroke-width="1.4" rx="3"/>
<text x="1444.5" y="129.0" fill="#f1efe8" font-size="9" text-anchor="middle" font-weight="bold">主扩扬声器</text>
<text x="1444.5" y="139.0" fill="#c4c2b8" font-size="8" text-anchor="middle">L-Acoustics</text>
<text x="1444.5" y="148.0" fill="#9a978d" font-size="7" text-anchor="middle">KARA</text>
<rect x="1356.0" y="198.0" width="177.0" height="53.0" fill="#26261f" stroke="#b4b2a9" stroke-width="1.4" rx="3"/>
<text x="1444.5" y="208.0" fill="#f1efe8" font-size="9" text-anchor="middle" font-weight="bold">主扩扬声器</text>
<text x="1444.5" y="218.0" fill="#c4c2b8" font-size="8" text-anchor="middle">L-Acoustics</text>
<text x="1444.5" y="227.0" fill="#9a978d" font-size="7" text-anchor="middle">KARA</text>
<rect x="1356.0" y="277.0" width="177.0" height="53.0" fill="#26261f" stroke="#b4b2a9" stroke-width="1.4" rx="3"/>
<text x="1444.5" y="287.0" fill="#f1efe8" font-size="9" text-anchor="middle" font-weight="bold">主扩扬声器</text>
<text x="1444.5" y="297.0" fill="#c4c2b8" font-size="8" text-anchor="middle">L-Acoustics</text>
<text x="1444.5" y="306.0" fill="#9a978d" font-size="7" text-anchor="middle">KARA</text>
<rect x="1356.0" y="356.0" width="177.0" height="53.0" fill="#26261f" stroke="#b4b2a9" stroke-width="1.4" rx="3"/>
<text x="1444.5" y="366.0" fill="#f1efe8" font-size="9" text-anchor="middle" font-weight="bold">主扩扬声器</text>
<text x="1444.5" y="376.0" fill="#c4c2b8" font-size="8" text-anchor="middle">L-Acoustics</text>
<text x="1444.5" y="385.0" fill="#9a978d" font-size="7" text-anchor="middle">KARA</text>
<rect x="1356.0" y="435.0" width="177.0" height="53.0" fill="#26261f" stroke="#b4b2a9" stroke-width="1.4" rx="3"/>
<text x="1444.5" y="445.0" fill="#f1efe8" font-size="9" text-anchor="middle" font-weight="bold">主扩扬声器</text>
<text x="1444.5" y="455.0" fill="#c4c2b8" font-size="8" text-anchor="middle">L-Acoustics</text>
<text x="1444.5" y="464.0" fill="#9a978d" font-size="7" text-anchor="middle">KARA</text>
<rect x="1356.0" y="514.0" width="177.0" height="53.0" fill="#26261f" stroke="#b4b2a9" stroke-width="1.4" rx="3"/>
<text x="1444.5" y="524.0" fill="#f1efe8" font-size="9" text-anchor="middle" font-weight="bold">主扩扬声器</text>
<text x="1444.5" y="534.0" fill="#c4c2b8" font-size="8" text-anchor="middle">L-Acoustics</text>
<text x="1444.5" y="543.0" fill="#9a978d" font-size="7" text-anchor="middle">KARA</text>
<rect x="1356.0" y="593.0" width="177.0" height="53.0" fill="#26261f" stroke="#b4b2a9" stroke-width="1.4" rx="3"/>
<text x="1444.5" y="603.0" fill="#f1efe8" font-size="9" text-anchor="middle" font-weight="bold">主扩扬声器</text>
<text x="1444.5" y="613.0" fill="#c4c2b8" font-size="8" text-anchor="middle">L-Acoustics</text>
<text x="1444.5" y="622.0" fill="#9a978d" font-size="7" text-anchor="middle">KARA</text>
<rect x="1356.0" y="672.0" width="138.0" height="53.0" fill="#26261f" stroke="#b4b2a9" stroke-width="1.4" rx="3"/>
<text x="1425.0" y="682.0" fill="#f1efe8" font-size="9" text-anchor="middle" font-weight="bold">超低扬声器</text>
<rect x="1356.0" y="751.0" width="138.0" height="53.0" fill="#26261f" stroke="#b4b2a9" stroke-width="1.4" rx="3"/>
<text x="1425.0" y="761.0" fill="#f1efe8" font-size="9" text-anchor="middle" font-weight="bold">超低扬声器</text>
<rect x="1356.0" y="830.0" width="138.0" height="53.0" fill="#26261f" stroke="#b4b2a9" stroke-width="1.4" rx="3"/>
<text x="1425.0" y="840.0" fill="#f1efe8" font-size="9" text-anchor="middle" font-weight="bold">超低扬声器</text>
<rect x="1356.0" y="909.0" width="138.0" height="53.0" fill="#26261f" stroke="#b4b2a9" stroke-width="1.4" rx="3"/>
<text x="1425.0" y="919.0" fill="#f1efe8" font-size="9" text-anchor="middle" font-weight="bold">超低扬声器</text>
<rect x="1356.0" y="988.0" width="138.0" height="53.0" fill="#26261f" stroke="#b4b2a9" stroke-width="1.4" rx="3"/>
<text x="1425.0" y="998.0" fill="#f1efe8" font-size="9" text-anchor="middle" font-weight="bold">舞台返听(有源)</text>
<rect x="1356.0" y="1067.0" width="138.0" height="53.0" fill="#26261f" stroke="#b4b2a9" stroke-width="1.4" rx="3"/>
<text x="1425.0" y="1077.0" fill="#f1efe8" font-size="9" text-anchor="middle" font-weight="bold">舞台返听(有源)</text>
<rect x="1356.0" y="1146.0" width="138.0" height="53.0" fill="#26261f" stroke="#b4b2a9" stroke-width="1.4" rx="3"/>
<text x="1425.0" y="1156.0" fill="#f1efe8" font-size="9" text-anchor="middle" font-weight="bold">舞台返听(有源)</text>
<rect x="1356.0" y="1225.0" width="138.0" height="53.0" fill="#26261f" stroke="#b4b2a9" stroke-width="1.4" rx="3"/>
<text x="1425.0" y="1235.0" fill="#f1efe8" font-size="9" text-anchor="middle" font-weight="bold">舞台返听(有源)</text>
<rect x="716.5" y="1374.0" width="220.0" height="56.0" fill="#26261f" stroke="#b4b2a9" stroke-width="1.4" rx="3"/>
<text x="826.5" y="1384.0" fill="#f1efe8" font-size="9" text-anchor="middle" font-weight="bold">Dante 交换机</text>
<polyline points="178.0,77.5 188.0,77.5 213.0,77.5 213.0,77.5 238.0,77.5 248.0,77.5" fill="none" stroke="#5dcaa5" stroke-width="1.6" stroke-linejoin="round"/>
<polyline points="178.0,156.5 188.0,156.5 213.0,156.5 213.0,88.5 238.0,88.5 248.0,88.5" fill="none" stroke="#5dcaa5" stroke-width="1.6" stroke-linejoin="round"/>
<polyline points="178.0,235.5 188.0,235.5 213.0,235.5 213.0,99.5 238.0,99.5 248.0,99.5" fill="none" stroke="#5dcaa5" stroke-width="1.6" stroke-linejoin="round"/>
<polyline points="178.0,314.5 188.0,314.5 213.0,314.5 213.0,110.5 238.0,110.5 248.0,110.5" fill="none" stroke="#5dcaa5" stroke-width="1.6" stroke-linejoin="round"/>
<polyline points="178.0,393.5 188.0,393.5 213.0,393.5 213.0,121.5 238.0,121.5 248.0,121.5" fill="none" stroke="#5dcaa5" stroke-width="1.6" stroke-linejoin="round"/>
<polyline points="178.0,472.5 188.0,472.5 213.0,472.5 213.0,132.5 238.0,132.5 248.0,132.5" fill="none" stroke="#5dcaa5" stroke-width="1.6" stroke-linejoin="round"/>
<polyline points="178.0,551.5 188.0,551.5 213.0,551.5 213.0,143.5 238.0,143.5 248.0,143.5" fill="none" stroke="#5dcaa5" stroke-width="1.6" stroke-linejoin="round"/>
<polyline points="178.0,630.5 188.0,630.5 213.0,630.5 213.0,154.5 238.0,154.5 248.0,154.5" fill="none" stroke="#5dcaa5" stroke-width="1.6" stroke-linejoin="round"/>
<polyline points="412.0,77.5 422.0,77.5 447.0,77.5 447.0,77.5 472.0,77.5 482.0,77.5" fill="none" stroke="#5dcaa5" stroke-width="1.6" stroke-linejoin="round"/>
<polyline points="412.0,88.5 422.0,88.5 447.0,88.5 447.0,88.5 472.0,88.5 482.0,88.5" fill="none" stroke="#5dcaa5" stroke-width="1.6" stroke-linejoin="round"/>
<polyline points="412.0,99.5 422.0,99.5 447.0,99.5 447.0,99.5 472.0,99.5 482.0,99.5" fill="none" stroke="#5dcaa5" stroke-width="1.6" stroke-linejoin="round"/>
<polyline points="412.0,110.5 422.0,110.5 447.0,110.5 447.0,110.5 472.0,110.5 482.0,110.5" fill="none" stroke="#5dcaa5" stroke-width="1.6" stroke-linejoin="round"/>
<polyline points="412.0,121.5 422.0,121.5 447.0,121.5 447.0,121.5 472.0,121.5 482.0,121.5" fill="none" stroke="#5dcaa5" stroke-width="1.6" stroke-linejoin="round"/>
<polyline points="412.0,132.5 422.0,132.5 447.0,132.5 447.0,132.5 472.0,132.5 482.0,132.5" fill="none" stroke="#5dcaa5" stroke-width="1.6" stroke-linejoin="round"/>
<polyline points="412.0,143.5 422.0,143.5 447.0,143.5 447.0,143.5 472.0,143.5 482.0,143.5" fill="none" stroke="#5dcaa5" stroke-width="1.6" stroke-linejoin="round"/>
<polyline points="412.0,154.5 422.0,154.5 447.0,154.5 447.0,154.5 472.0,154.5 482.0,154.5" fill="none" stroke="#5dcaa5" stroke-width="1.6" stroke-linejoin="round"/>
<polyline points="620.0,77.5 630.0,77.5 655.0,77.5 655.0,77.5 680.0,77.5 690.0,77.5" fill="none" stroke="#5dcaa5" stroke-width="1.6" stroke-linejoin="round"/>
<polyline points="620.0,88.5 630.0,88.5 655.0,88.5 655.0,178.5 680.0,178.5 690.0,178.5" fill="none" stroke="#5dcaa5" stroke-width="1.6" stroke-linejoin="round"/>
<polyline points="828.0,77.5 838.0,77.5 863.0,77.5 863.0,77.5 888.0,77.5 898.0,77.5" fill="none" stroke="#5dcaa5" stroke-width="1.6" stroke-linejoin="round"/>
<polyline points="1036.0,77.5 1046.0,77.5 1071.0,77.5 1071.0,77.5 1096.0,77.5 1106.0,77.5" fill="none" stroke="#5dcaa5" stroke-width="1.6" stroke-linejoin="round"/>
<polyline points="1036.0,88.5 1046.0,88.5 1071.0,88.5 1071.0,88.5 1096.0,88.5 1106.0,88.5" fill="none" stroke="#5dcaa5" stroke-width="1.6" stroke-linejoin="round"/>
<polyline points="1036.0,99.5 1046.0,99.5 1071.0,99.5 1071.0,99.5 1096.0,99.5 1106.0,99.5" fill="none" stroke="#5dcaa5" stroke-width="1.6" stroke-linejoin="round"/>
<polyline points="1036.0,110.5 1046.0,110.5 1071.0,110.5 1071.0,110.5 1096.0,110.5 1106.0,110.5" fill="none" stroke="#5dcaa5" stroke-width="1.6" stroke-linejoin="round"/>
<polyline points="1286.0,88.5 1296.0,88.5 1321.0,88.5 1321.0,77.5 1346.0,77.5 1356.0,77.5" fill="none" stroke="#e8655a" stroke-width="1.6" stroke-linejoin="round"/>
<polyline points="1286.0,99.5 1296.0,99.5 1321.0,99.5 1321.0,393.5 1346.0,393.5 1356.0,393.5" fill="none" stroke="#e8655a" stroke-width="1.6" stroke-linejoin="round"/>
<polyline points="1286.0,110.5 1296.0,110.5 1321.0,110.5 1321.0,709.5 1346.0,709.5 1356.0,709.5" fill="none" stroke="#e8655a" stroke-width="1.6" stroke-linejoin="round"/>
<polyline points="1286.0,121.5 1296.0,121.5 1321.0,121.5 1321.0,1025.5 1346.0,1025.5 1356.0,1025.5" fill="none" stroke="#e8655a" stroke-width="1.6" stroke-linejoin="round"/>
<polyline points="1286.0,211.5 1296.0,211.5 1321.0,211.5 1321.0,156.5 1346.0,156.5 1356.0,156.5" fill="none" stroke="#e8655a" stroke-width="1.6" stroke-linejoin="round"/>
<polyline points="1286.0,222.5 1296.0,222.5 1321.0,222.5 1321.0,472.5 1346.0,472.5 1356.0,472.5" fill="none" stroke="#e8655a" stroke-width="1.6" stroke-linejoin="round"/>
<polyline points="1286.0,233.5 1296.0,233.5 1321.0,233.5 1321.0,788.5 1346.0,788.5 1356.0,788.5" fill="none" stroke="#e8655a" stroke-width="1.6" stroke-linejoin="round"/>
<polyline points="1286.0,244.5 1296.0,244.5 1321.0,244.5 1321.0,1104.5 1346.0,1104.5 1356.0,1104.5" fill="none" stroke="#e8655a" stroke-width="1.6" stroke-linejoin="round"/>
<polyline points="1286.0,334.5 1296.0,334.5 1321.0,334.5 1321.0,235.5 1346.0,235.5 1356.0,235.5" fill="none" stroke="#e8655a" stroke-width="1.6" stroke-linejoin="round"/>
<polyline points="1286.0,345.5 1296.0,345.5 1321.0,345.5 1321.0,551.5 1346.0,551.5 1356.0,551.5" fill="none" stroke="#e8655a" stroke-width="1.6" stroke-linejoin="round"/>
<polyline points="1286.0,356.5 1296.0,356.5 1321.0,356.5 1321.0,867.5 1346.0,867.5 1356.0,867.5" fill="none" stroke="#e8655a" stroke-width="1.6" stroke-linejoin="round"/>
<polyline points="1286.0,367.5 1296.0,367.5 1321.0,367.5 1321.0,1183.5 1346.0,1183.5 1356.0,1183.5" fill="none" stroke="#e8655a" stroke-width="1.6" stroke-linejoin="round"/>
<polyline points="1286.0,457.5 1296.0,457.5 1321.0,457.5 1321.0,314.5 1346.0,314.5 1356.0,314.5" fill="none" stroke="#e8655a" stroke-width="1.6" stroke-linejoin="round"/>
<polyline points="1286.0,468.5 1296.0,468.5 1321.0,468.5 1321.0,630.5 1346.0,630.5 1356.0,630.5" fill="none" stroke="#e8655a" stroke-width="1.6" stroke-linejoin="round"/>
<polyline points="1286.0,479.5 1296.0,479.5 1321.0,479.5 1321.0,946.5 1346.0,946.5 1356.0,946.5" fill="none" stroke="#e8655a" stroke-width="1.6" stroke-linejoin="round"/>
<polyline points="1286.0,490.5 1296.0,490.5 1321.0,490.5 1321.0,1262.5 1346.0,1262.5 1356.0,1262.5" fill="none" stroke="#e8655a" stroke-width="1.6" stroke-linejoin="round"/>
<polyline points="210.0,1330.0 1092.0,1330.0" fill="none" stroke="#378add" stroke-width="2.4" stroke-linejoin="round"/>
<polyline points="828.0,88.5 838.0,88.5 854.0,88.5 854.0,1330.0 732.3,1330.0 732.3,1374.0" fill="none" stroke="#378add" stroke-width="1.6" stroke-linejoin="round"/>
<polyline points="828.0,189.5 838.0,189.5 854.0,189.5 854.0,1330.0 748.0,1330.0 748.0,1374.0" fill="none" stroke="#378add" stroke-width="1.6" stroke-linejoin="round"/>
<polyline points="248.0,429.5 238.0,429.5 222.0,429.5 222.0,1330.0 763.7,1330.0 763.7,1374.0" fill="none" stroke="#378add" stroke-width="1.6" stroke-linejoin="round"/>
<polyline points="412.0,253.5 422.0,253.5 438.0,253.5 438.0,1330.0 779.4,1330.0 779.4,1374.0" fill="none" stroke="#378add" stroke-width="1.6" stroke-linejoin="round"/>
<polyline points="482.0,165.5 472.0,165.5 456.0,165.5 456.0,1330.0 795.1,1330.0 795.1,1374.0" fill="none" stroke="#378add" stroke-width="1.6" stroke-linejoin="round"/>
<polyline points="620.0,165.5 630.0,165.5 646.0,165.5 646.0,1330.0 810.8,1330.0 810.8,1374.0" fill="none" stroke="#378add" stroke-width="1.6" stroke-linejoin="round"/>
<polyline points="898.0,88.5 888.0,88.5 872.0,88.5 872.0,1330.0 826.5,1330.0 826.5,1374.0" fill="none" stroke="#378add" stroke-width="1.6" stroke-linejoin="round"/>
<polyline points="1106.0,121.5 1096.0,121.5 1080.0,121.5 1080.0,1330.0 842.2,1330.0 842.2,1374.0" fill="none" stroke="#378add" stroke-width="1.6" stroke-linejoin="round"/>
<polyline points="1106.0,244.5 1096.0,244.5 1080.0,244.5 1080.0,1330.0 857.9,1330.0 857.9,1374.0" fill="none" stroke="#378add" stroke-width="1.6" stroke-linejoin="round"/>
<polyline points="1106.0,367.5 1096.0,367.5 1080.0,367.5 1080.0,1330.0 873.6,1330.0 873.6,1374.0" fill="none" stroke="#378add" stroke-width="1.6" stroke-linejoin="round"/>
<polyline points="1106.0,490.5 1096.0,490.5 1080.0,490.5 1080.0,1330.0 889.3,1330.0 889.3,1374.0" fill="none" stroke="#378add" stroke-width="1.6" stroke-linejoin="round"/>
<circle cx="178.0" cy="77.5" r="2.4" fill="#5dcaa5"/>
<text x="171.0" y="80.5" fill="#f5f5ec" font-size="8" text-anchor="end" font-weight="bold">OUT</text>
<circle cx="178.0" cy="156.5" r="2.4" fill="#5dcaa5"/>
<text x="171.0" y="159.5" fill="#f5f5ec" font-size="8" text-anchor="end" font-weight="bold">OUT</text>
<circle cx="178.0" cy="235.5" r="2.4" fill="#5dcaa5"/>
<text x="171.0" y="238.5" fill="#f5f5ec" font-size="8" text-anchor="end" font-weight="bold">OUT</text>
<circle cx="178.0" cy="314.5" r="2.4" fill="#5dcaa5"/>
<text x="171.0" y="317.5" fill="#f5f5ec" font-size="8" text-anchor="end" font-weight="bold">OUT</text>
<circle cx="178.0" cy="393.5" r="2.4" fill="#5dcaa5"/>
<text x="171.0" y="396.5" fill="#f5f5ec" font-size="8" text-anchor="end" font-weight="bold">OUT</text>
<circle cx="178.0" cy="472.5" r="2.4" fill="#5dcaa5"/>
<text x="171.0" y="475.5" fill="#f5f5ec" font-size="8" text-anchor="end" font-weight="bold">OUT</text>
<circle cx="178.0" cy="551.5" r="2.4" fill="#5dcaa5"/>
<text x="171.0" y="554.5" fill="#f5f5ec" font-size="8" text-anchor="end" font-weight="bold">OUT</text>
<circle cx="178.0" cy="630.5" r="2.4" fill="#5dcaa5"/>
<text x="171.0" y="633.5" fill="#f5f5ec" font-size="8" text-anchor="end" font-weight="bold">OUT</text>
<circle cx="690.0" cy="77.5" r="2.4" fill="#5dcaa5"/>
<text x="697.0" y="80.5" fill="#f5f5ec" font-size="8" text-anchor="start" font-weight="bold">IN</text>
<circle cx="828.0" cy="77.5" r="2.4" fill="#5dcaa5"/>
<text x="821.0" y="80.5" fill="#f5f5ec" font-size="8" text-anchor="end" font-weight="bold">OUT</text>
<circle cx="828.0" cy="88.5" r="2.4" fill="#378add"/>
<text x="821.0" y="91.5" fill="#f5f5ec" font-size="8" text-anchor="end" font-weight="bold">DANTE</text>
<circle cx="828.0" cy="99.5" r="2.4" fill="#b07cd9"/>
<text x="821.0" y="102.5" fill="#f5f5ec" font-size="8" text-anchor="end" font-weight="bold">CTRL</text>
<circle cx="690.0" cy="178.5" r="2.4" fill="#5dcaa5"/>
<text x="697.0" y="181.5" fill="#f5f5ec" font-size="8" text-anchor="start" font-weight="bold">IN</text>
<circle cx="828.0" cy="178.5" r="2.4" fill="#5dcaa5"/>
<text x="821.0" y="181.5" fill="#f5f5ec" font-size="8" text-anchor="end" font-weight="bold">OUT</text>
<circle cx="828.0" cy="189.5" r="2.4" fill="#378add"/>
<text x="821.0" y="192.5" fill="#f5f5ec" font-size="8" text-anchor="end" font-weight="bold">DANTE</text>
<circle cx="828.0" cy="200.5" r="2.4" fill="#b07cd9"/>
<text x="821.0" y="203.5" fill="#f5f5ec" font-size="8" text-anchor="end" font-weight="bold">CTRL</text>
<circle cx="248.0" cy="77.5" r="2.4" fill="#5dcaa5"/>
<text x="255.0" y="80.5" fill="#f5f5ec" font-size="8" text-anchor="start" font-weight="bold">IN1</text>
<circle cx="248.0" cy="88.5" r="2.4" fill="#5dcaa5"/>
<text x="255.0" y="91.5" fill="#f5f5ec" font-size="8" text-anchor="start" font-weight="bold">IN2</text>
<circle cx="248.0" cy="99.5" r="2.4" fill="#5dcaa5"/>
<text x="255.0" y="102.5" fill="#f5f5ec" font-size="8" text-anchor="start" font-weight="bold">IN3</text>
<circle cx="248.0" cy="110.5" r="2.4" fill="#5dcaa5"/>
<text x="255.0" y="113.5" fill="#f5f5ec" font-size="8" text-anchor="start" font-weight="bold">IN4</text>
<circle cx="248.0" cy="121.5" r="2.4" fill="#5dcaa5"/>
<text x="255.0" y="124.5" fill="#f5f5ec" font-size="8" text-anchor="start" font-weight="bold">IN5</text>
<circle cx="248.0" cy="132.5" r="2.4" fill="#5dcaa5"/>
<text x="255.0" y="135.5" fill="#f5f5ec" font-size="8" text-anchor="start" font-weight="bold">IN6</text>
<circle cx="248.0" cy="143.5" r="2.4" fill="#5dcaa5"/>
<text x="255.0" y="146.5" fill="#f5f5ec" font-size="8" text-anchor="start" font-weight="bold">IN7</text>
<circle cx="248.0" cy="154.5" r="2.4" fill="#5dcaa5"/>
<text x="255.0" y="157.5" fill="#f5f5ec" font-size="8" text-anchor="start" font-weight="bold">IN8</text>
<circle cx="248.0" cy="165.5" r="2.4" fill="#5dcaa5"/>
<text x="255.0" y="168.5" fill="#f5f5ec" font-size="8" text-anchor="start" font-weight="bold">IN9</text>
<circle cx="248.0" cy="176.5" r="2.4" fill="#5dcaa5"/>
<text x="255.0" y="179.5" fill="#f5f5ec" font-size="8" text-anchor="start" font-weight="bold">IN10</text>
<circle cx="248.0" cy="187.5" r="2.4" fill="#5dcaa5"/>
<text x="255.0" y="190.5" fill="#f5f5ec" font-size="8" text-anchor="start" font-weight="bold">IN11</text>
<circle cx="248.0" cy="198.5" r="2.4" fill="#5dcaa5"/>
<text x="255.0" y="201.5" fill="#f5f5ec" font-size="8" text-anchor="start" font-weight="bold">IN12</text>
<circle cx="248.0" cy="209.5" r="2.4" fill="#5dcaa5"/>
<text x="255.0" y="212.5" fill="#f5f5ec" font-size="8" text-anchor="start" font-weight="bold">IN13</text>
<circle cx="248.0" cy="220.5" r="2.4" fill="#5dcaa5"/>
<text x="255.0" y="223.5" fill="#f5f5ec" font-size="8" text-anchor="start" font-weight="bold">IN14</text>
<circle cx="248.0" cy="231.5" r="2.4" fill="#5dcaa5"/>
<text x="255.0" y="234.5" fill="#f5f5ec" font-size="8" text-anchor="start" font-weight="bold">IN15</text>
<circle cx="248.0" cy="242.5" r="2.4" fill="#5dcaa5"/>
<text x="255.0" y="245.5" fill="#f5f5ec" font-size="8" text-anchor="start" font-weight="bold">IN16</text>
<circle cx="248.0" cy="253.5" r="2.4" fill="#5dcaa5"/>
<text x="255.0" y="256.5" fill="#f5f5ec" font-size="8" text-anchor="start" font-weight="bold">IN17</text>
<circle cx="248.0" cy="264.5" r="2.4" fill="#5dcaa5"/>
<text x="255.0" y="267.5" fill="#f5f5ec" font-size="8" text-anchor="start" font-weight="bold">IN18</text>
<circle cx="248.0" cy="275.5" r="2.4" fill="#5dcaa5"/>
<text x="255.0" y="278.5" fill="#f5f5ec" font-size="8" text-anchor="start" font-weight="bold">IN19</text>
<circle cx="248.0" cy="286.5" r="2.4" fill="#5dcaa5"/>
<text x="255.0" y="289.5" fill="#f5f5ec" font-size="8" text-anchor="start" font-weight="bold">IN20</text>
<circle cx="248.0" cy="297.5" r="2.4" fill="#5dcaa5"/>
<text x="255.0" y="300.5" fill="#f5f5ec" font-size="8" text-anchor="start" font-weight="bold">IN21</text>
<circle cx="248.0" cy="308.5" r="2.4" fill="#5dcaa5"/>
<text x="255.0" y="311.5" fill="#f5f5ec" font-size="8" text-anchor="start" font-weight="bold">IN22</text>
<circle cx="248.0" cy="319.5" r="2.4" fill="#5dcaa5"/>
<text x="255.0" y="322.5" fill="#f5f5ec" font-size="8" text-anchor="start" font-weight="bold">IN23</text>
<circle cx="248.0" cy="330.5" r="2.4" fill="#5dcaa5"/>
<text x="255.0" y="333.5" fill="#f5f5ec" font-size="8" text-anchor="start" font-weight="bold">IN24</text>
<circle cx="248.0" cy="341.5" r="2.4" fill="#5dcaa5"/>
<text x="255.0" y="344.5" fill="#f5f5ec" font-size="8" text-anchor="start" font-weight="bold">IN25</text>
<circle cx="248.0" cy="352.5" r="2.4" fill="#5dcaa5"/>
<text x="255.0" y="355.5" fill="#f5f5ec" font-size="8" text-anchor="start" font-weight="bold">IN26</text>
<circle cx="248.0" cy="363.5" r="2.4" fill="#5dcaa5"/>
<text x="255.0" y="366.5" fill="#f5f5ec" font-size="8" text-anchor="start" font-weight="bold">IN27</text>
<circle cx="248.0" cy="374.5" r="2.4" fill="#5dcaa5"/>
<text x="255.0" y="377.5" fill="#f5f5ec" font-size="8" text-anchor="start" font-weight="bold">IN28</text>
<circle cx="248.0" cy="385.5" r="2.4" fill="#5dcaa5"/>
<text x="255.0" y="388.5" fill="#f5f5ec" font-size="8" text-anchor="start" font-weight="bold">IN29</text>
<circle cx="248.0" cy="396.5" r="2.4" fill="#5dcaa5"/>
<text x="255.0" y="399.5" fill="#f5f5ec" font-size="8" text-anchor="start" font-weight="bold">IN30</text>
<circle cx="248.0" cy="407.5" r="2.4" fill="#5dcaa5"/>
<text x="255.0" y="410.5" fill="#f5f5ec" font-size="8" text-anchor="start" font-weight="bold">IN31</text>
<circle cx="248.0" cy="418.5" r="2.4" fill="#5dcaa5"/>
<text x="255.0" y="421.5" fill="#f5f5ec" font-size="8" text-anchor="start" font-weight="bold">IN32</text>
<circle cx="248.0" cy="429.5" r="2.4" fill="#378add"/>
<text x="255.0" y="432.5" fill="#f5f5ec" font-size="8" text-anchor="start" font-weight="bold">DANTE</text>
<circle cx="412.0" cy="77.5" r="2.4" fill="#5dcaa5"/>
<text x="405.0" y="80.5" fill="#f5f5ec" font-size="8" text-anchor="end" font-weight="bold">OUT1</text>
<circle cx="412.0" cy="88.5" r="2.4" fill="#5dcaa5"/>
<text x="405.0" y="91.5" fill="#f5f5ec" font-size="8" text-anchor="end" font-weight="bold">OUT2</text>
<circle cx="412.0" cy="99.5" r="2.4" fill="#5dcaa5"/>
<text x="405.0" y="102.5" fill="#f5f5ec" font-size="8" text-anchor="end" font-weight="bold">OUT3</text>
<circle cx="412.0" cy="110.5" r="2.4" fill="#5dcaa5"/>
<text x="405.0" y="113.5" fill="#f5f5ec" font-size="8" text-anchor="end" font-weight="bold">OUT4</text>
<circle cx="412.0" cy="121.5" r="2.4" fill="#5dcaa5"/>
<text x="405.0" y="124.5" fill="#f5f5ec" font-size="8" text-anchor="end" font-weight="bold">OUT5</text>
<circle cx="412.0" cy="132.5" r="2.4" fill="#5dcaa5"/>
<text x="405.0" y="135.5" fill="#f5f5ec" font-size="8" text-anchor="end" font-weight="bold">OUT6</text>
<circle cx="412.0" cy="143.5" r="2.4" fill="#5dcaa5"/>
<text x="405.0" y="146.5" fill="#f5f5ec" font-size="8" text-anchor="end" font-weight="bold">OUT7</text>
<circle cx="412.0" cy="154.5" r="2.4" fill="#5dcaa5"/>
<text x="405.0" y="157.5" fill="#f5f5ec" font-size="8" text-anchor="end" font-weight="bold">OUT8</text>
<circle cx="412.0" cy="165.5" r="2.4" fill="#5dcaa5"/>
<text x="405.0" y="168.5" fill="#f5f5ec" font-size="8" text-anchor="end" font-weight="bold">OUT9</text>
<circle cx="412.0" cy="176.5" r="2.4" fill="#5dcaa5"/>
<text x="405.0" y="179.5" fill="#f5f5ec" font-size="8" text-anchor="end" font-weight="bold">OUT10</text>
<circle cx="412.0" cy="187.5" r="2.4" fill="#5dcaa5"/>
<text x="405.0" y="190.5" fill="#f5f5ec" font-size="8" text-anchor="end" font-weight="bold">OUT11</text>
<circle cx="412.0" cy="198.5" r="2.4" fill="#5dcaa5"/>
<text x="405.0" y="201.5" fill="#f5f5ec" font-size="8" text-anchor="end" font-weight="bold">OUT12</text>
<circle cx="412.0" cy="209.5" r="2.4" fill="#5dcaa5"/>
<text x="405.0" y="212.5" fill="#f5f5ec" font-size="8" text-anchor="end" font-weight="bold">OUT13</text>
<circle cx="412.0" cy="220.5" r="2.4" fill="#5dcaa5"/>
<text x="405.0" y="223.5" fill="#f5f5ec" font-size="8" text-anchor="end" font-weight="bold">OUT14</text>
<circle cx="412.0" cy="231.5" r="2.4" fill="#5dcaa5"/>
<text x="405.0" y="234.5" fill="#f5f5ec" font-size="8" text-anchor="end" font-weight="bold">OUT15</text>
<circle cx="412.0" cy="242.5" r="2.4" fill="#5dcaa5"/>
<text x="405.0" y="245.5" fill="#f5f5ec" font-size="8" text-anchor="end" font-weight="bold">OUT16</text>
<circle cx="412.0" cy="253.5" r="2.4" fill="#378add"/>
<text x="405.0" y="256.5" fill="#f5f5ec" font-size="8" text-anchor="end" font-weight="bold">DANTE</text>
<circle cx="412.0" cy="264.5" r="2.4" fill="#b07cd9"/>
<text x="405.0" y="267.5" fill="#f5f5ec" font-size="8" text-anchor="end" font-weight="bold">CTRL</text>
<circle cx="482.0" cy="77.5" r="2.4" fill="#5dcaa5"/>
<text x="489.0" y="80.5" fill="#f5f5ec" font-size="8" text-anchor="start" font-weight="bold">IN1</text>
<circle cx="482.0" cy="88.5" r="2.4" fill="#5dcaa5"/>
<text x="489.0" y="91.5" fill="#f5f5ec" font-size="8" text-anchor="start" font-weight="bold">IN2</text>
<circle cx="482.0" cy="99.5" r="2.4" fill="#5dcaa5"/>
<text x="489.0" y="102.5" fill="#f5f5ec" font-size="8" text-anchor="start" font-weight="bold">IN3</text>
<circle cx="482.0" cy="110.5" r="2.4" fill="#5dcaa5"/>
<text x="489.0" y="113.5" fill="#f5f5ec" font-size="8" text-anchor="start" font-weight="bold">IN4</text>
<circle cx="482.0" cy="121.5" r="2.4" fill="#5dcaa5"/>
<text x="489.0" y="124.5" fill="#f5f5ec" font-size="8" text-anchor="start" font-weight="bold">IN5</text>
<circle cx="482.0" cy="132.5" r="2.4" fill="#5dcaa5"/>
<text x="489.0" y="135.5" fill="#f5f5ec" font-size="8" text-anchor="start" font-weight="bold">IN6</text>
<circle cx="482.0" cy="143.5" r="2.4" fill="#5dcaa5"/>
<text x="489.0" y="146.5" fill="#f5f5ec" font-size="8" text-anchor="start" font-weight="bold">IN7</text>
<circle cx="482.0" cy="154.5" r="2.4" fill="#5dcaa5"/>
<text x="489.0" y="157.5" fill="#f5f5ec" font-size="8" text-anchor="start" font-weight="bold">IN8</text>
<circle cx="482.0" cy="165.5" r="2.4" fill="#378add"/>
<text x="489.0" y="168.5" fill="#f5f5ec" font-size="8" text-anchor="start" font-weight="bold">DANTE</text>
<circle cx="620.0" cy="77.5" r="2.4" fill="#5dcaa5"/>
<text x="613.0" y="80.5" fill="#f5f5ec" font-size="8" text-anchor="end" font-weight="bold">OUT1</text>
<circle cx="620.0" cy="88.5" r="2.4" fill="#5dcaa5"/>
<text x="613.0" y="91.5" fill="#f5f5ec" font-size="8" text-anchor="end" font-weight="bold">OUT2</text>
<circle cx="620.0" cy="99.5" r="2.4" fill="#5dcaa5"/>
<text x="613.0" y="102.5" fill="#f5f5ec" font-size="8" text-anchor="end" font-weight="bold">OUT3</text>
<circle cx="620.0" cy="110.5" r="2.4" fill="#5dcaa5"/>
<text x="613.0" y="113.5" fill="#f5f5ec" font-size="8" text-anchor="end" font-weight="bold">OUT4</text>
<circle cx="620.0" cy="121.5" r="2.4" fill="#5dcaa5"/>
<text x="613.0" y="124.5" fill="#f5f5ec" font-size="8" text-anchor="end" font-weight="bold">OUT5</text>
<circle cx="620.0" cy="132.5" r="2.4" fill="#5dcaa5"/>
<text x="613.0" y="135.5" fill="#f5f5ec" font-size="8" text-anchor="end" font-weight="bold">OUT6</text>
<circle cx="620.0" cy="143.5" r="2.4" fill="#5dcaa5"/>
<text x="613.0" y="146.5" fill="#f5f5ec" font-size="8" text-anchor="end" font-weight="bold">OUT7</text>
<circle cx="620.0" cy="154.5" r="2.4" fill="#5dcaa5"/>
<text x="613.0" y="157.5" fill="#f5f5ec" font-size="8" text-anchor="end" font-weight="bold">OUT8</text>
<circle cx="620.0" cy="165.5" r="2.4" fill="#378add"/>
<text x="613.0" y="168.5" fill="#f5f5ec" font-size="8" text-anchor="end" font-weight="bold">DANTE</text>
<circle cx="620.0" cy="176.5" r="2.4" fill="#b07cd9"/>
<text x="613.0" y="179.5" fill="#f5f5ec" font-size="8" text-anchor="end" font-weight="bold">CTRL</text>
<circle cx="898.0" cy="77.5" r="2.4" fill="#5dcaa5"/>
<text x="905.0" y="80.5" fill="#f5f5ec" font-size="8" text-anchor="start" font-weight="bold">IN</text>
<circle cx="898.0" cy="88.5" r="2.4" fill="#378add"/>
<text x="905.0" y="91.5" fill="#f5f5ec" font-size="8" text-anchor="start" font-weight="bold">DANTE</text>
<circle cx="1036.0" cy="77.5" r="2.4" fill="#5dcaa5"/>
<text x="1029.0" y="80.5" fill="#f5f5ec" font-size="8" text-anchor="end" font-weight="bold">ZONE1</text>
<circle cx="1036.0" cy="88.5" r="2.4" fill="#5dcaa5"/>
<text x="1029.0" y="91.5" fill="#f5f5ec" font-size="8" text-anchor="end" font-weight="bold">ZONE2</text>
<circle cx="1036.0" cy="99.5" r="2.4" fill="#5dcaa5"/>
<text x="1029.0" y="102.5" fill="#f5f5ec" font-size="8" text-anchor="end" font-weight="bold">ZONE3</text>
<circle cx="1036.0" cy="110.5" r="2.4" fill="#5dcaa5"/>
<text x="1029.0" y="113.5" fill="#f5f5ec" font-size="8" text-anchor="end" font-weight="bold">ZONE4</text>
<circle cx="1036.0" cy="121.5" r="2.4" fill="#b07cd9"/>
<text x="1029.0" y="124.5" fill="#f5f5ec" font-size="8" text-anchor="end" font-weight="bold">CTRL</text>
<circle cx="1106.0" cy="77.5" r="2.4" fill="#5dcaa5"/>
<text x="1113.0" y="80.5" fill="#f5f5ec" font-size="8" text-anchor="start" font-weight="bold">IN1</text>
<circle cx="1106.0" cy="88.5" r="2.4" fill="#5dcaa5"/>
<text x="1113.0" y="91.5" fill="#f5f5ec" font-size="8" text-anchor="start" font-weight="bold">IN2</text>
<circle cx="1106.0" cy="99.5" r="2.4" fill="#5dcaa5"/>
<text x="1113.0" y="102.5" fill="#f5f5ec" font-size="8" text-anchor="start" font-weight="bold">IN3</text>
<circle cx="1106.0" cy="110.5" r="2.4" fill="#5dcaa5"/>
<text x="1113.0" y="113.5" fill="#f5f5ec" font-size="8" text-anchor="start" font-weight="bold">IN4</text>
<circle cx="1106.0" cy="121.5" r="2.4" fill="#378add"/>
<text x="1113.0" y="124.5" fill="#f5f5ec" font-size="8" text-anchor="start" font-weight="bold">DANTE</text>
<circle cx="1286.0" cy="77.5" r="2.4" fill="#b07cd9"/>
<text x="1279.0" y="80.5" fill="#f5f5ec" font-size="8" text-anchor="end" font-weight="bold">CTRL</text>
<circle cx="1286.0" cy="88.5" r="2.4" fill="#e8655a"/>
<text x="1279.0" y="91.5" fill="#f5f5ec" font-size="8" text-anchor="end" font-weight="bold">SPK1</text>
<circle cx="1286.0" cy="99.5" r="2.4" fill="#e8655a"/>
<text x="1279.0" y="102.5" fill="#f5f5ec" font-size="8" text-anchor="end" font-weight="bold">SPK2</text>
<circle cx="1286.0" cy="110.5" r="2.4" fill="#e8655a"/>
<text x="1279.0" y="113.5" fill="#f5f5ec" font-size="8" text-anchor="end" font-weight="bold">SPK3</text>
<circle cx="1286.0" cy="121.5" r="2.4" fill="#e8655a"/>
<text x="1279.0" y="124.5" fill="#f5f5ec" font-size="8" text-anchor="end" font-weight="bold">SPK4</text>
<circle cx="1106.0" cy="200.5" r="2.4" fill="#5dcaa5"/>
<text x="1113.0" y="203.5" fill="#f5f5ec" font-size="8" text-anchor="start" font-weight="bold">IN1</text>
<circle cx="1106.0" cy="211.5" r="2.4" fill="#5dcaa5"/>
<text x="1113.0" y="214.5" fill="#f5f5ec" font-size="8" text-anchor="start" font-weight="bold">IN2</text>
<circle cx="1106.0" cy="222.5" r="2.4" fill="#5dcaa5"/>
<text x="1113.0" y="225.5" fill="#f5f5ec" font-size="8" text-anchor="start" font-weight="bold">IN3</text>
<circle cx="1106.0" cy="233.5" r="2.4" fill="#5dcaa5"/>
<text x="1113.0" y="236.5" fill="#f5f5ec" font-size="8" text-anchor="start" font-weight="bold">IN4</text>
<circle cx="1106.0" cy="244.5" r="2.4" fill="#378add"/>
<text x="1113.0" y="247.5" fill="#f5f5ec" font-size="8" text-anchor="start" font-weight="bold">DANTE</text>
<circle cx="1286.0" cy="200.5" r="2.4" fill="#b07cd9"/>
<text x="1279.0" y="203.5" fill="#f5f5ec" font-size="8" text-anchor="end" font-weight="bold">CTRL</text>
<circle cx="1286.0" cy="211.5" r="2.4" fill="#e8655a"/>
<text x="1279.0" y="214.5" fill="#f5f5ec" font-size="8" text-anchor="end" font-weight="bold">SPK1</text>
<circle cx="1286.0" cy="222.5" r="2.4" fill="#e8655a"/>
<text x="1279.0" y="225.5" fill="#f5f5ec" font-size="8" text-anchor="end" font-weight="bold">SPK2</text>
<circle cx="1286.0" cy="233.5" r="2.4" fill="#e8655a"/>
<text x="1279.0" y="236.5" fill="#f5f5ec" font-size="8" text-anchor="end" font-weight="bold">SPK3</text>
<circle cx="1286.0" cy="244.5" r="2.4" fill="#e8655a"/>
<text x="1279.0" y="247.5" fill="#f5f5ec" font-size="8" text-anchor="end" font-weight="bold">SPK4</text>
<circle cx="1106.0" cy="323.5" r="2.4" fill="#5dcaa5"/>
<text x="1113.0" y="326.5" fill="#f5f5ec" font-size="8" text-anchor="start" font-weight="bold">IN1</text>
<circle cx="1106.0" cy="334.5" r="2.4" fill="#5dcaa5"/>
<text x="1113.0" y="337.5" fill="#f5f5ec" font-size="8" text-anchor="start" font-weight="bold">IN2</text>
<circle cx="1106.0" cy="345.5" r="2.4" fill="#5dcaa5"/>
<text x="1113.0" y="348.5" fill="#f5f5ec" font-size="8" text-anchor="start" font-weight="bold">IN3</text>
<circle cx="1106.0" cy="356.5" r="2.4" fill="#5dcaa5"/>
<text x="1113.0" y="359.5" fill="#f5f5ec" font-size="8" text-anchor="start" font-weight="bold">IN4</text>
<circle cx="1106.0" cy="367.5" r="2.4" fill="#378add"/>
<text x="1113.0" y="370.5" fill="#f5f5ec" font-size="8" text-anchor="start" font-weight="bold">DANTE</text>
<circle cx="1286.0" cy="323.5" r="2.4" fill="#b07cd9"/>
<text x="1279.0" y="326.5" fill="#f5f5ec" font-size="8" text-anchor="end" font-weight="bold">CTRL</text>
<circle cx="1286.0" cy="334.5" r="2.4" fill="#e8655a"/>
<text x="1279.0" y="337.5" fill="#f5f5ec" font-size="8" text-anchor="end" font-weight="bold">SPK1</text>
<circle cx="1286.0" cy="345.5" r="2.4" fill="#e8655a"/>
<text x="1279.0" y="348.5" fill="#f5f5ec" font-size="8" text-anchor="end" font-weight="bold">SPK2</text>
<circle cx="1286.0" cy="356.5" r="2.4" fill="#e8655a"/>
<text x="1279.0" y="359.5" fill="#f5f5ec" font-size="8" text-anchor="end" font-weight="bold">SPK3</text>
<circle cx="1286.0" cy="367.5" r="2.4" fill="#e8655a"/>
<text x="1279.0" y="370.5" fill="#f5f5ec" font-size="8" text-anchor="end" font-weight="bold">SPK4</text>
<circle cx="1106.0" cy="446.5" r="2.4" fill="#5dcaa5"/>
<text x="1113.0" y="449.5" fill="#f5f5ec" font-size="8" text-anchor="start" font-weight="bold">IN1</text>
<circle cx="1106.0" cy="457.5" r="2.4" fill="#5dcaa5"/>
<text x="1113.0" y="460.5" fill="#f5f5ec" font-size="8" text-anchor="start" font-weight="bold">IN2</text>
<circle cx="1106.0" cy="468.5" r="2.4" fill="#5dcaa5"/>
<text x="1113.0" y="471.5" fill="#f5f5ec" font-size="8" text-anchor="start" font-weight="bold">IN3</text>
<circle cx="1106.0" cy="479.5" r="2.4" fill="#5dcaa5"/>
<text x="1113.0" y="482.5" fill="#f5f5ec" font-size="8" text-anchor="start" font-weight="bold">IN4</text>
<circle cx="1106.0" cy="490.5" r="2.4" fill="#378add"/>
<text x="1113.0" y="493.5" fill="#f5f5ec" font-size="8" text-anchor="start" font-weight="bold">DANTE</text>
<circle cx="1286.0" cy="446.5" r="2.4" fill="#b07cd9"/>
<text x="1279.0" y="449.5" fill="#f5f5ec" font-size="8" text-anchor="end" font-weight="bold">CTRL</text>
<circle cx="1286.0" cy="457.5" r="2.4" fill="#e8655a"/>
<text x="1279.0" y="460.5" fill="#f5f5ec" font-size="8" text-anchor="end" font-weight="bold">SPK1</text>
<circle cx="1286.0" cy="468.5" r="2.4" fill="#e8655a"/>
<text x="1279.0" y="471.5" fill="#f5f5ec" font-size="8" text-anchor="end" font-weight="bold">SPK2</text>
<circle cx="1286.0" cy="479.5" r="2.4" fill="#e8655a"/>
<text x="1279.0" y="482.5" fill="#f5f5ec" font-size="8" text-anchor="end" font-weight="bold">SPK3</text>
<circle cx="1286.0" cy="490.5" r="2.4" fill="#e8655a"/>
<text x="1279.0" y="493.5" fill="#f5f5ec" font-size="8" text-anchor="end" font-weight="bold">SPK4</text>
<circle cx="1356.0" cy="77.5" r="2.4" fill="#e8655a"/>
<text x="1363.0" y="80.5" fill="#f5f5ec" font-size="8" text-anchor="start" font-weight="bold">SPK</text>
<circle cx="1356.0" cy="156.5" r="2.4" fill="#e8655a"/>
<text x="1363.0" y="159.5" fill="#f5f5ec" font-size="8" text-anchor="start" font-weight="bold">SPK</text>
<circle cx="1356.0" cy="235.5" r="2.4" fill="#e8655a"/>
<text x="1363.0" y="238.5" fill="#f5f5ec" font-size="8" text-anchor="start" font-weight="bold">SPK</text>
<circle cx="1356.0" cy="314.5" r="2.4" fill="#e8655a"/>
<text x="1363.0" y="317.5" fill="#f5f5ec" font-size="8" text-anchor="start" font-weight="bold">SPK</text>
<circle cx="1356.0" cy="393.5" r="2.4" fill="#e8655a"/>
<text x="1363.0" y="396.5" fill="#f5f5ec" font-size="8" text-anchor="start" font-weight="bold">SPK</text>
<circle cx="1356.0" cy="472.5" r="2.4" fill="#e8655a"/>
<text x="1363.0" y="475.5" fill="#f5f5ec" font-size="8" text-anchor="start" font-weight="bold">SPK</text>
<circle cx="1356.0" cy="551.5" r="2.4" fill="#e8655a"/>
<text x="1363.0" y="554.5" fill="#f5f5ec" font-size="8" text-anchor="start" font-weight="bold">SPK</text>
<circle cx="1356.0" cy="630.5" r="2.4" fill="#e8655a"/>
<text x="1363.0" y="633.5" fill="#f5f5ec" font-size="8" text-anchor="start" font-weight="bold">SPK</text>
<circle cx="1356.0" cy="709.5" r="2.4" fill="#e8655a"/>
<text x="1363.0" y="712.5" fill="#f5f5ec" font-size="8" text-anchor="start" font-weight="bold">SPK</text>
<circle cx="1356.0" cy="788.5" r="2.4" fill="#e8655a"/>
<text x="1363.0" y="791.5" fill="#f5f5ec" font-size="8" text-anchor="start" font-weight="bold">SPK</text>
<circle cx="1356.0" cy="867.5" r="2.4" fill="#e8655a"/>
<text x="1363.0" y="870.5" fill="#f5f5ec" font-size="8" text-anchor="start" font-weight="bold">SPK</text>
<circle cx="1356.0" cy="946.5" r="2.4" fill="#e8655a"/>
<text x="1363.0" y="949.5" fill="#f5f5ec" font-size="8" text-anchor="start" font-weight="bold">SPK</text>
<circle cx="1356.0" cy="1025.5" r="2.4" fill="#e8655a"/>
<text x="1363.0" y="1028.5" fill="#f5f5ec" font-size="8" text-anchor="start" font-weight="bold">SPK</text>
<circle cx="1356.0" cy="1104.5" r="2.4" fill="#e8655a"/>
<text x="1363.0" y="1107.5" fill="#f5f5ec" font-size="8" text-anchor="start" font-weight="bold">SPK</text>
<circle cx="1356.0" cy="1183.5" r="2.4" fill="#e8655a"/>
<text x="1363.0" y="1186.5" fill="#f5f5ec" font-size="8" text-anchor="start" font-weight="bold">SPK</text>
<circle cx="1356.0" cy="1262.5" r="2.4" fill="#e8655a"/>
<text x="1363.0" y="1265.5" fill="#f5f5ec" font-size="8" text-anchor="start" font-weight="bold">SPK</text>
<circle cx="732.3" cy="1374.0" r="2.4" fill="#378add"/>
<text x="732.3" y="1413.0" fill="#f5f5ec" font-size="8" text-anchor="middle" font-weight="bold">DANTE1</text>
<circle cx="748.0" cy="1374.0" r="2.4" fill="#378add"/>
<text x="748.0" y="1413.0" fill="#f5f5ec" font-size="8" text-anchor="middle" font-weight="bold">DANTE2</text>
<circle cx="763.7" cy="1374.0" r="2.4" fill="#378add"/>
<text x="763.7" y="1413.0" fill="#f5f5ec" font-size="8" text-anchor="middle" font-weight="bold">DANTE3</text>
<circle cx="779.4" cy="1374.0" r="2.4" fill="#378add"/>
<text x="779.4" y="1413.0" fill="#f5f5ec" font-size="8" text-anchor="middle" font-weight="bold">DANTE4</text>
<circle cx="795.1" cy="1374.0" r="2.4" fill="#378add"/>
<text x="795.1" y="1413.0" fill="#f5f5ec" font-size="8" text-anchor="middle" font-weight="bold">DANTE5</text>
<circle cx="810.8" cy="1374.0" r="2.4" fill="#378add"/>
<text x="810.8" y="1413.0" fill="#f5f5ec" font-size="8" text-anchor="middle" font-weight="bold">DANTE6</text>
<circle cx="826.5" cy="1374.0" r="2.4" fill="#378add"/>
<text x="826.5" y="1413.0" fill="#f5f5ec" font-size="8" text-anchor="middle" font-weight="bold">DANTE7</text>
<circle cx="842.2" cy="1374.0" r="2.4" fill="#378add"/>
<text x="842.2" y="1413.0" fill="#f5f5ec" font-size="8" text-anchor="middle" font-weight="bold">DANTE8</text>
<circle cx="857.9" cy="1374.0" r="2.4" fill="#378add"/>
<text x="857.9" y="1413.0" fill="#f5f5ec" font-size="8" text-anchor="middle" font-weight="bold">DANTE9</text>
<circle cx="873.6" cy="1374.0" r="2.4" fill="#378add"/>
<text x="873.6" y="1413.0" fill="#f5f5ec" font-size="8" text-anchor="middle" font-weight="bold">DANTE10</text>
<circle cx="889.3" cy="1374.0" r="2.4" fill="#378add"/>
<text x="889.3" y="1413.0" fill="#f5f5ec" font-size="8" text-anchor="middle" font-weight="bold">DANTE11</text>
<circle cx="905.0" cy="1374.0" r="2.4" fill="#378add"/>
<text x="905.0" y="1413.0" fill="#f5f5ec" font-size="8" text-anchor="middle" font-weight="bold">DANTE12</text>
<circle cx="920.7" cy="1374.0" r="2.4" fill="#378add"/>
<text x="920.7" y="1413.0" fill="#f5f5ec" font-size="8" text-anchor="middle" font-weight="bold">DANTE13</text>
</svg>