  0
SECTION
  2
HEADER
  9
$ACADVER
  1
AC1024
  9
$ACADMAINTVER
 70
6
  9
$DWGCODEPAGE
  3
ANSI_1252
  9
$LASTSAVEDBY
  1
ezdxf
  9
$INSBASE
 10
0.0
 20
0.0
 30
0.0
  9
$EXTMIN
 10
1e+20
 20
1e+20
 30
1e+20
  9
$EXTMAX
 10
-1e+20
 20
-1e+20
 30
-1e+20
  9
$LIMMIN
 10
0.0
 20
0.0
  9
$LIMMAX
 10
420.0
 20
297.0
  9
$ORTHOMODE
 70
0
  9
$REGENMODE
 70
1
  9
$FILLMODE
 70
1
  9
$QTEXTMODE
 70
0
  9
$MIRRTEXT
 70
1
  9
$LTSCALE
 40
1.0
  9
$ATTMODE
 70
1
  9
$TEXTSIZE
 40
2.5
  9
$TRACEWID
 40
1.0
  9
$TEXTSTYLE
  7
Standard
  9
$CLAYER
  8
0
  9
$CELTYPE
  6
ByLayer
  9
$CECOLOR
 62
256
  9
$CELTSCALE
 40
1.0
  9
$DISPSILH
 70
0
  9
$DIMSCALE
 40
1.0
  9
$DIMASZ
 40
2.5
  9
$DIMEXO
 40
0.625
  9
$DIMDLI
 40
3.75
  9
$DIMRND
 40
0.0
  9
$DIMDLE
 40
0.0
  9
$DIMEXE
 40
1.25
  9
$DIMTP
 40
0.0
  9
$DIMTM
 40
0.0
  9
$DIMTXT
 40
2.5
  9
$DIMCEN
 40
2.5
  9
$DIMTSZ
 40
0.0
  9
$DIMTOL
 70
0
  9
$DIMLIM
 70
0
  9
$DIMTIH
 70
0
  9
$DIMTOH
 70
0
  9
$DIMSE1
 70
0
  9
$DIMSE2
 70
0
  9
$DIMTAD
 70
1
  9
$DIMZIN
 70
8
  9
$DIMBLK
  1

  9
$DIMASO
 70
1
  9
$DIMSHO
 70
1
  9
$DIMPOST
  1

  9
$DIMAPOST
  1

  9
$DIMALT
 70
0
  9
$DIMALTD
 70
3
  9
$DIMALTF
 40
0.03937007874
  9
$DIMLFAC
 40
1.0
  9
$DIMTOFL
 70
1
  9
$DIMTVP
 40
0.0
  9
$DIMTIX
 70
0
  9
$DIMSOXD
 70
0
  9
$DIMSAH
 70
0
  9
$DIMBLK1
  1

  9
$DIMBLK2
  1

  9
$DIMSTYLE
  2
ISO-25
  9
$DIMCLRD
 70
0
  9
$DIMCLRE
 70
0
  9
$DIMCLRT
 70
0
  9
$DIMTFAC
 40
1.0
  9
$DIMGAP
 40
0.625
  9
$DIMJUST
 70
0
  9
$DIMSD1
 70
0
  9
$DIMSD2
 70
0
  9
$DIMTOLJ
 70
0
  9
$DIMTZIN
 70
8
  9
$DIMALTZ
 70
0
  9
$DIMALTTZ
 70
0
  9
$DIMUPT
 70
0
  9
$DIMDEC
 70
2
  9
$DIMTDEC
 70
2
  9
$DIMALTU
 70
2
  9
$DIMALTTD
 70
3
  9
$DIMTXSTY
  7
Standard
  9
$DIMAUNIT
 70
0
  9
$DIMADEC
 70
0
  9
$DIMALTRND
 40
0.0
  9
$DIMAZIN
 70
0
  9
$DIMDSEP
 70
44
  9
$DIMATFIT
 70
3
  9
$DIMFRAC
 70
0
  9
$DIMLDRBLK
  1

  9
$DIMLUNIT
 70
2
  9
$DIMLWD
 70
-2
  9
$DIMLWE
 70
-2
  9
$DIMTMOVE
 70
0
  9
$DIMFXL
 40
1.0
  9
$DIMFXLON
 70
0
  9
$DIMJOGANG
 40
0.785398163397
  9
$DIMTFILL
 70
0
  9
$DIMTFILLCLR
 70
0
  9
$DIMARCSYM
 70
0
  9
$DIMLTYPE
  6

  9
$DIMLTEX1
  6

  9
$DIMLTEX2
  6

  9
$DIMTXTDIRECTION
 70
0
  9
$LUNITS
 70
2
  9
$LUPREC
 70
4
  9
$SKETCHINC
 40
1.0
  9
$FILLETRAD
 40
10.0
  9
$AUNITS
 70
0
  9
$AUPREC
 70
2
  9
$MENU
  1
.
  9
$ELEVATION
 40
0.0
  9
$PELEVATION
 40
0.0
  9
$THICKNESS
 40
0.0
  9
$LIMCHECK
 70
0
  9
$CHAMFERA
 40
0.0
  9
$CHAMFERB
 40
0.0
  9
$CHAMFERC
 40
0.0
  9
$CHAMFERD
 40
0.0
  9
$SKPOLY
 70
0
  9
$TDCREATE
 40
2461282.7773495372
  9
$TDUCREATE
 40
2458532.153996898
  9
$TDUPDATE
 40
2461282.7773495372
  9
$TDUUPDATE
 40
2458532.1544311
  9
$TDINDWG
 40
0.0
  9
$TDUSRTIMER
 40
0.0
  9
$USRTIMER
 70
1
  9
$ANGBASE
 50
0.0
  9
$ANGDIR
 70
0
  9
$PDMODE
 70
0
  9
$PDSIZE
 40
0.0
  9
$PLINEWID
 40
0.0
  9
$SPLFRAME
 70
0
  9
$SPLINETYPE
 70
6
  9
$SPLINESEGS
 70
8
  9
$HANDSEED
  5
279
  9
$SURFTAB1
 70
6
  9
$SURFTAB2
 70
6
  9
$SURFTYPE
 70
6
  9
$SURFU
 70
6
  9
$SURFV
 70
6
  9
$UCSBASE
  2

  9
$UCSNAME
  2

  9
$UCSORG
 10
0.0
 20
0.0
 30
0.0
  9
$UCSXDIR
 10
1.0
 20
0.0
 30
0.0
  9
$UCSYDIR
 10
0.0
 20
1.0
 30
0.0
  9
$UCSORTHOREF
  2

  9
$UCSORTHOVIEW
 70
0
  9
$UCSORGTOP
 10
0.0
 20
0.0
 30
0.0
  9
$UCSORGBOTTOM
 10
0.0
 20
0.0
 30
0.0
  9
$UCSORGLEFT
 10
0.0
 20
0.0
 30
0.0
  9
$UCSORGRIGHT
 10
0.0
 20
0.0
 30
0.0
  9
$UCSORGFRONT
 10
0.0
 20
0.0
 30
0.0
  9
$UCSORGBACK
 10
0.0
 20
0.0
 30
0.0
  9
$PUCSBASE
  2

  9
$PUCSNAME
  2

  9
$PUCSORG
 10
0.0
 20
0.0
 30
0.0
  9
$PUCSXDIR
 10
1.0
 20
0.0
 30
0.0
  9
$PUCSYDIR
 10
0.0
 20
1.0
 30
0.0
  9
$PUCSORTHOREF
  2

  9
$PUCSORTHOVIEW
 70
0
  9
$PUCSORGTOP
 10
0.0
 20
0.0
 30
0.0
  9
$PUCSORGBOTTOM
 10
0.0
 20
0.0
 30
0.0
  9
$PUCSORGLEFT
 10
0.0
 20
0.0
 30
0.0
  9
$PUCSORGRIGHT
 10
0.0
 20
0.0
 30
0.0
  9
$PUCSORGFRONT
 10
0.0
 20
0.0
 30
0.0
  9
$PUCSORGBACK
 10
0.0
 20
0.0
 30
0.0
  9
$USERI1
 70
0
  9
$USERI2
 70
0
  9
$USERI3
 70
0
  9
$USERI4
 70
0
  9
$USERI5
 70
0
  9
$USERR1
 40
0.0
  9
$USERR2
 40
0.0
  9
$USERR3
 40
0.0
  9
$USERR4
 40
0.0
  9
$USERR5
 40
0.0
  9
$WORLDVIEW
 70
1
  9
$SHADEDGE
 70
3
  9
$SHADEDIF
 70
70
  9
$TILEMODE
 70
1
  9
$MAXACTVP
 70
64
  9
$PINSBASE
 10
0.0
 20
0.0
 30
0.0
  9
$PLIMCHECK
 70
0
  9
$PEXTMIN
 10
1e+20
 20
1e+20
 30
1e+20
  9
$PEXTMAX
 10
-1e+20
 20
-1e+20
 30
-1e+20
  9
$PLIMMIN
 10
0.0
 20
0.0
  9
$PLIMMAX
 10
420.0
 20
297.0
  9
$UNITMODE
 70
0
  9
$VISRETAIN
 70
1
  9
$PLINEGEN
 70
0
  9
$PSLTSCALE
 70
1
  9
$TREEDEPTH
 70
3020
  9
$CMLSTYLE
  2
Standard
  9
$CMLJUST
 70
0
  9
$CMLSCALE
 40
20.0
  9
$PROXYGRAPHICS
 70
1
  9
$MEASUREMENT
 70
1
  9
$CELWEIGHT
370
-1
  9
$ENDCAPS
280
0
  9
$JOINSTYLE
280
0
  9
$LWDISPLAY
290
0
  9
$INSUNITS
 70
6
  9
$HYPERLINKBASE
  1

  9
$STYLESHEET
  1

  9
$XEDIT
290
1
  9
$CEPSNTYPE
380
0
  9
$PSTYLEMODE
290
1
  9
$FINGERPRINTGUID
  2
{EC87C265-5FBA-4545-BE0D-9021408CC666}
  9
$VERSIONGUID
  2
{22BCEFB3-7017-418B-A0B3-B75E4CECB7C5}
  9
$EXTNAMES
290
1
  9
$PSVPSCALE
 40
0.0
  9
$OLESTARTUP
290
0
  9
$SORTENTS
280
127
  9
$INDEXCTL
280
0
  9
$HIDETEXT
280
1
  9
$XCLIPFRAME
280
1
  9
$HALOGAP
280
0
  9
$OBSCOLOR
 70
257
  9
$OBSLTYPE
280
0
  9
$INTERSECTIONDISPLAY
280
0
  9
$INTERSECTIONCOLOR
 70
257
  9
$DIMASSOC
280
2
  9
$PROJECTNAME
  1

  9
$CAMERADISPLAY
290
0
  9
$LENSLENGTH
 40
50.0
  9
$CAMERAHEIGHT
 40
0.0
  9
$STEPSPERSEC
 40
24.0
  9
$STEPSIZE
 40
100.0
  9
$3DDWFPREC
 40
2.0
  9
$PSOLWIDTH
 40
0.005
  9
$PSOLHEIGHT
 40
0.08
  9
$LOFTANG1
 40
1.570796326795
  9
$LOFTANG2
 40
1.570796326795
  9
$LOFTMAG1
 40
0.0
  9
$LOFTMAG2
 40
0.0
  9
$LOFTPARAM
 70
7
  9
$LOFTNORMALS
280
1
  9
$LATITUDE
 40
37.795
  9
$LONGITUDE
 40
-122.394
  9
$NORTHDIRECTION
 40
0.0
  9
$TIMEZONE
 70
-8000
  9
$LIGHTGLYPHDISPLAY
280
1
  9
$TILEMODELIGHTSYNCH
280
1
  9
$CMATERIAL
347
20
  9
$SOLIDHIST
280
0
  9
$SHOWHIST
280
1
  9
$DWFFRAME
280
2
  9
$DGNFRAME
280
2
  9
$REALWORLDSCALE
290
1
  9
$INTERFERECOLOR
 62
256
  9
$CSHADOW
280
0
  9
$SHADOWPLANELOCATION
 40
0.0
  0
ENDSEC
  0
SECTION
  2
CLASSES
  0
CLASS
  1
ACDBDICTIONARYWDFLT
  2
AcDbDictionaryWithDefault
  3
ObjectDBX Classes
 90
0
 91
0
280
0
281
0
  0
CLASS
  1
SUN
  2
AcDbSun
  3
SCENEOE
 90
1153
 91
0
280
0
281
0
  0
CLASS
  1
VISUALSTYLE
  2
AcDbVisualStyle
  3
ObjectDBX Classes
 90
4095
 91
0
280
0
281
0
  0
CLASS
  1
MATERIAL
  2
AcDbMaterial
  3
ObjectDBX Classes
 90
1153
 91
0
280
0
281
0
  0
CLASS
  1
SCALE
  2
AcDbScale
  3
ObjectDBX Classes
 90
1153
 91
0
280
0
281
0
  0
CLASS
  1
TABLESTYLE
  2
AcDbTableStyle
  3
ObjectDBX Classes
 90
4095
 91
0
280
0
281
0
  0
CLASS
  1
MLEADERSTYLE
  2
AcDbMLeaderStyle
  3
ACDB_MLEADERSTYLE_CLASS
 90
4095
 91
0
280
0
281
0
  0
CLASS
  1
DICTIONARYVAR
  2
AcDbDictionaryVar
  3
ObjectDBX Classes
 90
0
 91
0
280
0
281
0
  0
CLASS
  1
CELLSTYLEMAP
  2
AcDbCellStyleMap
  3
ObjectDBX Classes
 90
1152
 91
0
280
0
281
0
  0
CLASS
  1
MENTALRAYRENDERSETTINGS
  2
AcDbMentalRayRenderSettings
  3
SCENEOE
 90
1024
 91
0
280
0
281
0
  0
CLASS
  1
ACDBDETAILVIEWSTYLE
  2
AcDbDetailViewStyle
  3
ObjectDBX Classes
 90
1025
 91
0
280
0
281
0
  0
CLASS
  1
ACDBSECTIONVIEWSTYLE
  2
AcDbSectionViewStyle
  3
ObjectDBX Classes
 90
1025
 91
0
280
0
281
0
  0
CLASS
  1
RASTERVARIABLES
  2
AcDbRasterVariables
  3
ISM
 90
0
 91
0
280
0
281
0
  0
CLASS
  1
LAYOUT
  2
AcDbLayout
  3
ObjectDBX Classes
 90
0
 91
0
280
0
281
0
  0
CLASS
  1
ACDBPLACEHOLDER
  2
AcDbPlaceHolder
  3
ObjectDBX Classes
 90
0
 91
0
280
0
281
0
  0
ENDSEC
  0
SECTION
  2
TABLES
  0
TABLE
  2
VPORT
  5
8
330
0
100
AcDbSymbolTable
 70
1
  0
VPORT
  5
23
330
8
100
AcDbSymbolTableRecord
100
AcDbViewportTableRecord
  2
*Active
 70
0
 10
0.0
 20
0.0
 11
1.0
 21
1.0
 12
0.0
 22
0.0
 13
0.0
 23
0.0
 14
0.5
 24
0.5
 15
0.5
 25
0.5
 16
0.0
 26
0.0
 36
1.0
 17
0.0
 27
0.0
 37
0.0
 40
1000.0
 41
1.34
 42
50.0
 43
0.0
 44
0.0
 50
0.0
 51
0.0
 71
0
 72
1000
 73
1
 74
3
 75
0
 76
0
 77
0
 78
0
281
0
 65
0
146
0.0
  0
ENDTAB
  0
TABLE
  2
LTYPE
  5
2
330
0
100
AcDbSymbolTable
 70
3
  0
LTYPE
  5
24
330
2
100
AcDbSymbolTableRecord
100
AcDbLinetypeTableRecord
  2
ByBlock
 70
0
  3

 72
65
 73
0
 40
0.0
  0
LTYPE
  5
25
330
2
100
AcDbSymbolTableRecord
100
AcDbLinetypeTableRecord
  2
ByLayer
 70
0
  3

 72
65
 73
0
 40
0.0
  0
LTYPE
  5
26
330
2
100
AcDbSymbolTableRecord
100
AcDbLinetypeTableRecord
  2
Continuous
 70
0
  3

 72
65
 73
0
 40
0.0
  0
ENDTAB
  0
TABLE
  2
LAYER
  5
1
330
0
100
AcDbSymbolTable
 70
12
  0
LAYER
  5
27
330
1
100
AcDbSymbolTableRecord
100
AcDbLayerTableRecord
  2
0
 70
0
 62
7
  6
Continuous
370
-3
390
13
347
21
  0
LAYER
  5
28
330
1
100
AcDbSymbolTableRecord
100
AcDbLayerTableRecord
  2
Defpoints
 70
0
 62
7
  6
Continuous
290
0
370
-3
390
13
347
21
  0
LAYER
  5
2F
330
1
100
AcDbSymbolTableRecord
100
AcDbLayerTableRecord
  2
DEVICES
 70
0
 62
7
  6
Continuous
370
-3
390
13
347
21
  0
LAYER
  5
30
330
1
100
AcDbSymbolTableRecord
100
AcDbLayerTableRecord
  2
LABELS
 70
0
 62
7
  6
Continuous
370
-3
390
13
347
21
  0
LAYER
  5
31
330
1
100
AcDbSymbolTableRecord
100
AcDbLayerTableRecord
  2
PORTS
 70
0
 62
6
  6
Continuous
370
-3
390
13
347
21
  0
LAYER
  5
32
330
1
100
AcDbSymbolTableRecord
100
AcDbLayerTableRecord
  2
WIRES_ANALOG
 70
0
 62
4
  6
Continuous
370
-3
390
13
347
21
  0
LAYER
  5
33
330
1
100
AcDbSymbolTableRecord
100
AcDbLayerTableRecord
  2
WIRES_DIGITAL
 70
0
 62
4
  6
Continuous
370
-3
390
13
347
21
  0
LAYER
  5
34
330
1
100
AcDbSymbolTableRecord
100
AcDbLayerTableRecord
  2
WIRES_DANTE
 70
0
 62
5
  6
Continuous
370
-3
390
13
347
21
  0
LAYER
  5
35
330
1
100
AcDbSymbolTableRecord
100
AcDbLayerTableRecord
  2
WIRES_CONTROL
 70
0
 62
6
  6
Continuous
370
-3
390
13
347
21
  0
LAYER
  5
36
330
1
100
AcDbSymbolTableRecord
100
AcDbLayerTableRecord
  2
WIRES_RF
 70
0
 62
40
  6
Continuous
370
-3
390
13
347
21
  0
LAYER
  5
37
330
1
100
AcDbSymbolTableRecord
100
AcDbLayerTableRecord
  2
WIRES_SPEAKER
 70
0
 62
1
  6
Continuous
370
-3
390
13
347
21
  0
LAYER
  5
38
330
1
100
AcDbSymbolTableRecord
100
AcDbLayerTableRecord
  2
WIRES_POWER
 70
0
 62
8
  6
Continuous
370
-3
390
13
347
21
  0
ENDTAB
  0
TABLE
  2
STYLE
  5
5
330
0
100
AcDbSymbolTable
 70
2
  0
STYLE
  5
29
330
5
100
AcDbSymbolTableRecord
100
AcDbTextStyleTableRecord
  2
Standard
 70
0
 40
0.0
 41
1.0
 50
0.0
 71
0
 42
2.5
  3
txt
  4

  0
STYLE
  5
39
330
5
100
AcDbSymbolTableRecord
100
AcDbTextStyleTableRecord
  2
CJK
 70
0
 40
0.0
 41
1.0
 50
0.0
 71
0
 42
2.5
  3
simsun.ttc
  4

  0
ENDTAB
  0
TABLE
  2
VIEW
  5
7
330
0
100
AcDbSymbolTable
 70
0
  0
ENDTAB
  0
TABLE
  2
UCS
  5
6
330
0
100
AcDbSymbolTable
 70
0
  0
ENDTAB
  0
TABLE
  2
APPID
  5
3
330
0
100
AcDbSymbolTable
 70
3
  0
APPID
  5
2A
330
3
100
AcDbSymbolTableRecord
100
AcDbRegAppTableRecord
  2
ACAD
 70
0
  0
APPID
  5
276
330
3
100
AcDbSymbolTableRecord
100
AcDbRegAppTableRecord
  2
HATCHBACKGROUNDCOLOR
 70
0
  0
APPID
  5
277
330
3
100
AcDbSymbolTableRecord
100
AcDbRegAppTableRecord
  2
EZDXF
 70
0
  0
ENDTAB
  0
TABLE
  2
DIMSTYLE
  5
4
330
0
100
AcDbSymbolTable
 70
1
100
AcDbDimStyleTable
  0
DIMSTYLE
105
2B
330
4
100
AcDbSymbolTableRecord
100
AcDbDimStyleTableRecord
  2
Standard
 70
0
 40
1.0
 41
2.5
 42
0.625
 43
3.75
 44
1.25
 45
0.0
 46
0.0
 47
0.0
 48
0.0
 49
2.5
140
2.5
141
2.5
142
0.0
143
0.03937007874
144
1.0
145
0.0
146
1.0
147
0.625
148
0.0
 69
0
 70
0
 71
0
 72
0
 73
0
 74
0
 75
0
 76
0
 77
1
 78
8
 79
3
170
0
171
3
172
1
173
0
174
0
175
0
176
0
177
0
178
0
179
2
271
2
272
2
273
2
274
3
275
0
276
0
277
2
278
44
279
0
280
0
281
0
282
0
283
0
284
8
285
0
286
0
288
0
289
3
290
0
371
-2
372
-2
  0
ENDTAB
  0
TABLE
  2
BLOCK_RECORD
  5
9
330
0
100
AcDbSymbolTable
 70
2
  0
BLOCK_RECORD
  5
17
330
9
100
AcDbSymbolTableRecord
100
AcDbBlockTableRecord
  2
*Model_Space
340
1A
 70
0
280
1
281
0
  0
BLOCK_RECORD
  5
1B
330
9
100
AcDbSymbolTableRecord
100
AcDbBlockTableRecord
  2
*Paper_Space
340
1E
 70
0
280
1
281
0
  0
ENDTAB
  0
ENDSEC
  0
SECTION
  2
BLOCKS
  0
BLOCK
  5
18
330
17
100
AcDbEntity
  8
0
100
AcDbBlockBegin
  2
*Model_Space
 70
0
 10
0.0
 20
0.0
 30
0.0
  3
*Model_Space
  1

  0
ENDBLK
  5
19
330
17
100
AcDbEntity
  8
0
100
AcDbBlockEnd
  0
BLOCK
  5
1C
330
1B
100
AcDbEntity
  8
0
100
AcDbBlockBegin
  2
*Paper_Space
 70
0
 10
0.0
 20
0.0
 30
0.0
  3
*Paper_Space
  1

  0
ENDBLK
  5
1D
330
1B
100
AcDbEntity
  8
0
100
AcDbBlockEnd
  0
ENDSEC
  0
SECTION
  2
ENTITIES
  0
TEXT
  5
3A
330
17
100
AcDbEntity
  8
LABELS
420
15855592
100
AcDbText
 10
40.0
 20
-2078.0
 30
0.0
 40
12.0
  1
H · 公共广播（多分区固定安装）
  7
CJK
 11
40.0
 21
-2078.0
 31
0.0
100
AcDbText
  0
LWPOLYLINE
  5
3B
330
17
100
AcDbEntity
  8
DEVICES
 62
7
370
25
420
11842217
100
AcDbPolyline
 90
5
 70
0
 10
40.0
 20
-40.0
 10
178.0
 20
-40.0
 10
178.0
 20
-93.0
 10
40.0
 20
-93.0
 10
40.0
 20
-40.0
  0
TEXT
  5
3C
330
17
100
AcDbEntity
  8
LABELS
420
15855592
100
AcDbText
 10
109.0
 20
-52.0
 30
0.0
 40
9.0
  1
寻呼话筒
  7
CJK
 11
109.0
 21
-52.0
 31
0.0
100
AcDbText
  0
LWPOLYLINE
  5
3D
330
17
100
AcDbEntity
  8
DEVICES
 62
7
370
25
420
11842217
100
AcDbPolyline
 90
5
 70
0
 10
40.0
 20
-119.0
 10
178.0
 20
-119.0
 10
178.0
 20
-172.0
 10
40.0
 20
-172.0
 10
40.0
 20
-119.0
  0
TEXT
  5
3E
330
17
100
AcDbEntity
  8
LABELS
420
15855592
100
AcDbText
 10
109.0
 20
-131.0
 30
0.0
 40
9.0
  1
寻呼话筒
  7
CJK
 11
109.0
 21
-131.0
 31
0.0
100
AcDbText
  0
LWPOLYLINE
  5
3F
330
17
100
AcDbEntity
  8
DEVICES
 62
7
370
25
420
11842217
100
AcDbPolyline
 90
5
 70
0
 10
40.0
 20
-198.0
 10
178.0
 20
-198.0
 10
178.0
 20
-251.0
 10
40.0
 20
-251.0
 10
40.0
 20
-198.0
  0
TEXT
  5
40
330
17
100
AcDbEntity
  8
LABELS
420
15855592
100
AcDbText
 10
109.0
 20
-210.0
 30
0.0
 40
9.0
  1
寻呼话筒
  7
CJK
 11
109.0
 21
-210.0
 31
0.0
100
AcDbText
  0
LWPOLYLINE
  5
41
330
17
100
AcDbEntity
  8
DEVICES
 62
7
370
25
420
11842217
100
AcDbPolyline
 90
5
 70
0
 10
40.0
 20
-277.0
 10
178.0
 20
-277.0
 10
178.0
 20
-330.0
 10
40.0
 20
-330.0
 10
40.0
 20
-277.0
  0
TEXT
  5
42
330
17
100
AcDbEntity
  8
LABELS
420
15855592
100
AcDbText
 10
109.0
 20
-289.0
 30
0.0
 40
9.0
  1
寻呼话筒
  7
CJK
 11
109.0
 21
-289.0
 31
0.0
100
AcDbText
  0
LWPOLYLINE
  5
43
330
17
100
AcDbEntity
  8
DEVICES
 62
7
370
25
420
11842217
100
AcDbPolyline
 90
5
 70
0
 10
248.0
 20
-40.0
 10
386.0
 20
-40.0
 10
386.0
 20
-269.0
 10
248.0
 20
-269.0
 10
248.0
 20
-40.0
  0
TEXT
  5
44
330
17
100
AcDbEntity
  8
LABELS
420
15855592
100
AcDbText
 10
317.0
 20
-52.0
 30
0.0
 40
9.0
  1
分区矩阵调音台
  7
CJK
 11
317.0
 21
-52.0
 31
0.0
100
AcDbText
  0
LWPOLYLINE
  5
45
330
17
100
AcDbEntity
  8
DEVICES
 62
7
370
25
420
11842217
100
AcDbPolyline
 90
5
 70
0
 10
456.0
 20
-40.0
 10
594.0
 20
-40.0
 10
594.0
 20
-192.0
 10
456.0
 20
-192.0
 10
456.0
 20
-40.0
  0
TEXT
  5
46
330
17
100
AcDbEntity
  8
LABELS
420
15855592
100
AcDbText
 10
525.0
 20
-52.0
 30
0.0
 40
9.0
  1
广播处理器
  7
CJK
 11
525.0
 21
-52.0
 31
0.0
100
AcDbText
  0
TEXT
  5
47
330
17
100
AcDbEntity
  8
LABELS
420
12894904
100
AcDbText
 10
525.0
 20
-62.0
 30
0.0
 40
8.0
  1
BSS
  7
CJK
 11
525.0
 21
-62.0
 31
0.0
100
AcDbText
  0
TEXT
  5
48
330
17
100
AcDbEntity
  8
LABELS
420
10131341
100
AcDbText
 10
525.0
 20
-71.0
 30
0.0
 40
7.0
  1
BLU-806
  7
CJK
 11
525.0
 21
-71.0
 31
0.0
100
AcDbText
  0
LWPOLYLINE
  5
49
330
17
100
AcDbEntity
  8
DEVICES
 62
7
370
25
420
11842217
100
AcDbPolyline
 90
5
 70
0
 10
664.0
 20
-40.0
 10
802.0
 20
-40.0
 10
802.0
 20
-137.0
 10
664.0
 20
-137.0
 10
664.0
 20
-40.0
  0
TEXT
  5
4A
330
17
100
AcDbEntity
  8
LABELS
420
15855592
100
AcDbText
 10
733.0
 20
-52.0
 30
0.0
 40
9.0
  1
分区音箱管理
  7
CJK
 11
733.0
 21
-52.0
 31
0.0
100
AcDbText
  0
LWPOLYLINE
  5
4B
330
17
100
AcDbEntity
  8
DEVICES
 62
7
370
25
420
11842217
100
AcDbPolyline
 90
5
 70
0
 10
664.0
 20
-163.0
 10
802.0
 20
-163.0
 10
802.0
 20
-260.0
 10
664.0
 20
-260.0
 10
664.0
 20
-163.0
  0
TEXT
  5
4C
330
17
100
AcDbEntity
  8
LABELS
420
15855592
100
AcDbText
 10
733.0
 20
-175.0
 30
0.0
 40
9.0
  1
分区音箱管理
  7
CJK
 11
733.0
 21
-175.0
 31
0.0
100
AcDbText
  0
LWPOLYLINE
  5
4D
330
17
100
AcDbEntity
  8
DEVICES
 62
7
370
25
420
11842217
100
AcDbPolyline
 90
5
 70
0
 10
664.0
 20
-286.0
 10
802.0
 20
-286.0
 10
802.0
 20
-383.0
 10
664.0
 20
-383.0
 10
664.0
 20
-286.0
  0
TEXT
  5
4E
330
17
100
AcDbEntity
  8
LABELS
420
15855592
100
AcDbText
 10
733.0
 20
-298.0
 30
0.0
 40
9.0
  1
分区音箱管理
  7
CJK
 11
733.0
 21
-298.0
 31
0.0
100
AcDbText
  0
LWPOLYLINE
  5
4F
330
17
100
AcDbEntity
  8
DEVICES
 62
7
370
25
420
11842217
100
AcDbPolyline
 90
5
 70
0
 10
664.0
 20
-409.0
 10
802.0
 20
-409.0
 10
802.0
 20
-506.0
 10
664.0
 20
-506.0
 10
664.0
 20
-409.0
  0
TEXT
  5
50
330
17
100
AcDbEntity
  8
LABELS
420
15855592
100
AcDbText
 10
733.0
 20
-421.0
 30
0.0
 40
9.0
  1
分区音箱管理
  7
CJK
 11
733.0
 21
-421.0
 31
0.0
100
AcDbText
  0
LWPOLYLINE
  5
51
330
17
100
AcDbEntity
  8
DEVICES
 62
7
370
25
420
11842217
100
AcDbPolyline
 90
5
 70
0
 10
664.0
 20
-532.0
 10
802.0
 20
-532.0
 10
802.0
 20
-629.0
 10
664.0
 20
-629.0
 10
664.0
 20
-532.0
  0
TEXT
  5
52
330
17
100
AcDbEntity
  8
LABELS
420
15855592
100
AcDbText
 10
733.0
 20
-544.0
 30
0.0
 40
9.0
  1
分区音箱管理
  7
CJK
 11
733.0
 21
-544.0
 31
0.0
100
AcDbText
  0
LWPOLYLINE
  5
53
330
17
100
AcDbEntity
  8
DEVICES
 62
7
370
25
420
11842217
100
AcDbPolyline
 90
5
 70
0
 10
664.0
 20
-655.0
 10
802.0
 20
-655.0
 10
802.0
 20
-752.0
 10
664.0
 20
-752.0
 10
664.0
 20
-655.0
  0
TEXT
  5
54
330
17
100
AcDbEntity
  8
LABELS
420
15855592
100
AcDbText
 10
733.0
 20
-667.0
 30
0.0
 40
9.0
  1
分区音箱管理
  7
CJK
 11
733.0
 21
-667.0
 31
0.0
100
AcDbText
  0
LWPOLYLINE
  5
55
330
17
100
AcDbEntity
  8
DEVICES
 62
7
370
25
420
11842217
100
AcDbPolyline
 90
5
 70
0
 10
872.0
 20
-40.0
 10
1052.0
 20
-40.0
 10
1052.0
 20
-137.0
 10
872.0
 20
-137.0
 10
872.0
 20
-40.0
  0
TEXT
  5
56
330
17
100
AcDbEntity
  8
LABELS
420
15855592
100
AcDbText
 10
962.0
 20
-52.0
 30
0.0
 40
9.0
  1
分区功率放大器
  7
CJK
 11
962.0
 21
-52.0
 31
0.0
100
AcDbText
  0
TEXT
  5
57
330
17
100
AcDbEntity
  8
LABELS
420
12894904
100
AcDbText
 10
962.0
 20
-62.0
 30
0.0
 40
8.0
  1
Powersoft
  7
CJK
 11
962.0
 21
-62.0
 31
0.0
100
AcDbText
  0
TEXT
  5
58
330
17
100
AcDbEntity
  8
LABELS
420
10131341
100
AcDbText
 10
962.0
 20
-71.0
 30
0.0
 40
7.0
  1
Quattrocanali 4804
  7
CJK
 11
962.0
 21
-71.0
 31
0.0
100
AcDbText
  0
LWPOLYLINE
  5
59
330
17
100
AcDbEntity
  8
DEVICES
 62
7
370
25
420
11842217
100
AcDbPolyline
 90
5
 70
0
 10
872.0
 20
-163.0
 10
1052.0
 20
-163.0
 10
1052.0
 20
-260.0
 10
872.0
 20
-260.0
 10
872.0
 20
-163.0
  0
TEXT
  5
5A
330
17
100
AcDbEntity
  8
LABELS
420
15855592
100
AcDbText
 10
962.0
 20
-175.0
 30
0.0
 40
9.0
  1
分区功率放大器
  7
CJK
 11
962.0
 21
-175.0
 31
0.0
100
AcDbText
  0
TEXT
  5
5B
330
17
100
AcDbEntity
  8
LABELS
420
12894904
100
AcDbText
 10
962.0
 20
-185.0
 30
0.0
 40
8.0
  1
Powersoft
  7
CJK
 11
962.0
 21
-185.0
 31
0.0
100
AcDbText
  0
TEXT
  5
5C
330
17
100
AcDbEntity
  8
LABELS
420
10131341
100
AcDbText
 10
962.0
 20
-194.0
 30
0.0
 40
7.0
  1
Quattrocanali 4804
  7
CJK
 11
962.0
 21
-194.0
 31
0.0
100
AcDbText
  0
LWPOLYLINE
  5
5D
330
17
100
AcDbEntity
  8
DEVICES
 62
7
370
25
420
11842217
100
AcDbPolyline
 90
5
 70
0
 10
872.0
 20
-286.0
 10
1052.0
 20
-286.0
 10
1052.0
 20
-383.0
 10
872.0
 20
-383.0
 10
872.0
 20
-286.0
  0
TEXT
  5
5E
330
17
100
AcDbEntity
  8
LABELS
420
15855592
100
AcDbText
 10
962.0
 20
-298.0
 30
0.0
 40
9.0
  1
分区功率放大器
  7
CJK
 11
962.0
 21
-298.0
 31
0.0
100
AcDbText
  0
TEXT
  5
5F
330
17
100
AcDbEntity
  8
LABELS
420
12894904
100
AcDbText
 10
962.0
 20
-308.0
 30
0.0
 40
8.0
  1
Powersoft
  7
CJK
 11
962.0
 21
-308.0
 31
0.0
100
AcDbText
  0
TEXT
  5
60
330
17
100
AcDbEntity
  8
LABELS
420
10131341
100
AcDbText
 10
962.0
 20
-317.0
 30
0.0
 40
7.0
  1
Quattrocanali 4804
  7
CJK
 11
962.0
 21
-317.0
 31
0.0
100
AcDbText
  0
LWPOLYLINE
  5
61
330
17
100
AcDbEntity
  8
DEVICES
 62
7
370
25
420
11842217
100
AcDbPolyline
 90
5
 70
0
 10
872.0
 20
-409.0
 10
1052.0
 20
-409.0
 10
1052.0
 20
-506.0
 10
872.0
 20
-506.0
 10
872.0
 20
-409.0
  0
TEXT
  5
62
330
17
100
AcDbEntity
  8
LABELS
420
15855592
100
AcDbText
 10
962.0
 20
-421.0
 30
0.0
 40
9.0
  1
分区功率放大器
  7
CJK
 11
962.0
 21
-421.0
 31
0.0
100
AcDbText
  0
TEXT
  5
63
330
17
100
AcDbEntity
  8
LABELS
420
12894904
100
AcDbText
 10
962.0
 20
-431.0
 30
0.0
 40
8.0
  1
Powersoft
  7
CJK
 11
962.0
 21
-431.0
 31
0.0
100
AcDbText
  0
TEXT
  5
64
330
17
100
AcDbEntity
  8
LABELS
420
10131341
100
AcDbText
 10
962.0
 20
-440.0
 30
0.0
 40
7.0
  1
Quattrocanali 4804
  7
CJK
 11
962.0
 21
-440.0
 31
0.0
100
AcDbText
  0
LWPOLYLINE
  5
65
330
17
100
AcDbEntity
  8
DEVICES
 62
7
370
25
420
11842217
100
AcDbPolyline
 90
5
 70
0
 10
872.0
 20
-532.0
 10
1052.0
 20
-532.0
 10
1052.0
 20
-629.0
 10
872.0
 20
-629.0
 10
872.0
 20
-532.0
  0
TEXT
  5
66
330
17
100
AcDbEntity
  8
LABELS
420
15855592
100
AcDbText
 10
962.0
 20
-544.0
 30
0.0
 40
9.0
  1
分区功率放大器
  7
CJK
 11
962.0
 21
-544.0
 31
0.0
100
AcDbText
  0
TEXT
  5
67
330
17
100
AcDbEntity
  8
LABELS
420
12894904
100
AcDbText
 10
962.0
 20
-554.0
 30
0.0
 40
8.0
  1
Powersoft
  7
CJK
 11
962.0
 21
-554.0
 31
0.0
100
AcDbText
  0
TEXT
  5
68
330
17
100
AcDbEntity
  8
LABELS
420
10131341
100
AcDbText
 10
962.0
 20
-563.0
 30
0.0
 40
7.0
  1
Quattrocanali 4804
  7
CJK
 11
962.0
 21
-563.0
 31
0.0
100
AcDbText
  0
LWPOLYLINE
  5
69
330
17
100
AcDbEntity
  8
DEVICES
 62
7
370
25
420
11842217
100
AcDbPolyline
 90
5
 70
0
 10
872.0
 20
-655.0
 10
1052.0
 20
-655.0
 10
1052.0
 20
-752.0
 10
872.0
 20
-752.0
 10
872.0
 20
-655.0
  0
TEXT
  5
6A
330
17
100
AcDbEntity
  8
LABELS
420
15855592
100
AcDbText
 10
962.0
 20
-667.0
 30
0.0
 40
9.0
  1
分区功率放大器
  7
CJK
 11
962.0
 21
-667.0
 31
0.0
100
AcDbText
  0
TEXT
  5
6B
330
17
100
AcDbEntity
  8
LABELS
420
12894904
100
AcDbText
 10
962.0
 20
-677.0
 30
0.0
 40
8.0
  1
Powersoft
  7
CJK
 11
962.0
 21
-677.0
 31
0.0
100
AcDbText
  0
TEXT
  5
6C
330
17
100
AcDbEntity
  8
LABELS
420
10131341
100
AcDbText
 10
962.0
 20
-686.0
 30
0.0
 40
7.0
  1
Quattrocanali 4804
  7
CJK
 11
962.0
 21
-686.0
 31
0.0
100
AcDbText
  0
LWPOLYLINE
  5
6D
330
17
100
AcDbEntity
  8
DEVICES
 62
7
370
25
420
11842217
100
AcDbPolyline
 90
5
 70
0
 10
1122.0
 20
-40.0
 10
1260.0
 20
-40.0
 10
1260.0
 20
-93.0
 10
1122.0
 20
-93.0
 10
1122.0
 20
-40.0
  0
TEXT
  5
6E
330
17
100
AcDbEntity
  8
LABELS
420
15855592
100
AcDbText
 10
1191.0
 20
-52.0
 30
0.0
 40
9.0
  1
吸顶扬声器
  7
CJK
 11
1191.0
 21
-52.0
 31
0.0
100
AcDbText
  0
LWPOLYLINE
  5
6F
330
17
100
AcDbEntity
  8
DEVICES
 62
7
370
25
420
11842217
100
AcDbPolyline
 90
5
 70
0
 10
1122.0
 20
-119.0
 10
1260.0
 20
-119.0
 10
1260.0
 20
-172.0
 10
1122.0
 20
-172.0
 10
1122.0
 20
-119.0
  0
TEXT
  5
70
330
17
100
AcDbEntity
  8
LABELS
420
15855592
100
AcDbText
 10
1191.0
 20
-131.0
 30
0.0
 40
9.0
  1
吸顶扬声器
  7
CJK
 11
1191.0
 21
-131.0
 31
0.0
100
AcDbText
  0
LWPOLYLINE
  5
71
330
17
100
AcDbEntity
  8
DEVICES
 62
7
370
25
420
11842217
100
AcDbPolyline
 90
5
 70
0
 10
1122.0
 20
-198.0
 10
1260.0
 20
-198.0
 10
1260.0
 20
-251.0
 10
1122.0
 20
-251.0
 10
1122.0
 20
-198.0
  0
TEXT
  5
72
330
17
100
AcDbEntity
  8
LABELS
420
15855592
100
AcDbText
 10
1191.0
 20
-210.0
 30
0.0
 40
9.0
  1
吸顶扬声器
  7
CJK
 11
1191.0
 21
-210.0
 31
0.0
100
AcDbText
  0
LWPOLYLINE
  5
73
330
17
100
AcDbEntity
  8
DEVICES
 62
7
370
25
420
11842217
100
AcDbPolyline
 90
5
 70
0
 10
1122.0
 20
-277.0
 10
1260.0
 20
-277.0
 10
1260.0
 20
-330.0
 10
1122.0
 20
-330.0
 10
1122.0
 20
-277.0
  0
TEXT
  5
74
330
17
100
AcDbEntity
  8
LABELS
420
15855592
100
AcDbText
 10
1191.0
 20
-289.0
 30
0.0
 40
9.0
  1
吸顶扬声器
  7
CJK
 11
1191.0
 21
-289.0
 31
0.0
100
AcDbText
  0
LWPOLYLINE
  5
75
330
17
100
AcDbEntity
  8
DEVICES
 62
7
370
25
420
11842217
100
AcDbPolyline
 90
5
 70
0
 10
1122.0
 20
-356.0
 10
1260.0
 20
-356.0
 10
1260.0
 20
-409.0
 10
1122.0
 20
-409.0
 10
1122.0
 20
-356.0
  0
TEXT
  5
76
330
17
100
AcDbEntity
  8
LABELS
420
15855592
100
AcDbText
 10
1191.0
 20
-368.0
 30
0.0
 40
9.0
  1
吸顶扬声器
  7
CJK
 11
1191.0
 21
-368.0
 31
0.0
100
AcDbText
  0
LWPOLYLINE
  5
77
330
17
100
AcDbEntity
  8
DEVICES
 62
7
370
25
420
11842217
100
AcDbPolyline
 90
5
 70
0
 10
1122.0
 20
-435.0
 10
1260.0
 20
-435.0
 10
1260.0
 20
-488.0
 10
1122.0
 20
-488.0
 10
1122.0
 20
-435.0
  0
TEXT
  5
78
330
17
100
AcDbEntity
  8
LABELS
420
15855592
100
AcDbText
 10
1191.0
 20
-447.0
 30
0.0
 40
9.0
  1
吸顶扬声器
  7
CJK
 11
1191.0
 21
-447.0
 31
0.0
100
AcDbText
  0
LWPOLYLINE
  5
79
330
17
100
AcDbEntity
  8
DEVICES
 62
7
370
25
420
11842217
100
AcDbPolyline
 90
5
 70
0
 10
1122.0
 20
-514.0
 10
1260.0
 20
-514.0
 10
1260.0
 20
-567.0
 10
1122.0
 20
-567.0
 10
1122.0
 20
-514.0
  0
TEXT
  5
7A
330
17
100
AcDbEntity
  8
LABELS
420
15855592
100
AcDbText
 10
1191.0
 20
-526.0
 30
0.0
 40
9.0
  1
吸顶扬声器
  7
CJK
 11
1191.0
 21
-526.0
 31
0.0
100
AcDbText
  0
LWPOLYLINE
  5
7B
330
17
100
AcDbEntity
  8
DEVICES
 62
7
370
25
420
11842217
100
AcDbPolyline
 90
5
 70
0
 10
1122.0
 20
-593.0
 10
1260.0
 20
-593.0
 10
1260.0
 20
-646.0
 10
1122.0
 20
-646.0
 10
1122.0
 20
-593.0
  0
TEXT
  5
7C
330
17
100
AcDbEntity
  8
LABELS
420
15855592
100
AcDbText
 10
1191.0
 20
-605.0
 30
0.0
 40
9.0
  1
吸顶扬声器
  7
CJK
 11
1191.0
 21
-605.0
 31
0.0
100
AcDbText
  0
LWPOLYLINE
  5
7D
330
17
100
AcDbEntity
  8
DEVICES
 62
7
370
25
420
11842217
100
AcDbPolyline
 90
5
 70
0
 10
1122.0
 20
-672.0
 10
1260.0
 20
-672.0
 10
1260.0
 20
-725.0
 10
1122.0
 20
-725.0
 10
1122.0
 20
-672.0
  0
TEXT
  5
7E
330
17
100
AcDbEntity
  8
LABELS
420
15855592
100
AcDbText
 10
1191.0
 20
-684.0
 30
0.0
 40
9.0
  1
吸顶扬声器
  7
CJK
 11
1191.0
 21
-684.0
 31
0.0
100
AcDbText
  0
LWPOLYLINE
  5
7F
330
17
100
AcDbEntity
  8
DEVICES
 62
7
370
25
420
11842217
100
AcDbPolyline
 90
5
 70
0
 10
1122.0
 20
-751.0
 10
1260.0
 20
-751.0
 10
1260.0
 20
-804.0
 10
1122.0
 20
-804.0
 10
1122.0
 20
-751.0
  0
TEXT
  5
80
330
17
100
AcDbEntity
  8
LABELS
420
15855592
100
AcDbText
 10
1191.0
 20
-763.0
 30
0.0
 40
9.0
  1
吸顶扬声器
  7
CJK
 11
1191.0
 21
-763.0
 31
0.0
100
AcDbText
  0
LWPOLYLINE
  5
81
330
17
100
AcDbEntity
  8
DEVICES
 62
7
370
25
420
11842217
100
AcDbPolyline
 90
5
 70
0
 10
1122.0
 20
-830.0
 10
1260.0
 20
-830.0
 10
1260.0
 20
-883.0
 10
1122.0
 20
-883.0
 10
1122.0
 20
-830.0
  0
TEXT
  5
82
330
17
100
AcDbEntity
  8
LABELS
420
15855592
100
AcDbText
 10
1191.0
 20
-842.0
 30
0.0
 40
9.0
  1
吸顶扬声器
  7
CJK
 11
1191.0
 21
-842.0
 31
0.0
100
AcDbText
  0
LWPOLYLINE
  5
83
330
17
100
AcDbEntity
  8
DEVICES
 62
7
370
25
420
11842217
100
AcDbPolyline
 90
5
 70
0
 10
1122.0
 20
-909.0
 10
1260.0
 20
-909.0
 10
1260.0
 20
-962.0
 10
1122.0
 20
-962.0
 10
1122.0
 20
-909.0
  0
TEXT
  5
84
330
17
100
AcDbEntity
  8
LABELS
420
15855592
100
AcDbText
 10
1191.0
 20
-921.0
 30
0.0
 40
9.0
  1
吸顶扬声器
  7
CJK
 11
1191.0
 21
-921.0
 31
0.0
100
AcDbText
  0
LWPOLYLINE
  5
85
330
17
100
AcDbEntity
  8
DEVICES
 62
7
370
25
420
11842217
100
AcDbPolyline
 90
5
 70
0
 10
1122.0
 20
-988.0
 10
1260.0
 20
-988.0
 10
1260.0
 20
-1041.0
 10
1122.0
 20
-1041.0
 10
1122.0
 20
-988.0
  0
TEXT
  5
86
330
17
100
AcDbEntity
  8
LABELS
420
15855592
100
AcDbText
 10
1191.0
 20
-1000.0
 30
0.0
 40
9.0
  1
吸顶扬声器
  7
CJK
 11
1191.0
 21
-1000.0
 31
0.0
100
AcDbText
  0
LWPOLYLINE
  5
87
330
17
100
AcDbEntity
  8
DEVICES
 62
7
370
25
420
11842217
100
AcDbPolyline
 90
5
 70
0
 10
1122.0
 20
-1067.0
 10
1260.0
 20
-1067.0
 10
1260.0
 20
-1120.0
 10
1122.0
 20
-1120.0
 10
1122.0
 20
-1067.0
  0
TEXT
  5
88
330
17
100
AcDbEntity
  8
LABELS
420
15855592
100
AcDbText
 10
1191.0
 20
-1079.0
 30
0.0
 40
9.0
  1
吸顶扬声器
  7
CJK
 11
1191.0
 21
-1079.0
 31
0.0
100
AcDbText
  0
LWPOLYLINE
  5
89
330
17
100
AcDbEntity
  8
DEVICES
 62
7
370
25
420
11842217
100
AcDbPolyline
 90
5
 70
0
 10
1122.0
 20
-1146.0
 10
1260.0
 20
-1146.0
 10
1260.0
 20
-1199.0
 10
1122.0
 20
-1199.0
 10
1122.0
 20
-1146.0
  0
TEXT
  5
8A
330
17
100
AcDbEntity
  8
LABELS
420
15855592
100
AcDbText
 10
1191.0
 20
-1158.0
 30
0.0
 40
9.0
  1
吸顶扬声器
  7
CJK
 11
1191.0
 21
-1158.0
 31
0.0
100
AcDbText
  0
LWPOLYLINE
  5
8B
330
17
100
AcDbEntity
  8
DEVICES
 62
7
370
25
420
11842217
100
AcDbPolyline
 90
5
 70
0
 10
1122.0
 20
-1225.0
 10
1260.0
 20
-1225.0
 10
1260.0
 20
-1278.0
 10
1122.0
 20
-1278.0
 10
1122.0
 20
-1225.0
  0
TEXT
  5
8C
330
17
100
AcDbEntity
  8
LABELS
420
15855592
100
AcDbText
 10
1191.0
 20
-1237.0
 30
0.0
 40
9.0
  1
吸顶扬声器
  7
CJK
 11
1191.0
 21
-1237.0
 31
0.0
100
AcDbText
  0
LWPOLYLINE
  5
8D
330
17
100
AcDbEntity
  8
DEVICES
 62
7
370
25
420
11842217
100
AcDbPolyline
 90
5
 70
0
 10
1122.0
 20
-1304.0
 10
1260.0
 20
-1304.0
 10
1260.0
 20
-1357.0
 10
1122.0
 20
-1357.0
 10
1122.0
 20
-1304.0
  0
TEXT
  5
8E
330
17
100
AcDbEntity
  8
LABELS
420
15855592
100
AcDbText
 10
1191.0
 20
-1316.0
 30
0.0
 40
9.0
  1
壁挂扬声器
  7
CJK
 11
1191.0
 21
-1316.0
 31
0.0
100
AcDbText
  0
LWPOLYLINE
  5
8F
330
17
100
AcDbEntity
  8
DEVICES
 62
7
370
25
420
11842217
100
AcDbPolyline
 90
5
 70
0
 10
1122.0
 20
-1383.0
 10
1260.0
 20
-1383.0
 10
1260.0
 20
-1436.0
 10
1122.0
 20
-1436.0
 10
1122.0
 20
-1383.0
  0
TEXT
  5
90
330
17
100
AcDbEntity
  8
LABELS
420
15855592
100
AcDbText
 10
1191.0
 20
-1395.0
 30
0.0
 40
9.0
  1
壁挂扬声器
  7
CJK
 11
1191.0
 21
-1395.0
 31
0.0
100
AcDbText
  0
LWPOLYLINE
  5
91
330
17
100
AcDbEntity
  8
DEVICES
 62
7
370
25
420
11842217
100
AcDbPolyline
 90
5
 70
0
 10
1122.0
 20
-1462.0
 10
1260.0
 20
-1462.0
 10
1260.0
 20
-1515.0
 10
1122.0
 20
-1515.0
 10
1122.0
 20
-1462.0
  0
TEXT
  5
92
330
17
100
AcDbEntity
  8
LABELS
420
15855592
100
AcDbText
 10
1191.0
 20
-1474.0
 30
0.0
 40
9.0
  1
壁挂扬声器
  7
CJK
 11
1191.0
 21
-1474.0
 31
0.0
100
AcDbText
  0
LWPOLYLINE
  5
93
330
17
100
AcDbEntity
  8
DEVICES
 62
7
370
25
420
11842217
100
AcDbPolyline
 90
5
 70
0
 10
1122.0
 20
-1541.0
 10
1260.0
 20
-1541.0
 10
1260.0
 20
-1594.0
 10
1122.0
 20
-1594.0
 10
1122.0
 20
-1541.0
  0
TEXT
  5
94
330
17
100
AcDbEntity
  8
LABELS
420
15855592
100
AcDbText
 10
1191.0
 20
-1553.0
 30
0.0
 40
9.0
  1
壁挂扬声器
  7
CJK
 11
1191.0
 21
-1553.0
 31
0.0
100
AcDbText
  0
LWPOLYLINE
  5
95
330
17
100
AcDbEntity
  8
DEVICES
 62
7
370
25
420
11842217
100
AcDbPolyline
 90
5
 70
0
 10
1122.0
 20
-1620.0
 10
1260.0
 20
-1620.0
 10
1260.0
 20
-1673.0
 10
1122.0
 20
-1673.0
 10
1122.0
 20
-1620.0
  0
TEXT
  5
96
330
17
100
AcDbEntity
  8
LABELS
420
15855592
100
AcDbText
 10
1191.0
 20
-1632.0
 30
0.0
 40
9.0
  1
壁挂扬声器
  7
CJK
 11
1191.0
 21
-1632.0
 31
0.0
100
AcDbText
  0
LWPOLYLINE
  5
97
330
17
100
AcDbEntity
  8
DEVICES
 62
7
370
25
420
11842217
100
AcDbPolyline
 90
5
 70
0
 10
1122.0
 20
-1699.0
 10
1260.0
 20
-1699.0
 10
1260.0
 20
-1752.0
 10
1122.0
 20
-1752.0
 10
1122.0
 20
-1699.0
  0
TEXT
  5
98
330
17
100
AcDbEntity
  8
LABELS
420
15855592
100
AcDbText
 10
1191.0
 20
-1711.0
 30
0.0
 40
9.0
  1
壁挂扬声器
  7
CJK
 11
1191.0
 21
-1711.0
 31
0.0
100
AcDbText
  0
LWPOLYLINE
  5
99
330
17
100
AcDbEntity
  8
DEVICES
 62
7
370
25
420
11842217
100
AcDbPolyline
 90
5
 70
0
 10
1122.0
 20
-1778.0
 10
1260.0
 20
-1778.0
 10
1260.0
 20
-1831.0
 10
1122.0
 20
-1831.0
 10
1122.0
 20
-1778.0
  0
TEXT
  5
9A
330
17
100
AcDbEntity
  8
LABELS
420
15855592
100
AcDbText
 10
1191.0
 20
-1790.0
 30
0.0
 40
9.0
  1
壁挂扬声器
  7
CJK
 11
1191.0
 21
-1790.0
 31
0.0
100
AcDbText
  0
LWPOLYLINE
  5
9B
330
17
100
AcDbEntity
  8
DEVICES
 62
7
370
25
420
11842217
100
AcDbPolyline
 90
5
 70
0
 10
1122.0
 20
-1857.0
 10
1260.0
 20
-1857.0
 10
1260.0
 20
-1910.0
 10
1122.0
 20
-1910.0
 10
1122.0
 20
-1857.0
  0
TEXT
  5
9C
330
17
100
AcDbEntity
  8
LABELS
420
15855592
100
AcDbText
 10
1191.0
 20
-1869.0
 30
0.0
 40
9.0
  1
壁挂扬声器
  7
CJK
 11
1191.0
 21
-1869.0
 31
0.0
100
AcDbText
  0
LWPOLYLINE
  5
9D
330
17
100
AcDbEntity
  8
DEVICES
 62
7
370
25
420
11842217
100
AcDbPolyline
 90
5
 70
0
 10
545.0
 20
-2006.0
 10
835.0
 20
-2006.0
 10
835.0
 20
-2062.0
 10
545.0
 20
-2062.0
 10
545.0
 20
-2006.0
  0
TEXT
  5
9E
330
17
100
AcDbEntity
  8
LABELS
420
15855592
100
AcDbText
 10
690.0
 20
-2018.0
 30
0.0
 40
9.0
  1
Dante 交换机
  7
CJK
 11
690.0
 21
-2018.0
 31
0.0
100
AcDbText
  0
LWPOLYLINE
  5
9F
330
17
100
AcDbEntity
  8
WIRES_ANALOG
  6
CONTINUOUS
420
6146725
100
AcDbPolyline
 90
6
 70
0
 10
178.0
 20
-77.5
 10
188.0
 20
-77.5
 10
213.0
 20
-77.5
 10
213.0
 20
-77.5
 10
238.0
 20
-77.5
 10
248.0
 20
-77.5
  0
LWPOLYLINE
  5
A0
330
17
100
AcDbEntity
  8
WIRES_ANALOG
  6
CONTINUOUS
420
6146725
100
AcDbPolyline
 90
6
 70
0
 10
178.0
 20
-156.5
 10
188.0
 20
-156.5
 10
213.0
 20
-156.5
 10
213.0
 20
-88.5
 10
238.0
 20
-88.5
 10
248.0
 20
-88.5
  0
LWPOLYLINE
  5
A1
330
17
100
AcDbEntity
  8
WIRES_ANALOG
  6
CONTINUOUS
420
6146725
100
AcDbPolyline
 90
6
 70
0
 10
178.0
 20
-235.5
 10
188.0
 20
-235.5
 10
213.0
 20
-235.5
 10
213.0
 20
-99.5
 10
238.0
 20
-99.5
 10
248.0
 20
-99.5
  0
LWPOLYLINE
  5
A2
330
17
100
AcDbEntity
  8
WIRES_ANALOG
  6
CONTINUOUS
420
6146725
100
AcDbPolyline
 90
6
 70
0
 10
178.0
 20
-314.5
 10
188.0
 20
-314.5
 10
213.0
 20
-314.5
 10
213.0
 20
-110.5
 10
238.0
 20
-110.5
 10
248.0
 20
-110.5
  0
LWPOLYLINE
  5
A3
330
17
100
AcDbEntity
  8
WIRES_ANALOG
  6
CONTINUOUS
420
6146725
100
AcDbPolyline
 90
6
 70
0
 10
386.0
 20
-77.5
 10
396.0
 20
-77.5
 10
421.0
 20
-77.5
 10
421.0
 20
-77.5
 10
446.0
 20
-77.5
 10
456.0
 20
-77.5
  0
LWPOLYLINE
  5
A4
330
17
100
AcDbEntity
  8
WIRES_ANALOG
  6
CONTINUOUS
420
6146725
100
AcDbPolyline
 90
6
 70
0
 10
386.0
 20
-88.5
 10
396.0
 20
-88.5
 10
421.0
 20
-88.5
 10
421.0
 20
-88.5
 10
446.0
 20
-88.5
 10
456.0
 20
-88.5
  0
LWPOLYLINE
  5
A5
330
17
100
AcDbEntity
  8
WIRES_ANALOG
  6
CONTINUOUS
420
6146725
100
AcDbPolyline
 90
6
 70
0
 10
386.0
 20
-99.5
 10
396.0
 20
-99.5
 10
421.0
 20
-99.5
 10
421.0
 20
-99.5
 10
446.0
 20
-99.5
 10
456.0
 20
-99.5
  0
LWPOLYLINE
  5
A6
330
17
100
AcDbEntity
  8
WIRES_ANALOG
  6
CONTINUOUS
420
6146725
100
AcDbPolyline
 90
6
 70
0
 10
386.0
 20
-110.5
 10
396.0
 20
-110.5
 10
421.0
 20
-110.5
 10
421.0
 20
-110.5
 10
446.0
 20
-110.5
 10
456.0
 20
-110.5
  0
LWPOLYLINE
  5
A7
330
17
100
AcDbEntity
  8
WIRES_ANALOG
  6
CONTINUOUS
420
6146725
100
AcDbPolyline
 90
6
 70
0
 10
386.0
 20
-121.5
 10
396.0
 20
-121.5
 10
421.0
 20
-121.5
 10
421.0
 20
-121.5
 10
446.0
 20
-121.5
 10
456.0
 20
-121.5
  0
LWPOLYLINE
  5
A8
330
17
100
AcDbEntity
  8
WIRES_ANALOG
  6
CONTINUOUS
420
6146725
100
AcDbPolyline
 90
6
 70
0
 10
386.0
 20
-132.5
 10
396.0
 20
-132.5
 10
421.0
 20
-132.5
 10
421.0
 20
-132.5
 10
446.0
 20
-132.5
 10
456.0
 20
-132.5
  0
LWPOLYLINE
  5
A9
330
17
100
AcDbEntity
  8
WIRES_ANALOG
  6
CONTINUOUS
420
6146725
100
AcDbPolyline
 90
6
 70
0
 10
386.0
 20
-143.5
 10
396.0
 20
-143.5
 10
421.0
 20
-143.5
 10
421.0
 20
-143.5
 10
446.0
 20
-143.5
 10
456.0
 20
-143.5
  0
LWPOLYLINE
  5
AA
330
17
100
AcDbEntity
  8
WIRES_ANALOG
  6
CONTINUOUS
420
6146725
100
AcDbPolyline
 90
6
 70
0
 10
386.0
 20
-154.5
 10
396.0
 20
-154.5
 10
421.0
 20
-154.5
 10
421.0
 20
-154.5
 10
446.0
 20
-154.5
 10
456.0
 20
-154.5
  0
LWPOLYLINE
  5
AB
330
17
100
AcDbEntity
  8
WIRES_ANALOG
  6
CONTINUOUS
420
6146725
100
AcDbPolyline
 90
6
 70
0
 10
594.0
 20
-77.5
 10
604.0
 20
-77.5
 10
629.0
 20
-77.5
 10
629.0
 20
-77.5
 10
654.0
 20
-77.5
 10
664.0
 20
-77.5
  0
LWPOLYLINE
  5
AC
330
17
100
AcDbEntity
  8
WIRES_ANALOG
  6
CONTINUOUS
420
6146725
100
AcDbPolyline
 90
6
 70
0
 10
594.0
 20
-88.5
 10
604.0
 20
-88.5
 10
629.0
 20
-88.5
 10
629.0
 20
-200.5
 10
654.0
 20
-200.5
 10
664.0
 20
-200.5
  0
LWPOLYLINE
  5
AD
330
17
100
AcDbEntity
  8
WIRES_ANALOG
  6
CONTINUOUS
420
6146725
100
AcDbPolyline
 90
6
 70
0
 10
594.0
 20
-99.5
 10
604.0
 20
-99.5
 10
629.0
 20
-99.5
 10
629.0
 20
-323.5
 10
654.0
 20
-323.5
 10
664.0
 20
-323.5
  0
LWPOLYLINE
  5
AE
330
17
100
AcDbEntity
  8
WIRES_ANALOG
  6
CONTINUOUS
420
6146725
100
AcDbPolyline
 90
6
 70
0
 10
594.0
 20
-110.5
 10
604.0
 20
-110.5
 10
629.0
 20
-110.5
 10
629.0
 20
-446.5
 10
654.0
 20
-446.5
 10
664.0
 20
-446.5
  0
LWPOLYLINE
  5
AF
330
17
100
AcDbEntity
  8
WIRES_ANALOG
  6
CONTINUOUS
420
6146725
100
AcDbPolyline
 90
6
 70
0
 10
594.0
 20
-121.5
 10
604.0
 20
-121.5
 10
629.0
 20
-121.5
 10
629.0
 20
-569.5
 10
654.0
 20
-569.5
 10
664.0
 20
-569.5
  0
LWPOLYLINE
  5
B0
330
17
100
AcDbEntity
  8
WIRES_ANALOG
  6
CONTINUOUS
420
6146725
100
AcDbPolyline
 90
6
 70
0
 10
594.0
 20
-132.5
 10
604.0
 20
-132.5
 10
629.0
 20
-132.5
 10
629.0
 20
-692.5
 10
654.0
 20
-692.5
 10
664.0
 20
-692.5
  0
LWPOLYLINE
  5
B1
330
17
100
AcDbEntity
  8
WIRES_ANALOG
  6
CONTINUOUS
420
6146725
100
AcDbPolyline
 90
6
 70
0
 10
802.0
 20
-77.5
 10
812.0
 20
-77.5
 10
837.0
 20
-77.5
 10
837.0
 20
-77.5
 10
862.0
 20
-77.5
 10
872.0
 20
-77.5
  0
LWPOLYLINE
  5
B2
330
17
100
AcDbEntity
  8
WIRES_ANALOG
  6
CONTINUOUS
420
6146725
100
AcDbPolyline
 90
6
 70
0
 10
802.0
 20
-88.5
 10
812.0
 20
-88.5
 10
837.0
 20
-88.5
 10
837.0
 20
-88.5
 10
862.0
 20
-88.5
 10
872.0
 20
-88.5
  0
LWPOLYLINE
  5
B3
330
17
100
AcDbEntity
  8
WIRES_ANALOG
  6
CONTINUOUS
420
6146725
100
AcDbPolyline
 90
6
 70
0
 10
802.0
 20
-99.5
 10
812.0
 20
-99.5
 10
837.0
 20
-99.5
 10
837.0
 20
-99.5
 10
862.0
 20
-99.5
 10
872.0
 20
-99.5
  0
LWPOLYLINE
  5
B4
330
17
100
AcDbEntity
  8
WIRES_ANALOG
  6
CONTINUOUS
420
6146725
100
AcDbPolyline
 90
6
 70
0
 10
802.0
 20
-110.5
 10
812.0
 20
-110.5
 10
837.0
 20
-110.5
 10
837.0
 20
-110.5
 10
862.0
 20
-110.5
 10
872.0
 20
-110.5
  0
LWPOLYLINE
  5
B5
330
17
100
AcDbEntity
  8
WIRES_ANALOG
  6
CONTINUOUS
420
6146725
100
AcDbPolyline
 90
6
 70
0
 10
802.0
 20
-200.5
 10
812.0
 20
-200.5
 10
837.0
 20
-200.5
 10
837.0
 20
-200.5
 10
862.0
 20
-200.5
 10
872.0
 20
-200.5
  0
LWPOLYLINE
  5
B6
330
17
100
AcDbEntity
  8
WIRES_ANALOG
  6
CONTINUOUS
420
6146725
100
AcDbPolyline
 90
6
 70
0
 10
802.0
 20
-211.5
 10
812.0
 20
-211.5
 10
837.0
 20
-211.5
 10
837.0
 20
-211.5
 10
862.0
 20
-211.5
 10
872.0
 20
-211.5
  0
LWPOLYLINE
  5
B7
330
17
100
AcDbEntity
  8
WIRES_ANALOG
  6
CONTINUOUS
420
6146725
100
AcDbPolyline
 90
6
 70
0
 10
802.0
 20
-222.5
 10
812.0
 20
-222.5
 10
837.0
 20
-222.5
 10
837.0
 20
-222.5
 10
862.0
 20
-222.5
 10
872.0
 20
-222.5
  0
LWPOLYLINE
  5
B8
330
17
100
AcDbEntity
  8
WIRES_ANALOG
  6
CONTINUOUS
420
6146725
100
AcDbPolyline
 90
6
 70
0
 10
802.0
 20
-233.5
 10
812.0
 20
-233.5
 10
837.0
 20
-233.5
 10
837.0
 20
-233.5
 10
862.0
 20
-233.5
 10
872.0
 20
-233.5
  0
LWPOLYLINE
  5
B9
330
17
100
AcDbEntity
  8
WIRES_ANALOG
  6
CONTINUOUS
420
6146725
100
AcDbPolyline
 90
6
 70
0
 10
802.0
 20
-323.5
 10
812.0
 20
-323.5
 10
837.0
 20
-323.5
 10
837.0
 20
-323.5
 10
862.0
 20
-323.5
 10
872.0
 20
-323.5
  0
LWPOLYLINE
  5
BA
330
17
100
AcDbEntity
  8
WIRES_ANALOG
  6
CONTINUOUS
420
6146725
100
AcDbPolyline
 90
6
 70
0
 10
802.0
 20
-334.5
 10
812.0
 20
-334.5
 10
837.0
 20
-334.5
 10
837.0
 20
-334.5
 10
862.0
 20
-334.5
 10
872.0
 20
-334.5
  0
LWPOLYLINE
  5
BB
330
17
100
AcDbEntity
  8
WIRES_ANALOG
  6
CONTINUOUS
420
6146725
100
AcDbPolyline
 90
6
 70
0
 10
802.0
 20
-345.5
 10
812.0
 20
-345.5
 10
837.0
 20
-345.5
 10
837.0
 20
-345.5
 10
862.0
 20
-345.5
 10
872.0
 20
-345.5
  0
LWPOLYLINE
  5
BC
330
17
100
AcDbEntity
  8
WIRES_ANALOG
  6
CONTINUOUS
420
6146725
100
AcDbPolyline
 90
6
 70
0
 10
802.0
 20
-356.5
 10
812.0
 20
-356.5
 10
837.0
 20
-356.5
 10
837.0
 20
-356.5
 10
862.0
 20
-356.5
 10
872.0
 20
-356.5
  0
LWPOLYLINE
  5
BD
330
17
100
AcDbEntity
  8
WIRES_ANALOG
  6
CONTINUOUS
420
6146725
100
AcDbPolyline
 90
6
 70
0
 10
802.0
 20
-446.5
 10
812.0
 20
-446.5
 10
837.0
 20
-446.5
 10
837.0
 20
-446.5
 10
862.0
 20
-446.5
 10
872.0
 20
-446.5
  0
LWPOLYLINE
  5
BE
330
17
100
AcDbEntity
  8
WIRES_ANALOG
  6
CONTINUOUS
420
6146725
100
AcDbPolyline
 90
6
 70
0
 10
802.0
 20
-457.5
 10
812.0
 20
-457.5
 10
837.0
 20
-457.5
 10
837.0
 20
-457.5
 10
862.0
 20
-457.5
 10
872.0
 20
-457.5
  0
LWPOLYLINE
  5
BF
330
17
100
AcDbEntity
  8
WIRES_ANALOG
  6
CONTINUOUS
420
6146725
100
AcDbPolyline
 90
6
 70
0
 10
802.0
 20
-468.5
 10
812.0
 20
-468.5
 10
837.0
 20
-468.5
 10
837.0
 20
-468.5
 10
862.0
 20
-468.5
 10
872.0
 20
-468.5
  0
LWPOLYLINE
  5
C0
330
17
100
AcDbEntity
  8
WIRES_ANALOG
  6
CONTINUOUS
420
6146725
100
AcDbPolyline
 90
6
 70
0
 10
802.0
 20
-479.5
 10
812.0
 20
-479.5
 10
837.0
 20
-479.5
 10
837.0
 20
-479.5
 10
862.0
 20
-479.5
 10
872.0
 20
-479.5
  0
LWPOLYLINE
  5
C1
330
17
100
AcDbEntity
  8
WIRES_ANALOG
  6
CONTINUOUS
420
6146725
100
AcDbPolyline
 90
6
 70
0
 10
802.0
 20
-569.5
 10
812.0
 20
-569.5
 10
837.0
 20
-569.5
 10
837.0
 20
-569.5
 10
862.0
 20
-569.5
 10
872.0
 20
-569.5
  0
LWPOLYLINE
  5
C2
330
17
100
AcDbEntity
  8
WIRES_ANALOG
  6
CONTINUOUS
420
6146725
100
AcDbPolyline
 90
6
 70
0
 10
802.0
 20
-580.5
 10
812.0
 20
-580.5
 10
837.0
 20
-580.5
 10
837.0
 20
-580.5
 10
862.0
 20
-580.5
 10
872.0
 20
-580.5
  0
LWPOLYLINE
  5
C3
330
17
100
AcDbEntity
  8
WIRES_ANALOG
  6
CONTINUOUS
420
6146725
100
AcDbPolyline
 90
6
 70
0
 10
802.0
 20
-591.5
 10
812.0
 20
-591.5
 10
837.0
 20
-591.5
 10
837.0
 20
-591.5
 10
862.0
 20
-591.5
 10
872.0
 20
-591.5
  0
LWPOLYLINE
  5
C4
330
17
100
AcDbEntity
  8
WIRES_ANALOG
  6
CONTINUOUS
420
6146725
100
AcDbPolyline
 90
6
 70
0
 10
802.0
 20
-602.5
 10
812.0
 20
-602.5
 10
837.0
 20
-602.5
 10
837.0
 20
-602.5
 10
862.0
 20
-602.5
 10
872.0
 20
-602.5
  0
LWPOLYLINE
  5
C5
330
17
100
AcDbEntity
  8
WIRES_ANALOG
  6
CONTINUOUS
420
6146725
100
AcDbPolyline
 90
6
 70
0
 10
802.0
 20
-692.5
 10
812.0
 20
-692.5
 10
837.0
 20
-692.5
 10
837.0
 20
-692.5
 10
862.0
 20
-692.5
 10
872.0
 20
-692.5
  0
LWPOLYLINE
  5
C6
330
17
100
AcDbEntity
  8
WIRES_ANALOG
  6
CONTINUOUS
420
6146725
100
AcDbPolyline
 90
6
 70
0
 10
802.0
 20
-703.5
 10
812.0
 20
-703.5
 10
837.0
 20
-703.5
 10
837.0
 20
-703.5
 10
862.0
 20
-703.5
 10
872.0
 20
-703.5
  0
LWPOLYLINE
  5
C7
330
17
100
AcDbEntity
  8
WIRES_ANALOG
  6
CONTINUOUS
420
6146725
100
AcDbPolyline
 90
6
 70
0
 10
802.0
 20
-714.5
 10
812.0
 20
-714.5
 10
837.0
 20
-714.5
 10
837.0
 20
-714.5
 10
862.0
 20
-714.5
 10
872.0
 20
-714.5
  0
LWPOLYLINE
  5
C8
330
17
100
AcDbEntity
  8
WIRES_ANALOG
  6
CONTINUOUS
420
6146725
100
AcDbPolyline
 90
6
 70
0
 10
802.0
 20
-725.5
 10
812.0
 20
-725.5
 10
837.0
 20
-725.5
 10
837.0
 20
-725.5
 10
862.0
 20
-725.5
 10
872.0
 20
-725.5
  0
LWPOLYLINE
  5
C9
330
17
100
AcDbEntity
  8
WIRES_SPEAKER
  6
CONTINUOUS
420
15230298
100
AcDbPolyline
 90
6
 70
0
 10
1052.0
 20
-88.5
 10
1062.0
 20
-88.5
 10
1087.0
 20
-88.5
 10
1087.0
 20
-77.5
 10
1112.0
 20
-77.5
 10
1122.0
 20
-77.5
  0
LWPOLYLINE
  5
CA
330
17
100
AcDbEntity
  8
WIRES_SPEAKER
  6
CONTINUOUS
420
15230298
100
AcDbPolyline
 90
6
 70
0
 10
1052.0
 20
-99.5
 10
1062.0
 20
-99.5
 10
1087.0
 20
-99.5
 10
1087.0
 20
-551.5
 10
1112.0
 20
-551.5
 10
1122.0
 20
-551.5
  0
LWPOLYLINE
  5
CB
330
17
100
AcDbEntity
  8
WIRES_SPEAKER
  6
CONTINUOUS
420
15230298
100
AcDbPolyline
 90
6
 70
0
 10
1052.0
 20
-110.5
 10
1062.0
 20
-110.5
 10
1087.0
 20
-110.5
 10
1087.0
 20
-1025.5
 10
1112.0
 20
-1025.5
 10
1122.0
 20
-1025.5
  0
LWPOLYLINE
  5
CC
330
17
100
AcDbEntity
  8
WIRES_SPEAKER
  6
CONTINUOUS
420
15230298
100
AcDbPolyline
 90
6
 70
0
 10
1052.0
 20
-121.5
 10
1062.0
 20
-121.5
 10
1087.0
 20
-121.5
 10
1087.0
 20
-1499.5
 10
1112.0
 20
-1499.5
 10
1122.0
 20
-1499.5
  0
LWPOLYLINE
  5
CD
330
17
100
AcDbEntity
  8
WIRES_SPEAKER
  6
CONTINUOUS
420
15230298
100
AcDbPolyline
 90
6
 70
0
 10
1052.0
 20
-211.5
 10
1062.0
 20
-211.5
 10
1087.0
 20
-211.5
 10
1087.0
 20
-156.5
 10
1112.0
 20
-156.5
 10
1122.0
 20
-156.5
  0
LWPOLYLINE
  5
CE
330
17
100
AcDbEntity
  8
WIRES_SPEAKER
  6
CONTINUOUS
420
15230298
100
AcDbPolyline
 90
6
 70
0
 10
1052.0
 20
-222.5
 10
1062.0
 20
-222.5
 10
1087.0
 20
-222.5
 10
1087.0
 20
-630.5
 10
1112.0
 20
-630.5
 10
1122.0
 20
-630.5
  0
LWPOLYLINE
  5
CF
330
17
100
AcDbEntity
  8
WIRES_SPEAKER
  6
CONTINUOUS
420
15230298
100
AcDbPolyline
 90
6
 70
0
 10
1052.0
 20
-233.5
 10
1062.0
 20
-233.5
 10
1087.0
 20
-233.5
 10
1087.0
 20
-1104.5
 10
1112.0
 20
-1104.5
 10
1122.0
 20
-1104.5
  0
LWPOLYLINE
  5
D0
330
17
100
AcDbEntity
  8
WIRES_SPEAKER
  6
CONTINUOUS
420
15230298
100
AcDbPolyline
 90
6
 70
0
 10
1052.0
 20
-244.5
 10
1062.0
 20
-244.5
 10
1087.0
 20
-244.5
 10
1087.0
 20
-1578.5
 10
1112.0
 20
-1578.5
 10
1122.0
 20
-1578.5
  0
LWPOLYLINE
  5
D1
330
17
100
AcDbEntity
  8
WIRES_SPEAKER
  6
CONTINUOUS
420
15230298
100
AcDbPolyline
 90
6
 70
0
 10
1052.0
 20
-334.5
 10
1062.0
 20
-334.5
 10
1087.0
 20
-334.5
 10
1087.0
 20
-235.5
 10
1112.0
 20
-235.5
 10
1122.0
 20
-235.5
  0
LWPOLYLINE
  5
D2
330
17
100
AcDbEntity
  8
WIRES_SPEAKER
  6
CONTINUOUS
420
15230298
100
AcDbPolyline
 90
6
 70
0
 10
1052.0
 20
-345.5
 10
1062.0
 20
-345.5
 10
1087.0
 20
-345.5
 10
1087.0
 20
-709.5
 10
1112.0
 20
-709.5
 10
1122.0
 20
-709.5
  0
LWPOLYLINE
  5
D3
330
17
100
AcDbEntity
  8
WIRES_SPEAKER
  6
CONTINUOUS
420
15230298
100
AcDbPolyline
 90
6
 70
0
 10
1052.0
 20
-356.5
 10
1062.0
 20
-356.5
 10
1087.0
 20
-356.5
 10
1087.0
 20
-1183.5
 10
1112.0
 20
-1183.5
 10
1122.0
 20
-1183.5
  0
LWPOLYLINE
  5
D4
330
17
100
AcDbEntity
  8
WIRES_SPEAKER
  6
CONTINUOUS
420
15230298
100
AcDbPolyline
 90
6
 70
0
 10
1052.0
 20
-367.5
 10
1062.0
 20
-367.5
 10
1087.0
 20
-367.5
 10
1087.0
 20
-1657.5
 10
1112.0
 20
-1657.5
 10
1122.0
 20
-1657.5
  0
LWPOLYLINE
  5
D5
330
17
100
AcDbEntity
  8
WIRES_SPEAKER
  6
CONTINUOUS
420
15230298
100
AcDbPolyline
 90
6
 70
0
 10
1052.0
 20
-457.5
 10
1062.0
 20
-457.5
 10
1087.0
 20
-457.5
 10
1087.0
 20
-314.5
 10
1112.0
 20
-314.5
 10
1122.0
 20
-314.5
  0
LWPOLYLINE
  5
D6
330
17
100
AcDbEntity
  8
WIRES_SPEAKER
  6
CONTINUOUS
420
15230298
100
AcDbPolyline
 90
6
 70
0
 10
1052.0
 20
-468.5
 10
1062.0
 20
-468.5
 10
1087.0
 20
-468.5
 10
1087.0
 20
-788.5
 10
1112.0
 20
-788.5
 10
1122.0
 20
-788.5
  0
LWPOLYLINE
  5
D7
330
17
100
AcDbEntity
  8
WIRES_SPEAKER
  6
CONTINUOUS
420
15230298
100
AcDbPolyline
 90
6
 70
0
 10
1052.0
 20
-479.5
 10
1062.0
 20
-479.5
 10
1087.0
 20
-479.5
 10
1087.0
 20
-1262.5
 10
1112.0
 20
-1262.5
 10
1122.0
 20
-1262.5
  0
LWPOLYLINE
  5
D8
330
17
100
AcDbEntity
  8
WIRES_SPEAKER
  6
CONTINUOUS
420
15230298
100
AcDbPolyline
 90
6
 70
0
 10
1052.0
 20
-490.5
 10
1062.0
 20
-490.5
 10
1087.0
 20
-490.5
 10
1087.0
 20
-1736.5
 10
1112.0
 20
-1736.5
 10
1122.0
 20
-1736.5
  0
LWPOLYLINE
  5
D9
330
17
100
AcDbEntity
  8
WIRES_SPEAKER
  6
CONTINUOUS
420
15230298
100
AcDbPolyline
 90
6
 70
0
 10
1052.0
 20
-580.5
 10
1062.0
 20
-580.5
 10
1087.0
 20
-580.5
 10
1087.0
 20
-393.5
 10
1112.0
 20
-393.5
 10
1122.0
 20
-393.5
  0
LWPOLYLINE
  5
DA
330
17
100
AcDbEntity
  8
WIRES_SPEAKER
  6
CONTINUOUS
420
15230298
100
AcDbPolyline
 90
6
 70
0
 10
1052.0
 20
-591.5
 10
1062.0
 20
-591.5
 10
1087.0
 20
-591.5
 10
1087.0
 20
-867.5
 10
1112.0
 20
-867.5
 10
1122.0
 20
-867.5
  0
LWPOLYLINE
  5
DB
330
17
100
AcDbEntity
  8
WIRES_SPEAKER
  6
CONTINUOUS
420
15230298
100
AcDbPolyline
 90
6
 70
0
 10
1052.0
 20
-602.5
 10
1062.0
 20
-602.5
 10
1087.0
 20
-602.5
 10
1087.0
 20
-1341.5
 10
1112.0
 20
-1341.5
 10
1122.0
 20
-1341.5
  0
LWPOLYLINE
  5
DC
330
17
100
AcDbEntity
  8
WIRES_SPEAKER
  6
CONTINUOUS
420
15230298
100
AcDbPolyline
 90
6
 70
0
 10
1052.0
 20
-613.5
 10
1062.0
 20
-613.5
 10
1087.0
 20
-613.5
 10
1087.0
 20
-1815.5
 10
1112.0
 20
-1815.5
 10
1122.0
 20
-1815.5
  0
LWPOLYLINE
  5
DD
330
17
100
AcDbEntity
  8
WIRES_SPEAKER
  6
CONTINUOUS
420
15230298
100
AcDbPolyline
 90
6
 70
0
 10
1052.0
 20
-703.5
 10
1062.0
 20
-703.5
 10
1087.0
 20
-703.5
 10
1087.0
 20
-472.5
 10
1112.0
 20
-472.5
 10
1122.0
 20
-472.5
  0
LWPOLYLINE
  5
DE
330
17
100
AcDbEntity
  8
WIRES_SPEAKER
  6
CONTINUOUS
420
15230298
100
AcDbPolyline
 90
6
 70
0
 10
1052.0
 20
-714.5
 10
1062.0
 20
-714.5
 10
1087.0
 20
-714.5
 10
1087.0
 20
-946.5
 10
1112.0
 20
-946.5
 10
1122.0
 20
-946.5
  0
LWPOLYLINE
  5
DF
330
17
100
AcDbEntity
  8
WIRES_SPEAKER
  6
CONTINUOUS
420
15230298
100
AcDbPolyline
 90
6
 70
0
 10
1052.0
 20
-725.5
 10
1062.0
 20
-725.5
 10
1087.0
 20
-725.5
 10
1087.0
 20
-1420.5
 10
1112.0
 20
-1420.5
 10
1122.0
 20
-1420.5
  0
LWPOLYLINE
  5
E0
330
17
100
AcDbEntity
  8
WIRES_SPEAKER
  6
CONTINUOUS
420
15230298
100
AcDbPolyline
 90
6
 70
0
 10
1052.0
 20
-736.5
 10
1062.0
 20
-736.5
 10
1087.0
 20
-736.5
 10
1087.0
 20
-1894.5
 10
1112.0
 20
-1894.5
 10
1122.0
 20
-1894.5
  0
LWPOLYLINE
  5
E1
330
17
100
AcDbEntity
  8
WIRES_DANTE
  6
CONTINUOUS
420
3640029
100
AcDbPolyline
 90
2
 70
0
 10
210.0
 20
-1962.0
 10
858.0
 20
-1962.0
  0
LWPOLYLINE
  5
E2
330
17
100
AcDbEntity
  8
WIRES_DANTE
  6
CONTINUOUS
420
3640029
100
AcDbPolyline
 90
6
 70
0
 10
248.0
 20
-253.5
 10
238.0
 20
-253.5
 10
222.0
 20
-253.5
 10
222.0
 20
-1962.0
 10
560.6111111111111
 20
-1962.0
 10
560.6111111111111
 20
-2006.0
  0
LWPOLYLINE
  5
E3
330
17
100
AcDbEntity
  8
WIRES_DANTE
  6
CONTINUOUS
420
3640029
100
AcDbPolyline
 90
6
 70
0
 10
386.0
 20
-165.5
 10
396.0
 20
-165.5
 10
412.0
 20
-165.5
 10
412.0
 20
-1962.0
 10
575.8333333333333
 20
-1962.0
 10
575.8333333333333
 20
-2006.0
  0
LWPOLYLINE
  5
E4
330
17
100
AcDbEntity
  8
WIRES_DANTE
  6
CONTINUOUS
420
3640029
100
AcDbPolyline
 90
6
 70
0
 10
456.0
 20
-165.5
 10
446.0
 20
-165.5
 10
430.0
 20
-165.5
 10
430.0
 20
-1962.0
 10
591.0555555555555
 20
-1962.0
 10
591.0555555555555
 20
-2006.0
  0
LWPOLYLINE
  5
E5
330
17
100
AcDbEntity
  8
WIRES_DANTE
  6
CONTINUOUS
420
3640029
100
AcDbPolyline
 90
6
 70
0
 10
594.0
 20
-165.5
 10
604.0
 20
-165.5
 10
620.0
 20
-165.5
 10
620.0
 20
-1962.0
 10
606.2777777777777
 20
-1962.0
 10
606.2777777777777
 20
-2006.0
  0
LWPOLYLINE
  5
E6
330
17
100
AcDbEntity
  8
WIRES_DANTE
  6
CONTINUOUS
420
3640029
100
AcDbPolyline
 90
6
 70
0
 10
664.0
 20
-88.5
 10
654.0
 20
-88.5
 10
638.0
 20
-88.5
 10
638.0
 20
-1962.0
 10
621.5
 20
-1962.0
 10
621.5
 20
-2006.0
  0
LWPOLYLINE
  5
E7
330
17
100
AcDbEntity
  8
WIRES_DANTE
  6
CONTINUOUS
420
3640029
100
AcDbPolyline
 90
6
 70
0
 10
664.0
 20
-211.5
 10
654.0
 20
-211.5
 10
638.0
 20
-211.5
 10
638.0
 20
-1962.0
 10
636.7222222222222
 20
-1962.0
 10
636.7222222222222
 20
-2006.0
  0
LWPOLYLINE
  5
E8
330
17
100
AcDbEntity
  8
WIRES_DANTE
  6
CONTINUOUS
420
3640029
100
AcDbPolyline
 90
6
 70
0
 10
664.0
 20
-334.5
 10
654.0
 20
-334.5
 10
638.0
 20
-334.5
 10
638.0
 20
-1962.0
 10
651.9444444444445
 20
-1962.0
 10
651.9444444444445
 20
-2006.0
  0
LWPOLYLINE
  5
E9
330
17
100
AcDbEntity
  8
WIRES_DANTE
  6
CONTINUOUS
420
3640029
100
AcDbPolyline
 90
6
 70
0
 10
664.0
 20
-457.5
 10
654.0
 20
-457.5
 10
638.0
 20
-457.5
 10
638.0
 20
-1962.0
 10
667.1666666666666
 20
-1962.0
 10
667.1666666666666
 20
-2006.0
  0
LWPOLYLINE
  5
EA
330
17
100
AcDbEntity
  8
WIRES_DANTE
  6
CONTINUOUS
420
3640029
100
AcDbPolyline
 90
6
 70
0
 10
664.0
 20
-580.5
 10
654.0
 20
-580.5
 10
638.0
 20
-580.5
 10
638.0
 20
-1962.0
 10
682.3888888888889
 20
-1962.0
 10
682.3888888888889
 20
-2006.0
  0
LWPOLYLINE
  5
EB
330
17
100
AcDbEntity
  8
WIRES_DANTE
  6
CONTINUOUS
420
3640029
100
AcDbPolyline
 90
6
 70
0
 10
664.0
 20
-703.5
 10
654.0
 20
-703.5
 10
638.0
 20
-703.5
 10
638.0
 20
-1962.0
 10
697.6111111111111
 20
-1962.0
 10
697.6111111111111
 20
-2006.0
  0
LWPOLYLINE
  5
EC
330
17
100
AcDbEntity
  8
WIRES_DANTE
  6
CONTINUOUS
420
3640029
100
AcDbPolyline
 90
6
 70
0
 10
872.0
 20
-121.5
 10
862.0
 20
-121.5
 10
846.0
 20
-121.5
 10
846.0
 20
-1962.0
 10
712.8333333333333
 20
-1962.0
 10
712.8333333333333
 20
-2006.0
  0
LWPOLYLINE
  5
ED
330
17
100
AcDbEntity
  8
WIRES_DANTE
  6
CONTINUOUS
420
3640029
100
AcDbPolyline
 90
6
 70
0
 10
872.0
 20
-244.5
 10
862.0
 20
-244.5
 10
846.0
 20
-244.5
 10
846.0
 20
-1962.0
 10
728.0555555555555
 20
-1962.0
 10
728.0555555555555
 20
-2006.0
  0
LWPOLYLINE
  5
EE
330
17
100
AcDbEntity
  8
WIRES_DANTE
  6
CONTINUOUS
420
3640029
100
AcDbPolyline
 90
6
 70
0
 10
872.0
 20
-367.5
 10
862.0
 20
-367.5
 10
846.0
 20
-367.5
 10
846.0
 20
-1962.0
 10
743.2777777777777
 20
-1962.0
 10
743.2777777777777
 20
-2006.0
  0
LWPOLYLINE
  5
EF
330
17
100
AcDbEntity
  8
WIRES_DANTE
  6
CONTINUOUS
420
3640029
100
AcDbPolyline
 90
6
 70
0
 10
872.0
 20
-490.5
 10
862.0
 20
-490.5
 10
846.0
 20
-490.5
 10
846.0
 20
-1962.0
 10
758.5
 20
-1962.0
 10
758.5
 20
-2006.0
  0
LWPOLYLINE
  5
F0
330
17
100
AcDbEntity
  8
WIRES_DANTE
  6
CONTINUOUS
420
3640029
100
AcDbPolyline
 90
6
 70
0
 10
872.0
 20
-613.5
 10
862.0
 20
-613.5
 10
846.0
 20
-613.5
 10
846.0
 20
-1962.0
 10
773.7222222222222
 20
-1962.0
 10
773.7222222222222
 20
-2006.0
  0
LWPOLYLINE
  5
F1
330
17
100
AcDbEntity
  8
WIRES_DANTE
  6
CONTINUOUS
420
3640029
100
AcDbPolyline
 90
6
 70
0
 10
872.0
 20
-736.5
 10
862.0
 20
-736.5
 10
846.0
 20
-736.5
 10
846.0
 20
-1962.0
 10
788.9444444444443
 20
-1962.0
 10
788.9444444444443
 20
-2006.0
  0
CIRCLE
  5
F2
330
17
100
AcDbEntity
  8
PORTS
420
6146725
100
AcDbCircle
 10
178.0
 20
-77.5
 30
0.0
 40
2.4
  0
TEXT
  5
F3
330
17
100
AcDbEntity
  8
LABELS
420
16119276
100
AcDbText
 10
171.0
 20
-82.5
 30
0.0
 40
8.0
  1
OUT
  7
CJK
 11
171.0
 21
-82.5
 31
0.0
100
AcDbText
  0
CIRCLE
  5
F4
330
17
100
AcDbEntity
  8
PORTS
420
6146725
100
AcDbCircle
 10
178.0
 20
-156.5
 30
0.0
 40
2.4
  0
TEXT
  5
F5
330
17
100
AcDbEntity
  8
LABELS
420
16119276
100
AcDbText
 10
171.0
 20
-161.5
 30
0.0
 40
8.0
  1
OUT
  7
CJK
 11
171.0
 21
-161.5
 31
0.0
100
AcDbText
  0
CIRCLE
  5
F6
330
17
100
AcDbEntity
  8
PORTS
420
6146725
100
AcDbCircle
 10
178.0
 20
-235.5
 30
0.0
 40
2.4
  0
TEXT
  5
F7
330
17
100
AcDbEntity
  8
LABELS
420
16119276
100
AcDbText
 10
171.0
 20
-240.5
 30
0.0
 40
8.0
  1
OUT
  7
CJK
 11
171.0
 21
-240.5
 31
0.0
100
AcDbText
  0
CIRCLE
  5
F8
330
17
100
AcDbEntity
  8
PORTS
420
6146725
100
AcDbCircle
 10
178.0
 20
-314.5
 30
0.0
 40
2.4
  0
TEXT
  5
F9
330
17
100
AcDbEntity
  8
LABELS
420
16119276
100
AcDbText
 10
171.0
 20
-319.5
 30
0.0
 40
8.0
  1
OUT
  7
CJK
 11
171.0
 21
-319.5
 31
0.0
100
AcDbText
  0
CIRCLE
  5
FA
330
17
100
AcDbEntity
  8
PORTS
420
6146725
100
AcDbCircle
 10
248.0
 20
-77.5
 30
0.0
 40
2.4
  0
TEXT
  5
FB
330
17
100
AcDbEntity
  8
LABELS
420
16119276
100
AcDbText
 10
255.0
 20
-82.5
 30
0.0
 40
8.0
  1
IN1
  7
CJK
 11
255.0
 21
-82.5
 31
0.0
100
AcDbText
  0
CIRCLE
  5
FC
330
17
100
AcDbEntity
  8
PORTS
420
6146725
100
AcDbCircle
 10
248.0
 20
-88.5
 30
0.0
 40
2.4
  0
TEXT
  5
FD
330
17
100
AcDbEntity
  8
LABELS
420
16119276
100
AcDbText
 10
255.0
 20
-93.5
 30
0.0
 40
8.0
  1
IN2
  7
CJK
 11
255.0
 21
-93.5
 31
0.0
100
AcDbText
  0
CIRCLE
  5
FE
330
17
100
AcDbEntity
  8
PORTS
420
6146725
100
AcDbCircle
 10
248.0
 20
-99.5
 30
0.0
 40
2.4
  0
TEXT
  5
FF
330
17
100
AcDbEntity
  8
LABELS
420
16119276
100
AcDbText
 10
255.0
 20
-104.5
 30
0.0
 40
8.0
  1
IN3
  7
CJK
 11
255.0
 21
-104.5
 31
0.0
100
AcDbText
  0
CIRCLE
  5
100
330
17
100
AcDbEntity
  8
PORTS
420
6146725
100
AcDbCircle
 10
248.0
 20
-110.5
 30
0.0
 40
2.4
  0
TEXT
  5
101
330
17
100
AcDbEntity
  8
LABELS
420
16119276
100
AcDbText
 10
255.0
 20
-115.5
 30
0.0
 40
8.0
  1
IN4
  7
CJK
 11
255.0
 21
-115.5
 31
0.0
100
AcDbText
  0
CIRCLE
  5
102
330
17
100
AcDbEntity
  8
PORTS
420
6146725
100
AcDbCircle
 10
248.0
 20
-121.5
 30
0.0
 40
2.4
  0
TEXT
  5
103
330
17
100
AcDbEntity
  8
LABELS
420
16119276
100
AcDbText
 10
255.0
 20
-126.5
 30
0.0
 40
8.0
  1
IN5
  7
CJK
 11
255.0
 21
-126.5
 31
0.0
100
AcDbText
  0
CIRCLE
  5
104
330
17
100
AcDbEntity
  8
PORTS
420
6146725
100
AcDbCircle
 10
248.0
 20
-132.5
 30
0.0
 40
2.4
  0
TEXT
  5
105
330
17
100
AcDbEntity
  8
LABELS
420
16119276
100
AcDbText
 10
255.0
 20
-137.5
 30
0.0
 40
8.0
  1
IN6
  7
CJK
 11
255.0
 21
-137.5
 31
0.0
100
AcDbText
  0
CIRCLE
  5
106
330
17
100
AcDbEntity
  8
PORTS
420
6146725
100
AcDbCircle
 10
248.0
 20
-143.5
 30
0.0
 40
2.4
  0
TEXT
  5
107
330
17
100
AcDbEntity
  8
LABELS
420
16119276
100
AcDbText
 10
255.0
 20
-148.5
 30
0.0
 40
8.0
  1
IN7
  7
CJK
 11
255.0
 21
-148.5
 31
0.0
100
AcDbText
  0
CIRCLE
  5
108
330
17
100
AcDbEntity
  8
PORTS
420
6146725
100
AcDbCircle
 10
248.0
 20
-154.5
 30
0.0
 40
2.4
  0
TEXT
  5
109
330
17
100
AcDbEntity
  8
LABELS
420
16119276
100
AcDbText
 10
255.0
 20
-159.5
 30
0.0
 40
8.0
  1
IN8
  7
CJK
 11
255.0
 21
-159.5
 31
0.0
100
AcDbText
  0
CIRCLE
  5
10A
330
17
100
AcDbEntity
  8
PORTS
420
6146725
100
AcDbCircle
 10
248.0
 20
-165.5
 30
0.0
 40
2.4
  0
TEXT
  5
10B
330
17
100
AcDbEntity
  8
LABELS
420
16119276
100
AcDbText
 10
255.0
 20
-170.5
 30
0.0
 40
8.0
  1
IN9
  7
CJK
 11
255.0
 21
-170.5
 31
0.0
100
AcDbText
  0
CIRCLE
  5
10C
330
17
100
AcDbEntity
  8
PORTS
420
6146725
100
AcDbCircle
 10
248.0
 20
-176.5
 30
0.0
 40
2.4
  0
TEXT
  5
10D
330
17
100
AcDbEntity
  8
LABELS
420
16119276
100
AcDbText
 10
255.0
 20
-181.5
 30
0.0
 40
8.0
  1
IN10
  7
CJK
 11
255.0
 21
-181.5
 31
0.0
100
AcDbText
  0
CIRCLE
  5
10E
330
17
100
AcDbEntity
  8
PORTS
420
6146725
100
AcDbCircle
 10
248.0
 20
-187.5
 30
0.0
 40
2.4
  0
TEXT
  5
10F
330
17
100
AcDbEntity
  8
LABELS
420
16119276
100
AcDbText
 10
255.0
 20
-192.5
 30
0.0
 40
8.0
  1
IN11
  7
CJK
 11
255.0
 21
-192.5
 31
0.0
100
AcDbText
  0
CIRCLE
  5
110
330
17
100
AcDbEntity
  8
PORTS
420
6146725
100
AcDbCircle
 10
248.0
 20
-198.5
 30
0.0
 40
2.4
  0
TEXT
  5
111
330
17
100
AcDbEntity
  8
LABELS
420
16119276
100
AcDbText
 10
255.0
 20
-203.5
 30
0.0
 40
8.0
  1
IN12
  7
CJK
 11
255.0
 21
-203.5
 31
0.0
100
AcDbText
  0
CIRCLE
  5
112
330
17
100
AcDbEntity
  8
PORTS
420
6146725
100
AcDbCircle
 10
248.0
 20
-209.5
 30
0.0
 40
2.4
  0
TEXT
  5
113
330
17
100
AcDbEntity
  8
LABELS
420
16119276
100
AcDbText
 10
255.0
 20
-214.5
 30
0.0
 40
8.0
  1
IN13
  7
CJK
 11
255.0
 21
-214.5
 31
0.0
100
AcDbText
  0
CIRCLE
  5
114
330
17
100
AcDbEntity
  8
PORTS
420
6146725
100
AcDbCircle
 10
248.0
 20
-220.5
 30
0.0
 40
2.4
  0
TEXT
  5
115
330
17
100
AcDbEntity
  8
LABELS
420
16119276
100
AcDbText
 10
255.0
 20
-225.5
 30
0.0
 40
8.0
  1
IN14
  7
CJK
 11
255.0
 21
-225.5
 31
0.0
100
AcDbText
  0
CIRCLE
  5
116
330
17
100
AcDbEntity
  8
PORTS
420
6146725
100
AcDbCircle
 10
248.0
 20
-231.5
 30
0.0
 40
2.4
  0
TEXT
  5
117
330
17
100
AcDbEntity
  8
LABELS
420
16119276
100
AcDbText
 10
255.0
 20
-236.5
 30
0.0
 40
8.0
  1
IN15
  7
CJK
 11
255.0
 21
-236.5
 31
0.0
100
AcDbText
  0
CIRCLE
  5
118
330
17
100
AcDbEntity
  8
PORTS
420
6146725
100
AcDbCircle
 10
248.0
 20
-242.5
 30
0.0
 40
2.4
  0
TEXT
  5
119
330
17
100
AcDbEntity
  8
LABELS
420
16119276
100
AcDbText
 10
255.0
 20
-247.5
 30
0.0
 40
8.0
  1
IN16
  7
CJK
 11
255.0
 21
-247.5
 31
0.0
100
AcDbText
  0
CIRCLE
  5
11A
330
17
100
AcDbEntity
  8
PORTS
420
3640029
100
AcDbCircle
 10
248.0
 20
-253.5
 30
0.0
 40
2.4
  0
TEXT
  5
11B
330
17
100
AcDbEntity
  8
LABELS
420
16119276
100
AcDbText
 10
255.0
 20
-258.5
 30
0.0
 40
8.0
  1
DANTE
  7
CJK
 11
255.0
 21
-258.5
 31
0.0
100
AcDbText
  0
CIRCLE
  5
11C
330
17
100
AcDbEntity
  8
PORTS
420
6146725
100
AcDbCircle
 10
386.0
 20
-77.5
 30
0.0
 40
2.4
  0
TEXT
  5
11D
330
17
100
AcDbEntity
  8
LABELS
420
16119276
100
AcDbText
 10
379.0
 20
-82.5
 30
0.0
 40
8.0
  1
OUT1
  7
CJK
 11
379.0
 21
-82.5
 31
0.0
100
AcDbText
  0
CIRCLE
  5
11E
330
17
100
AcDbEntity
  8
PORTS
420
6146725
100
AcDbCircle
 10
386.0
 20
-88.5
 30
0.0
 40
2.4
  0
TEXT
  5
11F
330
17
100
AcDbEntity
  8
LABELS
420
16119276
100
AcDbText
 10
379.0
 20
-93.5
 30
0.0
 40
8.0
  1
OUT2
  7
CJK
 11
379.0
 21
-93.5
 31
0.0
100
AcDbText
  0
CIRCLE
  5
120
330
17
100
AcDbEntity
  8
PORTS
420
6146725
100
AcDbCircle
 10
386.0
 20
-99.5
 30
0.0
 40
2.4
  0
TEXT
  5
121
330
17
100
AcDbEntity
  8
LABELS
420
16119276
100
AcDbText
 10
379.0
 20
-104.5
 30
0.0
 40
8.0
  1
OUT3
  7
CJK
 11
379.0
 21
-104.5
 31
0.0
100
AcDbText
  0
CIRCLE
  5
122
330
17
100
AcDbEntity
  8
PORTS
420
6146725
100
AcDbCircle
 10
386.0
 20
-110.5
 30
0.0
 40
2.4
  0
TEXT
  5
123
330
17
100
AcDbEntity
  8
LABELS
420
16119276
100
AcDbText
 10
379.0
 20
-115.5
 30
0.0
 40
8.0
  1
OUT4
  7
CJK
 11
379.0
 21
-115.5
 31
0.0
100
AcDbText
  0
CIRCLE
  5
124
330
17
100
AcDbEntity
  8
PORTS
420
6146725
100
AcDbCircle
 10
386.0
 20
-121.5
 30
0.0
 40
2.4
  0
TEXT
  5
125
330
17
100
AcDbEntity
  8
LABELS
420
16119276
100
AcDbText
 10
379.0
 20
-126.5
 30
0.0
 40
8.0
  1
OUT5
  7
CJK
 11
379.0
 21
-126.5
 31
0.0
100
AcDbText
  0
CIRCLE
  5
126
330
17
100
AcDbEntity
  8
PORTS
420
6146725
100
AcDbCircle
 10
386.0
 20
-132.5
 30
0.0
 40
2.4
  0
TEXT
  5
127
330
17
100
AcDbEntity
  8
LABELS
420
16119276
100
AcDbText
 10
379.0
 20
-137.5
 30
0.0
 40
8.0
  1
OUT6
  7
CJK
 11
379.0
 21
-137.5
 31
0.0
100
AcDbText
  0
CIRCLE
  5
128
330
17
100
AcDbEntity
  8
PORTS
420
6146725
100
AcDbCircle
 10
386.0
 20
-143.5
 30
0.0
 40
2.4
  0
TEXT
  5
129
330
17
100
AcDbEntity
  8
LABELS
420
16119276
100
AcDbText
 10
379.0
 20
-148.5
 30
0.0
 40
8.0
  1
OUT7
  7
CJK
 11
379.0
 21
-148.5
 31
0.0
100
AcDbText
  0
CIRCLE
  5
12A
330
17
100
AcDbEntity
  8
PORTS
420
6146725
100
AcDbCircle
 10
386.0
 20
-154.5
 30
0.0
 40
2.4
  0
TEXT
  5
12B
330
17
100
AcDbEntity
  8
LABELS
420
16119276
100
AcDbText
 10
379.0
 20
-159.5
 30
0.0
 40
8.0
  1
OUT8
  7
CJK
 11
379.0
 21
-159.5
 31
0.0
100
AcDbText
  0
CIRCLE
  5
12C
330
17
100
AcDbEntity
  8
PORTS
420
3640029
100
AcDbCircle
 10
386.0
 20
-165.5
 30
0.0
 40
2.4
  0
TEXT
  5
12D
330
17
100
AcDbEntity
  8
LABELS
420
16119276
100
AcDbText
 10
379.0
 20
-170.5
 30
0.0
 40
8.0
  1
DANTE
  7
CJK
 11
379.0
 21
-170.5
 31
0.0
100
AcDbText
  0
CIRCLE
  5
12E
330
17
100
AcDbEntity
  8
PORTS
420
11566297
100
AcDbCircle
 10
386.0
 20
-176.5
 30
0.0
 40
2.4
  0
TEXT
  5
12F
330
17
100
AcDbEntity
  8
LABELS
420
16119276
100
AcDbText
 10
379.0
 20
-181.5
 30
0.0
 40
8.0
  1
CTRL
  7
CJK
 11
379.0
 21
-181.5
 31
0.0
100
AcDbText
  0
CIRCLE
  5
130
330
17
100
AcDbEntity
  8
PORTS
420
6146725
100
AcDbCircle
 10
456.0
 20
-77.5
 30
0.0
 40
2.4
  0
TEXT
  5
131
330
17
100
AcDbEntity
  8
LABELS
420
16119276
100
AcDbText
 10
463.0
 20
-82.5
 30
0.0
 40
8.0
  1
IN1
  7
CJK
 11
463.0
 21
-82.5
 31
0.0
100
AcDbText
  0
CIRCLE
  5
132
330
17
100
AcDbEntity
  8
PORTS
420
6146725
100
AcDbCircle
 10
456.0
 20
-88.5
 30
0.0
 40
2.4
  0
TEXT
  5
133
330
17
100
AcDbEntity
  8
LABELS
420
16119276
100
AcDbText
 10
463.0
 20
-93.5
 30
0.0
 40
8.0
  1
IN2
  7
CJK
 11
463.0
 21
-93.5
 31
0.0
100
AcDbText
  0
CIRCLE
  5
134
330
17
100
AcDbEntity
  8
PORTS
420
6146725
100
AcDbCircle
 10
456.0
 20
-99.5
 30
0.0
 40
2.4
  0
TEXT
  5
135
330
17
100
AcDbEntity
  8
LABELS
420
16119276
100
AcDbText
 10
463.0
 20
-104.5
 30
0.0
 40
8.0
  1
IN3
  7
CJK
 11
463.0
 21
-104.5
 31
0.0
100
AcDbText
  0
CIRCLE
  5
136
330
17
100
AcDbEntity
  8
PORTS
420
6146725
100
AcDbCircle
 10
456.0
 20
-110.5
 30
0.0
 40
2.4
  0
TEXT
  5
137
330
17
100
AcDbEntity
  8
LABELS
420
16119276
100
AcDbText
 10
463.0
 20
-115.5
 30
0.0
 40
8.0
  1
IN4
  7
CJK
 11
463.0
 21
-115.5
 31
0.0
100
AcDbText
  0
CIRCLE
  5
138
330
17
100
AcDbEntity
  8
PORTS
420
6146725
100
AcDbCircle
 10
456.0
 20
-121.5
 30
0.0
 40
2.4
  0
TEXT
  5
139
330
17
100
AcDbEntity
  8
LABELS
420
16119276
100
AcDbText
 10
463.0
 20
-126.5
 30
0.0
 40
8.0
  1
IN5
  7
CJK
 11
463.0
 21
-126.5
 31
0.0
100
AcDbText
  0
CIRCLE
  5
13A
330
17
100
AcDbEntity
  8
PORTS
420
6146725
100
AcDbCircle
 10
456.0
 20
-132.5
 30
0.0
 40
2.4
  0
TEXT
  5
13B
330
17
100
AcDbEntity
  8
LABELS
420
16119276
100
AcDbText
 10
463.0
 20
-137.5
 30
0.0
 40
8.0
  1
IN6
  7
CJK
 11
463.0
 21
-137.5
 31
0.0
100
AcDbText
  0
CIRCLE
  5
13C
330
17
100
AcDbEntity
  8
PORTS
420
6146725
100
AcDbCircle
 10
456.0
 20
-143.5
 30
0.0
 40
2.4
  0
TEXT
  5
13D
330
17
100
AcDbEntity
  8
LABELS
420
16119276
100
AcDbText
 10
463.0
 20
-148.5
 30
0.0
 40
8.0
  1
IN7
  7
CJK
 11
463.0
 21
-148.5
 31
0.0
100
AcDbText
  0
CIRCLE
  5
13E
330
17
100
AcDbEntity
  8
PORTS
420
6146725
100
AcDbCircle
 10
456.0
 20
-154.5
 30
0.0
 40
2.4
  0
TEXT
  5
13F
330
17
100
AcDbEntity
  8
LABELS
420
16119276
100
AcDbText
 10
463.0
 20
-159.5
 30
0.0
 40
8.0
  1
IN8
  7
CJK
 11
463.0
 21
-159.5
 31
0.0
100
AcDbText
  0
CIRCLE
  5
140
330
17
100
AcDbEntity
  8
PORTS
420
3640029
100
AcDbCircle
 10
456.0
 20
-165.5
 30
0.0
 40
2.4
  0
TEXT
  5
141
330
17
100
AcDbEntity
  8
LABELS
420
16119276
100
AcDbText
 10
463.0
 20
-170.5
 30
0.0
 40
8.0
  1
DANTE
  7
CJK
 11
463.0
 21
-170.5
 31
0.0
100
AcDbText
  0
CIRCLE
  5
142
330
17
100
AcDbEntity
  8
PORTS
420
6146725
100
AcDbCircle
 10
594.0
 20
-77.5
 30
0.0
 40
2.4
  0
TEXT
  5
143
330
17
100
AcDbEntity
  8
LABELS
420
16119276
100
AcDbText
 10
587.0
 20
-82.5
 30
0.0
 40
8.0
  1
OUT1
  7
CJK
 11
587.0
 21
-82.5
 31
0.0
100
AcDbText
  0
CIRCLE
  5
144
330
17
100
AcDbEntity
  8
PORTS
420
6146725
100
AcDbCircle
 10
594.0
 20
-88.5
 30
0.0
 40
2.4
  0
TEXT
  5
145
330
17
100
AcDbEntity
  8
LABELS
420
16119276
100
AcDbText
 10
587.0
 20
-93.5
 30
0.0
 40
8.0
  1
OUT2
  7
CJK
 11
587.0
 21
-93.5
 31
0.0
100
AcDbText
  0
CIRCLE
  5
146
330
17
100
AcDbEntity
  8
PORTS
420
6146725
100
AcDbCircle
 10
594.0
 20
-99.5
 30
0.0
 40
2.4
  0
TEXT
  5
147
330
17
100
AcDbEntity
  8
LABELS
420
16119276
100
AcDbText
 10
587.0
 20
-104.5
 30
0.0
 40
8.0
  1
OUT3
  7
CJK
 11
587.0
 21
-104.5
 31
0.0
100
AcDbText
  0
CIRCLE
  5
148
330
17
100
AcDbEntity
  8
PORTS
420
6146725
100
AcDbCircle
 10
594.0
 20
-110.5
 30
0.0
 40
2.4
  0
TEXT
  5
149
330
17
100
AcDbEntity
  8
LABELS
420
16119276
100
AcDbText
 10
587.0
 20
-115.5
 30
0.0
 40
8.0
  1
OUT4
  7
CJK
 11
587.0
 21
-115.5
 31
0.0
100
AcDbText
  0
CIRCLE
  5
14A
330
17
100
AcDbEntity
  8
PORTS
420
6146725
100
AcDbCircle
 10
594.0
 20
-121.5
 30
0.0
 40
2.4
  0
TEXT
  5
14B
330
17
100
AcDbEntity
  8
LABELS
420
16119276
100
AcDbText
 10
587.0
 20
-126.5
 30
0.0
 40
8.0
  1
OUT5
  7
CJK
 11
587.0
 21
-126.5
 31
0.0
100
AcDbText
  0
CIRCLE
  5
14C
330
17
100
AcDbEntity
  8
PORTS
420
6146725
100
AcDbCircle
 10
594.0
 20
-132.5
 30
0.0
 40
2.4
  0
TEXT
  5
14D
330
17
100
AcDbEntity
  8
LABELS
420
16119276
100
AcDbText
 10
587.0
 20
-137.5
 30
0.0
 40
8.0
  1
OUT6
  7
CJK
 11
587.0
 21
-137.5
 31
0.0
100
AcDbText
  0
CIRCLE
  5
14E
330
17
100
AcDbEntity
  8
PORTS
420
6146725
100
AcDbCircle
 10
594.0
 20
-143.5
 30
0.0
 40
2.4
  0
TEXT
  5
14F
330
17
100
AcDbEntity
  8
LABELS
420
16119276
100
AcDbText
 10
587.0
 20
-148.5
 30
0.0
 40
8.0
  1
OUT7
  7
CJK
 11
587.0
 21
-148.5
 31
0.0
100
AcDbText
  0
CIRCLE
  5
150
330
17
100
AcDbEntity
  8
PORTS
420
6146725
100
AcDbCircle
 10
594.0
 20
-154.5
 30
0.0
 40
2.4
  0
TEXT
  5
151
330
17
100
AcDbEntity
  8
LABELS
420
16119276
100
AcDbText
 10
587.0
 20
-159.5
 30
0.0
 40
8.0
  1
OUT8
  7
CJK
 11
587.0
 21
-159.5
 31
0.0
100
AcDbText
  0
CIRCLE
  5
152
330
17
100
AcDbEntity
  8
PORTS
420
3640029
100
AcDbCircle
 10
594.0
 20
-165.5
 30
0.0
 40
2.4
  0
TEXT
  5
153
330
17
100
AcDbEntity
  8
LABELS
420
16119276
100
AcDbText
 10
587.0
 20
-170.5
 30
0.0
 40
8.0
  1
DANTE
  7
CJK
 11
587.0
 21
-170.5
 31
0.0
100
AcDbText
  0
CIRCLE
  5
154
330
17
100
AcDbEntity
  8
PORTS
420
11566297
100
AcDbCircle
 10
594.0
 20
-176.5
 30
0.0
 40
2.4
  0
TEXT
  5
155
330
17
100
AcDbEntity
  8
LABELS
420
16119276
100
AcDbText
 10
587.0
 20
-181.5
 30
0.0
 40
8.0
  1
CTRL
  7
CJK
 11
587.0
 21
-181.5
 31
0.0
100
AcDbText
  0
CIRCLE
  5
156
330
17
100
AcDbEntity
  8
PORTS
420
6146725
100
AcDbCircle
 10
664.0
 20
-77.5
 30
0.0
 40
2.4
  0
TEXT
  5
157
330
17
100
AcDbEntity
  8
LABELS
420
16119276
100
AcDbText
 10
671.0
 20
-82.5
 30
0.0
 40
8.0
  1
IN
  7
CJK
 11
671.0
 21
-82.5
 31
0.0
100
AcDbText
  0
CIRCLE
  5
158
330
17
100
AcDbEntity
  8
PORTS
420
3640029
100
AcDbCircle
 10
664.0
 20
-88.5
 30
0.0
 40
2.4
  0
TEXT
  5
159
330
17
100
AcDbEntity
  8
LABELS
420
16119276
100
AcDbText
 10
671.0
 20
-93.5
 30
0.0
 40
8.0
  1
DANTE
  7
CJK
 11
671.0
 21
-93.5
 31
0.0
100
AcDbText
  0
CIRCLE
  5
15A
330
17
100
AcDbEntity
  8
PORTS
420
6146725
100
AcDbCircle
 10
802.0
 20
-77.5
 30
0.0
 40
2.4
  0
TEXT
  5
15B
330
17
100
AcDbEntity
  8
LABELS
420
16119276
100
AcDbText
 10
795.0
 20
-82.5
 30
0.0
 40
8.0
  1
ZONE1
  7
CJK
 11
795.0
 21
-82.5
 31
0.0
100
AcDbText
  0
CIRCLE
  5
15C
330
17
100
AcDbEntity
  8
PORTS
420
6146725
100
AcDbCircle
 10
802.0
 20
-88.5
 30
0.0
 40
2.4
  0
TEXT
  5
15D
330
17
100
AcDbEntity
  8
LABELS
420
16119276
100
AcDbText
 10
795.0
 20
-93.5
 30
0.0
 40
8.0
  1
ZONE2
  7
CJK
 11
795.0
 21
-93.5
 31
0.0
100
AcDbText
  0
CIRCLE
  5
15E
330
17
100
AcDbEntity
  8
PORTS
420
6146725
100
AcDbCircle
 10
802.0
 20
-99.5
 30
0.0
 40
2.4
  0
TEXT
  5
15F
330
17
100
AcDbEntity
  8
LABELS
420
16119276
100
AcDbText
 10
795.0
 20
-104.5
 30
0.0
 40
8.0
  1
ZONE3
  7
CJK
 11
795.0
 21
-104.5
 31
0.0
100
AcDbText
  0
CIRCLE
  5
160
330
17
100
AcDbEntity
  8
PORTS
420
6146725
100
AcDbCircle
 10
802.0
 20
-110.5
 30
0.0
 40
2.4
  0
TEXT
  5
161
330
17
100
AcDbEntity
  8
LABELS
420
16119276
100
AcDbText
 10
795.0
 20
-115.5
 30
0.0
 40
8.0
  1
ZONE4
  7
CJK
 11
795.0
 21
-115.5
 31
0.0
100
AcDbText
  0
CIRCLE
  5
162
330
17
100
AcDbEntity
  8
PORTS
420
11566297
100
AcDbCircle
 10
802.0
 20
-121.5
 30
0.0
 40
2.4
  0
TEXT
  5
163
330
17
100
AcDbEntity
  8
LABELS
420
16119276
100
AcDbText
 10
795.0
 20
-126.5
 30
0.0
 40
8.0
  1
CTRL
  7
CJK
 11
795.0
 21
-126.5
 31
0.0
100
AcDbText
  0
CIRCLE
  5
164
330
17
100
AcDbEntity
  8
PORTS
420
6146725
100
AcDbCircle
 10
664.0
 20
-200.5
 30
0.0
 40
2.4
  0
TEXT
  5
165
330
17
100
AcDbEntity
  8
LABELS
420
16119276
100
AcDbText
 10
671.0
 20
-205.5
 30
0.0
 40
8.0
  1
IN
  7
CJK
 11
671.0
 21
-205.5
 31
0.0
100
AcDbText
  0
CIRCLE
  5
166
330
17
100
AcDbEntity
  8
PORTS
420
3640029
100
AcDbCircle
 10
664.0
 20
-211.5
 30
0.0
 40
2.4
  0
TEXT
  5
167
330
17
100
AcDbEntity
  8
LABELS
420
16119276
100
AcDbText
 10
671.0
 20
-216.5
 30
0.0
 40
8.0
  1
DANTE
  7
CJK
 11
671.0
 21
-216.5
 31
0.0
100
AcDbText
  0
CIRCLE
  5
168
330
17
100
AcDbEntity
  8
PORTS
420
6146725
100
AcDbCircle
 10
802.0
 20
-200.5
 30
0.0
 40
2.4
  0
TEXT
  5
169
330
17
100
AcDbEntity
  8
LABELS
420
16119276
100
AcDbText
 10
795.0
 20
-205.5
 30
0.0
 40
8.0
  1
ZONE1
  7
CJK
 11
795.0
 21
-205.5
 31
0.0
100
AcDbText
  0
CIRCLE
  5
16A
330
17
100
AcDbEntity
  8
PORTS
420
6146725
100
AcDbCircle
 10
802.0
 20
-211.5
 30
0.0
 40
2.4
  0
TEXT
  5
16B
330
17
100
AcDbEntity
  8
LABELS
420
16119276
100
AcDbText
 10
795.0
 20
-216.5
 30
0.0
 40
8.0
  1
ZONE2
  7
CJK
 11
795.0
 21
-216.5
 31
0.0
100
AcDbText
  0
CIRCLE
  5
16C
330
17
100
AcDbEntity
  8
PORTS
420
6146725
100
AcDbCircle
 10
802.0
 20
-222.5
 30
0.0
 40
2.4
  0
TEXT
  5
16D
330
17
100
AcDbEntity
  8
LABELS
420
16119276
100
AcDbText
 10
795.0
 20
-227.5
 30
0.0
 40
8.0
  1
ZONE3
  7
CJK
 11
795.0
 21
-227.5
 31
0.0
100
AcDbText
  0
CIRCLE
  5
16E
330
17
100
AcDbEntity
  8
PORTS
420
6146725
100
AcDbCircle
 10
802.0
 20
-233.5
 30
0.0
 40
2.4
  0
TEXT
  5
16F
330
17
100
AcDbEntity
  8
LABELS
420
16119276
100
AcDbText
 10
795.0
 20
-238.5
 30
0.0
 40
8.0
  1
ZONE4
  7
CJK
 11
795.0
 21
-238.5
 31
0.0
100
AcDbText
  0
CIRCLE
  5
170
330
17
100
AcDbEntity
  8
PORTS
420
11566297
100
AcDbCircle
 10
802.0
 20
-244.5
 30
0.0
 40
2.4
  0
TEXT
  5
171
330
17
100
AcDbEntity
  8
LABELS
420
16119276
100
AcDbText
 10
795.0
 20
-249.5
 30
0.0
 40
8.0
  1
CTRL
  7
CJK
 11
795.0
 21
-249.5
 31
0.0
100
AcDbText
  0
CIRCLE
  5
172
330
17
100
AcDbEntity
  8
PORTS
420
6146725
100
AcDbCircle
 10
664.0
 20
-323.5
 30
0.0
 40
2.4
  0
TEXT
  5
173
330
17
100
AcDbEntity
  8
LABELS
420
16119276
100
AcDbText
 10
671.0
 20
-328.5
 30
0.0
 40
8.0
  1
IN
  7
CJK
 11
671.0
 21
-328.5
 31
0.0
100
AcDbText
  0
CIRCLE
  5
174
330
17
100
AcDbEntity
  8
PORTS
420
3640029
100
AcDbCircle
 10
664.0
 20
-334.5
 30
0.0
 40
2.4
  0
TEXT
  5
175
330
17
100
AcDbEntity
  8
LABELS
420
16119276
100
AcDbText
 10
671.0
 20
-339.5
 30
0.0
 40
8.0
  1
DANTE
  7
CJK
 11
671.0
 21
-339.5
 31
0.0
100
AcDbText
  0
CIRCLE
  5
176
330
17
100
AcDbEntity
  8
PORTS
420
6146725
100
AcDbCircle
 10
802.0
 20
-323.5
 30
0.0
 40
2.4
  0
TEXT
  5
177
330
17
100
AcDbEntity
  8
LABELS
420
16119276
100
AcDbText
 10
795.0
 20
-328.5
 30
0.0
 40
8.0
  1
ZONE1
  7
CJK
 11
795.0
 21
-328.5
 31
0.0
100
AcDbText
  0
CIRCLE
  5
178
330
17
100
AcDbEntity
  8
PORTS
420
6146725
100
AcDbCircle
 10
802.0
 20
-334.5
 30
0.0
 40
2.4
  0
TEXT
  5
179
330
17
100
AcDbEntity
  8
LABELS
420
16119276
100
AcDbText
 10
795.0
 20
-339.5
 30
0.0
 40
8.0
  1
ZONE2
  7
CJK
 11
795.0
 21
-339.5
 31
0.0
100
AcDbText
  0
CIRCLE
  5
17A
330
17
100
AcDbEntity
  8
PORTS
420
6146725
100
AcDbCircle
 10
802.0
 20
-345.5
 30
0.0
 40
2.4
  0
TEXT
  5
17B
330
17
100
AcDbEntity
  8
LABELS
420
16119276
100
AcDbText
 10
795.0
 20
-350.5
 30
0.0
 40
8.0
  1
ZONE3
  7
CJK
 11
795.0
 21
-350.5
 31
0.0
100
AcDbText
  0
CIRCLE
  5
17C
330
17
100
AcDbEntity
  8
PORTS
420
6146725
100
AcDbCircle
 10
802.0
 20
-356.5
 30
0.0
 40
2.4
  0
TEXT
  5
17D
330
17
100
AcDbEntity
  8
LABELS
420
16119276
100
AcDbText
 10
795.0
 20
-361.5
 30
0.0
 40
8.0
  1
ZONE4
  7
CJK
 11
795.0
 21
-361.5
 31
0.0
100
AcDbText
  0
CIRCLE
  5
17E
330
17
100
AcDbEntity
  8
PORTS
420
11566297
100
AcDbCircle
 10
802.0
 20
-367.5
 30
0.0
 40
2.4
  0
TEXT
  5
17F
330
17
100
AcDbEntity
  8
LABELS
420
16119276
100
AcDbText
 10
795.0
 20
-372.5
 30
0.0
 40
8.0
  1
CTRL
  7
CJK
 11
795.0
 21
-372.5
 31
0.0
100
AcDbText
  0
CIRCLE
  5
180
330
17
100
AcDbEntity
  8
PORTS
420
6146725
100
AcDbCircle
 10
664.0
 20
-446.5
 30
0.0
 40
2.4
  0
TEXT
  5
181
330
17
100
AcDbEntity
  8
LABELS
420
16119276
100
AcDbText
 10
671.0
 20
-451.5
 30
0.0
 40
8.0
  1
IN
  7
CJK
 11
671.0
 21
-451.5
 31
0.0
100
AcDbText
  0
CIRCLE
  5
182
330
17
100
AcDbEntity
  8
PORTS
420
3640029
100
AcDbCircle
 10
664.0
 20
-457.5
 30
0.0
 40
2.4
  0
TEXT
  5
183
330
17
100
AcDbEntity
  8
LABELS
420
16119276
100
AcDbText
 10
671.0
 20
-462.5
 30
0.0
 40
8.0
  1
DANTE
  7
CJK
 11
671.0
 21
-462.5
 31
0.0
100
AcDbText
  0
CIRCLE
  5
184
330
17
100
AcDbEntity
  8
PORTS
420
6146725
100
AcDbCircle
 10
802.0
 20
-446.5
 30
0.0
 40
2.4
  0
TEXT
  5
185
330
17
100
AcDbEntity
  8
LABELS
420
16119276
100
AcDbText
 10
795.0
 20
-451.5
 30
0.0
 40
8.0
  1
ZONE1
  7
CJK
 11
795.0
 21
-451.5
 31
0.0
100
AcDbText
  0
CIRCLE
  5
186
330
17
100
AcDbEntity
  8
PORTS
420
6146725
100
AcDbCircle
 10
802.0
 20
-457.5
 30
0.0
 40
2.4
  0
TEXT
  5
187
330
17
100
AcDbEntity
  8
LABELS
420
16119276
100
AcDbText
 10
795.0
 20
-462.5
 30
0.0
 40
8.0
  1
ZONE2
  7
CJK
 11
795.0
 21
-462.5
 31
0.0
100
AcDbText
  0
CIRCLE
  5
188
330
17
100
AcDbEntity
  8
PORTS
420
6146725
100
AcDbCircle
 10
802.0
 20
-468.5
 30
0.0
 40
2.4
  0
TEXT
  5
189
330
17
100
AcDbEntity
  8
LABELS
420
16119276
100
AcDbText
 10
795.0
 20
-473.5
 30
0.0
 40
8.0
  1
ZONE3
  7
CJK
 11
795.0
 21
-473.5
 31
0.0
100
AcDbText
  0
CIRCLE
  5
18A
330
17
100
AcDbEntity
  8
PORTS
420
6146725
100
AcDbCircle
 10
802.0
 20
-479.5
 30
0.0
 40
2.4
  0
TEXT
  5
18B
330
17
100
AcDbEntity
  8
LABELS
420
16119276
100
AcDbText
 10
795.0
 20
-484.5
 30
0.0
 40
8.0
  1
ZONE4
  7
CJK
 11
795.0
 21
-484.5
 31
0.0
100
AcDbText
  0
CIRCLE
  5
18C
330
17
100
AcDbEntity
  8
PORTS
420
11566297
100
AcDbCircle
 10
802.0
 20
-490.5
 30
0.0
 40
2.4
  0
TEXT
  5
18D
330
17
100
AcDbEntity
  8
LABELS
420
16119276
100
AcDbText
 10
795.0
 20
-495.5
 30
0.0
 40
8.0
  1
CTRL
  7
CJK
 11
795.0
 21
-495.5
 31
0.0
100
AcDbText
  0
CIRCLE
  5
18E
330
17
100
AcDbEntity
  8
PORTS
420
6146725
100
AcDbCircle
 10
664.0
 20
-569.5
 30
0.0
 40
2.4
  0
TEXT
  5
18F
330
17
100
AcDbEntity
  8
LABELS
420
16119276
100
AcDbText
 10
671.0
 20
-574.5
 30
0.0
 40
8.0
  1
IN
  7
CJK
 11
671.0
 21
-574.5
 31
0.0
100
AcDbText
  0
CIRCLE
  5
190
330
17
100
AcDbEntity
  8
PORTS
420
3640029
100
AcDbCircle
 10
664.0
 20
-580.5
 30
0.0
 40
2.4
  0
TEXT
  5
191
330
17
100
AcDbEntity
  8
LABELS
420
16119276
100
AcDbText
 10
671.0
 20
-585.5
 30
0.0
 40
8.0
  1
DANTE
  7
CJK
 11
671.0
 21
-585.5
 31
0.0
100
AcDbText
  0
CIRCLE
  5
192
330
17
100
AcDbEntity
  8
PORTS
420
6146725
100
AcDbCircle
 10
802.0
 20
-569.5
 30
0.0
 40
2.4
  0
TEXT
  5
193
330
17
100
AcDbEntity
  8
LABELS
420
16119276
100
AcDbText
 10
795.0
 20
-574.5
 30
0.0
 40
8.0
  1
ZONE1
  7
CJK
 11
795.0
 21
-574.5
 31
0.0
100
AcDbText
  0
CIRCLE
  5
194
330
17
100
AcDbEntity
  8
PORTS
420
6146725
100
AcDbCircle
 10
802.0
 20
-580.5
 30
0.0
 40
2.4
  0
TEXT
  5
195
330
17
100
AcDbEntity
  8
LABELS
420
16119276
100
AcDbText
 10
795.0
 20
-585.5
 30
0.0
 40
8.0
  1
ZONE2
  7
CJK
 11
795.0
 21
-585.5
 31
0.0
100
AcDbText
  0
CIRCLE
  5
196
330
17
100
AcDbEntity
  8
PORTS
420
6146725
100
AcDbCircle
 10
802.0
 20
-591.5
 30
0.0
 40
2.4
  0
TEXT
  5
197
330
17
100
AcDbEntity
  8
LABELS
420
16119276
100
AcDbText
 10
795.0
 20
-596.5
 30
0.0
 40
8.0
  1
ZONE3
  7
CJK
 11
795.0
 21
-596.5
 31
0.0
100
AcDbText
  0
CIRCLE
  5
198
330
17
100
AcDbEntity
  8
PORTS
420
6146725
100
AcDbCircle
 10
802.0
 20
-602.5
 30
0.0
 40
2.4
  0
TEXT
  5
199
330
17
100
AcDbEntity
  8
LABELS
420
16119276
100
AcDbText
 10
795.0
 20
-607.5
 30
0.0
 40
8.0
  1
ZONE4
  7
CJK
 11
795.0
 21
-607.5
 31
0.0
100
AcDbText
  0
CIRCLE
  5
19A
330
17
100
AcDbEntity
  8
PORTS
420
11566297
100
AcDbCircle
 10
802.0
 20
-613.5
 30
0.0
 40
2.4
  0
TEXT
  5
19B
330
17
100
AcDbEntity
  8
LABELS
420
16119276
100
AcDbText
 10
795.0
 20
-618.5
 30
0.0
 40
8.0
  1
CTRL
  7
CJK
 11
795.0
 21
-618.5
 31
0.0
100
AcDbText
  0
CIRCLE
  5
19C
330
17
100
AcDbEntity
  8
PORTS
420
6146725
100
AcDbCircle
 10
664.0
 20
-692.5
 30
0.0
 40
2.4
  0
TEXT
  5
19D
330
17
100
AcDbEntity
  8
LABELS
420
16119276
100
AcDbText
 10
671.0
 20
-697.5
 30
0.0
 40
8.0
  1
IN
  7
CJK
 11
671.0
 21
-697.5
 31
0.0
100
AcDbText
  0
CIRCLE
  5
19E
330
17
100
AcDbEntity
  8
PORTS
420
3640029
100
AcDbCircle
 10
664.0
 20
-703.5
 30
0.0
 40
2.4
  0
TEXT
  5
19F
330
17
100
AcDbEntity
  8
LABELS
420
16119276
100
AcDbText
 10
671.0
 20
-708.5
 30
0.0
 40
8.0
  1
DANTE
  7
CJK
 11
671.0
 21
-708.5
 31
0.0
100
AcDbText
  0
CIRCLE
  5
1A0
330
17
100
AcDbEntity
  8
PORTS
420
6146725
100
AcDbCircle
 10
802.0
 20
-692.5
 30
0.0
 40
2.4
  0
TEXT
  5
1A1
330
17
100
AcDbEntity
  8
LABELS
420
16119276
100
AcDbText
 10
795.0
 20
-697.5
 30
0.0
 40
8.0
  1
ZONE1
  7
CJK
 11
795.0
 21
-697.5
 31
0.0
100
AcDbText
  0
CIRCLE
  5
1A2
330
17
100
AcDbEntity
  8
PORTS
420
6146725
100
AcDbCircle
 10
802.0
 20
-703.5
 30
0.0
 40
2.4
  0
TEXT
  5
1A3
330
17
100
AcDbEntity
  8
LABELS
420
16119276
100
AcDbText
 10
795.0
 20
-708.5
 30
0.0
 40
8.0
  1
ZONE2
  7
CJK
 11
795.0
 21
-708.5
 31
0.0
100
AcDbText
  0
CIRCLE
  5
1A4
330
17
100
AcDbEntity
  8
PORTS
420
6146725
100
AcDbCircle
 10
802.0
 20
-714.5
 30
0.0
 40
2.4
  0
TEXT
  5
1A5
330
17
100
AcDbEntity
  8
LABELS
420
16119276
100
AcDbText
 10
795.0
 20
-719.5
 30
0.0
 40
8.0
  1
ZONE3
  7
CJK
 11
795.0
 21
-719.5
 31
0.0
100
AcDbText
  0
CIRCLE
  5
1A6
330
17
100
AcDbEntity
  8
PORTS
420
6146725
100
AcDbCircle
 10
802.0
 20
-725.5
 30
0.0
 40
2.4
  0
TEXT
  5
1A7
330
17
100
AcDbEntity
  8
LABELS
420
16119276
100
AcDbText
 10
795.0
 20
-730.5
 30
0.0
 40
8.0
  1
ZONE4
  7
CJK
 11
795.0
 21
-730.5
 31
0.0
100
AcDbText
  0
CIRCLE
  5
1A8
330
17
100
AcDbEntity
  8
PORTS
420
11566297
100
AcDbCircle
 10
802.0
 20
-736.5
 30
0.0
 40
2.4
  0
TEXT
  5
1A9
330
17
100
AcDbEntity
  8
LABELS
420
16119276
100
AcDbText
 10
795.0
 20
-741.5
 30
0.0
 40
8.0
  1
CTRL
  7
CJK
 11
795.0
 21
-741.5
 31
0.0
100
AcDbText
  0
CIRCLE
  5
1AA
330
17
100
AcDbEntity
  8
PORTS
420
6146725
100
AcDbCircle
 10
872.0
 20
-77.5
 30
0.0
 40
2.4
  0
TEXT
  5
1AB
330
17
100
AcDbEntity
  8
LABELS
420
16119276
100
AcDbText
 10
879.0
 20
-82.5
 30
0.0
 40
8.0
  1
IN1
  7
CJK
 11
879.0
 21
-82.5
 31
0.0
100
AcDbText
  0
CIRCLE
  5
1AC
330
17
100
AcDbEntity
  8
PORTS
420
6146725
100
AcDbCircle
 10
872.0
 20
-88.5
 30
0.0
 40
2.4
  0
TEXT
  5
1AD
330
17
100
AcDbEntity
  8
LABELS
420
16119276
100
AcDbText
 10
879.0
 20
-93.5
 30
0.0
 40
8.0
  1
IN2
  7
CJK
 11
879.0
 21
-93.5
 31
0.0
100
AcDbText
  0
CIRCLE
  5
1AE
330
17
100
AcDbEntity
  8
PORTS
420
6146725
100
AcDbCircle
 10
872.0
 20
-99.5
 30
0.0
 40
2.4
  0
TEXT
  5
1AF
330
17
100
AcDbEntity
  8
LABELS
420
16119276
100
AcDbText
 10
879.0
 20
-104.5
 30
0.0
 40
8.0
  1
IN3
  7
CJK
 11
879.0
 21
-104.5
 31
0.0
100
AcDbText
  0
CIRCLE
  5
1B0
330
17
100
AcDbEntity
  8
PORTS
420
6146725
100
AcDbCircle
 10
872.0
 20
-110.5
 30
0.0
 40
2.4
  0
TEXT
  5
1B1
330
17
100
AcDbEntity
  8
LABELS
420
16119276
100
AcDbText
 10
879.0
 20
-115.5
 30
0.0
 40
8.0
  1
IN4
  7
CJK
 11
879.0
 21
-115.5
 31
0.0
100
AcDbText
  0
CIRCLE
  5
1B2
330
17
100
AcDbEntity
  8
PORTS
420
3640029
100
AcDbCircle
 10
872.0
 20
-121.5
 30
0.0
 40
2.4
  0
TEXT
  5
1B3
330
17
100
AcDbEntity
  8
LABELS
420
16119276
100
AcDbText
 10
879.0
 20
-126.5
 30
0.0
 40
8.0
  1
DANTE
  7
CJK
 11
879.0
 21
-126.5
 31
0.0
100
AcDbText
  0
CIRCLE
  5
1B4
330
17
100
AcDbEntity
  8
PORTS
420
11566297
100
AcDbCircle
 10
1052.0
 20
-77.5
 30
0.0
 40
2.4
  0
TEXT
  5
1B5
330
17
100
AcDbEntity
  8
LABELS
420
16119276
100
AcDbText
 10
1045.0
 20
-82.5
 30
0.0
 40
8.0
  1
CTRL
  7
CJK
 11
1045.0
 21
-82.5
 31
0.0
100
AcDbText
  0
CIRCLE
  5
1B6
330
17
100
AcDbEntity
  8
PORTS
420
15230298
100
AcDbCircle
 10
1052.0
 20
-88.5
 30
0.0
 40
2.4
  0
TEXT
  5
1B7
330
17
100
AcDbEntity
  8
LABELS
420
16119276
100
AcDbText
 10
1045.0
 20
-93.5
 30
0.0
 40
8.0
  1
SPK1
  7
CJK
 11
1045.0
 21
-93.5
 31
0.0
100
AcDbText
  0
CIRCLE
  5
1B8
330
17
100
AcDbEntity
  8
PORTS
420
15230298
100
AcDbCircle
 10
1052.0
 20
-99.5
 30
0.0
 40
2.4
  0
TEXT
  5
1B9
330
17
100
AcDbEntity
  8
LABELS
420
16119276
100
AcDbText
 10
1045.0
 20
-104.5
 30
0.0
 40
8.0
  1
SPK2
  7
CJK
 11
1045.0
 21
-104.5
 31
0.0
100
AcDbText
  0
CIRCLE
  5
1BA
330
17
100
AcDbEntity
  8
PORTS
420
15230298
100
AcDbCircle
 10
1052.0
 20
-110.5
 30
0.0
 40
2.4
  0
TEXT
  5
1BB
330
17
100
AcDbEntity
  8
LABELS
420
16119276
100
AcDbText
 10
1045.0
 20
-115.5
 30
0.0
 40
8.0
  1
SPK3
  7
CJK
 11
1045.0
 21
-115.5
 31
0.0
100
AcDbText
  0
CIRCLE
  5
1BC
330
17
100
AcDbEntity
  8
PORTS
420
15230298
100
AcDbCircle
 10
1052.0
 20
-121.5
 30
0.0
 40
2.4
  0
TEXT
  5
1BD
330
17
100
AcDbEntity
  8
LABELS
420
16119276
100
AcDbText
 10
1045.0
 20
-126.5
 30
0.0
 40
8.0
  1
SPK4
  7
CJK
 11
1045.0
 21
-126.5
 31
0.0
100
AcDbText
  0
CIRCLE
  5
1BE
330
17
100
AcDbEntity
  8
PORTS
420
6146725
100
AcDbCircle
 10
872.0
 20
-200.5
 30
0.0
 40
2.4
  0
TEXT
  5
1BF
330
17
100
AcDbEntity
  8
LABELS
420
16119276
100
AcDbText
 10
879.0
 20
-205.5
 30
0.0
 40
8.0
  1
IN1
  7
CJK
 11
879.0
 21
-205.5
 31
0.0
100
AcDbText
  0
CIRCLE
  5
1C0
330
17
100
AcDbEntity
  8
PORTS
420
6146725
100
AcDbCircle
 10
872.0
 20
-211.5
 30
0.0
 40
2.4
  0
TEXT
  5
1C1
330
17
100
AcDbEntity
  8
LABELS
420
16119276
100
AcDbText
 10
879.0
 20
-216.5
 30
0.0
 40
8.0
  1
IN2
  7
CJK
 11
879.0
 21
-216.5
 31
0.0
100
AcDbText
  0
CIRCLE
  5
1C2
330
17
100
AcDbEntity
  8
PORTS
420
6146725
100
AcDbCircle
 10
872.0
 20
-222.5
 30
0.0
 40
2.4
  0
TEXT
  5
1C3
330
17
100
AcDbEntity
  8
LABELS
420
16119276
100
AcDbText
 10
879.0
 20
-227.5
 30
0.0
 40
8.0
  1
IN3
  7
CJK
 11
879.0
 21
-227.5
 31
0.0
100
AcDbText
  0
CIRCLE
  5
1C4
330
17
100
AcDbEntity
  8
PORTS
420
6146725
100
AcDbCircle
 10
872.0
 20
-233.5
 30
0.0
 40
2.4
  0
TEXT
  5
1C5
330
17
100
AcDbEntity
  8
LABELS
420
16119276
100
AcDbText
 10
879.0
 20
-238.5
 30
0.0
 40
8.0
  1
IN4
  7
CJK
 11
879.0
 21
-238.5
 31
0.0
100
AcDbText
  0
CIRCLE
  5
1C6
330
17
100
AcDbEntity
  8
PORTS
420
3640029
100
AcDbCircle
 10
872.0
 20
-244.5
 30
0.0
 40
2.4
  0
TEXT
  5
1C7
330
17
100
AcDbEntity
  8
LABELS
420
16119276
100
AcDbText
 10
879.0
 20
-249.5
 30
0.0
 40
8.0
  1
DANTE
  7
CJK
 11
879.0
 21
-249.5
 31
0.0
100
AcDbText
  0
CIRCLE
  5
1C8
330
17
100
AcDbEntity
  8
PORTS
420
11566297
100
AcDbCircle
 10
1052.0
 20
-200.5
 30
0.0
 40
2.4
  0
TEXT
  5
1C9
330
17
100
AcDbEntity
  8
LABELS
420
16119276
100
AcDbText
 10
1045.0
 20
-205.5
 30
0.0
 40
8.0
  1
CTRL
  7
CJK
 11
1045.0
 21
-205.5
 31
0.0
100
AcDbText
  0
CIRCLE
  5
1CA
330
17
100
AcDbEntity
  8
PORTS
420
15230298
100
AcDbCircle
 10
1052.0
 20
-211.5
 30
0.0
 40
2.4
  0
TEXT
  5
1CB
330
17
100
AcDbEntity
  8
LABELS
420
16119276
100
AcDbText
 10
1045.0
 20
-216.5
 30
0.0
 40
8.0
  1
SPK1
  7
CJK
 11
1045.0
 21
-216.5
 31
0.0
100
AcDbText
  0
CIRCLE
  5
1CC
330
17
100
AcDbEntity
  8
PORTS
420
15230298
100
AcDbCircle
 10
1052.0
 20
-222.5
 30
0.0
 40
2.4
  0
TEXT
  5
1CD
330
17
100
AcDbEntity
  8
LABELS
420
16119276
100
AcDbText
 10
1045.0
 20
-227.5
 30
0.0
 40
8.0
  1
SPK2
  7
CJK
 11
1045.0
 21
-227.5
 31
0.0
100
AcDbText
  0
CIRCLE
  5
1CE
330
17
100
AcDbEntity
  8
PORTS
420
15230298
100
AcDbCircle
 10
1052.0
 20
-233.5
 30
0.0
 40
2.4
  0
TEXT
  5
1CF
330
17
100
AcDbEntity
  8
LABELS
420
16119276
100
AcDbText
 10
1045.0
 20
-238.5
 30
0.0
 40
8.0
  1
SPK3
  7
CJK
 11
1045.0
 21
-238.5
 31
0.0
100
AcDbText
  0
CIRCLE
  5
1D0
330
17
100
AcDbEntity
  8
PORTS
420
15230298
100
AcDbCircle
 10
1052.0
 20
-244.5
 30
0.0
 40
2.4
  0
TEXT
  5
1D1
330
17
100
AcDbEntity
  8
LABELS
420
16119276
100
AcDbText
 10
1045.0
 20
-249.5
 30
0.0
 40
8.0
  1
SPK4
  7
CJK
 11
1045.0
 21
-249.5
 31
0.0
100
AcDbText
  0
CIRCLE
  5
1D2
330
17
100
AcDbEntity
  8
PORTS
420
6146725
100
AcDbCircle
 10
872.0
 20
-323.5
 30
0.0
 40
2.4
  0
TEXT
  5
1D3
330
17
100
AcDbEntity
  8
LABELS
420
16119276
100
AcDbText
 10
879.0
 20
-328.5
 30
0.0
 40
8.0
  1
IN1
  7
CJK
 11
879.0
 21
-328.5
 31
0.0
100
AcDbText
  0
CIRCLE
  5
1D4
330
17
100
AcDbEntity
  8
PORTS
420
6146725
100
AcDbCircle
 10
872.0
 20
-334.5
 30
0.0
 40
2.4
  0
TEXT
  5
1D5
330
17
100
AcDbEntity
  8
LABELS
420
16119276
100
AcDbText
 10
879.0
 20
-339.5
 30
0.0
 40
8.0
  1
IN2
  7
CJK
 11
879.0
 21
-339.5
 31
0.0
100
AcDbText
  0
CIRCLE
  5
1D6
330
17
100
AcDbEntity
  8
PORTS
420
6146725
100
AcDbCircle
 10
872.0
 20
-345.5
 30
0.0
 40
2.4
  0
TEXT
  5
1D7
330
17
100
AcDbEntity
  8
LABELS
420
16119276
100
AcDbText
 10
879.0
 20
-350.5
 30
0.0
 40
8.0
  1
IN3
  7
CJK
 11
879.0
 21
-350.5
 31
0.0
100
AcDbText
  0
CIRCLE
  5
1D8
330
17
100
AcDbEntity
  8
PORTS
420
6146725
100
AcDbCircle
 10
872.0
 20
-356.5
 30
0.0
 40
2.4
  0
TEXT
  5
1D9
330
17
100
AcDbEntity
  8
LABELS
420
16119276
100
AcDbText
 10
879.0
 20
-361.5
 30
0.0
 40
8.0
  1
IN4
  7
CJK
 11
879.0
 21
-361.5
 31
0.0
100
AcDbText
  0
CIRCLE
  5
1DA
330
17
100
AcDbEntity
  8
PORTS
420
3640029
100
AcDbCircle
 10
872.0
 20
-367.5
 30
0.0
 40
2.4
  0
TEXT
  5
1DB
330
17
100
AcDbEntity
  8
LABELS
420
16119276
100
AcDbText
 10
879.0
 20
-372.5
 30
0.0
 40
8.0
  1
DANTE
  7
CJK
 11
879.0
 21
-372.5
 31
0.0
100
AcDbText
  0
CIRCLE
  5
1DC
330
17
100
AcDbEntity
  8
PORTS
420
11566297
100
AcDbCircle
 10
1052.0
 20
-323.5
 30
0.0
 40
2.4
  0
TEXT
  5
1DD
330
17
100
AcDbEntity
  8
LABELS
420
16119276
100
AcDbText
 10
1045.0
 20
-328.5
 30
0.0
 40
8.0
  1
CTRL
  7
CJK
 11
1045.0
 21
-328.5
 31
0.0
100
AcDbText
  0
CIRCLE
  5
1DE
330
17
100
AcDbEntity
  8
PORTS
420
15230298
100
AcDbCircle
 10
1052.0
 20
-334.5
 30
0.0
 40
2.4
  0
TEXT
  5
1DF
330
17
100
AcDbEntity
  8
LABELS
420
16119276
100
AcDbText
 10
1045.0
 20
-339.5
 30
0.0
 40
8.0
  1
SPK1
  7
CJK
 11
1045.0
 21
-339.5
 31
0.0
100
AcDbText
  0
CIRCLE
  5
1E0
330
17
100
AcDbEntity
  8
PORTS
420
15230298
100
AcDbCircle
 10
1052.0
 20
-345.5
 30
0.0
 40
2.4
  0
TEXT
  5
1E1
330
17
100
AcDbEntity
  8
LABELS
420
16119276
100
AcDbText
 10
1045.0
 20
-350.5
 30
0.0
 40
8.0
  1
SPK2
  7
CJK
 11
1045.0
 21
-350.5
 31
0.0
100
AcDbText
  0
CIRCLE
  5
1E2
330
17
100
AcDbEntity
  8
PORTS
420
15230298
100
AcDbCircle
 10
1052.0
 20
-356.5
 30
0.0
 40
2.4
  0
TEXT
  5
1E3
330
17
100
AcDbEntity
  8
LABELS
420
16119276
100
AcDbText
 10
1045.0
 20
-361.5
 30
0.0
 40
8.0
  1
SPK3
  7
CJK
 11
1045.0
 21
-361.5
 31
0.0
100
AcDbText
  0
CIRCLE
  5
1E4
330
17
100
AcDbEntity
  8
PORTS
420
15230298
100
AcDbCircle
 10
1052.0
 20
-367.5
 30
0.0
 40
2.4
  0
TEXT
  5
1E5
330
17
100
AcDbEntity
  8
LABELS
420
16119276
100
AcDbText
 10
1045.0
 20
-372.5
 30
0.0
 40
8.0
  1
SPK4
  7
CJK
 11
1045.0
 21
-372.5
 31
0.0
100
AcDbText
  0
CIRCLE
  5
1E6
330
17
100
AcDbEntity
  8
PORTS
420
6146725
100
AcDbCircle
 10
872.0
 20
-446.5
 30
0.0
 40
2.4
  0
TEXT
  5
1E7
330
17
100
AcDbEntity
  8
LABELS
420
16119276
100
AcDbText
 10
879.0
 20
-451.5
 30
0.0
 40
8.0
  1
IN1
  7
CJK
 11
879.0
 21
-451.5
 31
0.0
100
AcDbText
  0
CIRCLE
  5
1E8
330
17
100
AcDbEntity
  8
PORTS
420
6146725
100
AcDbCircle
 10
872.0
 20
-457.5
 30
0.0
 40
2.4
  0
TEXT
  5
1E9
330
17
100
AcDbEntity
  8
LABELS
420
16119276
100
AcDbText
 10
879.0
 20
-462.5
 30
0.0
 40
8.0
  1
IN2
  7
CJK
 11
879.0
 21
-462.5
 31
0.0
100
AcDbText
  0
CIRCLE
  5
1EA
330
17
100
AcDbEntity
  8
PORTS
420
6146725
100
AcDbCircle
 10
872.0
 20
-468.5
 30
0.0
 40
2.4
  0
TEXT
  5
1EB
330
17
100
AcDbEntity
  8
LABELS
420
16119276
100
AcDbText
 10
879.0
 20
-473.5
 30
0.0
 40
8.0
  1
IN3
  7
CJK
 11
879.0
 21
-473.5
 31
0.0
100
AcDbText
  0
CIRCLE
  5
1EC
330
17
100
AcDbEntity
  8
PORTS
420
6146725
100
AcDbCircle
 10
872.0
 20
-479.5
 30
0.0
 40
2.4
  0
TEXT
  5
1ED
330
17
100
AcDbEntity
  8
LABELS
420
16119276
100
AcDbText
 10
879.0
 20
-484.5
 30
0.0
 40
8.0
  1
IN4
  7
CJK
 11
879.0
 21
-484.5
 31
0.0
100
AcDbText
  0
CIRCLE
  5
1EE
330
17
100
AcDbEntity
  8
PORTS
420
3640029
100
AcDbCircle
 10
872.0
 20
-490.5
 30
0.0
 40
2.4
  0
TEXT
  5
1EF
330
17
100
AcDbEntity
  8
LABELS
420
16119276
100
AcDbText
 10
879.0
 20
-495.5
 30
0.0
 40
8.0
  1
DANTE
  7
CJK
 11
879.0
 21
-495.5
 31
0.0
100
AcDbText
  0
CIRCLE
  5
1F0
330
17
100
AcDbEntity
  8
PORTS
420
11566297
100
AcDbCircle
 10
1052.0
 20
-446.5
 30
0.0
 40
2.4
  0
TEXT
  5
1F1
330
17
100
AcDbEntity
  8
LABELS
420
16119276
100
AcDbText
 10
1045.0
 20
-451.5
 30
0.0
 40
8.0
  1
CTRL
  7
CJK
 11
1045.0
 21
-451.5
 31
0.0
100
AcDbText
  0
CIRCLE
  5
1F2
330
17
100
AcDbEntity
  8
PORTS
420
15230298
100
AcDbCircle
 10
1052.0
 20
-457.5
 30
0.0
 40
2.4
  0
TEXT
  5
1F3
330
17
100
AcDbEntity
  8
LABELS
420
16119276
100
AcDbText
 10
1045.0
 20
-462.5
 30
0.0
 40
8.0
  1
SPK1
  7
CJK
 11
1045.0
 21
-462.5
 31
0.0
100
AcDbText
  0
CIRCLE
  5
1F4
330
17
100
AcDbEntity
  8
PORTS
420
15230298
100
AcDbCircle
 10
1052.0
 20
-468.5
 30
0.0
 40
2.4
  0
TEXT
  5
1F5
330
17
100
AcDbEntity
  8
LABELS
420
16119276
100
AcDbText
 10
1045.0
 20
-473.5
 30
0.0
 40
8.0
  1
SPK2
  7
CJK
 11
1045.0
 21
-473.5
 31
0.0
100
AcDbText
  0
CIRCLE
  5
1F6
330
17
100
AcDbEntity
  8
PORTS
420
15230298
100
AcDbCircle
 10
1052.0
 20
-479.5
 30
0.0
 40
2.4
  0
TEXT
  5
1F7
330
17
100
AcDbEntity
  8
LABELS
420
16119276
100
AcDbText
 10
1045.0
 20
-484.5
 30
0.0
 40
8.0
  1
SPK3
  7
CJK
 11
1045.0
 21
-484.5
 31
0.0
100
AcDbText
  0
CIRCLE
  5
1F8
330
17
100
AcDbEntity
  8
PORTS
420
15230298
100
AcDbCircle
 10
1052.0
 20
-490.5
 30
0.0
 40
2.4
  0
TEXT
  5
1F9
330
17
100
AcDbEntity
  8
LABELS
420
16119276
100
AcDbText
 10
1045.0
 20
-495.5
 30
0.0
 40
8.0
  1
SPK4
  7
CJK
 11
1045.0
 21
-495.5
 31
0.0
100
AcDbText
  0
CIRCLE
  5
1FA
330
17
100
AcDbEntity
  8
PORTS
420
6146725
100
AcDbCircle
 10
872.0
 20
-569.5
 30
0.0
 40
2.4
  0
TEXT
  5
1FB
330
17
100
AcDbEntity
  8
LABELS
420
16119276
100
AcDbText
 10
879.0
 20
-574.5
 30
0.0
 40
8.0
  1
IN1
  7
CJK
 11
879.0
 21
-574.5
 31
0.0
100
AcDbText
  0
CIRCLE
  5
1FC
330
17
100
AcDbEntity
  8
PORTS
420
6146725
100
AcDbCircle
 10
872.0
 20
-580.5
 30
0.0
 40
2.4
  0
TEXT
  5
1FD
330
17
100
AcDbEntity
  8
LABELS
420
16119276
100
AcDbText
 10
879.0
 20
-585.5
 30
0.0
 40
8.0
  1
IN2
  7
CJK
 11
879.0
 21
-585.5
 31
0.0
100
AcDbText
  0
CIRCLE
  5
1FE
330
17
100
AcDbEntity
  8
PORTS
420
6146725
100
AcDbCircle
 10
872.0
 20
-591.5
 30
0.0
 40
2.4
  0
TEXT
  5
1FF
330
17
100
AcDbEntity
  8
LABELS
420
16119276
100
AcDbText
 10
879.0
 20
-596.5
 30
0.0
 40
8.0
  1
IN3
  7
CJK
 11
879.0
 21
-596.5
 31
0.0
100
AcDbText
  0
CIRCLE
  5
200
330
17
100
AcDbEntity
  8
PORTS
420
6146725
100
AcDbCircle
 10
872.0
 20
-602.5
 30
0.0
 40
2.4
  0
TEXT
  5
201
330
17
100
AcDbEntity
  8
LABELS
420
16119276
100
AcDbText
 10
879.0
 20
-607.5
 30
0.0
 40
8.0
  1
IN4
  7
CJK
 11
879.0
 21
-607.5
 31
0.0
100
AcDbText
  0
CIRCLE
  5
202
330
17
100
AcDbEntity
  8
PORTS
420
3640029
100
AcDbCircle
 10
872.0
 20
-613.5
 30
0.0
 40
2.4
  0
TEXT
  5
203
330
17
100
AcDbEntity
  8
LABELS
420
16119276
100
AcDbText
 10
879.0
 20
-618.5
 30
0.0
 40
8.0
  1
DANTE
  7
CJK
 11
879.0
 21
-618.5
 31
0.0
100
AcDbText
  0
CIRCLE
  5
204
330
17
100
AcDbEntity
  8
PORTS
420
11566297
100
AcDbCircle
 10
1052.0
 20
-569.5
 30
0.0
 40
2.4
  0
TEXT
  5
205
330
17
100
AcDbEntity
  8
LABELS
420
16119276
100
AcDbText
 10
1045.0
 20
-574.5
 30
0.0
 40
8.0
  1
CTRL
  7
CJK
 11
1045.0
 21
-574.5
 31
0.0
100
AcDbText
  0
CIRCLE
  5
206
330
17
100
AcDbEntity
  8
PORTS
420
15230298
100
AcDbCircle
 10
1052.0
 20
-580.5
 30
0.0
 40
2.4
  0
TEXT
  5
207
330
17
100
AcDbEntity
  8
LABELS
420
16119276
100
AcDbText
 10
1045.0
 20
-585.5
 30
0.0
 40
8.0
  1
SPK1
  7
CJK
 11
1045.0
 21
-585.5
 31
0.0
100
AcDbText
  0
CIRCLE
  5
208
330
17
100
AcDbEntity
  8
PORTS
420
15230298
100
AcDbCircle
 10
1052.0
 20
-591.5
 30
0.0
 40
2.4
  0
TEXT
  5
209
330
17
100
AcDbEntity
  8
LABELS
420
16119276
100
AcDbText
 10
1045.0
 20
-596.5
 30
0.0
 40
8.0
  1
SPK2
  7
CJK
 11
1045.0
 21
-596.5
 31
0.0
100
AcDbText
  0
CIRCLE
  5
20A
330
17
100
AcDbEntity
  8
PORTS
420
15230298
100
AcDbCircle
 10
1052.0
 20
-602.5
 30
0.0
 40
2.4
  0
TEXT
  5
20B
330
17
100
AcDbEntity
  8
LABELS
420
16119276
100
AcDbText
 10
1045.0
 20
-607.5
 30
0.0
 40
8.0
  1
SPK3
  7
CJK
 11
1045.0
 21
-607.5
 31
0.0
100
AcDbText
  0
CIRCLE
  5
20C
330
17
100
AcDbEntity
  8
PORTS
420
15230298
100
AcDbCircle
 10
1052.0
 20
-613.5
 30
0.0
 40
2.4
  0
TEXT
  5
20D
330
17
100
AcDbEntity
  8
LABELS
420
16119276
100
AcDbText
 10
1045.0
 20
-618.5
 30
0.0
 40
8.0
  1
SPK4
  7
CJK
 11
1045.0
 21
-618.5
 31
0.0
100
AcDbText
  0
CIRCLE
  5
20E
330
17
100
AcDbEntity
  8
PORTS
420
6146725
100
AcDbCircle
 10
872.0
 20
-692.5
 30
0.0
 40
2.4
  0
TEXT
  5
20F
330
17
100
AcDbEntity
  8
LABELS
420
16119276
100
AcDbText
 10
879.0
 20
-697.5
 30
0.0
 40
8.0
  1
IN1
  7
CJK
 11
879.0
 21
-697.5
 31
0.0
100
AcDbText
  0
CIRCLE
  5
210
330
17
100
AcDbEntity
  8
PORTS
420
6146725
100
AcDbCircle
 10
872.0
 20
-703.5
 30
0.0
 40
2.4
  0
TEXT
  5
211
330
17
100
AcDbEntity
  8
LABELS
420
16119276
100
AcDbText
 10
879.0
 20
-708.5
 30
0.0
 40
8.0
  1
IN2
  7
CJK
 11
879.0
 21
-708.5
 31
0.0
100
AcDbText
  0
CIRCLE
  5
212
330
17
100
AcDbEntity
  8
PORTS
420
6146725
100
AcDbCircle
 10
872.0
 20
-714.5
 30
0.0
 40
2.4
  0
TEXT
  5
213
330
17
100
AcDbEntity
  8
LABELS
420
16119276
100
AcDbText
 10
879.0
 20
-719.5
 30
0.0
 40
8.0
  1
IN3
  7
CJK
 11
879.0
 21
-719.5
 31
0.0
100
AcDbText
  0
CIRCLE
  5
214
330
17
100
AcDbEntity
  8
PORTS
420
6146725
100
AcDbCircle
 10
872.0
 20
-725.5
 30
0.0
 40
2.4
  0
TEXT
  5
215
330
17
100
AcDbEntity
  8
LABELS
420
16119276
100
AcDbText
 10
879.0
 20
-730.5
 30
0.0
 40
8.0
  1
IN4
  7
CJK
 11
879.0
 21
-730.5
 31
0.0
100
AcDbText
  0
CIRCLE
  5
216
330
17
100
AcDbEntity
  8
PORTS
420
3640029
100
AcDbCircle
 10
872.0
 20
-736.5
 30
0.0
 40
2.4
  0
TEXT
  5
217
330
17
100
AcDbEntity
  8
LABELS
420
16119276
100
AcDbText
 10
879.0
 20
-741.5
 30
0.0
 40
8.0
  1
DANTE
  7
CJK
 11
879.0
 21
-741.5
 31
0.0
100
AcDbText
  0
CIRCLE
  5
218
330
17
100
AcDbEntity
  8
PORTS
420
11566297
100
AcDbCircle
 10
1052.0
 20
-692.5
 30
0.0
 40
2.4
  0
TEXT
  5
219
330
17
100
AcDbEntity
  8
LABELS
420
16119276
100
AcDbText
 10
1045.0
 20
-697.5
 30
0.0
 40
8.0
  1
CTRL
  7
CJK
 11
1045.0
 21
-697.5
 31
0.0
100
AcDbText
  0
CIRCLE
  5
21A
330
17
100
AcDbEntity
  8
PORTS
420
15230298
100
AcDbCircle
 10
1052.0
 20
-703.5
 30
0.0
 40
2.4
  0
TEXT
  5
21B
330
17
100
AcDbEntity
  8
LABELS
420
16119276
100
AcDbText
 10
1045.0
 20
-708.5
 30
0.0
 40
8.0
  1
SPK1
  7
CJK
 11
1045.0
 21
-708.5
 31
0.0
100
AcDbText
  0
CIRCLE
  5
21C
330
17
100
AcDbEntity
  8
PORTS
420
15230298
100
AcDbCircle
 10
1052.0
 20
-714.5
 30
0.0
 40
2.4
  0
TEXT
  5
21D
330
17
100
AcDbEntity
  8
LABELS
420
16119276
100
AcDbText
 10
1045.0
 20
-719.5
 30
0.0
 40
8.0
  1
SPK2
  7
CJK
 11
1045.0
 21
-719.5
 31
0.0
100
AcDbText
  0
CIRCLE
  5
21E
330
17
100
AcDbEntity
  8
PORTS
420
15230298
100
AcDbCircle
 10
1052.0
 20
-725.5
 30
0.0
 40
2.4
  0
TEXT
  5
21F
330
17
100
AcDbEntity
  8
LABELS
420
16119276
100
AcDbText
 10
1045.0
 20
-730.5
 30
0.0
 40
8.0
  1
SPK3
  7
CJK
 11
1045.0
 21
-730.5
 31
0.0
100
AcDbText
  0
CIRCLE
  5
220
330
17
100
AcDbEntity
  8
PORTS
420
15230298
100
AcDbCircle
 10
1052.0
 20
-736.5
 30
0.0
 40
2.4
  0
TEXT
  5
221
330
17
100
AcDbEntity
  8
LABELS
420
16119276
100
AcDbText
 10
1045.0
 20
-741.5
 30
0.0
 40
8.0
  1
SPK4
  7
CJK
 11
1045.0
 21
-741.5
 31
0.0
100
AcDbText
  0
CIRCLE
  5
222
330
17
100
AcDbEntity
  8
PORTS
420
15230298
100
AcDbCircle
 10
1122.0
 20
-77.5
 30
0.0
 40
2.4
  0
TEXT
  5
223
330
17
100
AcDbEntity
  8
LABELS
420
16119276
100
AcDbText
 10
1129.0
 20
-82.5
 30
0.0
 40
8.0
  1
SPK
  7
CJK
 11
1129.0
 21
-82.5
 31
0.0
100
AcDbText
  0
CIRCLE
  5
224
330
17
100
AcDbEntity
  8
PORTS
420
15230298
100
AcDbCircle
 10
1122.0
 20
-156.5
 30
0.0
 40
2.4
  0
TEXT
  5
225
330
17
100
AcDbEntity
  8
LABELS
420
16119276
100
AcDbText
 10
1129.0
 20
-161.5
 30
0.0
 40
8.0
  1
SPK
  7
CJK
 11
1129.0
 21
-161.5
 31
0.0
100
AcDbText
  0
CIRCLE
  5
226
330
17
100
AcDbEntity
  8
PORTS
420
15230298
100
AcDbCircle
 10
1122.0
 20
-235.5
 30
0.0
 40
2.4
  0
TEXT
  5
227
330
17
100
AcDbEntity
  8
LABELS
420
16119276
100
AcDbText
 10
1129.0
 20
-240.5
 30
0.0
 40
8.0
  1
SPK
  7
CJK
 11
1129.0
 21
-240.5
 31
0.0
100
AcDbText
  0
CIRCLE
  5
228
330
17
100
AcDbEntity
  8
PORTS
420
15230298
100
AcDbCircle
 10
1122.0
 20
-314.5
 30
0.0
 40
2.4
  0
TEXT
  5
229
330
17
100
AcDbEntity
  8
LABELS
420
16119276
100
AcDbText
 10
1129.0
 20
-319.5
 30
0.0
 40
8.0
  1
SPK
  7
CJK
 11
1129.0
 21
-319.5
 31
0.0
100
AcDbText
  0
CIRCLE
  5
22A
330
17
100
AcDbEntity
  8
PORTS
420
15230298
100
AcDbCircle
 10
1122.0
 20
-393.5
 30
0.0
 40
2.4
  0
TEXT
  5
22B
330
17
100
AcDbEntity
  8
LABELS
420
16119276
100
AcDbText
 10
1129.0
 20
-398.5
 30
0.0
 40
8.0
  1
SPK
  7
CJK
 11
1129.0
 21
-398.5
 31
0.0
100
AcDbText
  0
CIRCLE
  5
22C
330
17
100
AcDbEntity
  8
PORTS
420
15230298
100
AcDbCircle
 10
1122.0
 20
-472.5
 30
0.0
 40
2.4
  0
TEXT
  5
22D
330
17
100
AcDbEntity
  8
LABELS
420
16119276
100
AcDbText
 10
1129.0
 20
-477.5
 30
0.0
 40
8.0
  1
SPK
  7
CJK
 11
1129.0
 21
-477.5
 31
0.0
100
AcDbText
  0
CIRCLE
  5
22E
330
17
100
AcDbEntity
  8
PORTS
420
15230298
100
AcDbCircle
 10
1122.0
 20
-551.5
 30
0.0
 40
2.4
  0
TEXT
  5
22F
330
17
100
AcDbEntity
  8
LABELS
420
16119276
100
AcDbText
 10
1129.0
 20
-556.5
 30
0.0
 40
8.0
  1
SPK
  7
CJK
 11
1129.0
 21
-556.5
 31
0.0
100
AcDbText
  0
CIRCLE
  5
230
330
17
100
AcDbEntity
  8
PORTS
420
15230298
100
AcDbCircle
 10
1122.0
 20
-630.5
 30
0.0
 40
2.4
  0
TEXT
  5
231
330
17
100
AcDbEntity
  8
LABELS
420
16119276
100
AcDbText
 10
1129.0
 20
-635.5
 30
0.0
 40
8.0
  1
SPK
  7
CJK
 11
1129.0
 21
-635.5
 31
0.0
100
AcDbText
  0
CIRCLE
  5
232
330
17
100
AcDbEntity
  8
PORTS
420
15230298
100
AcDbCircle
 10
1122.0
 20
-709.5
 30
0.0
 40
2.4
  0
TEXT
  5
233
330
17
100
AcDbEntity
  8
LABELS
420
16119276
100
AcDbText
 10
1129.0
 20
-714.5
 30
0.0
 40
8.0
  1
SPK
  7
CJK
 11
1129.0
 21
-714.5
 31
0.0
100
AcDbText
  0
CIRCLE
  5
234
330
17
100
AcDbEntity
  8
PORTS
420
15230298
100
AcDbCircle
 10
1122.0
 20
-788.5
 30
0.0
 40
2.4
  0
TEXT
  5
235
330
17
100
AcDbEntity
  8
LABELS
420
16119276
100
AcDbText
 10
1129.0
 20
-793.5
 30
0.0
 40
8.0
  1
SPK
  7
CJK
 11
1129.0
 21
-793.5
 31
0.0
100
AcDbText
  0
CIRCLE
  5
236
330
17
100
AcDbEntity
  8
PORTS
420
15230298
100
AcDbCircle
 10
1122.0
 20
-867.5
 30
0.0
 40
2.4
  0
TEXT
  5
237
330
17
100
AcDbEntity
  8
LABELS
420
16119276
100
AcDbText
 10
1129.0
 20
-872.5
 30
0.0
 40
8.0
  1
SPK
  7
CJK
 11
1129.0
 21
-872.5
 31
0.0
100
AcDbText
  0
CIRCLE
  5
238
330
17
100
AcDbEntity
  8
PORTS
420
15230298
100
AcDbCircle
 10
1122.0
 20
-946.5
 30
0.0
 40
2.4
  0
TEXT
  5
239
330
17
100
AcDbEntity
  8
LABELS
420
16119276
100
AcDbText
 10
1129.0
 20
-951.5
 30
0.0
 40
8.0
  1
SPK
  7
CJK
 11
1129.0
 21
-951.5
 31
0.0
100
AcDbText
  0
CIRCLE
  5
23A
330
17
100
AcDbEntity
  8
PORTS
420
15230298
100
AcDbCircle
 10
1122.0
 20
-1025.5
 30
0.0
 40
2.4
  0
TEXT
  5
23B
330
17
100
AcDbEntity
  8
LABELS
420
16119276
100
AcDbText
 10
1129.0
 20
-1030.5
 30
0.0
 40
8.0
  1
SPK
  7
CJK
 11
1129.0
 21
-1030.5
 31
0.0
100
AcDbText
  0
CIRCLE
  5
23C
330
17
100
AcDbEntity
  8
PORTS
420
15230298
100
AcDbCircle
 10
1122.0
 20
-1104.5
 30
0.0
 40
2.4
  0
TEXT
  5
23D
330
17
100
AcDbEntity
  8
LABELS
420
16119276
100
AcDbText
 10
1129.0
 20
-1109.5
 30
0.0
 40
8.0
  1
SPK
  7
CJK
 11
1129.0
 21
-1109.5
 31
0.0
100
AcDbText
  0
CIRCLE
  5
23E
330
17
100
AcDbEntity
  8
PORTS
420
15230298
100
AcDbCircle
 10
1122.0
 20
-1183.5
 30
0.0
 40
2.4
  0
TEXT
  5
23F
330
17
100
AcDbEntity
  8
LABELS
420
16119276
100
AcDbText
 10
1129.0
 20
-1188.5
 30
0.0
 40
8.0
  1
SPK
  7
CJK
 11
1129.0
 21
-1188.5
 31
0.0
100
AcDbText
  0
CIRCLE
  5
240
330
17
100
AcDbEntity
  8
PORTS
420
15230298
100
AcDbCircle
 10
1122.0
 20
-1262.5
 30
0.0
 40
2.4
  0
TEXT
  5
241
330
17
100
AcDbEntity
  8
LABELS
420
16119276
100
AcDbText
 10
1129.0
 20
-1267.5
 30
0.0
 40
8.0
  1
SPK
  7
CJK
 11
1129.0
 21
-1267.5
 31
0.0
100
AcDbText
  0
CIRCLE
  5
242
330
17
100
AcDbEntity
  8
PORTS
420
15230298
100
AcDbCircle
 10
1122.0
 20
-1341.5
 30
0.0
 40
2.4
  0
TEXT
  5
243
330
17
100
AcDbEntity
  8
LABELS
420
16119276
100
AcDbText
 10
1129.0
 20
-1346.5
 30
0.0
 40
8.0
  1
SPK
  7
CJK
 11
1129.0
 21
-1346.5
 31
0.0
100
AcDbText
  0
CIRCLE
  5
244
330
17
100
AcDbEntity
  8
PORTS
420
15230298
100
AcDbCircle
 10
1122.0
 20
-1420.5
 30
0.0
 40
2.4
  0
TEXT
  5
245
330
17
100
AcDbEntity
  8
LABELS
420
16119276
100
AcDbText
 10
1129.0
 20
-1425.5
 30
0.0
 40
8.0
  1
SPK
  7
CJK
 11
1129.0
 21
-1425.5
 31
0.0
100
AcDbText
  0
CIRCLE
  5
246
330
17
100
AcDbEntity
  8
PORTS
420
15230298
100
AcDbCircle
 10
1122.0
 20
-1499.5
 30
0.0
 40
2.4
  0
TEXT
  5
247
330
17
100
AcDbEntity
  8
LABELS
420
16119276
100
AcDbText
 10
1129.0
 20
-1504.5
 30
0.0
 40
8.0
  1
SPK
  7
CJK
 11
1129.0
 21
-1504.5
 31
0.0
100
AcDbText
  0
CIRCLE
  5
248
330
17
100
AcDbEntity
  8
PORTS
420
15230298
100
AcDbCircle
 10
1122.0
 20
-1578.5
 30
0.0
 40
2.4
  0
TEXT
  5
249
330
17
100
AcDbEntity
  8
LABELS
420
16119276
100
AcDbText
 10
1129.0
 20
-1583.5
 30
0.0
 40
8.0
  1
SPK
  7
CJK
 11
1129.0
 21
-1583.5
 31
0.0
100
AcDbText
  0
CIRCLE
  5
24A
330
17
100
AcDbEntity
  8
PORTS
420
15230298
100
AcDbCircle
 10
1122.0
 20
-1657.5
 30
0.0
 40
2.4
  0
TEXT
  5
24B
330
17
100
AcDbEntity
  8
LABELS
420
16119276
100
AcDbText
 10
1129.0
 20
-1662.5
 30
0.0
 40
8.0
  1
SPK
  7
CJK
 11
1129.0
 21
-1662.5
 31
0.0
100
AcDbText
  0
CIRCLE
  5
24C
330
17
100
AcDbEntity
  8
PORTS
420
15230298
100
AcDbCircle
 10
1122.0
 20
-1736.5
 30
0.0
 40
2.4
  0
TEXT
  5
24D
330
17
100
AcDbEntity
  8
LABELS
420
16119276
100
AcDbText
 10
1129.0
 20
-1741.5
 30
0.0
 40
8.0
  1
SPK
  7
CJK
 11
1129.0
 21
-1741.5
 31
0.0
100
AcDbText
  0
CIRCLE
  5
24E
330
17
100
AcDbEntity
  8
PORTS
420
15230298
100
AcDbCircle
 10
1122.0
 20
-1815.5
 30
0.0
 40
2.4
  0
TEXT
  5
24F
330
17
100
AcDbEntity
  8
LABELS
420
16119276
100
AcDbText
 10
1129.0
 20
-1820.5
 30
0.0
 40
8.0
  1
SPK
  7
CJK
 11
1129.0
 21
-1820.5
 31
0.0
100
AcDbText
  0
CIRCLE
  5
250
330
17
100
AcDbEntity
  8
PORTS
420
15230298
100
AcDbCircle
 10
1122.0
 20
-1894.5
 30
0.0
 40
2.4
  0
TEXT
  5
251
330
17
100
AcDbEntity
  8
LABELS
420
16119276
100
AcDbText
 10
1129.0
 20
-1899.5
 30
0.0
 40
8.0
  1
SPK
  7
CJK
 11
1129.0
 21
-1899.5
 31
0.0
100
AcDbText
  0
CIRCLE
  5
252
330
17
100
AcDbEntity
  8
PORTS
420
3640029
100
AcDbCircle
 10
560.6111111111111
 20
-2006.0
 30
0.0
 40
2.4
  0
TEXT
  5
253
330
17
100
AcDbEntity
  8
LABELS
420
16119276
100
AcDbText
 10
560.6111111111111
 20
-2047.0
 30
0.0
 40
8.0
  1
DANTE1
  7
CJK
 11
560.6111111111111
 21
-2047.0
 31
0.0
100
AcDbText
  0
CIRCLE
  5
254
330
17
100
AcDbEntity
  8
PORTS
420
3640029
100
AcDbCircle
 10
575.8333333333333
 20
-2006.0
 30
0.0
 40
2.4
  0
TEXT
  5
255
330
17
100
AcDbEntity
  8
LABELS
420
16119276
100
AcDbText
 10
575.8333333333333
 20
-2047.0
 30
0.0
 40
8.0
  1
DANTE2
  7
CJK
 11
575.8333333333333
 21
-2047.0
 31
0.0
100
AcDbText
  0
CIRCLE
  5
256
330
17
100
AcDbEntity
  8
PORTS
420
3640029
100
AcDbCircle
 10
591.0555555555555
 20
-2006.0
 30
0.0
 40
2.4
  0
TEXT
  5
257
330
17
100
AcDbEntity
  8
LABELS
420
16119276
100
AcDbText
 10
591.0555555555555
 20
-2047.0
 30
0.0
 40
8.0
  1
DANTE3
  7
CJK
 11
591.0555555555555
 21
-2047.0
 31
0.0
100
AcDbText
  0
CIRCLE
  5
258
330
17
100
AcDbEntity
  8
PORTS
420
3640029
100
AcDbCircle
 10
606.2777777777777
 20
-2006.0
 30
0.0
 40
2.4
  0
TEXT
  5
259
330
17
100
AcDbEntity
  8
LABELS
420
16119276
100
AcDbText
 10
606.2777777777777
 20
-2047.0
 30
0.0
 40
8.0
  1
DANTE4
  7
CJK
 11
606.2777777777777
 21
-2047.0
 31
0.0
100
AcDbText
  0
CIRCLE
  5
25A
330
17
100
AcDbEntity
  8
PORTS
420
3640029
100
AcDbCircle
 10
621.5
 20
-2006.0
 30
0.0
 40
2.4
  0
TEXT
  5
25B
330
17
100
AcDbEntity
  8
LABELS
420
16119276
100
AcDbText
 10
621.5
 20
-2047.0
 30
0.0
 40
8.0
  1
DANTE5
  7
CJK
 11
621.5
 21
-2047.0
 31
0.0
100
AcDbText
  0
CIRCLE
  5
25C
330
17
100
AcDbEntity
  8
PORTS
420
3640029
100
AcDbCircle
 10
636.7222222222222
 20
-2006.0
 30
0.0
 40
2.4
  0
TEXT
  5
25D
330
17
100
AcDbEntity
  8
LABELS
420
16119276
100
AcDbText
 10
636.7222222222222
 20
-2047.0
 30
0.0
 40
8.0
  1
DANTE6
  7
CJK
 11
636.7222222222222
 21
-2047.0
 31
0.0
100
AcDbText
  0
CIRCLE
  5
25E
330
17
100
AcDbEntity
  8
PORTS
420
3640029
100
AcDbCircle
 10
651.9444444444445
 20
-2006.0
 30
0.0
 40
2.4
  0
TEXT
  5
25F
330
17
100
AcDbEntity
  8
LABELS
420
16119276
100
AcDbText
 10
651.9444444444445
 20
-2047.0
 30
0.0
 40
8.0
  1
DANTE7
  7
CJK
 11
651.9444444444445
 21
-2047.0
 31
0.0
100
AcDbText
  0
CIRCLE
  5
260
330
17
100
AcDbEntity
  8
PORTS
420
3640029
100
AcDbCircle
 10
667.1666666666666
 20
-2006.0
 30
0.0
 40
2.4
  0
TEXT
  5
261
330
17
100
AcDbEntity
  8
LABELS
420
16119276
100
AcDbText
 10
667.1666666666666
 20
-2047.0
 30
0.0
 40
8.0
  1
DANTE8
  7
CJK
 11
667.1666666666666
 21
-2047.0
 31
0.0
100
AcDbText
  0
CIRCLE
  5
262
330
17
100
AcDbEntity
  8
PORTS
420
3640029
100
AcDbCircle
 10
682.3888888888889
 20
-2006.0
 30
0.0
 40
2.4
  0
TEXT
  5
263
330
17
100
AcDbEntity
  8
LABELS
420
16119276
100
AcDbText
 10
682.3888888888889
 20
-2047.0
 30
0.0
 40
8.0
  1
DANTE9
  7
CJK
 11
682.3888888888889
 21
-2047.0
 31
0.0
100
AcDbText
  0
CIRCLE
  5
264
330
17
100
AcDbEntity
  8
PORTS
420
3640029
100
AcDbCircle
 10
697.6111111111111
 20
-2006.0
 30
0.0
 40
2.4
  0
TEXT
  5
265
330
17
100
AcDbEntity
  8
LABELS
420
16119276
100
AcDbText
 10
697.6111111111111
 20
-2047.0
 30
0.0
 40
8.0
  1
DANTE10
  7
CJK
 11
697.6111111111111
 21
-2047.0
 31
0.0
100
AcDbText
  0
CIRCLE
  5
266
330
17
100
AcDbEntity
  8
PORTS
420
3640029
100
AcDbCircle
 10
712.8333333333333
 20
-2006.0
 30
0.0
 40
2.4
  0
TEXT
  5
267
330
17
100
AcDbEntity
  8
LABELS
420
16119276
100
AcDbText
 10
712.8333333333333
 20
-2047.0
 30
0.0
 40
8.0
  1
DANTE11
  7
CJK
 11
712.8333333333333
 21
-2047.0
 31
0.0
100
AcDbText
  0
CIRCLE
  5
268
330
17
100
AcDbEntity
  8
PORTS
420
3640029
100
AcDbCircle
 10
728.0555555555555
 20
-2006.0
 30
0.0
 40
2.4
  0
TEXT
  5
269
330
17
100
AcDbEntity
  8
LABELS
420
16119276
100
AcDbText
 10
728.0555555555555
 20
-2047.0
 30
0.0
 40
8.0
  1
DANTE12
  7
CJK
 11
728.0555555555555
 21
-2047.0
 31
0.0
100
AcDbText
  0
CIRCLE
  5
26A
330
17
100
AcDbEntity
  8
PORTS
420
3640029
100
AcDbCircle
 10
743.2777777777777
 20
-2006.0
 30
0.0
 40
2.4
  0
TEXT
  5
26B
330
17
100
AcDbEntity
  8
LABELS
420
16119276
100
AcDbText
 10
743.2777777777777
 20
-2047.0
 30
0.0
 40
8.0
  1
DANTE13
  7
CJK
 11
743.2777777777777
 21
-2047.0
 31
0.0
100
AcDbText
  0
CIRCLE
  5
26C
330
17
100
AcDbEntity
  8
PORTS
420
3640029
100
AcDbCircle
 10
758.5
 20
-2006.0
 30
0.0
 40
2.4
  0
TEXT
  5
26D
330
17
100
AcDbEntity
  8
LABELS
420
16119276
100
AcDbText
 10
758.5
 20
-2047.0
 30
0.0
 40
8.0
  1
DANTE14
  7
CJK
 11
758.5
 21
-2047.0
 31
0.0
100
AcDbText
  0
CIRCLE
  5
26E
330
17
100
AcDbEntity
  8
PORTS
420
3640029
100
AcDbCircle
 10
773.7222222222222
 20
-2006.0
 30
0.0
 40
2.4
  0
TEXT
  5
26F
330
17
100
AcDbEntity
  8
LABELS
420
16119276
100
AcDbText
 10
773.7222222222222
 20
-2047.0
 30
0.0
 40
8.0
  1
DANTE15
  7
CJK
 11
773.7222222222222
 21
-2047.0
 31
0.0
100
AcDbText
  0
CIRCLE
  5
270
330
17
100
AcDbEntity
  8
PORTS
420
3640029
100
AcDbCircle
 10
788.9444444444443
 20
-2006.0
 30
0.0
 40
2.4
  0
TEXT
  5
271
330
17
100
AcDbEntity
  8
LABELS
420
16119276
100
AcDbText
 10
788.9444444444443
 20
-2047.0
 30
0.0
 40
8.0
  1
DANTE16
  7
CJK
 11
788.9444444444443
 21
-2047.0
 31
0.0
100
AcDbText
  0
CIRCLE
  5
272
330
17
100
AcDbEntity
  8
PORTS
420
3640029
100
AcDbCircle
 10
804.1666666666666
 20
-2006.0
 30
0.0
 40
2.4
  0
TEXT
  5
273
330
17
100
AcDbEntity
  8
LABELS
420
16119276
100
AcDbText
 10
804.1666666666666
 20
-2047.0
 30
0.0
 40
8.0
  1
DANTE17
  7
CJK
 11
804.1666666666666
 21
-2047.0
 31
0.0
100
AcDbText
  0
CIRCLE
  5
274
330
17
100
AcDbEntity
  8
PORTS
420
3640029
100
AcDbCircle
 10
819.3888888888889
 20
-2006.0
 30
0.0
 40
2.4
  0
TEXT
  5
275
330
17
100
AcDbEntity
  8
LABELS
420
16119276
100
AcDbText
 10
819.3888888888889
 20
-2047.0
 30
0.0
 40
8.0
  1
DANTE18
  7
CJK
 11
819.3888888888889
 21
-2047.0
 31
0.0
100
AcDbText
  0
ENDSEC
  0
SECTION
  2
OBJECTS
  0
DICTIONARY
  5
A
330
0
100
AcDbDictionary
281
1
  3
ACAD_COLOR
350
B
  3
ACAD_GROUP
350
C
  3
ACAD_LAYOUT
350
D
  3
ACAD_MATERIAL
350
E
  3
ACAD_MLEADERSTYLE
350
F
  3
ACAD_MLINESTYLE
350
10
  3
ACAD_PLOTSETTINGS
350
11
  3
ACAD_PLOTSTYLENAME
350
12
  3
ACAD_SCALELIST
350
14
  3
ACAD_TABLESTYLE
350
15
  3
ACAD_VISUALSTYLE
350
16
  3
EZDXF_META
350
2D
  0
DICTIONARY
  5
B
330
A
100
AcDbDictionary
281
1
  0
DICTIONARY
  5
C
330
A
100
AcDbDictionary
281
1
  0
DICTIONARY
  5
D
330
A
100
AcDbDictionary
281
1
  3
Model
350
1A
  3
Layout1
350
1E
  0
DICTIONARY
  5
E
330
A
100
AcDbDictionary
281
1
  3
ByBlock
350
1F
  3
ByLayer
350
20
  3
Global
350
21
  0
DICTIONARY
  5
F
330
A
100
AcDbDictionary
281
1
  3
Standard
350
2C
  0
DICTIONARY
  5
10
330
A
100
AcDbDictionary
281
1
  3
Standard
350
22
  0
DICTIONARY
  5
11
330
A
100
AcDbDictionary
281
1
  0
ACDBDICTIONARYWDFLT
  5
12
330
A
100
AcDbDictionary
281
1
  3
Normal
350
13
100
AcDbDictionaryWithDefault
340
13
  0
ACDBPLACEHOLDER
  5
13
330
12
  0
DICTIONARY
  5
14
330
A
100
AcDbDictionary
281
1
  0
DICTIONARY
  5
15
330
A
100
AcDbDictionary
281
1
  0
DICTIONARY
  5
16
330
A
100
AcDbDictionary
281
1
  0
LAYOUT
  5
1A
330
D
100
AcDbPlotSettings
  1

  4
A3
  6

 40
7.5
 41
20.0
 42
7.5
 43
20.0
 44
420.0
 45
297.0
 46
0.0
 47
0.0
 48
0.0
 49
0.0
140
0.0
141
0.0
142
1.0
143
1.0
 70
1024
 72
1
 73
0
 74
5
  7

 75
16
 76
0
 77
2
 78
300
147
1.0
148
0.0
149
0.0
100
AcDbLayout
  1
Model
 70
1
 71
0
 10
0.0
 20
0.0
 11
420.0
 21
297.0
 12
0.0
 22
0.0
 32
0.0
 14
1e+20
 24
1e+20
 34
1e+20
 15
-1e+20
 25
-1e+20
 35
-1e+20
146
0.0
 13
0.0
 23
0.0
 33
0.0
 16
1.0
 26
0.0
 36
0.0
 17
0.0
 27
1.0
 37
0.0
 76
1
330
17
  0
LAYOUT
  5
1E
330
D
100
AcDbPlotSettings
  1

  4
A3
  6

 40
7.5
 41
20.0
 42
7.5
 43
20.0
 44
420.0
 45
297.0
 46
0.0
 47
0.0
 48
0.0
 49
0.0
140
0.0
141
0.0
142
1.0
143
1.0
 70
0
 72
1
 73
0
 74
5
  7

 75
16
 76
0
 77
2
 78
300
147
1.0
148
0.0
149
0.0
100
AcDbLayout
  1
Layout1
 70
1
 71
1
 10
0.0
 20
0.0
 11
420.0
 21
297.0
 12
0.0
 22
0.0
 32
0.0
 14
1e+20
 24
1e+20
 34
1e+20
 15
-1e+20
 25
-1e+20
 35
-1e+20
146
0.0
 13
0.0
 23
0.0
 33
0.0
 16
1.0
 26
0.0
 36
0.0
 17
0.0
 27
1.0
 37
0.0
 76
1
330
1B
  0
MATERIAL
  5
1F
102
{ACAD_REACTORS
330
E
102
}
330
E
100
AcDbMaterial
  1
ByBlock
  2

 70
0
 40
1.0
 71
1
 41
1.0
 91
-1023410177
 42
1.0
 72
1
  3

 73
1
 74
1
 75
1
 44
0.5
 73
0
 45
1.0
 46
1.0
 77
1
  4

 78
1
 79
1
170
1
 48
1.0
171
1
  6

172
1
173
1
174
1
140
1.0
141
1.0
175
1
  7

176
1
177
1
178
1
143
1.0
179
1
  8

270
1
271
1
272
1
145
1.0
146
1.0
273
1
  9

274
1
275
1
276
1
 42
1.0
 72
1
  3

 73
1
 74
1
 75
1
 94
63
  0
MATERIAL
  5
20
102
{ACAD_REACTORS
330
E
102
}
330
E
100
AcDbMaterial
  1
ByLayer
  2

 70
0
 40
1.0
 71
1
 41
1.0
 91
-1023410177
 42
1.0
 72
1
  3

 73
1
 74
1
 75
1
 44
0.5
 73
0
 45
1.0
 46
1.0
 77
1
  4

 78
1
 79
1
170
1
 48
1.0
171
1
  6

172
1
173
1
174
1
140
1.0
141
1.0
175
1
  7

176
1
177
1
178
1
143
1.0
179
1
  8

270
1
271
1
272
1
145
1.0
146
1.0
273
1
  9

274
1
275
1
276
1
 42
1.0
 72
1
  3

 73
1
 74
1
 75
1
 94
63
  0
MATERIAL
  5
21
102
{ACAD_REACTORS
330
E
102
}
330
E
100
AcDbMaterial
  1
Global
  2

 70
0
 40
1.0
 71
1
 41
1.0
 91
-1023410177
 42
1.0
 72
1
  3

 73
1
 74
1
 75
1
 44
0.5
 73
0
 45
1.0
 46
1.0
 77
1
  4

 78
1
 79
1
170
1
 48
1.0
171
1
  6

172
1
173
1
174
1
140
1.0
141
1.0
175
1
  7

176
1
177
1
178
1
143
1.0
179
1
  8

270
1
271
1
272
1
145
1.0
146
1.0
273
1
  9

274
1
275
1
276
1
 42
1.0
 72
1
  3

 73
1
 74
1
 75
1
 94
63
  0
MLINESTYLE
  5
22
102
{ACAD_REACTORS
330
10
102
}
330
10
100
AcDbMlineStyle
  2
Standard
 70
0
  3

 62
256
 51
90.0
 52
90.0
 71
2
 49
0.5
 62
256
  6
BYLAYER
 49
-0.5
 62
256
  6
BYLAYER
  0
MLEADERSTYLE
  5
2C
102
{ACAD_REACTORS
330
F
102
}
330
F
100
AcDbMLeaderStyle
179
2
170
2
171
1
172
0
 90
2
 40
0.0
 41
0.0
173
1
 91
-1056964608
 92
-2
290
1
 42
2.0
291
1
 43
8.0
  3
Standard
 44
4.0
300

342
29
174
1
175
1
176
0
178
1
 93
-1056964608
 45
4.0
292
0
297
0
 46
4.0
 94
-1056964608
 47
1.0
 49
1.0
140
1.0
294
1
141
0.0
177
0
142
1.0
295
0
296
0
143
3.75
271
0
272
9
273
9
  0
DICTIONARY
  5
2D
330
A
100
AcDbDictionary
280
1
281
1
  3
CREATED_BY_EZDXF
350
2E
  3
WRITTEN_BY_EZDXF
350
278
  0
DICTIONARYVAR
  5
2E
330
2D
100
DictionaryVariables
280
0
  1
1.4.4 @ 2026-08-29T10:39:23.686287+00:00
  0
DICTIONARYVAR
  5
278
330
2D
100
DictionaryVariables
280
0
  1
1.4.4 @ 2026-08-29T10:39:23.694583+00:00
  0
ENDSEC
  0
EOF
