<svg xmlns="http://www.w3.org/2000/svg" viewBox="16 16 1333 806" width="100%" font-family="PingFang SC, Microsoft YaHei, Noto Sans CJK SC, sans-serif" style="background:#1e1e1c">
<rect x="16" y="16" width="1333" height="806" fill="#1e1e1c"/>
<rect x="40.0" y="40.0" width="138.0" height="53.0" fill="#26261f" stroke="#b4b2a9" stroke-width="1.4" rx="3"/>
<text x="109.0" y="50.0" fill="#f1efe8" font-size="9" text-anchor="middle" font-weight="bold">舞台话筒(有线)</text>
<rect x="40.0" y="119.0" width="138.0" height="53.0" fill="#26261f" stroke="#b4b2a9" stroke-width="1.4" rx="3"/>
<text x="109.0" y="129.0" fill="#f1efe8" font-size="9" text-anchor="middle" font-weight="bold">舞台话筒(有线)</text>
<rect x="40.0" y="198.0" width="138.0" height="53.0" fill="#26261f" stroke="#b4b2a9" stroke-width="1.4" rx="3"/>
<text x="109.0" y="208.0" fill="#f1efe8" font-size="9" text-anchor="middle" font-weight="bold">舞台话筒(有线)</text>
<rect x="40.0" y="277.0" width="138.0" height="53.0" fill="#26261f" stroke="#b4b2a9" stroke-width="1.4" rx="3"/>
<text x="109.0" y="287.0" fill="#f1efe8" font-size="9" text-anchor="middle" font-weight="bold">舞台话筒(有线)</text>
<rect x="40.0" y="356.0" width="138.0" height="53.0" fill="#26261f" stroke="#b4b2a9" stroke-width="1.4" rx="3"/>
<text x="109.0" y="366.0" fill="#f1efe8" font-size="9" text-anchor="middle" font-weight="bold">舞台话筒(有线)</text>
<rect x="40.0" y="435.0" width="138.0" height="53.0" fill="#26261f" stroke="#b4b2a9" stroke-width="1.4" rx="3"/>
<text x="109.0" y="445.0" fill="#f1efe8" font-size="9" text-anchor="middle" font-weight="bold">舞台话筒(有线)</text>
<rect x="248.0" y="40.0" width="164.0" height="317.0" fill="#26261f" stroke="#b4b2a9" stroke-width="1.4" rx="3"/>
<text x="330.0" y="50.0" fill="#f1efe8" font-size="9" text-anchor="middle" font-weight="bold">数字调音台(FOH)</text>
<rect x="482.0" y="40.0" width="138.0" height="152.0" fill="#26261f" stroke="#b4b2a9" stroke-width="1.4" rx="3"/>
<text x="551.0" y="50.0" fill="#f1efe8" font-size="9" text-anchor="middle" font-weight="bold">音频处理器</text>
<text x="551.0" y="60.0" fill="#c4c2b8" font-size="8" text-anchor="middle">BSS</text>
<text x="551.0" y="69.0" fill="#9a978d" font-size="7" text-anchor="middle">BLU-806</text>
<rect x="690.0" y="40.0" width="138.0" height="97.0" fill="#26261f" stroke="#b4b2a9" stroke-width="1.4" rx="3"/>
<text x="759.0" y="50.0" fill="#f1efe8" font-size="9" text-anchor="middle" font-weight="bold">音箱管理器</text>
<rect x="898.0" y="40.0" width="180.0" height="97.0" fill="#26261f" stroke="#b4b2a9" stroke-width="1.4" rx="3"/>
<text x="988.0" y="50.0" fill="#f1efe8" font-size="9" text-anchor="middle" font-weight="bold">功率放大器</text>
<text x="988.0" y="60.0" fill="#c4c2b8" font-size="8" text-anchor="middle">Powersoft</text>
<text x="988.0" y="69.0" fill="#9a978d" font-size="7" text-anchor="middle">Quattrocanali 4804</text>
<rect x="898.0" y="163.0" width="180.0" height="97.0" fill="#26261f" stroke="#b4b2a9" stroke-width="1.4" rx="3"/>
<text x="988.0" y="173.0" fill="#f1efe8" font-size="9" text-anchor="middle" font-weight="bold">功率放大器</text>
<text x="988.0" y="183.0" fill="#c4c2b8" font-size="8" text-anchor="middle">Powersoft</text>
<text x="988.0" y="192.0" fill="#9a978d" font-size="7" text-anchor="middle">Quattrocanali 4804</text>
<rect x="1148.0" y="40.0" width="177.0" height="53.0" fill="#26261f" stroke="#b4b2a9" stroke-width="1.4" rx="3"/>
<text x="1236.5" y="50.0" fill="#f1efe8" font-size="9" text-anchor="middle" font-weight="bold">主扩扬声器</text>
<text x="1236.5" y="60.0" fill="#c4c2b8" font-size="8" text-anchor="middle">L-Acoustics</text>
<text x="1236.5" y="69.0" fill="#9a978d" font-size="7" text-anchor="middle">KARA</text>
<rect x="1148.0" y="119.0" width="177.0" height="53.0" fill="#26261f" stroke="#b4b2a9" stroke-width="1.4" rx="3"/>
<text x="1236.5" y="129.0" fill="#f1efe8" font-size="9" text-anchor="middle" font-weight="bold">主扩扬声器</text>
<text x="1236.5" y="139.0" fill="#c4c2b8" font-size="8" text-anchor="middle">L-Acoustics</text>
<text x="1236.5" y="148.0" fill="#9a978d" font-size="7" text-anchor="middle">KARA</text>
<rect x="1148.0" y="198.0" width="177.0" height="53.0" fill="#26261f" stroke="#b4b2a9" stroke-width="1.4" rx="3"/>
<text x="1236.5" y="208.0" fill="#f1efe8" font-size="9" text-anchor="middle" font-weight="bold">主扩扬声器</text>
<text x="1236.5" y="218.0" fill="#c4c2b8" font-size="8" text-anchor="middle">L-Acoustics</text>
<text x="1236.5" y="227.0" fill="#9a978d" font-size="7" text-anchor="middle">KARA</text>
<rect x="1148.0" y="277.0" width="177.0" height="53.0" fill="#26261f" stroke="#b4b2a9" stroke-width="1.4" rx="3"/>
<text x="1236.5" y="287.0" fill="#f1efe8" font-size="9" text-anchor="middle" font-weight="bold">主扩扬声器</text>
<text x="1236.5" y="297.0" fill="#c4c2b8" font-size="8" text-anchor="middle">L-Acoustics</text>
<text x="1236.5" y="306.0" fill="#9a978d" font-size="7" text-anchor="middle">KARA</text>
<rect x="1148.0" y="356.0" width="138.0" height="53.0" fill="#26261f" stroke="#b4b2a9" stroke-width="1.4" rx="3"/>
<text x="1217.0" y="366.0" fill="#f1efe8" font-size="9" text-anchor="middle" font-weight="bold">舞台返听(有源)</text>
<rect x="1148.0" y="435.0" width="138.0" height="53.0" fill="#26261f" stroke="#b4b2a9" stroke-width="1.4" rx="3"/>
<text x="1217.0" y="445.0" fill="#f1efe8" font-size="9" text-anchor="middle" font-weight="bold">舞台返听(有源)</text>
<rect x="1148.0" y="514.0" width="138.0" height="53.0" fill="#26261f" stroke="#b4b2a9" stroke-width="1.4" rx="3"/>
<text x="1217.0" y="524.0" fill="#f1efe8" font-size="9" text-anchor="middle" font-weight="bold">舞台返听(有源)</text>
<rect x="1148.0" y="593.0" width="138.0" height="53.0" fill="#26261f" stroke="#b4b2a9" stroke-width="1.4" rx="3"/>
<text x="1217.0" y="603.0" fill="#f1efe8" font-size="9" text-anchor="middle" font-weight="bold">舞台返听(有源)</text>
<rect x="640.5" y="742.0" width="164.0" height="56.0" fill="#26261f" stroke="#b4b2a9" stroke-width="1.4" rx="3"/>
<text x="722.5" y="752.0" fill="#f1efe8" font-size="9" text-anchor="middle" font-weight="bold">Dante 交换机</text>
<polyline points="178.0,77.5 188.0,77.5 213.0,77.5 213.0,77.5 238.0,77.5 248.0,77.5" fill="none" stroke="#5dcaa5" stroke-width="1.6" stroke-linejoin="round"/>
<polyline points="178.0,156.5 188.0,156.5 213.0,156.5 213.0,88.5 238.0,88.5 248.0,88.5" fill="none" stroke="#5dcaa5" stroke-width="1.6" stroke-linejoin="round"/>
<polyline points="178.0,235.5 188.0,235.5 213.0,235.5 213.0,99.5 238.0,99.5 248.0,99.5" fill="none" stroke="#5dcaa5" stroke-width="1.6" stroke-linejoin="round"/>
<polyline points="178.0,314.5 188.0,314.5 213.0,314.5 213.0,110.5 238.0,110.5 248.0,110.5" fill="none" stroke="#5dcaa5" stroke-width="1.6" stroke-linejoin="round"/>
<polyline points="178.0,393.5 188.0,393.5 213.0,393.5 213.0,121.5 238.0,121.5 248.0,121.5" fill="none" stroke="#5dcaa5" stroke-width="1.6" stroke-linejoin="round"/>
<polyline points="178.0,472.5 188.0,472.5 213.0,472.5 213.0,132.5 238.0,132.5 248.0,132.5" fill="none" stroke="#5dcaa5" stroke-width="1.6" stroke-linejoin="round"/>
<polyline points="412.0,77.5 422.0,77.5 447.0,77.5 447.0,77.5 472.0,77.5 482.0,77.5" fill="none" stroke="#5dcaa5" stroke-width="1.6" stroke-linejoin="round"/>
<polyline points="412.0,88.5 422.0,88.5 447.0,88.5 447.0,88.5 472.0,88.5 482.0,88.5" fill="none" stroke="#5dcaa5" stroke-width="1.6" stroke-linejoin="round"/>
<polyline points="412.0,99.5 422.0,99.5 447.0,99.5 447.0,99.5 472.0,99.5 482.0,99.5" fill="none" stroke="#5dcaa5" stroke-width="1.6" stroke-linejoin="round"/>
<polyline points="412.0,110.5 422.0,110.5 447.0,110.5 447.0,110.5 472.0,110.5 482.0,110.5" fill="none" stroke="#5dcaa5" stroke-width="1.6" stroke-linejoin="round"/>
<polyline points="412.0,121.5 422.0,121.5 447.0,121.5 447.0,121.5 472.0,121.5 482.0,121.5" fill="none" stroke="#5dcaa5" stroke-width="1.6" stroke-linejoin="round"/>
<polyline points="412.0,132.5 422.0,132.5 447.0,132.5 447.0,132.5 472.0,132.5 482.0,132.5" fill="none" stroke="#5dcaa5" stroke-width="1.6" stroke-linejoin="round"/>
<polyline points="412.0,143.5 422.0,143.5 447.0,143.5 447.0,143.5 472.0,143.5 482.0,143.5" fill="none" stroke="#5dcaa5" stroke-width="1.6" stroke-linejoin="round"/>
<polyline points="412.0,154.5 422.0,154.5 447.0,154.5 447.0,154.5 472.0,154.5 482.0,154.5" fill="none" stroke="#5dcaa5" stroke-width="1.6" stroke-linejoin="round"/>
<polyline points="620.0,77.5 630.0,77.5 655.0,77.5 655.0,77.5 680.0,77.5 690.0,77.5" fill="none" stroke="#5dcaa5" stroke-width="1.6" stroke-linejoin="round"/>
<polyline points="828.0,77.5 838.0,77.5 863.0,77.5 863.0,77.5 888.0,77.5 898.0,77.5" fill="none" stroke="#5dcaa5" stroke-width="1.6" stroke-linejoin="round"/>
<polyline points="828.0,88.5 838.0,88.5 863.0,88.5 863.0,88.5 888.0,88.5 898.0,88.5" fill="none" stroke="#5dcaa5" stroke-width="1.6" stroke-linejoin="round"/>
<polyline points="828.0,99.5 838.0,99.5 863.0,99.5 863.0,99.5 888.0,99.5 898.0,99.5" fill="none" stroke="#5dcaa5" stroke-width="1.6" stroke-linejoin="round"/>
<polyline points="828.0,110.5 838.0,110.5 863.0,110.5 863.0,110.5 888.0,110.5 898.0,110.5" fill="none" stroke="#5dcaa5" stroke-width="1.6" stroke-linejoin="round"/>
<polyline points="1078.0,88.5 1088.0,88.5 1113.0,88.5 1113.0,77.5 1138.0,77.5 1148.0,77.5" fill="none" stroke="#e8655a" stroke-width="1.6" stroke-linejoin="round"/>
<polyline points="1078.0,99.5 1088.0,99.5 1113.0,99.5 1113.0,235.5 1138.0,235.5 1148.0,235.5" fill="none" stroke="#e8655a" stroke-width="1.6" stroke-linejoin="round"/>
<polyline points="1078.0,110.5 1088.0,110.5 1113.0,110.5 1113.0,393.5 1138.0,393.5 1148.0,393.5" fill="none" stroke="#e8655a" stroke-width="1.6" stroke-linejoin="round"/>
<polyline points="1078.0,121.5 1088.0,121.5 1113.0,121.5 1113.0,551.5 1138.0,551.5 1148.0,551.5" fill="none" stroke="#e8655a" stroke-width="1.6" stroke-linejoin="round"/>
<polyline points="1078.0,211.5 1088.0,211.5 1113.0,211.5 1113.0,156.5 1138.0,156.5 1148.0,156.5" fill="none" stroke="#e8655a" stroke-width="1.6" stroke-linejoin="round"/>
<polyline points="1078.0,222.5 1088.0,222.5 1113.0,222.5 1113.0,314.5 1138.0,314.5 1148.0,314.5" fill="none" stroke="#e8655a" stroke-width="1.6" stroke-linejoin="round"/>
<polyline points="1078.0,233.5 1088.0,233.5 1113.0,233.5 1113.0,472.5 1138.0,472.5 1148.0,472.5" fill="none" stroke="#e8655a" stroke-width="1.6" stroke-linejoin="round"/>
<polyline points="1078.0,244.5 1088.0,244.5 1113.0,244.5 1113.0,630.5 1138.0,630.5 1148.0,630.5" fill="none" stroke="#e8655a" stroke-width="1.6" stroke-linejoin="round"/>
<polyline points="210.0,698.0 884.0,698.0" fill="none" stroke="#378add" stroke-width="2.4" stroke-linejoin="round"/>
<polyline points="248.0,341.5 238.0,341.5 222.0,341.5 222.0,698.0 656.7,698.0 656.7,742.0" fill="none" stroke="#378add" stroke-width="1.6" stroke-linejoin="round"/>
<polyline points="412.0,209.5 422.0,209.5 438.0,209.5 438.0,698.0 673.2,698.0 673.2,742.0" fill="none" stroke="#378add" stroke-width="1.6" stroke-linejoin="round"/>
<polyline points="482.0,165.5 472.0,165.5 456.0,165.5 456.0,698.0 689.6,698.0 689.6,742.0" fill="none" stroke="#378add" stroke-width="1.6" stroke-linejoin="round"/>
<polyline points="620.0,165.5 630.0,165.5 646.0,165.5 646.0,698.0 706.1,698.0 706.1,742.0" fill="none" stroke="#378add" stroke-width="1.6" stroke-linejoin="round"/>
<polyline points="690.0,88.5 680.0,88.5 664.0,88.5 664.0,698.0 722.5,698.0 722.5,742.0" fill="none" stroke="#378add" stroke-width="1.6" stroke-linejoin="round"/>
<polyline points="898.0,121.5 888.0,121.5 872.0,121.5 872.0,698.0 738.9,698.0 738.9,742.0" fill="none" stroke="#378add" stroke-width="1.6" stroke-linejoin="round"/>
<polyline points="898.0,244.5 888.0,244.5 872.0,244.5 872.0,698.0 755.4,698.0 755.4,742.0" fill="none" stroke="#378add" stroke-width="1.6" stroke-linejoin="round"/>
<circle cx="178.0" cy="77.5" r="2.4" fill="#5dcaa5"/>
<text x="171.0" y="80.5" fill="#f5f5ec" font-size="8" text-anchor="end" font-weight="bold">OUT</text>
<circle cx="178.0" cy="156.5" r="2.4" fill="#5dcaa5"/>
<text x="171.0" y="159.5" fill="#f5f5ec" font-size="8" text-anchor="end" font-weight="bold">OUT</text>
<circle cx="178.0" cy="235.5" r="2.4" fill="#5dcaa5"/>
<text x="171.0" y="238.5" fill="#f5f5ec" font-size="8" text-anchor="end" font-weight="bold">OUT</text>
<circle cx="178.0" cy="314.5" r="2.4" fill="#5dcaa5"/>
<text x="171.0" y="317.5" fill="#f5f5ec" font-size="8" text-anchor="end" font-weight="bold">OUT</text>
<circle cx="178.0" cy="393.5" r="2.4" fill="#5dcaa5"/>
<text x="171.0" y="396.5" fill="#f5f5ec" font-size="8" text-anchor="end" font-weight="bold">OUT</text>
<circle cx="178.0" cy="472.5" r="2.4" fill="#5dcaa5"/>
<text x="171.0" y="475.5" fill="#f5f5ec" font-size="8" text-anchor="end" font-weight="bold">OUT</text>
<circle cx="248.0" cy="77.5" r="2.4" fill="#5dcaa5"/>
<text x="255.0" y="80.5" fill="#f5f5ec" font-size="8" text-anchor="start" font-weight="bold">IN1</text>
<circle cx="248.0" cy="88.5" r="2.4" fill="#5dcaa5"/>
<text x="255.0" y="91.5" fill="#f5f5ec" font-size="8" text-anchor="start" font-weight="bold">IN2</text>
<circle cx="248.0" cy="99.5" r="2.4" fill="#5dcaa5"/>
<text x="255.0" y="102.5" fill="#f5f5ec" font-size="8" text-anchor="start" font-weight="bold">IN3</text>
<circle cx="248.0" cy="110.5" r="2.4" fill="#5dcaa5"/>
<text x="255.0" y="113.5" fill="#f5f5ec" font-size="8" text-anchor="start" font-weight="bold">IN4</text>
<circle cx="248.0" cy="121.5" r="2.4" fill="#5dcaa5"/>
<text x="255.0" y="124.5" fill="#f5f5ec" font-size="8" text-anchor="start" font-weight="bold">IN5</text>
<circle cx="248.0" cy="132.5" r="2.4" fill="#5dcaa5"/>
<text x="255.0" y="135.5" fill="#f5f5ec" font-size="8" text-anchor="start" font-weight="bold">IN6</text>
<circle cx="248.0" cy="143.5" r="2.4" fill="#5dcaa5"/>
<text x="255.0" y="146.5" fill="#f5f5ec" font-size="8" text-anchor="start" font-weight="bold">IN7</text>
<circle cx="248.0" cy="154.5" r="2.4" fill="#5dcaa5"/>
<text x="255.0" y="157.5" fill="#f5f5ec" font-size="8" text-anchor="start" font-weight="bold">IN8</text>
<circle cx="248.0" cy="165.5" r="2.4" fill="#5dcaa5"/>
<text x="255.0" y="168.5" fill="#f5f5ec" font-size="8" text-anchor="start" font-weight="bold">IN9</text>
<circle cx="248.0" cy="176.5" r="2.4" fill="#5dcaa5"/>
<text x="255.0" y="179.5" fill="#f5f5ec" font-size="8" text-anchor="start" font-weight="bold">IN10</text>
<circle cx="248.0" cy="187.5" r="2.4" fill="#5dcaa5"/>
<text x="255.0" y="190.5" fill="#f5f5ec" font-size="8" text-anchor="start" font-weight="bold">IN11</text>
<circle cx="248.0" cy="198.5" r="2.4" fill="#5dcaa5"/>
<text x="255.0" y="201.5" fill="#f5f5ec" font-size="8" text-anchor="start" font-weight="bold">IN12</text>
<circle cx="248.0" cy="209.5" r="2.4" fill="#5dcaa5"/>
<text x="255.0" y="212.5" fill="#f5f5ec" font-size="8" text-anchor="start" font-weight="bold">IN13</text>
<circle cx="248.0" cy="220.5" r="2.4" fill="#5dcaa5"/>
<text x="255.0" y="223.5" fill="#f5f5ec" font-size="8" text-anchor="start" font-weight="bold">IN14</text>
<circle cx="248.0" cy="231.5" r="2.4" fill="#5dcaa5"/>
<text x="255.0" y="234.5" fill="#f5f5ec" font-size="8" text-anchor="start" font-weight="bold">IN15</text>
<circle cx="248.0" cy="242.5" r="2.4" fill="#5dcaa5"/>
<text x="255.0" y="245.5" fill="#f5f5ec" font-size="8" text-anchor="start" font-weight="bold">IN16</text>
<circle cx="248.0" cy="253.5" r="2.4" fill="#5dcaa5"/>
<text x="255.0" y="256.5" fill="#f5f5ec" font-size="8" text-anchor="start" font-weight="bold">IN17</text>
<circle cx="248.0" cy="264.5" r="2.4" fill="#5dcaa5"/>
<text x="255.0" y="267.5" fill="#f5f5ec" font-size="8" text-anchor="start" font-weight="bold">IN18</text>
<circle cx="248.0" cy="275.5" r="2.4" fill="#5dcaa5"/>
<text x="255.0" y="278.5" fill="#f5f5ec" font-size="8" text-anchor="start" font-weight="bold">IN19</text>
<circle cx="248.0" cy="286.5" r="2.4" fill="#5dcaa5"/>
<text x="255.0" y="289.5" fill="#f5f5ec" font-size="8" text-anchor="start" font-weight="bold">IN20</text>
<circle cx="248.0" cy="297.5" r="2.4" fill="#5dcaa5"/>
<text x="255.0" y="300.5" fill="#f5f5ec" font-size="8" text-anchor="start" font-weight="bold">IN21</text>
<circle cx="248.0" cy="308.5" r="2.4" fill="#5dcaa5"/>
<text x="255.0" y="311.5" fill="#f5f5ec" font-size="8" text-anchor="start" font-weight="bold">IN22</text>
<circle cx="248.0" cy="319.5" r="2.4" fill="#5dcaa5"/>
<text x="255.0" y="322.5" fill="#f5f5ec" font-size="8" text-anchor="start" font-weight="bold">IN23</text>
<circle cx="248.0" cy="330.5" r="2.4" fill="#5dcaa5"/>
<text x="255.0" y="333.5" fill="#f5f5ec" font-size="8" text-anchor="start" font-weight="bold">IN24</text>
<circle cx="248.0" cy="341.5" r="2.4" fill="#378add"/>
<text x="255.0" y="344.5" fill="#f5f5ec" font-size="8" text-anchor="start" font-weight="bold">DANTE</text>
<circle cx="412.0" cy="77.5" r="2.4" fill="#5dcaa5"/>
<text x="405.0" y="80.5" fill="#f5f5ec" font-size="8" text-anchor="end" font-weight="bold">OUT1</text>
<circle cx="412.0" cy="88.5" r="2.4" fill="#5dcaa5"/>
<text x="405.0" y="91.5" fill="#f5f5ec" font-size="8" text-anchor="end" font-weight="bold">OUT2</text>
<circle cx="412.0" cy="99.5" r="2.4" fill="#5dcaa5"/>
<text x="405.0" y="102.5" fill="#f5f5ec" font-size="8" text-anchor="end" font-weight="bold">OUT3</text>
<circle cx="412.0" cy="110.5" r="2.4" fill="#5dcaa5"/>
<text x="405.0" y="113.5" fill="#f5f5ec" font-size="8" text-anchor="end" font-weight="bold">OUT4</text>
<circle cx="412.0" cy="121.5" r="2.4" fill="#5dcaa5"/>
<text x="405.0" y="124.5" fill="#f5f5ec" font-size="8" text-anchor="end" font-weight="bold">OUT5</text>
<circle cx="412.0" cy="132.5" r="2.4" fill="#5dcaa5"/>
<text x="405.0" y="135.5" fill="#f5f5ec" font-size="8" text-anchor="end" font-weight="bold">OUT6</text>
<circle cx="412.0" cy="143.5" r="2.4" fill="#5dcaa5"/>
<text x="405.0" y="146.5" fill="#f5f5ec" font-size="8" text-anchor="end" font-weight="bold">OUT7</text>
<circle cx="412.0" cy="154.5" r="2.4" fill="#5dcaa5"/>
<text x="405.0" y="157.5" fill="#f5f5ec" font-size="8" text-anchor="end" font-weight="bold">OUT8</text>
<circle cx="412.0" cy="165.5" r="2.4" fill="#5dcaa5"/>
<text x="405.0" y="168.5" fill="#f5f5ec" font-size="8" text-anchor="end" font-weight="bold">OUT9</text>
<circle cx="412.0" cy="176.5" r="2.4" fill="#5dcaa5"/>
<text x="405.0" y="179.5" fill="#f5f5ec" font-size="8" text-anchor="end" font-weight="bold">OUT10</text>
<circle cx="412.0" cy="187.5" r="2.4" fill="#5dcaa5"/>
<text x="405.0" y="190.5" fill="#f5f5ec" font-size="8" text-anchor="end" font-weight="bold">OUT11</text>
<circle cx="412.0" cy="198.5" r="2.4" fill="#5dcaa5"/>
<text x="405.0" y="201.5" fill="#f5f5ec" font-size="8" text-anchor="end" font-weight="bold">OUT12</text>
<circle cx="412.0" cy="209.5" r="2.4" fill="#378add"/>
<text x="405.0" y="212.5" fill="#f5f5ec" font-size="8" text-anchor="end" font-weight="bold">DANTE</text>
<circle cx="412.0" cy="220.5" r="2.4" fill="#b07cd9"/>
<text x="405.0" y="223.5" fill="#f5f5ec" font-size="8" text-anchor="end" font-weight="bold">CTRL</text>
<circle cx="482.0" cy="77.5" r="2.4" fill="#5dcaa5"/>
<text x="489.0" y="80.5" fill="#f5f5ec" font-size="8" text-anchor="start" font-weight="bold">IN1</text>
<circle cx="482.0" cy="88.5" r="2.4" fill="#5dcaa5"/>
<text x="489.0" y="91.5" fill="#f5f5ec" font-size="8" text-anchor="start" font-weight="bold">IN2</text>
<circle cx="482.0" cy="99.5" r="2.4" fill="#5dcaa5"/>
<text x="489.0" y="102.5" fill="#f5f5ec" font-size="8" text-anchor="start" font-weight="bold">IN3</text>
<circle cx="482.0" cy="110.5" r="2.4" fill="#5dcaa5"/>
<text x="489.0" y="113.5" fill="#f5f5ec" font-size="8" text-anchor="start" font-weight="bold">IN4</text>
<circle cx="482.0" cy="121.5" r="2.4" fill="#5dcaa5"/>
<text x="489.0" y="124.5" fill="#f5f5ec" font-size="8" text-anchor="start" font-weight="bold">IN5</text>
<circle cx="482.0" cy="132.5" r="2.4" fill="#5dcaa5"/>
<text x="489.0" y="135.5" fill="#f5f5ec" font-size="8" text-anchor="start" font-weight="bold">IN6</text>
<circle cx="482.0" cy="143.5" r="2.4" fill="#5dcaa5"/>
<text x="489.0" y="146.5" fill="#f5f5ec" font-size="8" text-anchor="start" font-weight="bold">IN7</text>
<circle cx="482.0" cy="154.5" r="2.4" fill="#5dcaa5"/>
<text x="489.0" y="157.5" fill="#f5f5ec" font-size="8" text-anchor="start" font-weight="bold">IN8</text>
<circle cx="482.0" cy="165.5" r="2.4" fill="#378add"/>
<text x="489.0" y="168.5" fill="#f5f5ec" font-size="8" text-anchor="start" font-weight="bold">DANTE</text>
<circle cx="620.0" cy="77.5" r="2.4" fill="#5dcaa5"/>
<text x="613.0" y="80.5" fill="#f5f5ec" font-size="8" text-anchor="end" font-weight="bold">OUT1</text>
<circle cx="620.0" cy="88.5" r="2.4" fill="#5dcaa5"/>
<text x="613.0" y="91.5" fill="#f5f5ec" font-size="8" text-anchor="end" font-weight="bold">OUT2</text>
<circle cx="620.0" cy="99.5" r="2.4" fill="#5dcaa5"/>
<text x="613.0" y="102.5" fill="#f5f5ec" font-size="8" text-anchor="end" font-weight="bold">OUT3</text>
<circle cx="620.0" cy="110.5" r="2.4" fill="#5dcaa5"/>
<text x="613.0" y="113.5" fill="#f5f5ec" font-size="8" text-anchor="end" font-weight="bold">OUT4</text>
<circle cx="620.0" cy="121.5" r="2.4" fill="#5dcaa5"/>
<text x="613.0" y="124.5" fill="#f5f5ec" font-size="8" text-anchor="end" font-weight="bold">OUT5</text>
<circle cx="620.0" cy="132.5" r="2.4" fill="#5dcaa5"/>
<text x="613.0" y="135.5" fill="#f5f5ec" font-size="8" text-anchor="end" font-weight="bold">OUT6</text>
<circle cx="620.0" cy="143.5" r="2.4" fill="#5dcaa5"/>
<text x="613.0" y="146.5" fill="#f5f5ec" font-size="8" text-anchor="end" font-weight="bold">OUT7</text>
<circle cx="620.0" cy="154.5" r="2.4" fill="#5dcaa5"/>
<text x="613.0" y="157.5" fill="#f5f5ec" font-size="8" text-anchor="end" font-weight="bold">OUT8</text>
<circle cx="620.0" cy="165.5" r="2.4" fill="#378add"/>
<text x="613.0" y="168.5" fill="#f5f5ec" font-size="8" text-anchor="end" font-weight="bold">DANTE</text>
<circle cx="620.0" cy="176.5" r="2.4" fill="#b07cd9"/>
<text x="613.0" y="179.5" fill="#f5f5ec" font-size="8" text-anchor="end" font-weight="bold">CTRL</text>
<circle cx="690.0" cy="77.5" r="2.4" fill="#5dcaa5"/>
<text x="697.0" y="80.5" fill="#f5f5ec" font-size="8" text-anchor="start" font-weight="bold">IN</text>
<circle cx="690.0" cy="88.5" r="2.4" fill="#378add"/>
<text x="697.0" y="91.5" fill="#f5f5ec" font-size="8" text-anchor="start" font-weight="bold">DANTE</text>
<circle cx="828.0" cy="77.5" r="2.4" fill="#5dcaa5"/>
<text x="821.0" y="80.5" fill="#f5f5ec" font-size="8" text-anchor="end" font-weight="bold">ZONE1</text>
<circle cx="828.0" cy="88.5" r="2.4" fill="#5dcaa5"/>
<text x="821.0" y="91.5" fill="#f5f5ec" font-size="8" text-anchor="end" font-weight="bold">ZONE2</text>
<circle cx="828.0" cy="99.5" r="2.4" fill="#5dcaa5"/>
<text x="821.0" y="102.5" fill="#f5f5ec" font-size="8" text-anchor="end" font-weight="bold">ZONE3</text>
<circle cx="828.0" cy="110.5" r="2.4" fill="#5dcaa5"/>
<text x="821.0" y="113.5" fill="#f5f5ec" font-size="8" text-anchor="end" font-weight="bold">ZONE4</text>
<circle cx="828.0" cy="121.5" r="2.4" fill="#b07cd9"/>
<text x="821.0" y="124.5" fill="#f5f5ec" font-size="8" text-anchor="end" font-weight="bold">CTRL</text>
<circle cx="898.0" cy="77.5" r="2.4" fill="#5dcaa5"/>
<text x="905.0" y="80.5" fill="#f5f5ec" font-size="8" text-anchor="start" font-weight="bold">IN1</text>
<circle cx="898.0" cy="88.5" r="2.4" fill="#5dcaa5"/>
<text x="905.0" y="91.5" fill="#f5f5ec" font-size="8" text-anchor="start" font-weight="bold">IN2</text>
<circle cx="898.0" cy="99.5" r="2.4" fill="#5dcaa5"/>
<text x="905.0" y="102.5" fill="#f5f5ec" font-size="8" text-anchor="start" font-weight="bold">IN3</text>
<circle cx="898.0" cy="110.5" r="2.4" fill="#5dcaa5"/>
<text x="905.0" y="113.5" fill="#f5f5ec" font-size="8" text-anchor="start" font-weight="bold">IN4</text>
<circle cx="898.0" cy="121.5" r="2.4" fill="#378add"/>
<text x="905.0" y="124.5" fill="#f5f5ec" font-size="8" text-anchor="start" font-weight="bold">DANTE</text>
<circle cx="1078.0" cy="77.5" r="2.4" fill="#b07cd9"/>
<text x="1071.0" y="80.5" fill="#f5f5ec" font-size="8" text-anchor="end" font-weight="bold">CTRL</text>
<circle cx="1078.0" cy="88.5" r="2.4" fill="#e8655a"/>
<text x="1071.0" y="91.5" fill="#f5f5ec" font-size="8" text-anchor="end" font-weight="bold">SPK1</text>
<circle cx="1078.0" cy="99.5" r="2.4" fill="#e8655a"/>
<text x="1071.0" y="102.5" fill="#f5f5ec" font-size="8" text-anchor="end" font-weight="bold">SPK2</text>
<circle cx="1078.0" cy="110.5" r="2.4" fill="#e8655a"/>
<text x="1071.0" y="113.5" fill="#f5f5ec" font-size="8" text-anchor="end" font-weight="bold">SPK3</text>
<circle cx="1078.0" cy="121.5" r="2.4" fill="#e8655a"/>
<text x="1071.0" y="124.5" fill="#f5f5ec" font-size="8" text-anchor="end" font-weight="bold">SPK4</text>
<circle cx="898.0" cy="200.5" r="2.4" fill="#5dcaa5"/>
<text x="905.0" y="203.5" fill="#f5f5ec" font-size="8" text-anchor="start" font-weight="bold">IN1</text>
<circle cx="898.0" cy="211.5" r="2.4" fill="#5dcaa5"/>
<text x="905.0" y="214.5" fill="#f5f5ec" font-size="8" text-anchor="start" font-weight="bold">IN2</text>
<circle cx="898.0" cy="222.5" r="2.4" fill="#5dcaa5"/>
<text x="905.0" y="225.5" fill="#f5f5ec" font-size="8" text-anchor="start" font-weight="bold">IN3</text>
<circle cx="898.0" cy="233.5" r="2.4" fill="#5dcaa5"/>
<text x="905.0" y="236.5" fill="#f5f5ec" font-size="8" text-anchor="start" font-weight="bold">IN4</text>
<circle cx="898.0" cy="244.5" r="2.4" fill="#378add"/>
<text x="905.0" y="247.5" fill="#f5f5ec" font-size="8" text-anchor="start" font-weight="bold">DANTE</text>
<circle cx="1078.0" cy="200.5" r="2.4" fill="#b07cd9"/>
<text x="1071.0" y="203.5" fill="#f5f5ec" font-size="8" text-anchor="end" font-weight="bold">CTRL</text>
<circle cx="1078.0" cy="211.5" r="2.4" fill="#e8655a"/>
<text x="1071.0" y="214.5" fill="#f5f5ec" font-size="8" text-anchor="end" font-weight="bold">SPK1</text>
<circle cx="1078.0" cy="222.5" r="2.4" fill="#e8655a"/>
<text x="1071.0" y="225.5" fill="#f5f5ec" font-size="8" text-anchor="end" font-weight="bold">SPK2</text>
<circle cx="1078.0" cy="233.5" r="2.4" fill="#e8655a"/>
<text x="1071.0" y="236.5" fill="#f5f5ec" font-size="8" text-anchor="end" font-weight="bold">SPK3</text>
<circle cx="1078.0" cy="244.5" r="2.4" fill="#e8655a"/>
<text x="1071.0" y="247.5" fill="#f5f5ec" font-size="8" text-anchor="end" font-weight="bold">SPK4</text>
<circle cx="1148.0" cy="77.5" r="2.4" fill="#e8655a"/>
<text x="1155.0" y="80.5" fill="#f5f5ec" font-size="8" text-anchor="start" font-weight="bold">SPK</text>
<circle cx="1148.0" cy="156.5" r="2.4" fill="#e8655a"/>
<text x="1155.0" y="159.5" fill="#f5f5ec" font-size="8" text-anchor="start" font-weight="bold">SPK</text>
<circle cx="1148.0" cy="235.5" r="2.4" fill="#e8655a"/>
<text x="1155.0" y="238.5" fill="#f5f5ec" font-size="8" text-anchor="start" font-weight="bold">SPK</text>
<circle cx="1148.0" cy="314.5" r="2.4" fill="#e8655a"/>
<text x="1155.0" y="317.5" fill="#f5f5ec" font-size="8" text-anchor="start" font-weight="bold">SPK</text>
<circle cx="1148.0" cy="393.5" r="2.4" fill="#e8655a"/>
<text x="1155.0" y="396.5" fill="#f5f5ec" font-size="8" text-anchor="start" font-weight="bold">SPK</text>
<circle cx="1148.0" cy="472.5" r="2.4" fill="#e8655a"/>
<text x="1155.0" y="475.5" fill="#f5f5ec" font-size="8" text-anchor="start" font-weight="bold">SPK</text>
<circle cx="1148.0" cy="551.5" r="2.4" fill="#e8655a"/>
<text x="1155.0" y="554.5" fill="#f5f5ec" font-size="8" text-anchor="start" font-weight="bold">SPK</text>
<circle cx="1148.0" cy="630.5" r="2.4" fill="#e8655a"/>
<text x="1155.0" y="633.5" fill="#f5f5ec" font-size="8" text-anchor="start" font-weight="bold">SPK</text>
<circle cx="656.7" cy="742.0" r="2.4" fill="#378add"/>
<text x="656.7" y="781.0" fill="#f5f5ec" font-size="8" text-anchor="middle" font-weight="bold">DANTE1</text>
<circle cx="673.2" cy="742.0" r="2.4" fill="#378add"/>
<text x="673.2" y="781.0" fill="#f5f5ec" font-size="8" text-anchor="middle" font-weight="bold">DANTE2</text>
<circle cx="689.6" cy="742.0" r="2.4" fill="#378add"/>
<text x="689.6" y="781.0" fill="#f5f5ec" font-size="8" text-anchor="middle" font-weight="bold">DANTE3</text>
<circle cx="706.1" cy="742.0" r="2.4" fill="#378add"/>
<text x="706.1" y="781.0" fill="#f5f5ec" font-size="8" text-anchor="middle" font-weight="bold">DANTE4</text>
<circle cx="722.5" cy="742.0" r="2.4" fill="#378add"/>
<text x="722.5" y="781.0" fill="#f5f5ec" font-size="8" text-anchor="middle" font-weight="bold">DANTE5</text>
<circle cx="738.9" cy="742.0" r="2.4" fill="#378add"/>
<text x="738.9" y="781.0" fill="#f5f5ec" font-size="8" text-anchor="middle" font-weight="bold">DANTE6</text>
<circle cx="755.4" cy="742.0" r="2.4" fill="#378add"/>
<text x="755.4" y="781.0" fill="#f5f5ec" font-size="8" text-anchor="middle" font-weight="bold">DANTE7</text>
<circle cx="771.8" cy="742.0" r="2.4" fill="#378add"/>
<text x="771.8" y="781.0" fill="#f5f5ec" font-size="8" text-anchor="middle" font-weight="bold">DANTE8</text>
<circle cx="788.3" cy="742.0" r="2.4" fill="#378add"/>
<text x="788.3" y="781.0" fill="#f5f5ec" font-size="8" text-anchor="middle" font-weight="bold">DANTE9</text>
</svg>