  0
SECTION
  2
HEADER
  9
$ACADVER
  1
AC1024
  9
$ACADMAINTVER
 70
6
  9
$DWGCODEPAGE
  3
ANSI_1252
  9
$LASTSAVEDBY
  1
ezdxf
  9
$INSBASE
 10
0.0
 20
0.0
 30
0.0
  9
$EXTMIN
 10
1e+20
 20
1e+20
 30
1e+20
  9
$EXTMAX
 10
-1e+20
 20
-1e+20
 30
-1e+20
  9
$LIMMIN
 10
0.0
 20
0.0
  9
$LIMMAX
 10
420.0
 20
297.0
  9
$ORTHOMODE
 70
0
  9
$REGENMODE
 70
1
  9
$FILLMODE
 70
1
  9
$QTEXTMODE
 70
0
  9
$MIRRTEXT
 70
1
  9
$LTSCALE
 40
1.0
  9
$ATTMODE
 70
1
  9
$TEXTSIZE
 40
2.5
  9
$TRACEWID
 40
1.0
  9
$TEXTSTYLE
  7
Standard
  9
$CLAYER
  8
0
  9
$CELTYPE
  6
ByLayer
  9
$CECOLOR
 62
256
  9
$CELTSCALE
 40
1.0
  9
$DISPSILH
 70
0
  9
$DIMSCALE
 40
1.0
  9
$DIMASZ
 40
2.5
  9
$DIMEXO
 40
0.625
  9
$DIMDLI
 40
3.75
  9
$DIMRND
 40
0.0
  9
$DIMDLE
 40
0.0
  9
$DIMEXE
 40
1.25
  9
$DIMTP
 40
0.0
  9
$DIMTM
 40
0.0
  9
$DIMTXT
 40
2.5
  9
$DIMCEN
 40
2.5
  9
$DIMTSZ
 40
0.0
  9
$DIMTOL
 70
0
  9
$DIMLIM
 70
0
  9
$DIMTIH
 70
0
  9
$DIMTOH
 70
0
  9
$DIMSE1
 70
0
  9
$DIMSE2
 70
0
  9
$DIMTAD
 70
1
  9
$DIMZIN
 70
8
  9
$DIMBLK
  1

  9
$DIMASO
 70
1
  9
$DIMSHO
 70
1
  9
$DIMPOST
  1

  9
$DIMAPOST
  1

  9
$DIMALT
 70
0
  9
$DIMALTD
 70
3
  9
$DIMALTF
 40
0.03937007874
  9
$DIMLFAC
 40
1.0
  9
$DIMTOFL
 70
1
  9
$DIMTVP
 40
0.0
  9
$DIMTIX
 70
0
  9
$DIMSOXD
 70
0
  9
$DIMSAH
 70
0
  9
$DIMBLK1
  1

  9
$DIMBLK2
  1

  9
$DIMSTYLE
  2
ISO-25
  9
$DIMCLRD
 70
0
  9
$DIMCLRE
 70
0
  9
$DIMCLRT
 70
0
  9
$DIMTFAC
 40
1.0
  9
$DIMGAP
 40
0.625
  9
$DIMJUST
 70
0
  9
$DIMSD1
 70
0
  9
$DIMSD2
 70
0
  9
$DIMTOLJ
 70
0
  9
$DIMTZIN
 70
8
  9
$DIMALTZ
 70
0
  9
$DIMALTTZ
 70
0
  9
$DIMUPT
 70
0
  9
$DIMDEC
 70
2
  9
$DIMTDEC
 70
2
  9
$DIMALTU
 70
2
  9
$DIMALTTD
 70
3
  9
$DIMTXSTY
  7
Standard
  9
$DIMAUNIT
 70
0
  9
$DIMADEC
 70
0
  9
$DIMALTRND
 40
0.0
  9
$DIMAZIN
 70
0
  9
$DIMDSEP
 70
44
  9
$DIMATFIT
 70
3
  9
$DIMFRAC
 70
0
  9
$DIMLDRBLK
  1

  9
$DIMLUNIT
 70
2
  9
$DIMLWD
 70
-2
  9
$DIMLWE
 70
-2
  9
$DIMTMOVE
 70
0
  9
$DIMFXL
 40
1.0
  9
$DIMFXLON
 70
0
  9
$DIMJOGANG
 40
0.785398163397
  9
$DIMTFILL
 70
0
  9
$DIMTFILLCLR
 70
0
  9
$DIMARCSYM
 70
0
  9
$DIMLTYPE
  6

  9
$DIMLTEX1
  6

  9
$DIMLTEX2
  6

  9
$DIMTXTDIRECTION
 70
0
  9
$LUNITS
 70
2
  9
$LUPREC
 70
4
  9
$SKETCHINC
 40
1.0
  9
$FILLETRAD
 40
10.0
  9
$AUNITS
 70
0
  9
$AUPREC
 70
2
  9
$MENU
  1
.
  9
$ELEVATION
 40
0.0
  9
$PELEVATION
 40
0.0
  9
$THICKNESS
 40
0.0
  9
$LIMCHECK
 70
0
  9
$CHAMFERA
 40
0.0
  9
$CHAMFERB
 40
0.0
  9
$CHAMFERC
 40
0.0
  9
$CHAMFERD
 40
0.0
  9
$SKPOLY
 70
0
  9
$TDCREATE
 40
2461284.5322800926
  9
$TDUCREATE
 40
2458532.153996898
  9
$TDUPDATE
 40
2461284.5322800926
  9
$TDUUPDATE
 40
2458532.1544311
  9
$TDINDWG
 40
0.0
  9
$TDUSRTIMER
 40
0.0
  9
$USRTIMER
 70
1
  9
$ANGBASE
 50
0.0
  9
$ANGDIR
 70
0
  9
$PDMODE
 70
0
  9
$PDSIZE
 40
0.0
  9
$PLINEWID
 40
0.0
  9
$SPLFRAME
 70
0
  9
$SPLINETYPE
 70
6
  9
$SPLINESEGS
 70
8
  9
$HANDSEED
  5
414
  9
$SURFTAB1
 70
6
  9
$SURFTAB2
 70
6
  9
$SURFTYPE
 70
6
  9
$SURFU
 70
6
  9
$SURFV
 70
6
  9
$UCSBASE
  2

  9
$UCSNAME
  2

  9
$UCSORG
 10
0.0
 20
0.0
 30
0.0
  9
$UCSXDIR
 10
1.0
 20
0.0
 30
0.0
  9
$UCSYDIR
 10
0.0
 20
1.0
 30
0.0
  9
$UCSORTHOREF
  2

  9
$UCSORTHOVIEW
 70
0
  9
$UCSORGTOP
 10
0.0
 20
0.0
 30
0.0
  9
$UCSORGBOTTOM
 10
0.0
 20
0.0
 30
0.0
  9
$UCSORGLEFT
 10
0.0
 20
0.0
 30
0.0
  9
$UCSORGRIGHT
 10
0.0
 20
0.0
 30
0.0
  9
$UCSORGFRONT
 10
0.0
 20
0.0
 30
0.0
  9
$UCSORGBACK
 10
0.0
 20
0.0
 30
0.0
  9
$PUCSBASE
  2

  9
$PUCSNAME
  2

  9
$PUCSORG
 10
0.0
 20
0.0
 30
0.0
  9
$PUCSXDIR
 10
1.0
 20
0.0
 30
0.0
  9
$PUCSYDIR
 10
0.0
 20
1.0
 30
0.0
  9
$PUCSORTHOREF
  2

  9
$PUCSORTHOVIEW
 70
0
  9
$PUCSORGTOP
 10
0.0
 20
0.0
 30
0.0
  9
$PUCSORGBOTTOM
 10
0.0
 20
0.0
 30
0.0
  9
$PUCSORGLEFT
 10
0.0
 20
0.0
 30
0.0
  9
$PUCSORGRIGHT
 10
0.0
 20
0.0
 30
0.0
  9
$PUCSORGFRONT
 10
0.0
 20
0.0
 30
0.0
  9
$PUCSORGBACK
 10
0.0
 20
0.0
 30
0.0
  9
$USERI1
 70
0
  9
$USERI2
 70
0
  9
$USERI3
 70
0
  9
$USERI4
 70
0
  9
$USERI5
 70
0
  9
$USERR1
 40
0.0
  9
$USERR2
 40
0.0
  9
$USERR3
 40
0.0
  9
$USERR4
 40
0.0
  9
$USERR5
 40
0.0
  9
$WORLDVIEW
 70
1
  9
$SHADEDGE
 70
3
  9
$SHADEDIF
 70
70
  9
$TILEMODE
 70
1
  9
$MAXACTVP
 70
64
  9
$PINSBASE
 10
0.0
 20
0.0
 30
0.0
  9
$PLIMCHECK
 70
0
  9
$PEXTMIN
 10
1e+20
 20
1e+20
 30
1e+20
  9
$PEXTMAX
 10
-1e+20
 20
-1e+20
 30
-1e+20
  9
$PLIMMIN
 10
0.0
 20
0.0
  9
$PLIMMAX
 10
420.0
 20
297.0
  9
$UNITMODE
 70
0
  9
$VISRETAIN
 70
1
  9
$PLINEGEN
 70
0
  9
$PSLTSCALE
 70
1
  9
$TREEDEPTH
 70
3020
  9
$CMLSTYLE
  2
Standard
  9
$CMLJUST
 70
0
  9
$CMLSCALE
 40
20.0
  9
$PROXYGRAPHICS
 70
1
  9
$MEASUREMENT
 70
1
  9
$CELWEIGHT
370
-1
  9
$ENDCAPS
280
0
  9
$JOINSTYLE
280
0
  9
$LWDISPLAY
290
0
  9
$INSUNITS
 70
6
  9
$HYPERLINKBASE
  1

  9
$STYLESHEET
  1

  9
$XEDIT
290
1
  9
$CEPSNTYPE
380
0
  9
$PSTYLEMODE
290
1
  9
$FINGERPRINTGUID
  2
{726C35A6-5E54-4C0D-B074-62FCC1D61281}
  9
$VERSIONGUID
  2
{8D5EA4BC-7B9B-448A-B345-E9B4BDE9E5D6}
  9
$EXTNAMES
290
1
  9
$PSVPSCALE
 40
0.0
  9
$OLESTARTUP
290
0
  9
$SORTENTS
280
127
  9
$INDEXCTL
280
0
  9
$HIDETEXT
280
1
  9
$XCLIPFRAME
280
1
  9
$HALOGAP
280
0
  9
$OBSCOLOR
 70
257
  9
$OBSLTYPE
280
0
  9
$INTERSECTIONDISPLAY
280
0
  9
$INTERSECTIONCOLOR
 70
257
  9
$DIMASSOC
280
2
  9
$PROJECTNAME
  1

  9
$CAMERADISPLAY
290
0
  9
$LENSLENGTH
 40
50.0
  9
$CAMERAHEIGHT
 40
0.0
  9
$STEPSPERSEC
 40
24.0
  9
$STEPSIZE
 40
100.0
  9
$3DDWFPREC
 40
2.0
  9
$PSOLWIDTH
 40
0.005
  9
$PSOLHEIGHT
 40
0.08
  9
$LOFTANG1
 40
1.570796326795
  9
$LOFTANG2
 40
1.570796326795
  9
$LOFTMAG1
 40
0.0
  9
$LOFTMAG2
 40
0.0
  9
$LOFTPARAM
 70
7
  9
$LOFTNORMALS
280
1
  9
$LATITUDE
 40
37.795
  9
$LONGITUDE
 40
-122.394
  9
$NORTHDIRECTION
 40
0.0
  9
$TIMEZONE
 70
-8000
  9
$LIGHTGLYPHDISPLAY
280
1
  9
$TILEMODELIGHTSYNCH
280
1
  9
$CMATERIAL
347
20
  9
$SOLIDHIST
280
0
  9
$SHOWHIST
280
1
  9
$DWFFRAME
280
2
  9
$DGNFRAME
280
2
  9
$REALWORLDSCALE
290
1
  9
$INTERFERECOLOR
 62
256
  9
$CSHADOW
280
0
  9
$SHADOWPLANELOCATION
 40
0.0
  0
ENDSEC
  0
SECTION
  2
CLASSES
  0
CLASS
  1
ACDBDICTIONARYWDFLT
  2
AcDbDictionaryWithDefault
  3
ObjectDBX Classes
 90
0
 91
0
280
0
281
0
  0
CLASS
  1
SUN
  2
AcDbSun
  3
SCENEOE
 90
1153
 91
0
280
0
281
0
  0
CLASS
  1
VISUALSTYLE
  2
AcDbVisualStyle
  3
ObjectDBX Classes
 90
4095
 91
0
280
0
281
0
  0
CLASS
  1
MATERIAL
  2
AcDbMaterial
  3
ObjectDBX Classes
 90
1153
 91
0
280
0
281
0
  0
CLASS
  1
SCALE
  2
AcDbScale
  3
ObjectDBX Classes
 90
1153
 91
0
280
0
281
0
  0
CLASS
  1
TABLESTYLE
  2
AcDbTableStyle
  3
ObjectDBX Classes
 90
4095
 91
0
280
0
281
0
  0
CLASS
  1
MLEADERSTYLE
  2
AcDbMLeaderStyle
  3
ACDB_MLEADERSTYLE_CLASS
 90
4095
 91
0
280
0
281
0
  0
CLASS
  1
DICTIONARYVAR
  2
AcDbDictionaryVar
  3
ObjectDBX Classes
 90
0
 91
0
280
0
281
0
  0
CLASS
  1
CELLSTYLEMAP
  2
AcDbCellStyleMap
  3
ObjectDBX Classes
 90
1152
 91
0
280
0
281
0
  0
CLASS
  1
MENTALRAYRENDERSETTINGS
  2
AcDbMentalRayRenderSettings
  3
SCENEOE
 90
1024
 91
0
280
0
281
0
  0
CLASS
  1
ACDBDETAILVIEWSTYLE
  2
AcDbDetailViewStyle
  3
ObjectDBX Classes
 90
1025
 91
0
280
0
281
0
  0
CLASS
  1
ACDBSECTIONVIEWSTYLE
  2
AcDbSectionViewStyle
  3
ObjectDBX Classes
 90
1025
 91
0
280
0
281
0
  0
CLASS
  1
RASTERVARIABLES
  2
AcDbRasterVariables
  3
ISM
 90
0
 91
0
280
0
281
0
  0
CLASS
  1
LAYOUT
  2
AcDbLayout
  3
ObjectDBX Classes
 90
0
 91
0
280
0
281
0
  0
CLASS
  1
ACDBPLACEHOLDER
  2
AcDbPlaceHolder
  3
ObjectDBX Classes
 90
0
 91
0
280
0
281
0
  0
ENDSEC
  0
SECTION
  2
TABLES
  0
TABLE
  2
VPORT
  5
8
330
0
100
AcDbSymbolTable
 70
1
  0
VPORT
  5
23
330
8
100
AcDbSymbolTableRecord
100
AcDbViewportTableRecord
  2
*Active
 70
0
 10
0.0
 20
0.0
 11
1.0
 21
1.0
 12
0.0
 22
0.0
 13
0.0
 23
0.0
 14
0.5
 24
0.5
 15
0.5
 25
0.5
 16
0.0
 26
0.0
 36
1.0
 17
0.0
 27
0.0
 37
0.0
 40
1000.0
 41
1.34
 42
50.0
 43
0.0
 44
0.0
 50
0.0
 51
0.0
 71
0
 72
1000
 73
1
 74
3
 75
0
 76
0
 77
0
 78
0
281
0
 65
0
146
0.0
  0
ENDTAB
  0
TABLE
  2
LTYPE
  5
2
330
0
100
AcDbSymbolTable
 70
3
  0
LTYPE
  5
24
330
2
100
AcDbSymbolTableRecord
100
AcDbLinetypeTableRecord
  2
ByBlock
 70
0
  3

 72
65
 73
0
 40
0.0
  0
LTYPE
  5
25
330
2
100
AcDbSymbolTableRecord
100
AcDbLinetypeTableRecord
  2
ByLayer
 70
0
  3

 72
65
 73
0
 40
0.0
  0
LTYPE
  5
26
330
2
100
AcDbSymbolTableRecord
100
AcDbLinetypeTableRecord
  2
Continuous
 70
0
  3

 72
65
 73
0
 40
0.0
  0
ENDTAB
  0
TABLE
  2
LAYER
  5
1
330
0
100
AcDbSymbolTable
 70
14
  0
LAYER
  5
27
330
1
100
AcDbSymbolTableRecord
100
AcDbLayerTableRecord
  2
0
 70
0
 62
7
  6
Continuous
370
-3
390
13
347
21
  0
LAYER
  5
28
330
1
100
AcDbSymbolTableRecord
100
AcDbLayerTableRecord
  2
Defpoints
 70
0
 62
7
  6
Continuous
290
0
370
-3
390
13
347
21
  0
LAYER
  5
2F
330
1
100
AcDbSymbolTableRecord
100
AcDbLayerTableRecord
  2
DEVICES
 70
0
 62
7
  6
Continuous
370
-3
390
13
347
21
  0
LAYER
  5
30
330
1
100
AcDbSymbolTableRecord
100
AcDbLayerTableRecord
  2
LABELS
 70
0
 62
7
  6
Continuous
370
-3
390
13
347
21
  0
LAYER
  5
31
330
1
100
AcDbSymbolTableRecord
100
AcDbLayerTableRecord
  2
PORTS
 70
0
 62
6
  6
Continuous
370
-3
390
13
347
21
  0
LAYER
  5
32
330
1
100
AcDbSymbolTableRecord
100
AcDbLayerTableRecord
  2
WIRES_ANALOG
 70
0
 62
4
  6
Continuous
370
-3
390
13
347
21
  0
LAYER
  5
33
330
1
100
AcDbSymbolTableRecord
100
AcDbLayerTableRecord
  2
WIRES_DIGITAL
 70
0
 62
4
  6
Continuous
370
-3
390
13
347
21
  0
LAYER
  5
34
330
1
100
AcDbSymbolTableRecord
100
AcDbLayerTableRecord
  2
WIRES_DANTE
 70
0
 62
5
  6
Continuous
370
-3
390
13
347
21
  0
LAYER
  5
35
330
1
100
AcDbSymbolTableRecord
100
AcDbLayerTableRecord
  2
WIRES_CONTROL
 70
0
 62
6
  6
Continuous
370
-3
390
13
347
21
  0
LAYER
  5
36
330
1
100
AcDbSymbolTableRecord
100
AcDbLayerTableRecord
  2
WIRES_RF
 70
0
 62
40
  6
Continuous
370
-3
390
13
347
21
  0
LAYER
  5
37
330
1
100
AcDbSymbolTableRecord
100
AcDbLayerTableRecord
  2
WIRES_SPEAKER
 70
0
 62
1
  6
Continuous
370
-3
390
13
347
21
  0
LAYER
  5
38
330
1
100
AcDbSymbolTableRecord
100
AcDbLayerTableRecord
  2
WIRES_POWER
 70
0
 62
8
  6
Continuous
370
-3
390
13
347
21
  0
LAYER
  5
39
330
1
100
AcDbSymbolTableRecord
100
AcDbLayerTableRecord
  2
WIRE_LABELS
 70
0
 62
7
  6
Continuous
370
-3
390
13
347
21
  0
LAYER
  5
3A
330
1
100
AcDbSymbolTableRecord
100
AcDbLayerTableRecord
  2
LEGEND
 70
0
 62
7
  6
Continuous
370
-3
390
13
347
21
  0
ENDTAB
  0
TABLE
  2
STYLE
  5
5
330
0
100
AcDbSymbolTable
 70
2
  0
STYLE
  5
29
330
5
100
AcDbSymbolTableRecord
100
AcDbTextStyleTableRecord
  2
Standard
 70
0
 40
0.0
 41
1.0
 50
0.0
 71
0
 42
2.5
  3
txt
  4

  0
STYLE
  5
3B
330
5
100
AcDbSymbolTableRecord
100
AcDbTextStyleTableRecord
  2
CJK
 70
0
 40
0.0
 41
1.0
 50
0.0
 71
0
 42
2.5
  3
simsun.ttc
  4

  0
ENDTAB
  0
TABLE
  2
VIEW
  5
7
330
0
100
AcDbSymbolTable
 70
0
  0
ENDTAB
  0
TABLE
  2
UCS
  5
6
330
0
100
AcDbSymbolTable
 70
0
  0
ENDTAB
  0
TABLE
  2
APPID
  5
3
330
0
100
AcDbSymbolTable
 70
3
  0
APPID
  5
2A
330
3
100
AcDbSymbolTableRecord
100
AcDbRegAppTableRecord
  2
ACAD
 70
0
  0
APPID
  5
411
330
3
100
AcDbSymbolTableRecord
100
AcDbRegAppTableRecord
  2
HATCHBACKGROUNDCOLOR
 70
0
  0
APPID
  5
412
330
3
100
AcDbSymbolTableRecord
100
AcDbRegAppTableRecord
  2
EZDXF
 70
0
  0
ENDTAB
  0
TABLE
  2
DIMSTYLE
  5
4
330
0
100
AcDbSymbolTable
 70
1
100
AcDbDimStyleTable
  0
DIMSTYLE
105
2B
330
4
100
AcDbSymbolTableRecord
100
AcDbDimStyleTableRecord
  2
Standard
 70
0
 40
1.0
 41
2.5
 42
0.625
 43
3.75
 44
1.25
 45
0.0
 46
0.0
 47
0.0
 48
0.0
 49
2.5
140
2.5
141
2.5
142
0.0
143
0.03937007874
144
1.0
145
0.0
146
1.0
147
0.625
148
0.0
 69
0
 70
0
 71
0
 72
0
 73
0
 74
0
 75
0
 76
0
 77
1
 78
8
 79
3
170
0
171
3
172
1
173
0
174
0
175
0
176
0
177
0
178
0
179
2
271
2
272
2
273
2
274
3
275
0
276
0
277
2
278
44
279
0
280
0
281
0
282
0
283
0
284
8
285
0
286
0
288
0
289
3
290
0
371
-2
372
-2
  0
ENDTAB
  0
TABLE
  2
BLOCK_RECORD
  5
9
330
0
100
AcDbSymbolTable
 70
2
  0
BLOCK_RECORD
  5
17
330
9
100
AcDbSymbolTableRecord
100
AcDbBlockTableRecord
  2
*Model_Space
340
1A
 70
0
280
1
281
0
  0
BLOCK_RECORD
  5
1B
330
9
100
AcDbSymbolTableRecord
100
AcDbBlockTableRecord
  2
*Paper_Space
340
1E
 70
0
280
1
281
0
  0
ENDTAB
  0
ENDSEC
  0
SECTION
  2
BLOCKS
  0
BLOCK
  5
18
330
17
100
AcDbEntity
  8
0
100
AcDbBlockBegin
  2
*Model_Space
 70
0
 10
0.0
 20
0.0
 30
0.0
  3
*Model_Space
  1

  0
ENDBLK
  5
19
330
17
100
AcDbEntity
  8
0
100
AcDbBlockEnd
  0
BLOCK
  5
1C
330
1B
100
AcDbEntity
  8
0
100
AcDbBlockBegin
  2
*Paper_Space
 70
0
 10
0.0
 20
0.0
 30
0.0
  3
*Paper_Space
  1

  0
ENDBLK
  5
1D
330
1B
100
AcDbEntity
  8
0
100
AcDbBlockEnd
  0
ENDSEC
  0
SECTION
  2
ENTITIES
  0
MTEXT
  5
3C
330
17
100
AcDbEntity
  8
LABELS
420
15855592
100
AcDbMText
 10
2.0
 20
-5212.0
 30
0.0
 40
12.0
 41
0.0
 71
7
  1
02_友腾-L-ACOUSTICS方案
  7
CJK
  0
LWPOLYLINE
  5
3D
330
17
100
AcDbEntity
  8
DEVICES
 62
7
370
25
420
11842217
100
AcDbPolyline
 90
5
 70
0
 10
287.0
 20
-40.0
 10
464.0
 20
-40.0
 10
464.0
 20
-93.0
 10
287.0
 20
-93.0
 10
287.0
 20
-40.0
  0
MTEXT
  5
3E
330
17
100
AcDbEntity
  8
LABELS
420
15855592
100
AcDbMText
 10
375.5
 20
-50.0
 30
0.0
 40
9.0
 41
0.0
 71
8
  1
中央声道远场扬声器组
  7
CJK
  0
MTEXT
  5
3F
330
17
100
AcDbEntity
  8
LABELS
420
12894904
100
AcDbMText
 10
375.5
 20
-60.0
 30
0.0
 40
8.0
 41
0.0
 71
8
  1
L-ACOUSTICS
  7
CJK
  0
MTEXT
  5
40
330
17
100
AcDbEntity
  8
LABELS
420
10131341
100
AcDbMText
 10
375.5
 20
-69.0
 30
0.0
 40
7.0
 41
0.0
 71
8
  1
KARA IIi
  7
CJK
  0
LWPOLYLINE
  5
41
330
17
100
AcDbEntity
  8
DEVICES
 62
7
370
25
420
11842217
100
AcDbPolyline
 90
5
 70
0
 10
287.0
 20
-119.0
 10
464.0
 20
-119.0
 10
464.0
 20
-172.0
 10
287.0
 20
-172.0
 10
287.0
 20
-119.0
  0
MTEXT
  5
42
330
17
100
AcDbEntity
  8
LABELS
420
15855592
100
AcDbMText
 10
375.5
 20
-129.0
 30
0.0
 40
9.0
 41
0.0
 71
8
  1
中央声道远场扬声器组
  7
CJK
  0
MTEXT
  5
43
330
17
100
AcDbEntity
  8
LABELS
420
12894904
100
AcDbMText
 10
375.5
 20
-139.0
 30
0.0
 40
8.0
 41
0.0
 71
8
  1
L-ACOUSTICS
  7
CJK
  0
MTEXT
  5
44
330
17
100
AcDbEntity
  8
LABELS
420
10131341
100
AcDbMText
 10
375.5
 20
-148.0
 30
0.0
 40
7.0
 41
0.0
 71
8
  1
KARA IIi
  7
CJK
  0
LWPOLYLINE
  5
45
330
17
100
AcDbEntity
  8
DEVICES
 62
7
370
25
420
11842217
100
AcDbPolyline
 90
5
 70
0
 10
287.0
 20
-198.0
 10
464.0
 20
-198.0
 10
464.0
 20
-251.0
 10
287.0
 20
-251.0
 10
287.0
 20
-198.0
  0
MTEXT
  5
46
330
17
100
AcDbEntity
  8
LABELS
420
15855592
100
AcDbMText
 10
375.5
 20
-208.0
 30
0.0
 40
9.0
 41
0.0
 71
8
  1
中央声道远场扬声器组
  7
CJK
  0
MTEXT
  5
47
330
17
100
AcDbEntity
  8
LABELS
420
12894904
100
AcDbMText
 10
375.5
 20
-218.0
 30
0.0
 40
8.0
 41
0.0
 71
8
  1
L-ACOUSTICS
  7
CJK
  0
MTEXT
  5
48
330
17
100
AcDbEntity
  8
LABELS
420
10131341
100
AcDbMText
 10
375.5
 20
-227.0
 30
0.0
 40
7.0
 41
0.0
 71
8
  1
KARA IIi
  7
CJK
  0
LWPOLYLINE
  5
49
330
17
100
AcDbEntity
  8
DEVICES
 62
7
370
25
420
11842217
100
AcDbPolyline
 90
5
 70
0
 10
287.0
 20
-277.0
 10
464.0
 20
-277.0
 10
464.0
 20
-330.0
 10
287.0
 20
-330.0
 10
287.0
 20
-277.0
  0
MTEXT
  5
4A
330
17
100
AcDbEntity
  8
LABELS
420
15855592
100
AcDbMText
 10
375.5
 20
-287.0
 30
0.0
 40
9.0
 41
0.0
 71
8
  1
中央声道远场扬声器组
  7
CJK
  0
MTEXT
  5
4B
330
17
100
AcDbEntity
  8
LABELS
420
12894904
100
AcDbMText
 10
375.5
 20
-297.0
 30
0.0
 40
8.0
 41
0.0
 71
8
  1
L-ACOUSTICS
  7
CJK
  0
MTEXT
  5
4C
330
17
100
AcDbEntity
  8
LABELS
420
10131341
100
AcDbMText
 10
375.5
 20
-306.0
 30
0.0
 40
7.0
 41
0.0
 71
8
  1
KARA IIi
  7
CJK
  0
LWPOLYLINE
  5
4D
330
17
100
AcDbEntity
  8
DEVICES
 62
7
370
25
420
11842217
100
AcDbPolyline
 90
5
 70
0
 10
287.0
 20
-356.0
 10
464.0
 20
-356.0
 10
464.0
 20
-409.0
 10
287.0
 20
-409.0
 10
287.0
 20
-356.0
  0
MTEXT
  5
4E
330
17
100
AcDbEntity
  8
LABELS
420
15855592
100
AcDbMText
 10
375.5
 20
-366.0
 30
0.0
 40
9.0
 41
0.0
 71
8
  1
中央声道远场扬声器组
  7
CJK
  0
MTEXT
  5
4F
330
17
100
AcDbEntity
  8
LABELS
420
12894904
100
AcDbMText
 10
375.5
 20
-376.0
 30
0.0
 40
8.0
 41
0.0
 71
8
  1
L-ACOUSTICS
  7
CJK
  0
MTEXT
  5
50
330
17
100
AcDbEntity
  8
LABELS
420
10131341
100
AcDbMText
 10
375.5
 20
-385.0
 30
0.0
 40
7.0
 41
0.0
 71
8
  1
KARA IIi
  7
CJK
  0
LWPOLYLINE
  5
51
330
17
100
AcDbEntity
  8
DEVICES
 62
7
370
25
420
11842217
100
AcDbPolyline
 90
5
 70
0
 10
287.0
 20
-435.0
 10
464.0
 20
-435.0
 10
464.0
 20
-488.0
 10
287.0
 20
-488.0
 10
287.0
 20
-435.0
  0
MTEXT
  5
52
330
17
100
AcDbEntity
  8
LABELS
420
15855592
100
AcDbMText
 10
375.5
 20
-445.0
 30
0.0
 40
9.0
 41
0.0
 71
8
  1
中央声道远场扬声器组
  7
CJK
  0
MTEXT
  5
53
330
17
100
AcDbEntity
  8
LABELS
420
12894904
100
AcDbMText
 10
375.5
 20
-455.0
 30
0.0
 40
8.0
 41
0.0
 71
8
  1
L-ACOUSTICS
  7
CJK
  0
MTEXT
  5
54
330
17
100
AcDbEntity
  8
LABELS
420
10131341
100
AcDbMText
 10
375.5
 20
-464.0
 30
0.0
 40
7.0
 41
0.0
 71
8
  1
KARA IIi
  7
CJK
  0
LWPOLYLINE
  5
55
330
17
100
AcDbEntity
  8
DEVICES
 62
7
370
25
420
11842217
100
AcDbPolyline
 90
5
 70
0
 10
287.0
 20
-514.0
 10
464.0
 20
-514.0
 10
464.0
 20
-567.0
 10
287.0
 20
-567.0
 10
287.0
 20
-514.0
  0
MTEXT
  5
56
330
17
100
AcDbEntity
  8
LABELS
420
15855592
100
AcDbMText
 10
375.5
 20
-524.0
 30
0.0
 40
9.0
 41
0.0
 71
8
  1
中央声道远场扬声器组
  7
CJK
  0
MTEXT
  5
57
330
17
100
AcDbEntity
  8
LABELS
420
12894904
100
AcDbMText
 10
375.5
 20
-534.0
 30
0.0
 40
8.0
 41
0.0
 71
8
  1
L-ACOUSTICS
  7
CJK
  0
MTEXT
  5
58
330
17
100
AcDbEntity
  8
LABELS
420
10131341
100
AcDbMText
 10
375.5
 20
-543.0
 30
0.0
 40
7.0
 41
0.0
 71
8
  1
KARA IIi
  7
CJK
  0
LWPOLYLINE
  5
59
330
17
100
AcDbEntity
  8
DEVICES
 62
7
370
25
420
11842217
100
AcDbPolyline
 90
5
 70
0
 10
287.0
 20
-593.0
 10
464.0
 20
-593.0
 10
464.0
 20
-646.0
 10
287.0
 20
-646.0
 10
287.0
 20
-593.0
  0
MTEXT
  5
5A
330
17
100
AcDbEntity
  8
LABELS
420
15855592
100
AcDbMText
 10
375.5
 20
-603.0
 30
0.0
 40
9.0
 41
0.0
 71
8
  1
中央声道远场扬声器组
  7
CJK
  0
MTEXT
  5
5B
330
17
100
AcDbEntity
  8
LABELS
420
12894904
100
AcDbMText
 10
375.5
 20
-613.0
 30
0.0
 40
8.0
 41
0.0
 71
8
  1
L-ACOUSTICS
  7
CJK
  0
MTEXT
  5
5C
330
17
100
AcDbEntity
  8
LABELS
420
10131341
100
AcDbMText
 10
375.5
 20
-622.0
 30
0.0
 40
7.0
 41
0.0
 71
8
  1
KARA IIi
  7
CJK
  0
LWPOLYLINE
  5
5D
330
17
100
AcDbEntity
  8
DEVICES
 62
7
370
25
420
11842217
100
AcDbPolyline
 90
5
 70
0
 10
287.0
 20
-672.0
 10
464.0
 20
-672.0
 10
464.0
 20
-725.0
 10
287.0
 20
-725.0
 10
287.0
 20
-672.0
  0
MTEXT
  5
5E
330
17
100
AcDbEntity
  8
LABELS
420
15855592
100
AcDbMText
 10
375.5
 20
-682.0
 30
0.0
 40
9.0
 41
0.0
 71
8
  1
左/右主扩声扬声器组
  7
CJK
  0
MTEXT
  5
5F
330
17
100
AcDbEntity
  8
LABELS
420
12894904
100
AcDbMText
 10
375.5
 20
-692.0
 30
0.0
 40
8.0
 41
0.0
 71
8
  1
L-ACOUSTICS
  7
CJK
  0
MTEXT
  5
60
330
17
100
AcDbEntity
  8
LABELS
420
10131341
100
AcDbMText
 10
375.5
 20
-701.0
 30
0.0
 40
7.0
 41
0.0
 71
8
  1
KARA IIi
  7
CJK
  0
LWPOLYLINE
  5
61
330
17
100
AcDbEntity
  8
DEVICES
 62
7
370
25
420
11842217
100
AcDbPolyline
 90
5
 70
0
 10
287.0
 20
-751.0
 10
464.0
 20
-751.0
 10
464.0
 20
-804.0
 10
287.0
 20
-804.0
 10
287.0
 20
-751.0
  0
MTEXT
  5
62
330
17
100
AcDbEntity
  8
LABELS
420
15855592
100
AcDbMText
 10
375.5
 20
-761.0
 30
0.0
 40
9.0
 41
0.0
 71
8
  1
左/右主扩声扬声器组
  7
CJK
  0
MTEXT
  5
63
330
17
100
AcDbEntity
  8
LABELS
420
12894904
100
AcDbMText
 10
375.5
 20
-771.0
 30
0.0
 40
8.0
 41
0.0
 71
8
  1
L-ACOUSTICS
  7
CJK
  0
MTEXT
  5
64
330
17
100
AcDbEntity
  8
LABELS
420
10131341
100
AcDbMText
 10
375.5
 20
-780.0
 30
0.0
 40
7.0
 41
0.0
 71
8
  1
KARA IIi
  7
CJK
  0
LWPOLYLINE
  5
65
330
17
100
AcDbEntity
  8
DEVICES
 62
7
370
25
420
11842217
100
AcDbPolyline
 90
5
 70
0
 10
287.0
 20
-830.0
 10
464.0
 20
-830.0
 10
464.0
 20
-883.0
 10
287.0
 20
-883.0
 10
287.0
 20
-830.0
  0
MTEXT
  5
66
330
17
100
AcDbEntity
  8
LABELS
420
15855592
100
AcDbMText
 10
375.5
 20
-840.0
 30
0.0
 40
9.0
 41
0.0
 71
8
  1
左/右主扩声扬声器组
  7
CJK
  0
MTEXT
  5
67
330
17
100
AcDbEntity
  8
LABELS
420
12894904
100
AcDbMText
 10
375.5
 20
-850.0
 30
0.0
 40
8.0
 41
0.0
 71
8
  1
L-ACOUSTICS
  7
CJK
  0
MTEXT
  5
68
330
17
100
AcDbEntity
  8
LABELS
420
10131341
100
AcDbMText
 10
375.5
 20
-859.0
 30
0.0
 40
7.0
 41
0.0
 71
8
  1
KARA IIi
  7
CJK
  0
LWPOLYLINE
  5
69
330
17
100
AcDbEntity
  8
DEVICES
 62
7
370
25
420
11842217
100
AcDbPolyline
 90
5
 70
0
 10
287.0
 20
-909.0
 10
464.0
 20
-909.0
 10
464.0
 20
-962.0
 10
287.0
 20
-962.0
 10
287.0
 20
-909.0
  0
MTEXT
  5
6A
330
17
100
AcDbEntity
  8
LABELS
420
15855592
100
AcDbMText
 10
375.5
 20
-919.0
 30
0.0
 40
9.0
 41
0.0
 71
8
  1
左/右主扩声扬声器组
  7
CJK
  0
MTEXT
  5
6B
330
17
100
AcDbEntity
  8
LABELS
420
12894904
100
AcDbMText
 10
375.5
 20
-929.0
 30
0.0
 40
8.0
 41
0.0
 71
8
  1
L-ACOUSTICS
  7
CJK
  0
MTEXT
  5
6C
330
17
100
AcDbEntity
  8
LABELS
420
10131341
100
AcDbMText
 10
375.5
 20
-938.0
 30
0.0
 40
7.0
 41
0.0
 71
8
  1
KARA IIi
  7
CJK
  0
LWPOLYLINE
  5
6D
330
17
100
AcDbEntity
  8
DEVICES
 62
7
370
25
420
11842217
100
AcDbPolyline
 90
5
 70
0
 10
287.0
 20
-988.0
 10
464.0
 20
-988.0
 10
464.0
 20
-1041.0
 10
287.0
 20
-1041.0
 10
287.0
 20
-988.0
  0
MTEXT
  5
6E
330
17
100
AcDbEntity
  8
LABELS
420
15855592
100
AcDbMText
 10
375.5
 20
-998.0
 30
0.0
 40
9.0
 41
0.0
 71
8
  1
左/右主扩声扬声器组
  7
CJK
  0
MTEXT
  5
6F
330
17
100
AcDbEntity
  8
LABELS
420
12894904
100
AcDbMText
 10
375.5
 20
-1008.0
 30
0.0
 40
8.0
 41
0.0
 71
8
  1
L-ACOUSTICS
  7
CJK
  0
MTEXT
  5
70
330
17
100
AcDbEntity
  8
LABELS
420
10131341
100
AcDbMText
 10
375.5
 20
-1017.0
 30
0.0
 40
7.0
 41
0.0
 71
8
  1
KARA IIi
  7
CJK
  0
LWPOLYLINE
  5
71
330
17
100
AcDbEntity
  8
DEVICES
 62
7
370
25
420
11842217
100
AcDbPolyline
 90
5
 70
0
 10
287.0
 20
-1067.0
 10
464.0
 20
-1067.0
 10
464.0
 20
-1120.0
 10
287.0
 20
-1120.0
 10
287.0
 20
-1067.0
  0
MTEXT
  5
72
330
17
100
AcDbEntity
  8
LABELS
420
15855592
100
AcDbMText
 10
375.5
 20
-1077.0
 30
0.0
 40
9.0
 41
0.0
 71
8
  1
左/右主扩声扬声器组
  7
CJK
  0
MTEXT
  5
73
330
17
100
AcDbEntity
  8
LABELS
420
12894904
100
AcDbMText
 10
375.5
 20
-1087.0
 30
0.0
 40
8.0
 41
0.0
 71
8
  1
L-ACOUSTICS
  7
CJK
  0
MTEXT
  5
74
330
17
100
AcDbEntity
  8
LABELS
420
10131341
100
AcDbMText
 10
375.5
 20
-1096.0
 30
0.0
 40
7.0
 41
0.0
 71
8
  1
KARA IIi
  7
CJK
  0
LWPOLYLINE
  5
75
330
17
100
AcDbEntity
  8
DEVICES
 62
7
370
25
420
11842217
100
AcDbPolyline
 90
5
 70
0
 10
287.0
 20
-1146.0
 10
464.0
 20
-1146.0
 10
464.0
 20
-1199.0
 10
287.0
 20
-1199.0
 10
287.0
 20
-1146.0
  0
MTEXT
  5
76
330
17
100
AcDbEntity
  8
LABELS
420
15855592
100
AcDbMText
 10
375.5
 20
-1156.0
 30
0.0
 40
9.0
 41
0.0
 71
8
  1
左/右主扩声扬声器组
  7
CJK
  0
MTEXT
  5
77
330
17
100
AcDbEntity
  8
LABELS
420
12894904
100
AcDbMText
 10
375.5
 20
-1166.0
 30
0.0
 40
8.0
 41
0.0
 71
8
  1
L-ACOUSTICS
  7
CJK
  0
MTEXT
  5
78
330
17
100
AcDbEntity
  8
LABELS
420
10131341
100
AcDbMText
 10
375.5
 20
-1175.0
 30
0.0
 40
7.0
 41
0.0
 71
8
  1
KARA IIi
  7
CJK
  0
LWPOLYLINE
  5
79
330
17
100
AcDbEntity
  8
DEVICES
 62
7
370
25
420
11842217
100
AcDbPolyline
 90
5
 70
0
 10
287.0
 20
-1225.0
 10
464.0
 20
-1225.0
 10
464.0
 20
-1278.0
 10
287.0
 20
-1278.0
 10
287.0
 20
-1225.0
  0
MTEXT
  5
7A
330
17
100
AcDbEntity
  8
LABELS
420
15855592
100
AcDbMText
 10
375.5
 20
-1235.0
 30
0.0
 40
9.0
 41
0.0
 71
8
  1
左/右主扩声扬声器组
  7
CJK
  0
MTEXT
  5
7B
330
17
100
AcDbEntity
  8
LABELS
420
12894904
100
AcDbMText
 10
375.5
 20
-1245.0
 30
0.0
 40
8.0
 41
0.0
 71
8
  1
L-ACOUSTICS
  7
CJK
  0
MTEXT
  5
7C
330
17
100
AcDbEntity
  8
LABELS
420
10131341
100
AcDbMText
 10
375.5
 20
-1254.0
 30
0.0
 40
7.0
 41
0.0
 71
8
  1
KARA IIi
  7
CJK
  0
LWPOLYLINE
  5
7D
330
17
100
AcDbEntity
  8
DEVICES
 62
7
370
25
420
11842217
100
AcDbPolyline
 90
5
 70
0
 10
287.0
 20
-1304.0
 10
464.0
 20
-1304.0
 10
464.0
 20
-1357.0
 10
287.0
 20
-1357.0
 10
287.0
 20
-1304.0
  0
MTEXT
  5
7E
330
17
100
AcDbEntity
  8
LABELS
420
15855592
100
AcDbMText
 10
375.5
 20
-1314.0
 30
0.0
 40
9.0
 41
0.0
 71
8
  1
左/右主扩声扬声器组
  7
CJK
  0
MTEXT
  5
7F
330
17
100
AcDbEntity
  8
LABELS
420
12894904
100
AcDbMText
 10
375.5
 20
-1324.0
 30
0.0
 40
8.0
 41
0.0
 71
8
  1
L-ACOUSTICS
  7
CJK
  0
MTEXT
  5
80
330
17
100
AcDbEntity
  8
LABELS
420
10131341
100
AcDbMText
 10
375.5
 20
-1333.0
 30
0.0
 40
7.0
 41
0.0
 71
8
  1
KARA IIi
  7
CJK
  0
LWPOLYLINE
  5
81
330
17
100
AcDbEntity
  8
DEVICES
 62
7
370
25
420
11842217
100
AcDbPolyline
 90
5
 70
0
 10
287.0
 20
-1383.0
 10
464.0
 20
-1383.0
 10
464.0
 20
-1436.0
 10
287.0
 20
-1436.0
 10
287.0
 20
-1383.0
  0
MTEXT
  5
82
330
17
100
AcDbEntity
  8
LABELS
420
15855592
100
AcDbMText
 10
375.5
 20
-1393.0
 30
0.0
 40
9.0
 41
0.0
 71
8
  1
左/右主扩声扬声器组
  7
CJK
  0
MTEXT
  5
83
330
17
100
AcDbEntity
  8
LABELS
420
12894904
100
AcDbMText
 10
375.5
 20
-1403.0
 30
0.0
 40
8.0
 41
0.0
 71
8
  1
L-ACOUSTICS
  7
CJK
  0
MTEXT
  5
84
330
17
100
AcDbEntity
  8
LABELS
420
10131341
100
AcDbMText
 10
375.5
 20
-1412.0
 30
0.0
 40
7.0
 41
0.0
 71
8
  1
KARA IIi
  7
CJK
  0
LWPOLYLINE
  5
85
330
17
100
AcDbEntity
  8
DEVICES
 62
7
370
25
420
11842217
100
AcDbPolyline
 90
5
 70
0
 10
287.0
 20
-1462.0
 10
464.0
 20
-1462.0
 10
464.0
 20
-1515.0
 10
287.0
 20
-1515.0
 10
287.0
 20
-1462.0
  0
MTEXT
  5
86
330
17
100
AcDbEntity
  8
LABELS
420
15855592
100
AcDbMText
 10
375.5
 20
-1472.0
 30
0.0
 40
9.0
 41
0.0
 71
8
  1
左/右主扩声扬声器组
  7
CJK
  0
MTEXT
  5
87
330
17
100
AcDbEntity
  8
LABELS
420
12894904
100
AcDbMText
 10
375.5
 20
-1482.0
 30
0.0
 40
8.0
 41
0.0
 71
8
  1
L-ACOUSTICS
  7
CJK
  0
MTEXT
  5
88
330
17
100
AcDbEntity
  8
LABELS
420
10131341
100
AcDbMText
 10
375.5
 20
-1491.0
 30
0.0
 40
7.0
 41
0.0
 71
8
  1
KARA IIi
  7
CJK
  0
LWPOLYLINE
  5
89
330
17
100
AcDbEntity
  8
DEVICES
 62
7
370
25
420
11842217
100
AcDbPolyline
 90
5
 70
0
 10
287.0
 20
-1541.0
 10
464.0
 20
-1541.0
 10
464.0
 20
-1594.0
 10
287.0
 20
-1594.0
 10
287.0
 20
-1541.0
  0
MTEXT
  5
8A
330
17
100
AcDbEntity
  8
LABELS
420
15855592
100
AcDbMText
 10
375.5
 20
-1551.0
 30
0.0
 40
9.0
 41
0.0
 71
8
  1
左/右主扩声扬声器组
  7
CJK
  0
MTEXT
  5
8B
330
17
100
AcDbEntity
  8
LABELS
420
12894904
100
AcDbMText
 10
375.5
 20
-1561.0
 30
0.0
 40
8.0
 41
0.0
 71
8
  1
L-ACOUSTICS
  7
CJK
  0
MTEXT
  5
8C
330
17
100
AcDbEntity
  8
LABELS
420
10131341
100
AcDbMText
 10
375.5
 20
-1570.0
 30
0.0
 40
7.0
 41
0.0
 71
8
  1
KARA IIi
  7
CJK
  0
LWPOLYLINE
  5
8D
330
17
100
AcDbEntity
  8
DEVICES
 62
7
370
25
420
11842217
100
AcDbPolyline
 90
5
 70
0
 10
287.0
 20
-1620.0
 10
464.0
 20
-1620.0
 10
464.0
 20
-1673.0
 10
287.0
 20
-1673.0
 10
287.0
 20
-1620.0
  0
MTEXT
  5
8E
330
17
100
AcDbEntity
  8
LABELS
420
15855592
100
AcDbMText
 10
375.5
 20
-1630.0
 30
0.0
 40
9.0
 41
0.0
 71
8
  1
左/右主扩声扬声器组
  7
CJK
  0
MTEXT
  5
8F
330
17
100
AcDbEntity
  8
LABELS
420
12894904
100
AcDbMText
 10
375.5
 20
-1640.0
 30
0.0
 40
8.0
 41
0.0
 71
8
  1
L-ACOUSTICS
  7
CJK
  0
MTEXT
  5
90
330
17
100
AcDbEntity
  8
LABELS
420
10131341
100
AcDbMText
 10
375.5
 20
-1649.0
 30
0.0
 40
7.0
 41
0.0
 71
8
  1
KARA IIi
  7
CJK
  0
LWPOLYLINE
  5
91
330
17
100
AcDbEntity
  8
DEVICES
 62
7
370
25
420
11842217
100
AcDbPolyline
 90
5
 70
0
 10
287.0
 20
-1699.0
 10
464.0
 20
-1699.0
 10
464.0
 20
-1752.0
 10
287.0
 20
-1752.0
 10
287.0
 20
-1699.0
  0
MTEXT
  5
92
330
17
100
AcDbEntity
  8
LABELS
420
15855592
100
AcDbMText
 10
375.5
 20
-1709.0
 30
0.0
 40
9.0
 41
0.0
 71
8
  1
左/右主扩声扬声器组
  7
CJK
  0
MTEXT
  5
93
330
17
100
AcDbEntity
  8
LABELS
420
12894904
100
AcDbMText
 10
375.5
 20
-1719.0
 30
0.0
 40
8.0
 41
0.0
 71
8
  1
L-ACOUSTICS
  7
CJK
  0
MTEXT
  5
94
330
17
100
AcDbEntity
  8
LABELS
420
10131341
100
AcDbMText
 10
375.5
 20
-1728.0
 30
0.0
 40
7.0
 41
0.0
 71
8
  1
KARA IIi
  7
CJK
  0
LWPOLYLINE
  5
95
330
17
100
AcDbEntity
  8
DEVICES
 62
7
370
25
420
11842217
100
AcDbPolyline
 90
5
 70
0
 10
287.0
 20
-1778.0
 10
464.0
 20
-1778.0
 10
464.0
 20
-1831.0
 10
287.0
 20
-1831.0
 10
287.0
 20
-1778.0
  0
MTEXT
  5
96
330
17
100
AcDbEntity
  8
LABELS
420
15855592
100
AcDbMText
 10
375.5
 20
-1788.0
 30
0.0
 40
9.0
 41
0.0
 71
8
  1
左/右主扩声扬声器组
  7
CJK
  0
MTEXT
  5
97
330
17
100
AcDbEntity
  8
LABELS
420
12894904
100
AcDbMText
 10
375.5
 20
-1798.0
 30
0.0
 40
8.0
 41
0.0
 71
8
  1
L-ACOUSTICS
  7
CJK
  0
MTEXT
  5
98
330
17
100
AcDbEntity
  8
LABELS
420
10131341
100
AcDbMText
 10
375.5
 20
-1807.0
 30
0.0
 40
7.0
 41
0.0
 71
8
  1
KARA IIi
  7
CJK
  0
LWPOLYLINE
  5
99
330
17
100
AcDbEntity
  8
DEVICES
 62
7
370
25
420
11842217
100
AcDbPolyline
 90
5
 70
0
 10
287.0
 20
-1857.0
 10
464.0
 20
-1857.0
 10
464.0
 20
-1910.0
 10
287.0
 20
-1910.0
 10
287.0
 20
-1857.0
  0
MTEXT
  5
9A
330
17
100
AcDbEntity
  8
LABELS
420
15855592
100
AcDbMText
 10
375.5
 20
-1867.0
 30
0.0
 40
9.0
 41
0.0
 71
8
  1
左/右主扩声扬声器组
  7
CJK
  0
MTEXT
  5
9B
330
17
100
AcDbEntity
  8
LABELS
420
12894904
100
AcDbMText
 10
375.5
 20
-1877.0
 30
0.0
 40
8.0
 41
0.0
 71
8
  1
L-ACOUSTICS
  7
CJK
  0
MTEXT
  5
9C
330
17
100
AcDbEntity
  8
LABELS
420
10131341
100
AcDbMText
 10
375.5
 20
-1886.0
 30
0.0
 40
7.0
 41
0.0
 71
8
  1
KARA IIi
  7
CJK
  0
LWPOLYLINE
  5
9D
330
17
100
AcDbEntity
  8
DEVICES
 62
7
370
25
420
11842217
100
AcDbPolyline
 90
5
 70
0
 10
287.0
 20
-1936.0
 10
464.0
 20
-1936.0
 10
464.0
 20
-1989.0
 10
287.0
 20
-1989.0
 10
287.0
 20
-1936.0
  0
MTEXT
  5
9E
330
17
100
AcDbEntity
  8
LABELS
420
15855592
100
AcDbMText
 10
375.5
 20
-1946.0
 30
0.0
 40
9.0
 41
0.0
 71
8
  1
左右次低频扬声器组
  7
CJK
  0
MTEXT
  5
9F
330
17
100
AcDbEntity
  8
LABELS
420
12894904
100
AcDbMText
 10
375.5
 20
-1956.0
 30
0.0
 40
8.0
 41
0.0
 71
8
  1
L-ACOUSTICS
  7
CJK
  0
MTEXT
  5
A0
330
17
100
AcDbEntity
  8
LABELS
420
10131341
100
AcDbMText
 10
375.5
 20
-1965.0
 30
0.0
 40
7.0
 41
0.0
 71
8
  1
SB18 IIi
  7
CJK
  0
LWPOLYLINE
  5
A1
330
17
100
AcDbEntity
  8
DEVICES
 62
7
370
25
420
11842217
100
AcDbPolyline
 90
5
 70
0
 10
287.0
 20
-2015.0
 10
464.0
 20
-2015.0
 10
464.0
 20
-2068.0
 10
287.0
 20
-2068.0
 10
287.0
 20
-2015.0
  0
MTEXT
  5
A2
330
17
100
AcDbEntity
  8
LABELS
420
15855592
100
AcDbMText
 10
375.5
 20
-2025.0
 30
0.0
 40
9.0
 41
0.0
 71
8
  1
左右次低频扬声器组
  7
CJK
  0
MTEXT
  5
A3
330
17
100
AcDbEntity
  8
LABELS
420
12894904
100
AcDbMText
 10
375.5
 20
-2035.0
 30
0.0
 40
8.0
 41
0.0
 71
8
  1
L-ACOUSTICS
  7
CJK
  0
MTEXT
  5
A4
330
17
100
AcDbEntity
  8
LABELS
420
10131341
100
AcDbMText
 10
375.5
 20
-2044.0
 30
0.0
 40
7.0
 41
0.0
 71
8
  1
SB18 IIi
  7
CJK
  0
LWPOLYLINE
  5
A5
330
17
100
AcDbEntity
  8
DEVICES
 62
7
370
25
420
11842217
100
AcDbPolyline
 90
5
 70
0
 10
287.0
 20
-2094.0
 10
464.0
 20
-2094.0
 10
464.0
 20
-2147.0
 10
287.0
 20
-2147.0
 10
287.0
 20
-2094.0
  0
MTEXT
  5
A6
330
17
100
AcDbEntity
  8
LABELS
420
15855592
100
AcDbMText
 10
375.5
 20
-2104.0
 30
0.0
 40
9.0
 41
0.0
 71
8
  1
左右次低频扬声器组
  7
CJK
  0
MTEXT
  5
A7
330
17
100
AcDbEntity
  8
LABELS
420
12894904
100
AcDbMText
 10
375.5
 20
-2114.0
 30
0.0
 40
8.0
 41
0.0
 71
8
  1
L-ACOUSTICS
  7
CJK
  0
MTEXT
  5
A8
330
17
100
AcDbEntity
  8
LABELS
420
10131341
100
AcDbMText
 10
375.5
 20
-2123.0
 30
0.0
 40
7.0
 41
0.0
 71
8
  1
SB18 IIi
  7
CJK
  0
LWPOLYLINE
  5
A9
330
17
100
AcDbEntity
  8
DEVICES
 62
7
370
25
420
11842217
100
AcDbPolyline
 90
5
 70
0
 10
287.0
 20
-2173.0
 10
464.0
 20
-2173.0
 10
464.0
 20
-2226.0
 10
287.0
 20
-2226.0
 10
287.0
 20
-2173.0
  0
MTEXT
  5
AA
330
17
100
AcDbEntity
  8
LABELS
420
15855592
100
AcDbMText
 10
375.5
 20
-2183.0
 30
0.0
 40
9.0
 41
0.0
 71
8
  1
左右次低频扬声器组
  7
CJK
  0
MTEXT
  5
AB
330
17
100
AcDbEntity
  8
LABELS
420
12894904
100
AcDbMText
 10
375.5
 20
-2193.0
 30
0.0
 40
8.0
 41
0.0
 71
8
  1
L-ACOUSTICS
  7
CJK
  0
MTEXT
  5
AC
330
17
100
AcDbEntity
  8
LABELS
420
10131341
100
AcDbMText
 10
375.5
 20
-2202.0
 30
0.0
 40
7.0
 41
0.0
 71
8
  1
SB18 IIi
  7
CJK
  0
LWPOLYLINE
  5
AD
330
17
100
AcDbEntity
  8
DEVICES
 62
7
370
25
420
11842217
100
AcDbPolyline
 90
5
 70
0
 10
287.0
 20
-2252.0
 10
464.0
 20
-2252.0
 10
464.0
 20
-2305.0
 10
287.0
 20
-2305.0
 10
287.0
 20
-2252.0
  0
MTEXT
  5
AE
330
17
100
AcDbEntity
  8
LABELS
420
15855592
100
AcDbMText
 10
375.5
 20
-2262.0
 30
0.0
 40
9.0
 41
0.0
 71
8
  1
左右次低频扬声器组
  7
CJK
  0
MTEXT
  5
AF
330
17
100
AcDbEntity
  8
LABELS
420
12894904
100
AcDbMText
 10
375.5
 20
-2272.0
 30
0.0
 40
8.0
 41
0.0
 71
8
  1
L-ACOUSTICS
  7
CJK
  0
MTEXT
  5
B0
330
17
100
AcDbEntity
  8
LABELS
420
10131341
100
AcDbMText
 10
375.5
 20
-2281.0
 30
0.0
 40
7.0
 41
0.0
 71
8
  1
SB18 IIi
  7
CJK
  0
LWPOLYLINE
  5
B1
330
17
100
AcDbEntity
  8
DEVICES
 62
7
370
25
420
11842217
100
AcDbPolyline
 90
5
 70
0
 10
287.0
 20
-2331.0
 10
464.0
 20
-2331.0
 10
464.0
 20
-2384.0
 10
287.0
 20
-2384.0
 10
287.0
 20
-2331.0
  0
MTEXT
  5
B2
330
17
100
AcDbEntity
  8
LABELS
420
15855592
100
AcDbMText
 10
375.5
 20
-2341.0
 30
0.0
 40
9.0
 41
0.0
 71
8
  1
左右次低频扬声器组
  7
CJK
  0
MTEXT
  5
B3
330
17
100
AcDbEntity
  8
LABELS
420
12894904
100
AcDbMText
 10
375.5
 20
-2351.0
 30
0.0
 40
8.0
 41
0.0
 71
8
  1
L-ACOUSTICS
  7
CJK
  0
MTEXT
  5
B4
330
17
100
AcDbEntity
  8
LABELS
420
10131341
100
AcDbMText
 10
375.5
 20
-2360.0
 30
0.0
 40
7.0
 41
0.0
 71
8
  1
SB18 IIi
  7
CJK
  0
LWPOLYLINE
  5
B5
330
17
100
AcDbEntity
  8
DEVICES
 62
7
370
25
420
11842217
100
AcDbPolyline
 90
5
 70
0
 10
287.0
 20
-2410.0
 10
438.0
 20
-2410.0
 10
438.0
 20
-2474.0
 10
287.0
 20
-2474.0
 10
287.0
 20
-2410.0
  0
MTEXT
  5
B6
330
17
100
AcDbEntity
  8
LABELS
420
15855592
100
AcDbMText
 10
362.5
 20
-2420.0
 30
0.0
 40
9.0
 41
0.0
 71
8
  1
左/右拉声像扬声器
  7
CJK
  0
LWPOLYLINE
  5
B7
330
17
100
AcDbEntity
  8
DEVICES
 62
7
370
25
420
11842217
100
AcDbPolyline
 90
5
 70
0
 10
287.0
 20
-2500.0
 10
438.0
 20
-2500.0
 10
438.0
 20
-2564.0
 10
287.0
 20
-2564.0
 10
287.0
 20
-2500.0
  0
MTEXT
  5
B8
330
17
100
AcDbEntity
  8
LABELS
420
15855592
100
AcDbMText
 10
362.5
 20
-2510.0
 30
0.0
 40
9.0
 41
0.0
 71
8
  1
左/右拉声像扬声器
  7
CJK
  0
LWPOLYLINE
  5
B9
330
17
100
AcDbEntity
  8
DEVICES
 62
7
370
25
420
11842217
100
AcDbPolyline
 90
5
 70
0
 10
287.0
 20
-2590.0
 10
438.0
 20
-2590.0
 10
438.0
 20
-2654.0
 10
287.0
 20
-2654.0
 10
287.0
 20
-2590.0
  0
MTEXT
  5
BA
330
17
100
AcDbEntity
  8
LABELS
420
15855592
100
AcDbMText
 10
362.5
 20
-2600.0
 30
0.0
 40
9.0
 41
0.0
 71
8
  1
左/右拉声像扬声器
  7
CJK
  0
LWPOLYLINE
  5
BB
330
17
100
AcDbEntity
  8
DEVICES
 62
7
370
25
420
11842217
100
AcDbPolyline
 90
5
 70
0
 10
287.0
 20
-2680.0
 10
438.0
 20
-2680.0
 10
438.0
 20
-2744.0
 10
287.0
 20
-2744.0
 10
287.0
 20
-2680.0
  0
MTEXT
  5
BC
330
17
100
AcDbEntity
  8
LABELS
420
15855592
100
AcDbMText
 10
362.5
 20
-2690.0
 30
0.0
 40
9.0
 41
0.0
 71
8
  1
左/右拉声像扬声器
  7
CJK
  0
LWPOLYLINE
  5
BD
330
17
100
AcDbEntity
  8
DEVICES
 62
7
370
25
420
11842217
100
AcDbPolyline
 90
5
 70
0
 10
287.0
 20
-2770.0
 10
464.0
 20
-2770.0
 10
464.0
 20
-2823.0
 10
287.0
 20
-2823.0
 10
287.0
 20
-2770.0
  0
MTEXT
  5
BE
330
17
100
AcDbEntity
  8
LABELS
420
15855592
100
AcDbMText
 10
375.5
 20
-2780.0
 30
0.0
 40
9.0
 41
0.0
 71
8
  1
超低扬声器
  7
CJK
  0
MTEXT
  5
BF
330
17
100
AcDbEntity
  8
LABELS
420
12894904
100
AcDbMText
 10
375.5
 20
-2790.0
 30
0.0
 40
8.0
 41
0.0
 71
8
  1
L-ACOUSTICS
  7
CJK
  0
MTEXT
  5
C0
330
17
100
AcDbEntity
  8
LABELS
420
10131341
100
AcDbMText
 10
375.5
 20
-2799.0
 30
0.0
 40
7.0
 41
0.0
 71
8
  1
KS28
  7
CJK
  0
LWPOLYLINE
  5
C1
330
17
100
AcDbEntity
  8
DEVICES
 62
7
370
25
420
11842217
100
AcDbPolyline
 90
5
 70
0
 10
287.0
 20
-2849.0
 10
464.0
 20
-2849.0
 10
464.0
 20
-2902.0
 10
287.0
 20
-2902.0
 10
287.0
 20
-2849.0
  0
MTEXT
  5
C2
330
17
100
AcDbEntity
  8
LABELS
420
15855592
100
AcDbMText
 10
375.5
 20
-2859.0
 30
0.0
 40
9.0
 41
0.0
 71
8
  1
超低扬声器
  7
CJK
  0
MTEXT
  5
C3
330
17
100
AcDbEntity
  8
LABELS
420
12894904
100
AcDbMText
 10
375.5
 20
-2869.0
 30
0.0
 40
8.0
 41
0.0
 71
8
  1
L-ACOUSTICS
  7
CJK
  0
MTEXT
  5
C4
330
17
100
AcDbEntity
  8
LABELS
420
10131341
100
AcDbMText
 10
375.5
 20
-2878.0
 30
0.0
 40
7.0
 41
0.0
 71
8
  1
KS28
  7
CJK
  0
LWPOLYLINE
  5
C5
330
17
100
AcDbEntity
  8
DEVICES
 62
7
370
25
420
11842217
100
AcDbPolyline
 90
5
 70
0
 10
287.0
 20
-2928.0
 10
464.0
 20
-2928.0
 10
464.0
 20
-2981.0
 10
287.0
 20
-2981.0
 10
287.0
 20
-2928.0
  0
MTEXT
  5
C6
330
17
100
AcDbEntity
  8
LABELS
420
15855592
100
AcDbMText
 10
375.5
 20
-2938.0
 30
0.0
 40
9.0
 41
0.0
 71
8
  1
超低扬声器
  7
CJK
  0
MTEXT
  5
C7
330
17
100
AcDbEntity
  8
LABELS
420
12894904
100
AcDbMText
 10
375.5
 20
-2948.0
 30
0.0
 40
8.0
 41
0.0
 71
8
  1
L-ACOUSTICS
  7
CJK
  0
MTEXT
  5
C8
330
17
100
AcDbEntity
  8
LABELS
420
10131341
100
AcDbMText
 10
375.5
 20
-2957.0
 30
0.0
 40
7.0
 41
0.0
 71
8
  1
KS28
  7
CJK
  0
LWPOLYLINE
  5
C9
330
17
100
AcDbEntity
  8
DEVICES
 62
7
370
25
420
11842217
100
AcDbPolyline
 90
5
 70
0
 10
287.0
 20
-3007.0
 10
464.0
 20
-3007.0
 10
464.0
 20
-3060.0
 10
287.0
 20
-3060.0
 10
287.0
 20
-3007.0
  0
MTEXT
  5
CA
330
17
100
AcDbEntity
  8
LABELS
420
15855592
100
AcDbMText
 10
375.5
 20
-3017.0
 30
0.0
 40
9.0
 41
0.0
 71
8
  1
超低扬声器
  7
CJK
  0
MTEXT
  5
CB
330
17
100
AcDbEntity
  8
LABELS
420
12894904
100
AcDbMText
 10
375.5
 20
-3027.0
 30
0.0
 40
8.0
 41
0.0
 71
8
  1
L-ACOUSTICS
  7
CJK
  0
MTEXT
  5
CC
330
17
100
AcDbEntity
  8
LABELS
420
10131341
100
AcDbMText
 10
375.5
 20
-3036.0
 30
0.0
 40
7.0
 41
0.0
 71
8
  1
KS28
  7
CJK
  0
LWPOLYLINE
  5
CD
330
17
100
AcDbEntity
  8
DEVICES
 62
7
370
25
420
11842217
100
AcDbPolyline
 90
5
 70
0
 10
287.0
 20
-3086.0
 10
464.0
 20
-3086.0
 10
464.0
 20
-3139.0
 10
287.0
 20
-3139.0
 10
287.0
 20
-3086.0
  0
MTEXT
  5
CE
330
17
100
AcDbEntity
  8
LABELS
420
15855592
100
AcDbMText
 10
375.5
 20
-3096.0
 30
0.0
 40
9.0
 41
0.0
 71
8
  1
固定返送扬声器
  7
CJK
  0
MTEXT
  5
CF
330
17
100
AcDbEntity
  8
LABELS
420
12894904
100
AcDbMText
 10
375.5
 20
-3106.0
 30
0.0
 40
8.0
 41
0.0
 71
8
  1
L-ACOUSTICS
  7
CJK
  0
MTEXT
  5
D0
330
17
100
AcDbEntity
  8
LABELS
420
10131341
100
AcDbMText
 10
375.5
 20
-3115.0
 30
0.0
 40
7.0
 41
0.0
 71
8
  1
X12
  7
CJK
  0
LWPOLYLINE
  5
D1
330
17
100
AcDbEntity
  8
DEVICES
 62
7
370
25
420
11842217
100
AcDbPolyline
 90
5
 70
0
 10
287.0
 20
-3165.0
 10
464.0
 20
-3165.0
 10
464.0
 20
-3218.0
 10
287.0
 20
-3218.0
 10
287.0
 20
-3165.0
  0
MTEXT
  5
D2
330
17
100
AcDbEntity
  8
LABELS
420
15855592
100
AcDbMText
 10
375.5
 20
-3175.0
 30
0.0
 40
9.0
 41
0.0
 71
8
  1
固定返送扬声器
  7
CJK
  0
MTEXT
  5
D3
330
17
100
AcDbEntity
  8
LABELS
420
12894904
100
AcDbMText
 10
375.5
 20
-3185.0
 30
0.0
 40
8.0
 41
0.0
 71
8
  1
L-ACOUSTICS
  7
CJK
  0
MTEXT
  5
D4
330
17
100
AcDbEntity
  8
LABELS
420
10131341
100
AcDbMText
 10
375.5
 20
-3194.0
 30
0.0
 40
7.0
 41
0.0
 71
8
  1
X12
  7
CJK
  0
LWPOLYLINE
  5
D5
330
17
100
AcDbEntity
  8
DEVICES
 62
7
370
25
420
11842217
100
AcDbPolyline
 90
5
 70
0
 10
287.0
 20
-3244.0
 10
464.0
 20
-3244.0
 10
464.0
 20
-3297.0
 10
287.0
 20
-3297.0
 10
287.0
 20
-3244.0
  0
MTEXT
  5
D6
330
17
100
AcDbEntity
  8
LABELS
420
15855592
100
AcDbMText
 10
375.5
 20
-3254.0
 30
0.0
 40
9.0
 41
0.0
 71
8
  1
固定返送扬声器
  7
CJK
  0
MTEXT
  5
D7
330
17
100
AcDbEntity
  8
LABELS
420
12894904
100
AcDbMText
 10
375.5
 20
-3264.0
 30
0.0
 40
8.0
 41
0.0
 71
8
  1
L-ACOUSTICS
  7
CJK
  0
MTEXT
  5
D8
330
17
100
AcDbEntity
  8
LABELS
420
10131341
100
AcDbMText
 10
375.5
 20
-3273.0
 30
0.0
 40
7.0
 41
0.0
 71
8
  1
X12
  7
CJK
  0
LWPOLYLINE
  5
D9
330
17
100
AcDbEntity
  8
DEVICES
 62
7
370
25
420
11842217
100
AcDbPolyline
 90
5
 70
0
 10
287.0
 20
-3323.0
 10
464.0
 20
-3323.0
 10
464.0
 20
-3376.0
 10
287.0
 20
-3376.0
 10
287.0
 20
-3323.0
  0
MTEXT
  5
DA
330
17
100
AcDbEntity
  8
LABELS
420
15855592
100
AcDbMText
 10
375.5
 20
-3333.0
 30
0.0
 40
9.0
 41
0.0
 71
8
  1
固定返送扬声器
  7
CJK
  0
MTEXT
  5
DB
330
17
100
AcDbEntity
  8
LABELS
420
12894904
100
AcDbMText
 10
375.5
 20
-3343.0
 30
0.0
 40
8.0
 41
0.0
 71
8
  1
L-ACOUSTICS
  7
CJK
  0
MTEXT
  5
DC
330
17
100
AcDbEntity
  8
LABELS
420
10131341
100
AcDbMText
 10
375.5
 20
-3352.0
 30
0.0
 40
7.0
 41
0.0
 71
8
  1
X12
  7
CJK
  0
LWPOLYLINE
  5
DD
330
17
100
AcDbEntity
  8
DEVICES
 62
7
370
25
420
11842217
100
AcDbPolyline
 90
5
 70
0
 10
287.0
 20
-3402.0
 10
464.0
 20
-3402.0
 10
464.0
 20
-3455.0
 10
287.0
 20
-3455.0
 10
287.0
 20
-3402.0
  0
MTEXT
  5
DE
330
17
100
AcDbEntity
  8
LABELS
420
15855592
100
AcDbMText
 10
375.5
 20
-3412.0
 30
0.0
 40
9.0
 41
0.0
 71
8
  1
流动返送扬声器
  7
CJK
  0
MTEXT
  5
DF
330
17
100
AcDbEntity
  8
LABELS
420
12894904
100
AcDbMText
 10
375.5
 20
-3422.0
 30
0.0
 40
8.0
 41
0.0
 71
8
  1
L-ACOUSTICS
  7
CJK
  0
MTEXT
  5
E0
330
17
100
AcDbEntity
  8
LABELS
420
10131341
100
AcDbMText
 10
375.5
 20
-3431.0
 30
0.0
 40
7.0
 41
0.0
 71
8
  1
X12
  7
CJK
  0
LWPOLYLINE
  5
E1
330
17
100
AcDbEntity
  8
DEVICES
 62
7
370
25
420
11842217
100
AcDbPolyline
 90
5
 70
0
 10
287.0
 20
-3481.0
 10
464.0
 20
-3481.0
 10
464.0
 20
-3534.0
 10
287.0
 20
-3534.0
 10
287.0
 20
-3481.0
  0
MTEXT
  5
E2
330
17
100
AcDbEntity
  8
LABELS
420
15855592
100
AcDbMText
 10
375.5
 20
-3491.0
 30
0.0
 40
9.0
 41
0.0
 71
8
  1
流动返送扬声器
  7
CJK
  0
MTEXT
  5
E3
330
17
100
AcDbEntity
  8
LABELS
420
12894904
100
AcDbMText
 10
375.5
 20
-3501.0
 30
0.0
 40
8.0
 41
0.0
 71
8
  1
L-ACOUSTICS
  7
CJK
  0
MTEXT
  5
E4
330
17
100
AcDbEntity
  8
LABELS
420
10131341
100
AcDbMText
 10
375.5
 20
-3510.0
 30
0.0
 40
7.0
 41
0.0
 71
8
  1
X12
  7
CJK
  0
LWPOLYLINE
  5
E5
330
17
100
AcDbEntity
  8
DEVICES
 62
7
370
25
420
11842217
100
AcDbPolyline
 90
5
 70
0
 10
287.0
 20
-3560.0
 10
464.0
 20
-3560.0
 10
464.0
 20
-3613.0
 10
287.0
 20
-3613.0
 10
287.0
 20
-3560.0
  0
MTEXT
  5
E6
330
17
100
AcDbEntity
  8
LABELS
420
15855592
100
AcDbMText
 10
375.5
 20
-3570.0
 30
0.0
 40
9.0
 41
0.0
 71
8
  1
流动返送扬声器
  7
CJK
  0
MTEXT
  5
E7
330
17
100
AcDbEntity
  8
LABELS
420
12894904
100
AcDbMText
 10
375.5
 20
-3580.0
 30
0.0
 40
8.0
 41
0.0
 71
8
  1
L-ACOUSTICS
  7
CJK
  0
MTEXT
  5
E8
330
17
100
AcDbEntity
  8
LABELS
420
10131341
100
AcDbMText
 10
375.5
 20
-3589.0
 30
0.0
 40
7.0
 41
0.0
 71
8
  1
X12
  7
CJK
  0
LWPOLYLINE
  5
E9
330
17
100
AcDbEntity
  8
DEVICES
 62
7
370
25
420
11842217
100
AcDbPolyline
 90
5
 70
0
 10
287.0
 20
-3639.0
 10
464.0
 20
-3639.0
 10
464.0
 20
-3692.0
 10
287.0
 20
-3692.0
 10
287.0
 20
-3639.0
  0
MTEXT
  5
EA
330
17
100
AcDbEntity
  8
LABELS
420
15855592
100
AcDbMText
 10
375.5
 20
-3649.0
 30
0.0
 40
9.0
 41
0.0
 71
8
  1
流动返送扬声器
  7
CJK
  0
MTEXT
  5
EB
330
17
100
AcDbEntity
  8
LABELS
420
12894904
100
AcDbMText
 10
375.5
 20
-3659.0
 30
0.0
 40
8.0
 41
0.0
 71
8
  1
L-ACOUSTICS
  7
CJK
  0
MTEXT
  5
EC
330
17
100
AcDbEntity
  8
LABELS
420
10131341
100
AcDbMText
 10
375.5
 20
-3668.0
 30
0.0
 40
7.0
 41
0.0
 71
8
  1
X12
  7
CJK
  0
LWPOLYLINE
  5
ED
330
17
100
AcDbEntity
  8
DEVICES
 62
7
370
25
420
11842217
100
AcDbPolyline
 90
5
 70
0
 10
40.0
 20
-40.0
 10
217.0
 20
-40.0
 10
217.0
 20
-137.0
 10
40.0
 20
-137.0
 10
40.0
 20
-40.0
  0
MTEXT
  5
EE
330
17
100
AcDbEntity
  8
LABELS
420
15855592
100
AcDbMText
 10
128.5
 20
-50.0
 30
0.0
 40
9.0
 41
0.0
 71
8
  1
四通道数字功率放大器
  7
CJK
  0
MTEXT
  5
EF
330
17
100
AcDbEntity
  8
LABELS
420
12894904
100
AcDbMText
 10
128.5
 20
-60.0
 30
0.0
 40
8.0
 41
0.0
 71
8
  1
L-ACOUSTICS
  7
CJK
  0
MTEXT
  5
F0
330
17
100
AcDbEntity
  8
LABELS
420
10131341
100
AcDbMText
 10
128.5
 20
-69.0
 30
0.0
 40
7.0
 41
0.0
 71
8
  1
LA12X
  7
CJK
  0
LWPOLYLINE
  5
F1
330
17
100
AcDbEntity
  8
DEVICES
 62
7
370
25
420
11842217
100
AcDbPolyline
 90
5
 70
0
 10
40.0
 20
-163.0
 10
217.0
 20
-163.0
 10
217.0
 20
-260.0
 10
40.0
 20
-260.0
 10
40.0
 20
-163.0
  0
MTEXT
  5
F2
330
17
100
AcDbEntity
  8
LABELS
420
15855592
100
AcDbMText
 10
128.5
 20
-173.0
 30
0.0
 40
9.0
 41
0.0
 71
8
  1
四通道数字功率放大器
  7
CJK
  0
MTEXT
  5
F3
330
17
100
AcDbEntity
  8
LABELS
420
12894904
100
AcDbMText
 10
128.5
 20
-183.0
 30
0.0
 40
8.0
 41
0.0
 71
8
  1
L-ACOUSTICS
  7
CJK
  0
MTEXT
  5
F4
330
17
100
AcDbEntity
  8
LABELS
420
10131341
100
AcDbMText
 10
128.5
 20
-192.0
 30
0.0
 40
7.0
 41
0.0
 71
8
  1
LA4X
  7
CJK
  0
LWPOLYLINE
  5
F5
330
17
100
AcDbEntity
  8
DEVICES
 62
7
370
25
420
11842217
100
AcDbPolyline
 90
5
 70
0
 10
40.0
 20
-286.0
 10
217.0
 20
-286.0
 10
217.0
 20
-383.0
 10
40.0
 20
-383.0
 10
40.0
 20
-286.0
  0
MTEXT
  5
F6
330
17
100
AcDbEntity
  8
LABELS
420
15855592
100
AcDbMText
 10
128.5
 20
-296.0
 30
0.0
 40
9.0
 41
0.0
 71
8
  1
四通道数字功率放大器
  7
CJK
  0
MTEXT
  5
F7
330
17
100
AcDbEntity
  8
LABELS
420
12894904
100
AcDbMText
 10
128.5
 20
-306.0
 30
0.0
 40
8.0
 41
0.0
 71
8
  1
L-ACOUSTICS
  7
CJK
  0
MTEXT
  5
F8
330
17
100
AcDbEntity
  8
LABELS
420
10131341
100
AcDbMText
 10
128.5
 20
-315.0
 30
0.0
 40
7.0
 41
0.0
 71
8
  1
LA4X
  7
CJK
  0
LWPOLYLINE
  5
F9
330
17
100
AcDbEntity
  8
DEVICES
 62
7
370
25
420
11842217
100
AcDbPolyline
 90
5
 70
0
 10
40.0
 20
-409.0
 10
217.0
 20
-409.0
 10
217.0
 20
-506.0
 10
40.0
 20
-506.0
 10
40.0
 20
-409.0
  0
MTEXT
  5
FA
330
17
100
AcDbEntity
  8
LABELS
420
15855592
100
AcDbMText
 10
128.5
 20
-419.0
 30
0.0
 40
9.0
 41
0.0
 71
8
  1
四通道数字功率放大器
  7
CJK
  0
MTEXT
  5
FB
330
17
100
AcDbEntity
  8
LABELS
420
12894904
100
AcDbMText
 10
128.5
 20
-429.0
 30
0.0
 40
8.0
 41
0.0
 71
8
  1
L-ACOUSTICS
  7
CJK
  0
MTEXT
  5
FC
330
17
100
AcDbEntity
  8
LABELS
420
10131341
100
AcDbMText
 10
128.5
 20
-438.0
 30
0.0
 40
7.0
 41
0.0
 71
8
  1
LA4X
  7
CJK
  0
LWPOLYLINE
  5
FD
330
17
100
AcDbEntity
  8
DEVICES
 62
7
370
25
420
11842217
100
AcDbPolyline
 90
5
 70
0
 10
40.0
 20
-532.0
 10
217.0
 20
-532.0
 10
217.0
 20
-629.0
 10
40.0
 20
-629.0
 10
40.0
 20
-532.0
  0
MTEXT
  5
FE
330
17
100
AcDbEntity
  8
LABELS
420
15855592
100
AcDbMText
 10
128.5
 20
-542.0
 30
0.0
 40
9.0
 41
0.0
 71
8
  1
四通道数字功率放大器
  7
CJK
  0
MTEXT
  5
FF
330
17
100
AcDbEntity
  8
LABELS
420
12894904
100
AcDbMText
 10
128.5
 20
-552.0
 30
0.0
 40
8.0
 41
0.0
 71
8
  1
L-ACOUSTICS
  7
CJK
  0
MTEXT
  5
100
330
17
100
AcDbEntity
  8
LABELS
420
10131341
100
AcDbMText
 10
128.5
 20
-561.0
 30
0.0
 40
7.0
 41
0.0
 71
8
  1
LA4X
  7
CJK
  0
LWPOLYLINE
  5
101
330
17
100
AcDbEntity
  8
DEVICES
 62
7
370
25
420
11842217
100
AcDbPolyline
 90
5
 70
0
 10
40.0
 20
-655.0
 10
217.0
 20
-655.0
 10
217.0
 20
-752.0
 10
40.0
 20
-752.0
 10
40.0
 20
-655.0
  0
MTEXT
  5
102
330
17
100
AcDbEntity
  8
LABELS
420
15855592
100
AcDbMText
 10
128.5
 20
-665.0
 30
0.0
 40
9.0
 41
0.0
 71
8
  1
四通道数字功率放大器
  7
CJK
  0
MTEXT
  5
103
330
17
100
AcDbEntity
  8
LABELS
420
12894904
100
AcDbMText
 10
128.5
 20
-675.0
 30
0.0
 40
8.0
 41
0.0
 71
8
  1
L-ACOUSTICS
  7
CJK
  0
MTEXT
  5
104
330
17
100
AcDbEntity
  8
LABELS
420
10131341
100
AcDbMText
 10
128.5
 20
-684.0
 30
0.0
 40
7.0
 41
0.0
 71
8
  1
LA4X
  7
CJK
  0
LWPOLYLINE
  5
105
330
17
100
AcDbEntity
  8
DEVICES
 62
7
370
25
420
11842217
100
AcDbPolyline
 90
5
 70
0
 10
40.0
 20
-778.0
 10
217.0
 20
-778.0
 10
217.0
 20
-875.0
 10
40.0
 20
-875.0
 10
40.0
 20
-778.0
  0
MTEXT
  5
106
330
17
100
AcDbEntity
  8
LABELS
420
15855592
100
AcDbMText
 10
128.5
 20
-788.0
 30
0.0
 40
9.0
 41
0.0
 71
8
  1
四通道数字功率放大器
  7
CJK
  0
MTEXT
  5
107
330
17
100
AcDbEntity
  8
LABELS
420
12894904
100
AcDbMText
 10
128.5
 20
-798.0
 30
0.0
 40
8.0
 41
0.0
 71
8
  1
L-ACOUSTICS
  7
CJK
  0
MTEXT
  5
108
330
17
100
AcDbEntity
  8
LABELS
420
10131341
100
AcDbMText
 10
128.5
 20
-807.0
 30
0.0
 40
7.0
 41
0.0
 71
8
  1
LA4X
  7
CJK
  0
LWPOLYLINE
  5
109
330
17
100
AcDbEntity
  8
DEVICES
 62
7
370
25
420
11842217
100
AcDbPolyline
 90
5
 70
0
 10
40.0
 20
-901.0
 10
217.0
 20
-901.0
 10
217.0
 20
-998.0
 10
40.0
 20
-998.0
 10
40.0
 20
-901.0
  0
MTEXT
  5
10A
330
17
100
AcDbEntity
  8
LABELS
420
15855592
100
AcDbMText
 10
128.5
 20
-911.0
 30
0.0
 40
9.0
 41
0.0
 71
8
  1
四通道数字功率放大器
  7
CJK
  0
MTEXT
  5
10B
330
17
100
AcDbEntity
  8
LABELS
420
12894904
100
AcDbMText
 10
128.5
 20
-921.0
 30
0.0
 40
8.0
 41
0.0
 71
8
  1
L-ACOUSTICS
  7
CJK
  0
MTEXT
  5
10C
330
17
100
AcDbEntity
  8
LABELS
420
10131341
100
AcDbMText
 10
128.5
 20
-930.0
 30
0.0
 40
7.0
 41
0.0
 71
8
  1
LA4X
  7
CJK
  0
LWPOLYLINE
  5
10D
330
17
100
AcDbEntity
  8
DEVICES
 62
7
370
25
420
11842217
100
AcDbPolyline
 90
5
 70
0
 10
40.0
 20
-1024.0
 10
217.0
 20
-1024.0
 10
217.0
 20
-1121.0
 10
40.0
 20
-1121.0
 10
40.0
 20
-1024.0
  0
MTEXT
  5
10E
330
17
100
AcDbEntity
  8
LABELS
420
15855592
100
AcDbMText
 10
128.5
 20
-1034.0
 30
0.0
 40
9.0
 41
0.0
 71
8
  1
四通道数字功率放大器
  7
CJK
  0
MTEXT
  5
10F
330
17
100
AcDbEntity
  8
LABELS
420
12894904
100
AcDbMText
 10
128.5
 20
-1044.0
 30
0.0
 40
8.0
 41
0.0
 71
8
  1
L-ACOUSTICS
  7
CJK
  0
MTEXT
  5
110
330
17
100
AcDbEntity
  8
LABELS
420
10131341
100
AcDbMText
 10
128.5
 20
-1053.0
 30
0.0
 40
7.0
 41
0.0
 71
8
  1
LA4X
  7
CJK
  0
LWPOLYLINE
  5
111
330
17
100
AcDbEntity
  8
DEVICES
 62
7
370
25
420
11842217
100
AcDbPolyline
 90
5
 70
0
 10
40.0
 20
-1147.0
 10
217.0
 20
-1147.0
 10
217.0
 20
-1244.0
 10
40.0
 20
-1244.0
 10
40.0
 20
-1147.0
  0
MTEXT
  5
112
330
17
100
AcDbEntity
  8
LABELS
420
15855592
100
AcDbMText
 10
128.5
 20
-1157.0
 30
0.0
 40
9.0
 41
0.0
 71
8
  1
四通道数字功率放大器
  7
CJK
  0
MTEXT
  5
113
330
17
100
AcDbEntity
  8
LABELS
420
12894904
100
AcDbMText
 10
128.5
 20
-1167.0
 30
0.0
 40
8.0
 41
0.0
 71
8
  1
L-ACOUSTICS
  7
CJK
  0
MTEXT
  5
114
330
17
100
AcDbEntity
  8
LABELS
420
10131341
100
AcDbMText
 10
128.5
 20
-1176.0
 30
0.0
 40
7.0
 41
0.0
 71
8
  1
LA4X
  7
CJK
  0
LWPOLYLINE
  5
115
330
17
100
AcDbEntity
  8
DEVICES
 62
7
370
25
420
11842217
100
AcDbPolyline
 90
5
 70
0
 10
40.0
 20
-1270.0
 10
217.0
 20
-1270.0
 10
217.0
 20
-1367.0
 10
40.0
 20
-1367.0
 10
40.0
 20
-1270.0
  0
MTEXT
  5
116
330
17
100
AcDbEntity
  8
LABELS
420
15855592
100
AcDbMText
 10
128.5
 20
-1280.0
 30
0.0
 40
9.0
 41
0.0
 71
8
  1
四通道数字功率放大器
  7
CJK
  0
MTEXT
  5
117
330
17
100
AcDbEntity
  8
LABELS
420
12894904
100
AcDbMText
 10
128.5
 20
-1290.0
 30
0.0
 40
8.0
 41
0.0
 71
8
  1
L-ACOUSTICS
  7
CJK
  0
MTEXT
  5
118
330
17
100
AcDbEntity
  8
LABELS
420
10131341
100
AcDbMText
 10
128.5
 20
-1299.0
 30
0.0
 40
7.0
 41
0.0
 71
8
  1
LA4X
  7
CJK
  0
LWPOLYLINE
  5
119
330
17
100
AcDbEntity
  8
DEVICES
 62
7
370
25
420
11842217
100
AcDbPolyline
 90
5
 70
0
 10
40.0
 20
-1393.0
 10
217.0
 20
-1393.0
 10
217.0
 20
-1490.0
 10
40.0
 20
-1490.0
 10
40.0
 20
-1393.0
  0
MTEXT
  5
11A
330
17
100
AcDbEntity
  8
LABELS
420
15855592
100
AcDbMText
 10
128.5
 20
-1403.0
 30
0.0
 40
9.0
 41
0.0
 71
8
  1
四通道数字功率放大器
  7
CJK
  0
MTEXT
  5
11B
330
17
100
AcDbEntity
  8
LABELS
420
12894904
100
AcDbMText
 10
128.5
 20
-1413.0
 30
0.0
 40
8.0
 41
0.0
 71
8
  1
L-ACOUSTICS
  7
CJK
  0
MTEXT
  5
11C
330
17
100
AcDbEntity
  8
LABELS
420
10131341
100
AcDbMText
 10
128.5
 20
-1422.0
 30
0.0
 40
7.0
 41
0.0
 71
8
  1
LA4X
  7
CJK
  0
LWPOLYLINE
  5
11D
330
17
100
AcDbEntity
  8
DEVICES
 62
7
370
25
420
11842217
100
AcDbPolyline
 90
5
 70
0
 10
40.0
 20
-1516.0
 10
217.0
 20
-1516.0
 10
217.0
 20
-1613.0
 10
40.0
 20
-1613.0
 10
40.0
 20
-1516.0
  0
MTEXT
  5
11E
330
17
100
AcDbEntity
  8
LABELS
420
15855592
100
AcDbMText
 10
128.5
 20
-1526.0
 30
0.0
 40
9.0
 41
0.0
 71
8
  1
四通道数字功率放大器
  7
CJK
  0
MTEXT
  5
11F
330
17
100
AcDbEntity
  8
LABELS
420
12894904
100
AcDbMText
 10
128.5
 20
-1536.0
 30
0.0
 40
8.0
 41
0.0
 71
8
  1
L-ACOUSTICS
  7
CJK
  0
MTEXT
  5
120
330
17
100
AcDbEntity
  8
LABELS
420
10131341
100
AcDbMText
 10
128.5
 20
-1545.0
 30
0.0
 40
7.0
 41
0.0
 71
8
  1
LA4X
  7
CJK
  0
LWPOLYLINE
  5
121
330
17
100
AcDbEntity
  8
DEVICES
 62
7
370
25
420
11842217
100
AcDbPolyline
 90
5
 70
0
 10
203.0
 20
-5052.0
 10
381.0
 20
-5052.0
 10
381.0
 20
-5108.0
 10
203.0
 20
-5108.0
 10
203.0
 20
-5052.0
  0
MTEXT
  5
122
330
17
100
AcDbEntity
  8
LABELS
420
15855592
100
AcDbMText
 10
292.0
 20
-5062.0
 30
0.0
 40
9.0
 41
0.0
 71
8
  1
音频交换机
  7
CJK
  0
MTEXT
  5
123
330
17
100
AcDbEntity
  8
LABELS
420
12894904
100
AcDbMText
 10
292.0
 20
-5072.0
 30
0.0
 40
8.0
 41
0.0
 71
8
  1
L-ACOUSTICS
  7
CJK
  0
MTEXT
  5
124
330
17
100
AcDbEntity
  8
LABELS
420
10131341
100
AcDbMText
 10
292.0
 20
-5081.0
 30
0.0
 40
7.0
 41
0.0
 71
8
  1
LS10
  7
CJK
  0
LWPOLYLINE
  5
125
330
17
100
AcDbEntity
  8
DEVICES
 62
7
370
25
420
11842217
100
AcDbPolyline
 90
5
 70
0
 10
287.0
 20
-3718.0
 10
464.0
 20
-3718.0
 10
464.0
 20
-3771.0
 10
287.0
 20
-3771.0
 10
287.0
 20
-3718.0
  0
MTEXT
  5
126
330
17
100
AcDbEntity
  8
LABELS
420
15855592
100
AcDbMText
 10
375.5
 20
-3728.0
 30
0.0
 40
9.0
 41
0.0
 71
8
  1
观众席效果声扬声器
  7
CJK
  0
MTEXT
  5
127
330
17
100
AcDbEntity
  8
LABELS
420
12894904
100
AcDbMText
 10
375.5
 20
-3738.0
 30
0.0
 40
8.0
 41
0.0
 71
8
  1
L-ACOUSTICS
  7
CJK
  0
MTEXT
  5
128
330
17
100
AcDbEntity
  8
LABELS
420
10131341
100
AcDbMText
 10
375.5
 20
-3747.0
 30
0.0
 40
7.0
 41
0.0
 71
8
  1
X8 
  7
CJK
  0
LWPOLYLINE
  5
129
330
17
100
AcDbEntity
  8
DEVICES
 62
7
370
25
420
11842217
100
AcDbPolyline
 90
5
 70
0
 10
287.0
 20
-3797.0
 10
464.0
 20
-3797.0
 10
464.0
 20
-3850.0
 10
287.0
 20
-3850.0
 10
287.0
 20
-3797.0
  0
MTEXT
  5
12A
330
17
100
AcDbEntity
  8
LABELS
420
15855592
100
AcDbMText
 10
375.5
 20
-3807.0
 30
0.0
 40
9.0
 41
0.0
 71
8
  1
观众席效果声扬声器
  7
CJK
  0
MTEXT
  5
12B
330
17
100
AcDbEntity
  8
LABELS
420
12894904
100
AcDbMText
 10
375.5
 20
-3817.0
 30
0.0
 40
8.0
 41
0.0
 71
8
  1
L-ACOUSTICS
  7
CJK
  0
MTEXT
  5
12C
330
17
100
AcDbEntity
  8
LABELS
420
10131341
100
AcDbMText
 10
375.5
 20
-3826.0
 30
0.0
 40
7.0
 41
0.0
 71
8
  1
X8 
  7
CJK
  0
LWPOLYLINE
  5
12D
330
17
100
AcDbEntity
  8
DEVICES
 62
7
370
25
420
11842217
100
AcDbPolyline
 90
5
 70
0
 10
287.0
 20
-3876.0
 10
464.0
 20
-3876.0
 10
464.0
 20
-3929.0
 10
287.0
 20
-3929.0
 10
287.0
 20
-3876.0
  0
MTEXT
  5
12E
330
17
100
AcDbEntity
  8
LABELS
420
15855592
100
AcDbMText
 10
375.5
 20
-3886.0
 30
0.0
 40
9.0
 41
0.0
 71
8
  1
观众席效果声扬声器
  7
CJK
  0
MTEXT
  5
12F
330
17
100
AcDbEntity
  8
LABELS
420
12894904
100
AcDbMText
 10
375.5
 20
-3896.0
 30
0.0
 40
8.0
 41
0.0
 71
8
  1
L-ACOUSTICS
  7
CJK
  0
MTEXT
  5
130
330
17
100
AcDbEntity
  8
LABELS
420
10131341
100
AcDbMText
 10
375.5
 20
-3905.0
 30
0.0
 40
7.0
 41
0.0
 71
8
  1
X8 
  7
CJK
  0
LWPOLYLINE
  5
131
330
17
100
AcDbEntity
  8
DEVICES
 62
7
370
25
420
11842217
100
AcDbPolyline
 90
5
 70
0
 10
287.0
 20
-3955.0
 10
464.0
 20
-3955.0
 10
464.0
 20
-4008.0
 10
287.0
 20
-4008.0
 10
287.0
 20
-3955.0
  0
MTEXT
  5
132
330
17
100
AcDbEntity
  8
LABELS
420
15855592
100
AcDbMText
 10
375.5
 20
-3965.0
 30
0.0
 40
9.0
 41
0.0
 71
8
  1
观众席效果声扬声器
  7
CJK
  0
MTEXT
  5
133
330
17
100
AcDbEntity
  8
LABELS
420
12894904
100
AcDbMText
 10
375.5
 20
-3975.0
 30
0.0
 40
8.0
 41
0.0
 71
8
  1
L-ACOUSTICS
  7
CJK
  0
MTEXT
  5
134
330
17
100
AcDbEntity
  8
LABELS
420
10131341
100
AcDbMText
 10
375.5
 20
-3984.0
 30
0.0
 40
7.0
 41
0.0
 71
8
  1
X8 
  7
CJK
  0
LWPOLYLINE
  5
135
330
17
100
AcDbEntity
  8
DEVICES
 62
7
370
25
420
11842217
100
AcDbPolyline
 90
5
 70
0
 10
287.0
 20
-4034.0
 10
464.0
 20
-4034.0
 10
464.0
 20
-4087.0
 10
287.0
 20
-4087.0
 10
287.0
 20
-4034.0
  0
MTEXT
  5
136
330
17
100
AcDbEntity
  8
LABELS
420
15855592
100
AcDbMText
 10
375.5
 20
-4044.0
 30
0.0
 40
9.0
 41
0.0
 71
8
  1
观众席效果声扬声器
  7
CJK
  0
MTEXT
  5
137
330
17
100
AcDbEntity
  8
LABELS
420
12894904
100
AcDbMText
 10
375.5
 20
-4054.0
 30
0.0
 40
8.0
 41
0.0
 71
8
  1
L-ACOUSTICS
  7
CJK
  0
MTEXT
  5
138
330
17
100
AcDbEntity
  8
LABELS
420
10131341
100
AcDbMText
 10
375.5
 20
-4063.0
 30
0.0
 40
7.0
 41
0.0
 71
8
  1
X8 
  7
CJK
  0
LWPOLYLINE
  5
139
330
17
100
AcDbEntity
  8
DEVICES
 62
7
370
25
420
11842217
100
AcDbPolyline
 90
5
 70
0
 10
287.0
 20
-4113.0
 10
464.0
 20
-4113.0
 10
464.0
 20
-4166.0
 10
287.0
 20
-4166.0
 10
287.0
 20
-4113.0
  0
MTEXT
  5
13A
330
17
100
AcDbEntity
  8
LABELS
420
15855592
100
AcDbMText
 10
375.5
 20
-4123.0
 30
0.0
 40
9.0
 41
0.0
 71
8
  1
观众席效果声扬声器
  7
CJK
  0
MTEXT
  5
13B
330
17
100
AcDbEntity
  8
LABELS
420
12894904
100
AcDbMText
 10
375.5
 20
-4133.0
 30
0.0
 40
8.0
 41
0.0
 71
8
  1
L-ACOUSTICS
  7
CJK
  0
MTEXT
  5
13C
330
17
100
AcDbEntity
  8
LABELS
420
10131341
100
AcDbMText
 10
375.5
 20
-4142.0
 30
0.0
 40
7.0
 41
0.0
 71
8
  1
X8 
  7
CJK
  0
LWPOLYLINE
  5
13D
330
17
100
AcDbEntity
  8
DEVICES
 62
7
370
25
420
11842217
100
AcDbPolyline
 90
5
 70
0
 10
287.0
 20
-4192.0
 10
464.0
 20
-4192.0
 10
464.0
 20
-4245.0
 10
287.0
 20
-4245.0
 10
287.0
 20
-4192.0
  0
MTEXT
  5
13E
330
17
100
AcDbEntity
  8
LABELS
420
15855592
100
AcDbMText
 10
375.5
 20
-4202.0
 30
0.0
 40
9.0
 41
0.0
 71
8
  1
观众席效果声扬声器
  7
CJK
  0
MTEXT
  5
13F
330
17
100
AcDbEntity
  8
LABELS
420
12894904
100
AcDbMText
 10
375.5
 20
-4212.0
 30
0.0
 40
8.0
 41
0.0
 71
8
  1
L-ACOUSTICS
  7
CJK
  0
MTEXT
  5
140
330
17
100
AcDbEntity
  8
LABELS
420
10131341
100
AcDbMText
 10
375.5
 20
-4221.0
 30
0.0
 40
7.0
 41
0.0
 71
8
  1
X8 
  7
CJK
  0
LWPOLYLINE
  5
141
330
17
100
AcDbEntity
  8
DEVICES
 62
7
370
25
420
11842217
100
AcDbPolyline
 90
5
 70
0
 10
287.0
 20
-4271.0
 10
464.0
 20
-4271.0
 10
464.0
 20
-4324.0
 10
287.0
 20
-4324.0
 10
287.0
 20
-4271.0
  0
MTEXT
  5
142
330
17
100
AcDbEntity
  8
LABELS
420
15855592
100
AcDbMText
 10
375.5
 20
-4281.0
 30
0.0
 40
9.0
 41
0.0
 71
8
  1
观众席效果声扬声器
  7
CJK
  0
MTEXT
  5
143
330
17
100
AcDbEntity
  8
LABELS
420
12894904
100
AcDbMText
 10
375.5
 20
-4291.0
 30
0.0
 40
8.0
 41
0.0
 71
8
  1
L-ACOUSTICS
  7
CJK
  0
MTEXT
  5
144
330
17
100
AcDbEntity
  8
LABELS
420
10131341
100
AcDbMText
 10
375.5
 20
-4300.0
 30
0.0
 40
7.0
 41
0.0
 71
8
  1
X8 
  7
CJK
  0
LWPOLYLINE
  5
145
330
17
100
AcDbEntity
  8
DEVICES
 62
7
370
25
420
11842217
100
AcDbPolyline
 90
5
 70
0
 10
287.0
 20
-4350.0
 10
464.0
 20
-4350.0
 10
464.0
 20
-4403.0
 10
287.0
 20
-4403.0
 10
287.0
 20
-4350.0
  0
MTEXT
  5
146
330
17
100
AcDbEntity
  8
LABELS
420
15855592
100
AcDbMText
 10
375.5
 20
-4360.0
 30
0.0
 40
9.0
 41
0.0
 71
8
  1
二层效果声扬声器
  7
CJK
  0
MTEXT
  5
147
330
17
100
AcDbEntity
  8
LABELS
420
12894904
100
AcDbMText
 10
375.5
 20
-4370.0
 30
0.0
 40
8.0
 41
0.0
 71
8
  1
L-ACOUSTICS
  7
CJK
  0
MTEXT
  5
148
330
17
100
AcDbEntity
  8
LABELS
420
10131341
100
AcDbMText
 10
375.5
 20
-4379.0
 30
0.0
 40
7.0
 41
0.0
 71
8
  1
X8 
  7
CJK
  0
LWPOLYLINE
  5
149
330
17
100
AcDbEntity
  8
DEVICES
 62
7
370
25
420
11842217
100
AcDbPolyline
 90
5
 70
0
 10
287.0
 20
-4429.0
 10
464.0
 20
-4429.0
 10
464.0
 20
-4482.0
 10
287.0
 20
-4482.0
 10
287.0
 20
-4429.0
  0
MTEXT
  5
14A
330
17
100
AcDbEntity
  8
LABELS
420
15855592
100
AcDbMText
 10
375.5
 20
-4439.0
 30
0.0
 40
9.0
 41
0.0
 71
8
  1
二层效果声扬声器
  7
CJK
  0
MTEXT
  5
14B
330
17
100
AcDbEntity
  8
LABELS
420
12894904
100
AcDbMText
 10
375.5
 20
-4449.0
 30
0.0
 40
8.0
 41
0.0
 71
8
  1
L-ACOUSTICS
  7
CJK
  0
MTEXT
  5
14C
330
17
100
AcDbEntity
  8
LABELS
420
10131341
100
AcDbMText
 10
375.5
 20
-4458.0
 30
0.0
 40
7.0
 41
0.0
 71
8
  1
X8 
  7
CJK
  0
LWPOLYLINE
  5
14D
330
17
100
AcDbEntity
  8
DEVICES
 62
7
370
25
420
11842217
100
AcDbPolyline
 90
5
 70
0
 10
287.0
 20
-4508.0
 10
464.0
 20
-4508.0
 10
464.0
 20
-4561.0
 10
287.0
 20
-4561.0
 10
287.0
 20
-4508.0
  0
MTEXT
  5
14E
330
17
100
AcDbEntity
  8
LABELS
420
15855592
100
AcDbMText
 10
375.5
 20
-4518.0
 30
0.0
 40
9.0
 41
0.0
 71
8
  1
二层效果声扬声器
  7
CJK
  0
MTEXT
  5
14F
330
17
100
AcDbEntity
  8
LABELS
420
12894904
100
AcDbMText
 10
375.5
 20
-4528.0
 30
0.0
 40
8.0
 41
0.0
 71
8
  1
L-ACOUSTICS
  7
CJK
  0
MTEXT
  5
150
330
17
100
AcDbEntity
  8
LABELS
420
10131341
100
AcDbMText
 10
375.5
 20
-4537.0
 30
0.0
 40
7.0
 41
0.0
 71
8
  1
X8 
  7
CJK
  0
LWPOLYLINE
  5
151
330
17
100
AcDbEntity
  8
DEVICES
 62
7
370
25
420
11842217
100
AcDbPolyline
 90
5
 70
0
 10
287.0
 20
-4587.0
 10
464.0
 20
-4587.0
 10
464.0
 20
-4640.0
 10
287.0
 20
-4640.0
 10
287.0
 20
-4587.0
  0
MTEXT
  5
152
330
17
100
AcDbEntity
  8
LABELS
420
15855592
100
AcDbMText
 10
375.5
 20
-4597.0
 30
0.0
 40
9.0
 41
0.0
 71
8
  1
二层效果声扬声器
  7
CJK
  0
MTEXT
  5
153
330
17
100
AcDbEntity
  8
LABELS
420
12894904
100
AcDbMText
 10
375.5
 20
-4607.0
 30
0.0
 40
8.0
 41
0.0
 71
8
  1
L-ACOUSTICS
  7
CJK
  0
MTEXT
  5
154
330
17
100
AcDbEntity
  8
LABELS
420
10131341
100
AcDbMText
 10
375.5
 20
-4616.0
 30
0.0
 40
7.0
 41
0.0
 71
8
  1
X8 
  7
CJK
  0
LWPOLYLINE
  5
155
330
17
100
AcDbEntity
  8
DEVICES
 62
7
370
25
420
11842217
100
AcDbPolyline
 90
5
 70
0
 10
287.0
 20
-4666.0
 10
464.0
 20
-4666.0
 10
464.0
 20
-4719.0
 10
287.0
 20
-4719.0
 10
287.0
 20
-4666.0
  0
MTEXT
  5
156
330
17
100
AcDbEntity
  8
LABELS
420
15855592
100
AcDbMText
 10
375.5
 20
-4676.0
 30
0.0
 40
9.0
 41
0.0
 71
8
  1
二层效果声扬声器
  7
CJK
  0
MTEXT
  5
157
330
17
100
AcDbEntity
  8
LABELS
420
12894904
100
AcDbMText
 10
375.5
 20
-4686.0
 30
0.0
 40
8.0
 41
0.0
 71
8
  1
L-ACOUSTICS
  7
CJK
  0
MTEXT
  5
158
330
17
100
AcDbEntity
  8
LABELS
420
10131341
100
AcDbMText
 10
375.5
 20
-4695.0
 30
0.0
 40
7.0
 41
0.0
 71
8
  1
X8 
  7
CJK
  0
LWPOLYLINE
  5
159
330
17
100
AcDbEntity
  8
DEVICES
 62
7
370
25
420
11842217
100
AcDbPolyline
 90
5
 70
0
 10
287.0
 20
-4745.0
 10
464.0
 20
-4745.0
 10
464.0
 20
-4798.0
 10
287.0
 20
-4798.0
 10
287.0
 20
-4745.0
  0
MTEXT
  5
15A
330
17
100
AcDbEntity
  8
LABELS
420
15855592
100
AcDbMText
 10
375.5
 20
-4755.0
 30
0.0
 40
9.0
 41
0.0
 71
8
  1
二层效果声扬声器
  7
CJK
  0
MTEXT
  5
15B
330
17
100
AcDbEntity
  8
LABELS
420
12894904
100
AcDbMText
 10
375.5
 20
-4765.0
 30
0.0
 40
8.0
 41
0.0
 71
8
  1
L-ACOUSTICS
  7
CJK
  0
MTEXT
  5
15C
330
17
100
AcDbEntity
  8
LABELS
420
10131341
100
AcDbMText
 10
375.5
 20
-4774.0
 30
0.0
 40
7.0
 41
0.0
 71
8
  1
X8 
  7
CJK
  0
LWPOLYLINE
  5
15D
330
17
100
AcDbEntity
  8
DEVICES
 62
7
370
25
420
11842217
100
AcDbPolyline
 90
5
 70
0
 10
287.0
 20
-4824.0
 10
464.0
 20
-4824.0
 10
464.0
 20
-4877.0
 10
287.0
 20
-4877.0
 10
287.0
 20
-4824.0
  0
MTEXT
  5
15E
330
17
100
AcDbEntity
  8
LABELS
420
15855592
100
AcDbMText
 10
375.5
 20
-4834.0
 30
0.0
 40
9.0
 41
0.0
 71
8
  1
二层效果声扬声器
  7
CJK
  0
MTEXT
  5
15F
330
17
100
AcDbEntity
  8
LABELS
420
12894904
100
AcDbMText
 10
375.5
 20
-4844.0
 30
0.0
 40
8.0
 41
0.0
 71
8
  1
L-ACOUSTICS
  7
CJK
  0
MTEXT
  5
160
330
17
100
AcDbEntity
  8
LABELS
420
10131341
100
AcDbMText
 10
375.5
 20
-4853.0
 30
0.0
 40
7.0
 41
0.0
 71
8
  1
X8 
  7
CJK
  0
LWPOLYLINE
  5
161
330
17
100
AcDbEntity
  8
DEVICES
 62
7
370
25
420
11842217
100
AcDbPolyline
 90
5
 70
0
 10
287.0
 20
-4903.0
 10
464.0
 20
-4903.0
 10
464.0
 20
-4956.0
 10
287.0
 20
-4956.0
 10
287.0
 20
-4903.0
  0
MTEXT
  5
162
330
17
100
AcDbEntity
  8
LABELS
420
15855592
100
AcDbMText
 10
375.5
 20
-4913.0
 30
0.0
 40
9.0
 41
0.0
 71
8
  1
二层效果声扬声器
  7
CJK
  0
MTEXT
  5
163
330
17
100
AcDbEntity
  8
LABELS
420
12894904
100
AcDbMText
 10
375.5
 20
-4923.0
 30
0.0
 40
8.0
 41
0.0
 71
8
  1
L-ACOUSTICS
  7
CJK
  0
MTEXT
  5
164
330
17
100
AcDbEntity
  8
LABELS
420
10131341
100
AcDbMText
 10
375.5
 20
-4932.0
 30
0.0
 40
7.0
 41
0.0
 71
8
  1
X8 
  7
CJK
  0
LWPOLYLINE
  5
165
330
17
100
AcDbEntity
  8
DEVICES
 62
7
370
25
420
11842217
100
AcDbPolyline
 90
5
 70
0
 10
40.0
 20
-1639.0
 10
217.0
 20
-1639.0
 10
217.0
 20
-1736.0
 10
40.0
 20
-1736.0
 10
40.0
 20
-1639.0
  0
MTEXT
  5
166
330
17
100
AcDbEntity
  8
LABELS
420
15855592
100
AcDbMText
 10
128.5
 20
-1649.0
 30
0.0
 40
9.0
 41
0.0
 71
8
  1
四通道数字功率放大器
  7
CJK
  0
MTEXT
  5
167
330
17
100
AcDbEntity
  8
LABELS
420
12894904
100
AcDbMText
 10
128.5
 20
-1659.0
 30
0.0
 40
8.0
 41
0.0
 71
8
  1
L-ACOUSTICS
  7
CJK
  0
MTEXT
  5
168
330
17
100
AcDbEntity
  8
LABELS
420
10131341
100
AcDbMText
 10
128.5
 20
-1668.0
 30
0.0
 40
7.0
 41
0.0
 71
8
  1
LA2Xi
  7
CJK
  0
LWPOLYLINE
  5
169
330
17
100
AcDbEntity
  8
DEVICES
 62
7
370
25
420
11842217
100
AcDbPolyline
 90
5
 70
0
 10
40.0
 20
-1762.0
 10
217.0
 20
-1762.0
 10
217.0
 20
-1859.0
 10
40.0
 20
-1859.0
 10
40.0
 20
-1762.0
  0
MTEXT
  5
16A
330
17
100
AcDbEntity
  8
LABELS
420
15855592
100
AcDbMText
 10
128.5
 20
-1772.0
 30
0.0
 40
9.0
 41
0.0
 71
8
  1
四通道数字功率放大器
  7
CJK
  0
MTEXT
  5
16B
330
17
100
AcDbEntity
  8
LABELS
420
12894904
100
AcDbMText
 10
128.5
 20
-1782.0
 30
0.0
 40
8.0
 41
0.0
 71
8
  1
L-ACOUSTICS
  7
CJK
  0
MTEXT
  5
16C
330
17
100
AcDbEntity
  8
LABELS
420
10131341
100
AcDbMText
 10
128.5
 20
-1791.0
 30
0.0
 40
7.0
 41
0.0
 71
8
  1
LA2Xi
  7
CJK
  0
LWPOLYLINE
  5
16D
330
17
100
AcDbEntity
  8
DEVICES
 62
7
370
25
420
11842217
100
AcDbPolyline
 90
5
 70
0
 10
40.0
 20
-1885.0
 10
217.0
 20
-1885.0
 10
217.0
 20
-1982.0
 10
40.0
 20
-1982.0
 10
40.0
 20
-1885.0
  0
MTEXT
  5
16E
330
17
100
AcDbEntity
  8
LABELS
420
15855592
100
AcDbMText
 10
128.5
 20
-1895.0
 30
0.0
 40
9.0
 41
0.0
 71
8
  1
四通道数字功率放大器
  7
CJK
  0
MTEXT
  5
16F
330
17
100
AcDbEntity
  8
LABELS
420
12894904
100
AcDbMText
 10
128.5
 20
-1905.0
 30
0.0
 40
8.0
 41
0.0
 71
8
  1
L-ACOUSTICS
  7
CJK
  0
MTEXT
  5
170
330
17
100
AcDbEntity
  8
LABELS
420
10131341
100
AcDbMText
 10
128.5
 20
-1914.0
 30
0.0
 40
7.0
 41
0.0
 71
8
  1
LA2Xi
  7
CJK
  0
LWPOLYLINE
  5
171
330
17
100
AcDbEntity
  8
DEVICES
 62
7
370
25
420
11842217
100
AcDbPolyline
 90
5
 70
0
 10
40.0
 20
-2008.0
 10
217.0
 20
-2008.0
 10
217.0
 20
-2105.0
 10
40.0
 20
-2105.0
 10
40.0
 20
-2008.0
  0
MTEXT
  5
172
330
17
100
AcDbEntity
  8
LABELS
420
15855592
100
AcDbMText
 10
128.5
 20
-2018.0
 30
0.0
 40
9.0
 41
0.0
 71
8
  1
四通道数字功率放大器
  7
CJK
  0
MTEXT
  5
173
330
17
100
AcDbEntity
  8
LABELS
420
12894904
100
AcDbMText
 10
128.5
 20
-2028.0
 30
0.0
 40
8.0
 41
0.0
 71
8
  1
L-ACOUSTICS
  7
CJK
  0
MTEXT
  5
174
330
17
100
AcDbEntity
  8
LABELS
420
10131341
100
AcDbMText
 10
128.5
 20
-2037.0
 30
0.0
 40
7.0
 41
0.0
 71
8
  1
LA2Xi
  7
CJK
  0
LWPOLYLINE
  5
175
330
17
100
AcDbEntity
  8
DEVICES
 62
7
370
25
420
11842217
100
AcDbPolyline
 90
5
 70
0
 10
203.0
 20
-5052.0
 10
381.0
 20
-5052.0
 10
381.0
 20
-5108.0
 10
203.0
 20
-5108.0
 10
203.0
 20
-5052.0
  0
MTEXT
  5
176
330
17
100
AcDbEntity
  8
LABELS
420
15855592
100
AcDbMText
 10
292.0
 20
-5062.0
 30
0.0
 40
9.0
 41
0.0
 71
8
  1
音频交换机
  7
CJK
  0
MTEXT
  5
177
330
17
100
AcDbEntity
  8
LABELS
420
12894904
100
AcDbMText
 10
292.0
 20
-5072.0
 30
0.0
 40
8.0
 41
0.0
 71
8
  1
L-ACOUSTICS
  7
CJK
  0
MTEXT
  5
178
330
17
100
AcDbEntity
  8
LABELS
420
10131341
100
AcDbMText
 10
292.0
 20
-5081.0
 30
0.0
 40
7.0
 41
0.0
 71
8
  1
LS10
  7
CJK
  0
LWPOLYLINE
  5
179
330
17
100
AcDbEntity
  8
WIRES_SPEAKER
  6
CONTINUOUS
420
15230298
100
AcDbPolyline
 90
6
 70
0
 10
217.0
 20
-88.5
 10
227.0
 20
-88.5
 10
252.0
 20
-88.5
 10
252.0
 20
-77.5
 10
277.0
 20
-77.5
 10
287.0
 20
-77.5
  0
MTEXT
  5
17A
330
17
100
AcDbEntity
  8
WIRE_LABELS
420
15230298
100
AcDbMText
 10
227.0
 20
-85.5
 30
0.0
 40
7.0
 41
0.0
 71
7
  1
SPK
  7
CJK
  0
LWPOLYLINE
  5
17B
330
17
100
AcDbEntity
  8
WIRES_SPEAKER
  6
CONTINUOUS
420
15230298
100
AcDbPolyline
 90
6
 70
0
 10
217.0
 20
-99.5
 10
227.0
 20
-99.5
 10
252.0
 20
-99.5
 10
252.0
 20
-1420.5
 10
277.0
 20
-1420.5
 10
287.0
 20
-1420.5
  0
MTEXT
  5
17C
330
17
100
AcDbEntity
  8
WIRE_LABELS
420
15230298
100
AcDbMText
 10
227.0
 20
-96.5
 30
0.0
 40
7.0
 41
0.0
 71
7
  1
SPK
  7
CJK
  0
LWPOLYLINE
  5
17D
330
17
100
AcDbEntity
  8
WIRES_SPEAKER
  6
CONTINUOUS
420
15230298
100
AcDbPolyline
 90
6
 70
0
 10
217.0
 20
-110.5
 10
227.0
 20
-110.5
 10
252.0
 20
-110.5
 10
252.0
 20
-2807.5
 10
277.0
 20
-2807.5
 10
287.0
 20
-2807.5
  0
MTEXT
  5
17E
330
17
100
AcDbEntity
  8
WIRE_LABELS
420
15230298
100
AcDbMText
 10
227.0
 20
-107.5
 30
0.0
 40
7.0
 41
0.0
 71
7
  1
SPK
  7
CJK
  0
LWPOLYLINE
  5
17F
330
17
100
AcDbEntity
  8
WIRES_SPEAKER
  6
CONTINUOUS
420
15230298
100
AcDbPolyline
 90
6
 70
0
 10
217.0
 20
-121.5
 10
227.0
 20
-121.5
 10
252.0
 20
-121.5
 10
252.0
 20
-4150.5
 10
277.0
 20
-4150.5
 10
287.0
 20
-4150.5
  0
MTEXT
  5
180
330
17
100
AcDbEntity
  8
WIRE_LABELS
420
15230298
100
AcDbMText
 10
227.0
 20
-118.5
 30
0.0
 40
7.0
 41
0.0
 71
7
  1
SPK
  7
CJK
  0
LWPOLYLINE
  5
181
330
17
100
AcDbEntity
  8
WIRES_SPEAKER
  6
CONTINUOUS
420
15230298
100
AcDbPolyline
 90
6
 70
0
 10
217.0
 20
-211.5
 10
227.0
 20
-211.5
 10
252.0
 20
-211.5
 10
252.0
 20
-156.5
 10
277.0
 20
-156.5
 10
287.0
 20
-156.5
  0
MTEXT
  5
182
330
17
100
AcDbEntity
  8
WIRE_LABELS
420
15230298
100
AcDbMText
 10
227.0
 20
-208.5
 30
0.0
 40
7.0
 41
0.0
 71
7
  1
SPK
  7
CJK
  0
LWPOLYLINE
  5
183
330
17
100
AcDbEntity
  8
WIRES_SPEAKER
  6
CONTINUOUS
420
15230298
100
AcDbPolyline
 90
6
 70
0
 10
217.0
 20
-222.5
 10
227.0
 20
-222.5
 10
252.0
 20
-222.5
 10
252.0
 20
-1499.5
 10
277.0
 20
-1499.5
 10
287.0
 20
-1499.5
  0
MTEXT
  5
184
330
17
100
AcDbEntity
  8
WIRE_LABELS
420
15230298
100
AcDbMText
 10
227.0
 20
-219.5
 30
0.0
 40
7.0
 41
0.0
 71
7
  1
SPK
  7
CJK
  0
LWPOLYLINE
  5
185
330
17
100
AcDbEntity
  8
WIRES_SPEAKER
  6
CONTINUOUS
420
15230298
100
AcDbPolyline
 90
6
 70
0
 10
217.0
 20
-233.5
 10
227.0
 20
-233.5
 10
252.0
 20
-233.5
 10
252.0
 20
-2886.5
 10
277.0
 20
-2886.5
 10
287.0
 20
-2886.5
  0
MTEXT
  5
186
330
17
100
AcDbEntity
  8
WIRE_LABELS
420
15230298
100
AcDbMText
 10
227.0
 20
-230.5
 30
0.0
 40
7.0
 41
0.0
 71
7
  1
SPK
  7
CJK
  0
LWPOLYLINE
  5
187
330
17
100
AcDbEntity
  8
WIRES_SPEAKER
  6
CONTINUOUS
420
15230298
100
AcDbPolyline
 90
6
 70
0
 10
217.0
 20
-244.5
 10
227.0
 20
-244.5
 10
252.0
 20
-244.5
 10
252.0
 20
-4229.5
 10
277.0
 20
-4229.5
 10
287.0
 20
-4229.5
  0
MTEXT
  5
188
330
17
100
AcDbEntity
  8
WIRE_LABELS
420
15230298
100
AcDbMText
 10
227.0
 20
-241.5
 30
0.0
 40
7.0
 41
0.0
 71
7
  1
SPK
  7
CJK
  0
LWPOLYLINE
  5
189
330
17
100
AcDbEntity
  8
WIRES_SPEAKER
  6
CONTINUOUS
420
15230298
100
AcDbPolyline
 90
6
 70
0
 10
217.0
 20
-334.5
 10
227.0
 20
-334.5
 10
252.0
 20
-334.5
 10
252.0
 20
-235.5
 10
277.0
 20
-235.5
 10
287.0
 20
-235.5
  0
MTEXT
  5
18A
330
17
100
AcDbEntity
  8
WIRE_LABELS
420
15230298
100
AcDbMText
 10
227.0
 20
-331.5
 30
0.0
 40
7.0
 41
0.0
 71
7
  1
SPK
  7
CJK
  0
LWPOLYLINE
  5
18B
330
17
100
AcDbEntity
  8
WIRES_SPEAKER
  6
CONTINUOUS
420
15230298
100
AcDbPolyline
 90
6
 70
0
 10
217.0
 20
-345.5
 10
227.0
 20
-345.5
 10
252.0
 20
-345.5
 10
252.0
 20
-1578.5
 10
277.0
 20
-1578.5
 10
287.0
 20
-1578.5
  0
MTEXT
  5
18C
330
17
100
AcDbEntity
  8
WIRE_LABELS
420
15230298
100
AcDbMText
 10
227.0
 20
-342.5
 30
0.0
 40
7.0
 41
0.0
 71
7
  1
SPK
  7
CJK
  0
LWPOLYLINE
  5
18D
330
17
100
AcDbEntity
  8
WIRES_SPEAKER
  6
CONTINUOUS
420
15230298
100
AcDbPolyline
 90
6
 70
0
 10
217.0
 20
-356.5
 10
227.0
 20
-356.5
 10
252.0
 20
-356.5
 10
252.0
 20
-2965.5
 10
277.0
 20
-2965.5
 10
287.0
 20
-2965.5
  0
MTEXT
  5
18E
330
17
100
AcDbEntity
  8
WIRE_LABELS
420
15230298
100
AcDbMText
 10
227.0
 20
-353.5
 30
0.0
 40
7.0
 41
0.0
 71
7
  1
SPK
  7
CJK
  0
LWPOLYLINE
  5
18F
330
17
100
AcDbEntity
  8
WIRES_SPEAKER
  6
CONTINUOUS
420
15230298
100
AcDbPolyline
 90
6
 70
0
 10
217.0
 20
-367.5
 10
227.0
 20
-367.5
 10
252.0
 20
-367.5
 10
252.0
 20
-4308.5
 10
277.0
 20
-4308.5
 10
287.0
 20
-4308.5
  0
MTEXT
  5
190
330
17
100
AcDbEntity
  8
WIRE_LABELS
420
15230298
100
AcDbMText
 10
227.0
 20
-364.5
 30
0.0
 40
7.0
 41
0.0
 71
7
  1
SPK
  7
CJK
  0
LWPOLYLINE
  5
191
330
17
100
AcDbEntity
  8
WIRES_SPEAKER
  6
CONTINUOUS
420
15230298
100
AcDbPolyline
 90
6
 70
0
 10
217.0
 20
-457.5
 10
227.0
 20
-457.5
 10
252.0
 20
-457.5
 10
252.0
 20
-314.5
 10
277.0
 20
-314.5
 10
287.0
 20
-314.5
  0
MTEXT
  5
192
330
17
100
AcDbEntity
  8
WIRE_LABELS
420
15230298
100
AcDbMText
 10
227.0
 20
-454.5
 30
0.0
 40
7.0
 41
0.0
 71
7
  1
SPK
  7
CJK
  0
LWPOLYLINE
  5
193
330
17
100
AcDbEntity
  8
WIRES_SPEAKER
  6
CONTINUOUS
420
15230298
100
AcDbPolyline
 90
6
 70
0
 10
217.0
 20
-468.5
 10
227.0
 20
-468.5
 10
252.0
 20
-468.5
 10
252.0
 20
-1657.5
 10
277.0
 20
-1657.5
 10
287.0
 20
-1657.5
  0
MTEXT
  5
194
330
17
100
AcDbEntity
  8
WIRE_LABELS
420
15230298
100
AcDbMText
 10
227.0
 20
-465.5
 30
0.0
 40
7.0
 41
0.0
 71
7
  1
SPK
  7
CJK
  0
LWPOLYLINE
  5
195
330
17
100
AcDbEntity
  8
WIRES_SPEAKER
  6
CONTINUOUS
420
15230298
100
AcDbPolyline
 90
6
 70
0
 10
217.0
 20
-479.5
 10
227.0
 20
-479.5
 10
252.0
 20
-479.5
 10
252.0
 20
-3044.5
 10
277.0
 20
-3044.5
 10
287.0
 20
-3044.5
  0
MTEXT
  5
196
330
17
100
AcDbEntity
  8
WIRE_LABELS
420
15230298
100
AcDbMText
 10
227.0
 20
-476.5
 30
0.0
 40
7.0
 41
0.0
 71
7
  1
SPK
  7
CJK
  0
LWPOLYLINE
  5
197
330
17
100
AcDbEntity
  8
WIRES_SPEAKER
  6
CONTINUOUS
420
15230298
100
AcDbPolyline
 90
6
 70
0
 10
217.0
 20
-490.5
 10
227.0
 20
-490.5
 10
252.0
 20
-490.5
 10
252.0
 20
-4387.5
 10
277.0
 20
-4387.5
 10
287.0
 20
-4387.5
  0
MTEXT
  5
198
330
17
100
AcDbEntity
  8
WIRE_LABELS
420
15230298
100
AcDbMText
 10
227.0
 20
-487.5
 30
0.0
 40
7.0
 41
0.0
 71
7
  1
SPK
  7
CJK
  0
LWPOLYLINE
  5
199
330
17
100
AcDbEntity
  8
WIRES_SPEAKER
  6
CONTINUOUS
420
15230298
100
AcDbPolyline
 90
6
 70
0
 10
217.0
 20
-580.5
 10
227.0
 20
-580.5
 10
252.0
 20
-580.5
 10
252.0
 20
-393.5
 10
277.0
 20
-393.5
 10
287.0
 20
-393.5
  0
MTEXT
  5
19A
330
17
100
AcDbEntity
  8
WIRE_LABELS
420
15230298
100
AcDbMText
 10
227.0
 20
-577.5
 30
0.0
 40
7.0
 41
0.0
 71
7
  1
SPK
  7
CJK
  0
LWPOLYLINE
  5
19B
330
17
100
AcDbEntity
  8
WIRES_SPEAKER
  6
CONTINUOUS
420
15230298
100
AcDbPolyline
 90
6
 70
0
 10
217.0
 20
-591.5
 10
227.0
 20
-591.5
 10
252.0
 20
-591.5
 10
252.0
 20
-1736.5
 10
277.0
 20
-1736.5
 10
287.0
 20
-1736.5
  0
MTEXT
  5
19C
330
17
100
AcDbEntity
  8
WIRE_LABELS
420
15230298
100
AcDbMText
 10
227.0
 20
-588.5
 30
0.0
 40
7.0
 41
0.0
 71
7
  1
SPK
  7
CJK
  0
LWPOLYLINE
  5
19D
330
17
100
AcDbEntity
  8
WIRES_SPEAKER
  6
CONTINUOUS
420
15230298
100
AcDbPolyline
 90
6
 70
0
 10
217.0
 20
-602.5
 10
227.0
 20
-602.5
 10
252.0
 20
-602.5
 10
252.0
 20
-3123.5
 10
277.0
 20
-3123.5
 10
287.0
 20
-3123.5
  0
MTEXT
  5
19E
330
17
100
AcDbEntity
  8
WIRE_LABELS
420
15230298
100
AcDbMText
 10
227.0
 20
-599.5
 30
0.0
 40
7.0
 41
0.0
 71
7
  1
SPK
  7
CJK
  0
LWPOLYLINE
  5
19F
330
17
100
AcDbEntity
  8
WIRES_SPEAKER
  6
CONTINUOUS
420
15230298
100
AcDbPolyline
 90
6
 70
0
 10
217.0
 20
-613.5
 10
227.0
 20
-613.5
 10
252.0
 20
-613.5
 10
252.0
 20
-4466.5
 10
277.0
 20
-4466.5
 10
287.0
 20
-4466.5
  0
MTEXT
  5
1A0
330
17
100
AcDbEntity
  8
WIRE_LABELS
420
15230298
100
AcDbMText
 10
227.0
 20
-610.5
 30
0.0
 40
7.0
 41
0.0
 71
7
  1
SPK
  7
CJK
  0
LWPOLYLINE
  5
1A1
330
17
100
AcDbEntity
  8
WIRES_SPEAKER
  6
CONTINUOUS
420
15230298
100
AcDbPolyline
 90
6
 70
0
 10
217.0
 20
-703.5
 10
227.0
 20
-703.5
 10
252.0
 20
-703.5
 10
252.0
 20
-472.5
 10
277.0
 20
-472.5
 10
287.0
 20
-472.5
  0
MTEXT
  5
1A2
330
17
100
AcDbEntity
  8
WIRE_LABELS
420
15230298
100
AcDbMText
 10
227.0
 20
-700.5
 30
0.0
 40
7.0
 41
0.0
 71
7
  1
SPK
  7
CJK
  0
LWPOLYLINE
  5
1A3
330
17
100
AcDbEntity
  8
WIRES_SPEAKER
  6
CONTINUOUS
420
15230298
100
AcDbPolyline
 90
6
 70
0
 10
217.0
 20
-714.5
 10
227.0
 20
-714.5
 10
252.0
 20
-714.5
 10
252.0
 20
-1815.5
 10
277.0
 20
-1815.5
 10
287.0
 20
-1815.5
  0
MTEXT
  5
1A4
330
17
100
AcDbEntity
  8
WIRE_LABELS
420
15230298
100
AcDbMText
 10
227.0
 20
-711.5
 30
0.0
 40
7.0
 41
0.0
 71
7
  1
SPK
  7
CJK
  0
LWPOLYLINE
  5
1A5
330
17
100
AcDbEntity
  8
WIRES_SPEAKER
  6
CONTINUOUS
420
15230298
100
AcDbPolyline
 90
6
 70
0
 10
217.0
 20
-725.5
 10
227.0
 20
-725.5
 10
252.0
 20
-725.5
 10
252.0
 20
-3202.5
 10
277.0
 20
-3202.5
 10
287.0
 20
-3202.5
  0
MTEXT
  5
1A6
330
17
100
AcDbEntity
  8
WIRE_LABELS
420
15230298
100
AcDbMText
 10
227.0
 20
-722.5
 30
0.0
 40
7.0
 41
0.0
 71
7
  1
SPK
  7
CJK
  0
LWPOLYLINE
  5
1A7
330
17
100
AcDbEntity
  8
WIRES_SPEAKER
  6
CONTINUOUS
420
15230298
100
AcDbPolyline
 90
6
 70
0
 10
217.0
 20
-736.5
 10
227.0
 20
-736.5
 10
252.0
 20
-736.5
 10
252.0
 20
-4545.5
 10
277.0
 20
-4545.5
 10
287.0
 20
-4545.5
  0
MTEXT
  5
1A8
330
17
100
AcDbEntity
  8
WIRE_LABELS
420
15230298
100
AcDbMText
 10
227.0
 20
-733.5
 30
0.0
 40
7.0
 41
0.0
 71
7
  1
SPK
  7
CJK
  0
LWPOLYLINE
  5
1A9
330
17
100
AcDbEntity
  8
WIRES_SPEAKER
  6
CONTINUOUS
420
15230298
100
AcDbPolyline
 90
6
 70
0
 10
217.0
 20
-826.5
 10
227.0
 20
-826.5
 10
252.0
 20
-826.5
 10
252.0
 20
-551.5
 10
277.0
 20
-551.5
 10
287.0
 20
-551.5
  0
MTEXT
  5
1AA
330
17
100
AcDbEntity
  8
WIRE_LABELS
420
15230298
100
AcDbMText
 10
227.0
 20
-823.5
 30
0.0
 40
7.0
 41
0.0
 71
7
  1
SPK
  7
CJK
  0
LWPOLYLINE
  5
1AB
330
17
100
AcDbEntity
  8
WIRES_SPEAKER
  6
CONTINUOUS
420
15230298
100
AcDbPolyline
 90
6
 70
0
 10
217.0
 20
-837.5
 10
227.0
 20
-837.5
 10
252.0
 20
-837.5
 10
252.0
 20
-1894.5
 10
277.0
 20
-1894.5
 10
287.0
 20
-1894.5
  0
MTEXT
  5
1AC
330
17
100
AcDbEntity
  8
WIRE_LABELS
420
15230298
100
AcDbMText
 10
227.0
 20
-834.5
 30
0.0
 40
7.0
 41
0.0
 71
7
  1
SPK
  7
CJK
  0
LWPOLYLINE
  5
1AD
330
17
100
AcDbEntity
  8
WIRES_SPEAKER
  6
CONTINUOUS
420
15230298
100
AcDbPolyline
 90
6
 70
0
 10
217.0
 20
-848.5
 10
227.0
 20
-848.5
 10
252.0
 20
-848.5
 10
252.0
 20
-3281.5
 10
277.0
 20
-3281.5
 10
287.0
 20
-3281.5
  0
MTEXT
  5
1AE
330
17
100
AcDbEntity
  8
WIRE_LABELS
420
15230298
100
AcDbMText
 10
227.0
 20
-845.5
 30
0.0
 40
7.0
 41
0.0
 71
7
  1
SPK
  7
CJK
  0
LWPOLYLINE
  5
1AF
330
17
100
AcDbEntity
  8
WIRES_SPEAKER
  6
CONTINUOUS
420
15230298
100
AcDbPolyline
 90
6
 70
0
 10
217.0
 20
-859.5
 10
227.0
 20
-859.5
 10
252.0
 20
-859.5
 10
252.0
 20
-4624.5
 10
277.0
 20
-4624.5
 10
287.0
 20
-4624.5
  0
MTEXT
  5
1B0
330
17
100
AcDbEntity
  8
WIRE_LABELS
420
15230298
100
AcDbMText
 10
227.0
 20
-856.5
 30
0.0
 40
7.0
 41
0.0
 71
7
  1
SPK
  7
CJK
  0
LWPOLYLINE
  5
1B1
330
17
100
AcDbEntity
  8
WIRES_SPEAKER
  6
CONTINUOUS
420
15230298
100
AcDbPolyline
 90
6
 70
0
 10
217.0
 20
-949.5
 10
227.0
 20
-949.5
 10
252.0
 20
-949.5
 10
252.0
 20
-630.5
 10
277.0
 20
-630.5
 10
287.0
 20
-630.5
  0
MTEXT
  5
1B2
330
17
100
AcDbEntity
  8
WIRE_LABELS
420
15230298
100
AcDbMText
 10
227.0
 20
-946.5
 30
0.0
 40
7.0
 41
0.0
 71
7
  1
SPK
  7
CJK
  0
LWPOLYLINE
  5
1B3
330
17
100
AcDbEntity
  8
WIRES_SPEAKER
  6
CONTINUOUS
420
15230298
100
AcDbPolyline
 90
6
 70
0
 10
217.0
 20
-960.5
 10
227.0
 20
-960.5
 10
252.0
 20
-960.5
 10
252.0
 20
-1973.5
 10
277.0
 20
-1973.5
 10
287.0
 20
-1973.5
  0
MTEXT
  5
1B4
330
17
100
AcDbEntity
  8
WIRE_LABELS
420
15230298
100
AcDbMText
 10
227.0
 20
-957.5
 30
0.0
 40
7.0
 41
0.0
 71
7
  1
SPK
  7
CJK
  0
LWPOLYLINE
  5
1B5
330
17
100
AcDbEntity
  8
WIRES_SPEAKER
  6
CONTINUOUS
420
15230298
100
AcDbPolyline
 90
6
 70
0
 10
217.0
 20
-971.5
 10
227.0
 20
-971.5
 10
252.0
 20
-971.5
 10
252.0
 20
-3360.5
 10
277.0
 20
-3360.5
 10
287.0
 20
-3360.5
  0
MTEXT
  5
1B6
330
17
100
AcDbEntity
  8
WIRE_LABELS
420
15230298
100
AcDbMText
 10
227.0
 20
-968.5
 30
0.0
 40
7.0
 41
0.0
 71
7
  1
SPK
  7
CJK
  0
LWPOLYLINE
  5
1B7
330
17
100
AcDbEntity
  8
WIRES_SPEAKER
  6
CONTINUOUS
420
15230298
100
AcDbPolyline
 90
6
 70
0
 10
217.0
 20
-982.5
 10
227.0
 20
-982.5
 10
252.0
 20
-982.5
 10
252.0
 20
-4703.5
 10
277.0
 20
-4703.5
 10
287.0
 20
-4703.5
  0
MTEXT
  5
1B8
330
17
100
AcDbEntity
  8
WIRE_LABELS
420
15230298
100
AcDbMText
 10
227.0
 20
-979.5
 30
0.0
 40
7.0
 41
0.0
 71
7
  1
SPK
  7
CJK
  0
LWPOLYLINE
  5
1B9
330
17
100
AcDbEntity
  8
WIRES_SPEAKER
  6
CONTINUOUS
420
15230298
100
AcDbPolyline
 90
6
 70
0
 10
217.0
 20
-1072.5
 10
227.0
 20
-1072.5
 10
252.0
 20
-1072.5
 10
252.0
 20
-709.5
 10
277.0
 20
-709.5
 10
287.0
 20
-709.5
  0
MTEXT
  5
1BA
330
17
100
AcDbEntity
  8
WIRE_LABELS
420
15230298
100
AcDbMText
 10
227.0
 20
-1069.5
 30
0.0
 40
7.0
 41
0.0
 71
7
  1
SPK
  7
CJK
  0
LWPOLYLINE
  5
1BB
330
17
100
AcDbEntity
  8
WIRES_SPEAKER
  6
CONTINUOUS
420
15230298
100
AcDbPolyline
 90
6
 70
0
 10
217.0
 20
-1083.5
 10
227.0
 20
-1083.5
 10
252.0
 20
-1083.5
 10
252.0
 20
-2052.5
 10
277.0
 20
-2052.5
 10
287.0
 20
-2052.5
  0
MTEXT
  5
1BC
330
17
100
AcDbEntity
  8
WIRE_LABELS
420
15230298
100
AcDbMText
 10
227.0
 20
-1080.5
 30
0.0
 40
7.0
 41
0.0
 71
7
  1
SPK
  7
CJK
  0
LWPOLYLINE
  5
1BD
330
17
100
AcDbEntity
  8
WIRES_SPEAKER
  6
CONTINUOUS
420
15230298
100
AcDbPolyline
 90
6
 70
0
 10
217.0
 20
-1094.5
 10
227.0
 20
-1094.5
 10
252.0
 20
-1094.5
 10
252.0
 20
-3439.5
 10
277.0
 20
-3439.5
 10
287.0
 20
-3439.5
  0
MTEXT
  5
1BE
330
17
100
AcDbEntity
  8
WIRE_LABELS
420
15230298
100
AcDbMText
 10
227.0
 20
-1091.5
 30
0.0
 40
7.0
 41
0.0
 71
7
  1
SPK
  7
CJK
  0
LWPOLYLINE
  5
1BF
330
17
100
AcDbEntity
  8
WIRES_SPEAKER
  6
CONTINUOUS
420
15230298
100
AcDbPolyline
 90
6
 70
0
 10
217.0
 20
-1105.5
 10
227.0
 20
-1105.5
 10
252.0
 20
-1105.5
 10
252.0
 20
-4782.5
 10
277.0
 20
-4782.5
 10
287.0
 20
-4782.5
  0
MTEXT
  5
1C0
330
17
100
AcDbEntity
  8
WIRE_LABELS
420
15230298
100
AcDbMText
 10
227.0
 20
-1102.5
 30
0.0
 40
7.0
 41
0.0
 71
7
  1
SPK
  7
CJK
  0
LWPOLYLINE
  5
1C1
330
17
100
AcDbEntity
  8
WIRES_SPEAKER
  6
CONTINUOUS
420
15230298
100
AcDbPolyline
 90
6
 70
0
 10
217.0
 20
-1195.5
 10
227.0
 20
-1195.5
 10
252.0
 20
-1195.5
 10
252.0
 20
-788.5
 10
277.0
 20
-788.5
 10
287.0
 20
-788.5
  0
MTEXT
  5
1C2
330
17
100
AcDbEntity
  8
WIRE_LABELS
420
15230298
100
AcDbMText
 10
227.0
 20
-1192.5
 30
0.0
 40
7.0
 41
0.0
 71
7
  1
SPK
  7
CJK
  0
LWPOLYLINE
  5
1C3
330
17
100
AcDbEntity
  8
WIRES_SPEAKER
  6
CONTINUOUS
420
15230298
100
AcDbPolyline
 90
6
 70
0
 10
217.0
 20
-1206.5
 10
227.0
 20
-1206.5
 10
252.0
 20
-1206.5
 10
252.0
 20
-2131.5
 10
277.0
 20
-2131.5
 10
287.0
 20
-2131.5
  0
MTEXT
  5
1C4
330
17
100
AcDbEntity
  8
WIRE_LABELS
420
15230298
100
AcDbMText
 10
227.0
 20
-1203.5
 30
0.0
 40
7.0
 41
0.0
 71
7
  1
SPK
  7
CJK
  0
LWPOLYLINE
  5
1C5
330
17
100
AcDbEntity
  8
WIRES_SPEAKER
  6
CONTINUOUS
420
15230298
100
AcDbPolyline
 90
6
 70
0
 10
217.0
 20
-1217.5
 10
227.0
 20
-1217.5
 10
252.0
 20
-1217.5
 10
252.0
 20
-3518.5
 10
277.0
 20
-3518.5
 10
287.0
 20
-3518.5
  0
MTEXT
  5
1C6
330
17
100
AcDbEntity
  8
WIRE_LABELS
420
15230298
100
AcDbMText
 10
227.0
 20
-1214.5
 30
0.0
 40
7.0
 41
0.0
 71
7
  1
SPK
  7
CJK
  0
LWPOLYLINE
  5
1C7
330
17
100
AcDbEntity
  8
WIRES_SPEAKER
  6
CONTINUOUS
420
15230298
100
AcDbPolyline
 90
6
 70
0
 10
217.0
 20
-1228.5
 10
227.0
 20
-1228.5
 10
252.0
 20
-1228.5
 10
252.0
 20
-4861.5
 10
277.0
 20
-4861.5
 10
287.0
 20
-4861.5
  0
MTEXT
  5
1C8
330
17
100
AcDbEntity
  8
WIRE_LABELS
420
15230298
100
AcDbMText
 10
227.0
 20
-1225.5
 30
0.0
 40
7.0
 41
0.0
 71
7
  1
SPK
  7
CJK
  0
LWPOLYLINE
  5
1C9
330
17
100
AcDbEntity
  8
WIRES_SPEAKER
  6
CONTINUOUS
420
15230298
100
AcDbPolyline
 90
6
 70
0
 10
217.0
 20
-1318.5
 10
227.0
 20
-1318.5
 10
252.0
 20
-1318.5
 10
252.0
 20
-867.5
 10
277.0
 20
-867.5
 10
287.0
 20
-867.5
  0
MTEXT
  5
1CA
330
17
100
AcDbEntity
  8
WIRE_LABELS
420
15230298
100
AcDbMText
 10
227.0
 20
-1315.5
 30
0.0
 40
7.0
 41
0.0
 71
7
  1
SPK
  7
CJK
  0
LWPOLYLINE
  5
1CB
330
17
100
AcDbEntity
  8
WIRES_SPEAKER
  6
CONTINUOUS
420
15230298
100
AcDbPolyline
 90
6
 70
0
 10
217.0
 20
-1329.5
 10
227.0
 20
-1329.5
 10
252.0
 20
-1329.5
 10
252.0
 20
-2210.5
 10
277.0
 20
-2210.5
 10
287.0
 20
-2210.5
  0
MTEXT
  5
1CC
330
17
100
AcDbEntity
  8
WIRE_LABELS
420
15230298
100
AcDbMText
 10
227.0
 20
-1326.5
 30
0.0
 40
7.0
 41
0.0
 71
7
  1
SPK
  7
CJK
  0
LWPOLYLINE
  5
1CD
330
17
100
AcDbEntity
  8
WIRES_SPEAKER
  6
CONTINUOUS
420
15230298
100
AcDbPolyline
 90
6
 70
0
 10
217.0
 20
-1340.5
 10
227.0
 20
-1340.5
 10
252.0
 20
-1340.5
 10
252.0
 20
-3597.5
 10
277.0
 20
-3597.5
 10
287.0
 20
-3597.5
  0
MTEXT
  5
1CE
330
17
100
AcDbEntity
  8
WIRE_LABELS
420
15230298
100
AcDbMText
 10
227.0
 20
-1337.5
 30
0.0
 40
7.0
 41
0.0
 71
7
  1
SPK
  7
CJK
  0
LWPOLYLINE
  5
1CF
330
17
100
AcDbEntity
  8
WIRES_SPEAKER
  6
CONTINUOUS
420
15230298
100
AcDbPolyline
 90
6
 70
0
 10
217.0
 20
-1351.5
 10
227.0
 20
-1351.5
 10
252.0
 20
-1351.5
 10
252.0
 20
-4940.5
 10
277.0
 20
-4940.5
 10
287.0
 20
-4940.5
  0
MTEXT
  5
1D0
330
17
100
AcDbEntity
  8
WIRE_LABELS
420
15230298
100
AcDbMText
 10
227.0
 20
-1348.5
 30
0.0
 40
7.0
 41
0.0
 71
7
  1
SPK
  7
CJK
  0
LWPOLYLINE
  5
1D1
330
17
100
AcDbEntity
  8
WIRES_SPEAKER
  6
CONTINUOUS
420
15230298
100
AcDbPolyline
 90
6
 70
0
 10
217.0
 20
-1441.5
 10
227.0
 20
-1441.5
 10
252.0
 20
-1441.5
 10
252.0
 20
-946.5
 10
277.0
 20
-946.5
 10
287.0
 20
-946.5
  0
MTEXT
  5
1D2
330
17
100
AcDbEntity
  8
WIRE_LABELS
420
15230298
100
AcDbMText
 10
227.0
 20
-1438.5
 30
0.0
 40
7.0
 41
0.0
 71
7
  1
SPK
  7
CJK
  0
LWPOLYLINE
  5
1D3
330
17
100
AcDbEntity
  8
WIRES_SPEAKER
  6
CONTINUOUS
420
15230298
100
AcDbPolyline
 90
6
 70
0
 10
217.0
 20
-1452.5
 10
227.0
 20
-1452.5
 10
252.0
 20
-1452.5
 10
252.0
 20
-2289.5
 10
277.0
 20
-2289.5
 10
287.0
 20
-2289.5
  0
MTEXT
  5
1D4
330
17
100
AcDbEntity
  8
WIRE_LABELS
420
15230298
100
AcDbMText
 10
227.0
 20
-1449.5
 30
0.0
 40
7.0
 41
0.0
 71
7
  1
SPK
  7
CJK
  0
LWPOLYLINE
  5
1D5
330
17
100
AcDbEntity
  8
WIRES_SPEAKER
  6
CONTINUOUS
420
15230298
100
AcDbPolyline
 90
6
 70
0
 10
217.0
 20
-1463.5
 10
227.0
 20
-1463.5
 10
252.0
 20
-1463.5
 10
252.0
 20
-3676.5
 10
277.0
 20
-3676.5
 10
287.0
 20
-3676.5
  0
MTEXT
  5
1D6
330
17
100
AcDbEntity
  8
WIRE_LABELS
420
15230298
100
AcDbMText
 10
227.0
 20
-1460.5
 30
0.0
 40
7.0
 41
0.0
 71
7
  1
SPK
  7
CJK
  0
LWPOLYLINE
  5
1D7
330
17
100
AcDbEntity
  8
WIRES_SPEAKER
  6
CONTINUOUS
420
15230298
100
AcDbPolyline
 90
6
 70
0
 10
217.0
 20
-1564.5
 10
227.0
 20
-1564.5
 10
252.0
 20
-1564.5
 10
252.0
 20
-1025.5
 10
277.0
 20
-1025.5
 10
287.0
 20
-1025.5
  0
MTEXT
  5
1D8
330
17
100
AcDbEntity
  8
WIRE_LABELS
420
15230298
100
AcDbMText
 10
227.0
 20
-1561.5
 30
0.0
 40
7.0
 41
0.0
 71
7
  1
SPK
  7
CJK
  0
LWPOLYLINE
  5
1D9
330
17
100
AcDbEntity
  8
WIRES_SPEAKER
  6
CONTINUOUS
420
15230298
100
AcDbPolyline
 90
6
 70
0
 10
217.0
 20
-1575.5
 10
227.0
 20
-1575.5
 10
252.0
 20
-1575.5
 10
252.0
 20
-2368.5
 10
277.0
 20
-2368.5
 10
287.0
 20
-2368.5
  0
MTEXT
  5
1DA
330
17
100
AcDbEntity
  8
WIRE_LABELS
420
15230298
100
AcDbMText
 10
227.0
 20
-1572.5
 30
0.0
 40
7.0
 41
0.0
 71
7
  1
SPK
  7
CJK
  0
LWPOLYLINE
  5
1DB
330
17
100
AcDbEntity
  8
WIRES_SPEAKER
  6
CONTINUOUS
420
15230298
100
AcDbPolyline
 90
6
 70
0
 10
217.0
 20
-1586.5
 10
227.0
 20
-1586.5
 10
252.0
 20
-1586.5
 10
252.0
 20
-3755.5
 10
277.0
 20
-3755.5
 10
287.0
 20
-3755.5
  0
MTEXT
  5
1DC
330
17
100
AcDbEntity
  8
WIRE_LABELS
420
15230298
100
AcDbMText
 10
227.0
 20
-1583.5
 30
0.0
 40
7.0
 41
0.0
 71
7
  1
SPK
  7
CJK
  0
LWPOLYLINE
  5
1DD
330
17
100
AcDbEntity
  8
WIRES_SPEAKER
  6
CONTINUOUS
420
15230298
100
AcDbPolyline
 90
6
 70
0
 10
217.0
 20
-1687.5
 10
227.0
 20
-1687.5
 10
252.0
 20
-1687.5
 10
252.0
 20
-1104.5
 10
277.0
 20
-1104.5
 10
287.0
 20
-1104.5
  0
MTEXT
  5
1DE
330
17
100
AcDbEntity
  8
WIRE_LABELS
420
15230298
100
AcDbMText
 10
227.0
 20
-1684.5
 30
0.0
 40
7.0
 41
0.0
 71
7
  1
SPK
  7
CJK
  0
LWPOLYLINE
  5
1DF
330
17
100
AcDbEntity
  8
WIRES_SPEAKER
  6
CONTINUOUS
420
15230298
100
AcDbPolyline
 90
6
 70
0
 10
217.0
 20
-1698.5
 10
227.0
 20
-1698.5
 10
252.0
 20
-1698.5
 10
252.0
 20
-2447.5
 10
277.0
 20
-2447.5
 10
287.0
 20
-2447.5
  0
MTEXT
  5
1E0
330
17
100
AcDbEntity
  8
WIRE_LABELS
420
15230298
100
AcDbMText
 10
227.0
 20
-1695.5
 30
0.0
 40
7.0
 41
0.0
 71
7
  1
SPK
  7
CJK
  0
LWPOLYLINE
  5
1E1
330
17
100
AcDbEntity
  8
WIRES_SPEAKER
  6
CONTINUOUS
420
15230298
100
AcDbPolyline
 90
6
 70
0
 10
217.0
 20
-1709.5
 10
227.0
 20
-1709.5
 10
252.0
 20
-1709.5
 10
252.0
 20
-3834.5
 10
277.0
 20
-3834.5
 10
287.0
 20
-3834.5
  0
MTEXT
  5
1E2
330
17
100
AcDbEntity
  8
WIRE_LABELS
420
15230298
100
AcDbMText
 10
227.0
 20
-1706.5
 30
0.0
 40
7.0
 41
0.0
 71
7
  1
SPK
  7
CJK
  0
LWPOLYLINE
  5
1E3
330
17
100
AcDbEntity
  8
WIRES_SPEAKER
  6
CONTINUOUS
420
15230298
100
AcDbPolyline
 90
6
 70
0
 10
217.0
 20
-1810.5
 10
227.0
 20
-1810.5
 10
252.0
 20
-1810.5
 10
252.0
 20
-1183.5
 10
277.0
 20
-1183.5
 10
287.0
 20
-1183.5
  0
MTEXT
  5
1E4
330
17
100
AcDbEntity
  8
WIRE_LABELS
420
15230298
100
AcDbMText
 10
227.0
 20
-1807.5
 30
0.0
 40
7.0
 41
0.0
 71
7
  1
SPK
  7
CJK
  0
LWPOLYLINE
  5
1E5
330
17
100
AcDbEntity
  8
WIRES_SPEAKER
  6
CONTINUOUS
420
15230298
100
AcDbPolyline
 90
6
 70
0
 10
217.0
 20
-1821.5
 10
227.0
 20
-1821.5
 10
252.0
 20
-1821.5
 10
252.0
 20
-2537.5
 10
277.0
 20
-2537.5
 10
287.0
 20
-2537.5
  0
MTEXT
  5
1E6
330
17
100
AcDbEntity
  8
WIRE_LABELS
420
15230298
100
AcDbMText
 10
227.0
 20
-1818.5
 30
0.0
 40
7.0
 41
0.0
 71
7
  1
SPK
  7
CJK
  0
LWPOLYLINE
  5
1E7
330
17
100
AcDbEntity
  8
WIRES_SPEAKER
  6
CONTINUOUS
420
15230298
100
AcDbPolyline
 90
6
 70
0
 10
217.0
 20
-1832.5
 10
227.0
 20
-1832.5
 10
252.0
 20
-1832.5
 10
252.0
 20
-3913.5
 10
277.0
 20
-3913.5
 10
287.0
 20
-3913.5
  0
MTEXT
  5
1E8
330
17
100
AcDbEntity
  8
WIRE_LABELS
420
15230298
100
AcDbMText
 10
227.0
 20
-1829.5
 30
0.0
 40
7.0
 41
0.0
 71
7
  1
SPK
  7
CJK
  0
LWPOLYLINE
  5
1E9
330
17
100
AcDbEntity
  8
WIRES_SPEAKER
  6
CONTINUOUS
420
15230298
100
AcDbPolyline
 90
6
 70
0
 10
217.0
 20
-1933.5
 10
227.0
 20
-1933.5
 10
252.0
 20
-1933.5
 10
252.0
 20
-1262.5
 10
277.0
 20
-1262.5
 10
287.0
 20
-1262.5
  0
MTEXT
  5
1EA
330
17
100
AcDbEntity
  8
WIRE_LABELS
420
15230298
100
AcDbMText
 10
227.0
 20
-1930.5
 30
0.0
 40
7.0
 41
0.0
 71
7
  1
SPK
  7
CJK
  0
LWPOLYLINE
  5
1EB
330
17
100
AcDbEntity
  8
WIRES_SPEAKER
  6
CONTINUOUS
420
15230298
100
AcDbPolyline
 90
6
 70
0
 10
217.0
 20
-1944.5
 10
227.0
 20
-1944.5
 10
252.0
 20
-1944.5
 10
252.0
 20
-2627.5
 10
277.0
 20
-2627.5
 10
287.0
 20
-2627.5
  0
MTEXT
  5
1EC
330
17
100
AcDbEntity
  8
WIRE_LABELS
420
15230298
100
AcDbMText
 10
227.0
 20
-1941.5
 30
0.0
 40
7.0
 41
0.0
 71
7
  1
SPK
  7
CJK
  0
LWPOLYLINE
  5
1ED
330
17
100
AcDbEntity
  8
WIRES_SPEAKER
  6
CONTINUOUS
420
15230298
100
AcDbPolyline
 90
6
 70
0
 10
217.0
 20
-1955.5
 10
227.0
 20
-1955.5
 10
252.0
 20
-1955.5
 10
252.0
 20
-3992.5
 10
277.0
 20
-3992.5
 10
287.0
 20
-3992.5
  0
MTEXT
  5
1EE
330
17
100
AcDbEntity
  8
WIRE_LABELS
420
15230298
100
AcDbMText
 10
227.0
 20
-1952.5
 30
0.0
 40
7.0
 41
0.0
 71
7
  1
SPK
  7
CJK
  0
LWPOLYLINE
  5
1EF
330
17
100
AcDbEntity
  8
WIRES_SPEAKER
  6
CONTINUOUS
420
15230298
100
AcDbPolyline
 90
6
 70
0
 10
217.0
 20
-2056.5
 10
227.0
 20
-2056.5
 10
252.0
 20
-2056.5
 10
252.0
 20
-1341.5
 10
277.0
 20
-1341.5
 10
287.0
 20
-1341.5
  0
MTEXT
  5
1F0
330
17
100
AcDbEntity
  8
WIRE_LABELS
420
15230298
100
AcDbMText
 10
227.0
 20
-2053.5
 30
0.0
 40
7.0
 41
0.0
 71
7
  1
SPK
  7
CJK
  0
LWPOLYLINE
  5
1F1
330
17
100
AcDbEntity
  8
WIRES_SPEAKER
  6
CONTINUOUS
420
15230298
100
AcDbPolyline
 90
6
 70
0
 10
217.0
 20
-2067.5
 10
227.0
 20
-2067.5
 10
252.0
 20
-2067.5
 10
252.0
 20
-2717.5
 10
277.0
 20
-2717.5
 10
287.0
 20
-2717.5
  0
MTEXT
  5
1F2
330
17
100
AcDbEntity
  8
WIRE_LABELS
420
15230298
100
AcDbMText
 10
227.0
 20
-2064.5
 30
0.0
 40
7.0
 41
0.0
 71
7
  1
SPK
  7
CJK
  0
LWPOLYLINE
  5
1F3
330
17
100
AcDbEntity
  8
WIRES_SPEAKER
  6
CONTINUOUS
420
15230298
100
AcDbPolyline
 90
6
 70
0
 10
217.0
 20
-2078.5
 10
227.0
 20
-2078.5
 10
252.0
 20
-2078.5
 10
252.0
 20
-4071.5
 10
277.0
 20
-4071.5
 10
287.0
 20
-4071.5
  0
MTEXT
  5
1F4
330
17
100
AcDbEntity
  8
WIRE_LABELS
420
15230298
100
AcDbMText
 10
227.0
 20
-2075.5
 30
0.0
 40
7.0
 41
0.0
 71
7
  1
SPK
  7
CJK
  0
LWPOLYLINE
  5
1F5
330
17
100
AcDbEntity
  8
WIRES_DANTE
  6
CONTINUOUS
420
3640029
100
AcDbPolyline
 90
2
 70
0
 10
2.0
 20
-5008.0
 10
376.9
 20
-5008.0
  0
MTEXT
  5
1F6
330
17
100
AcDbEntity
  8
WIRE_LABELS
420
3640029
100
AcDbMText
 10
2.0
 20
-5005.0
 30
0.0
 40
7.0
 41
0.0
 71
7
  1
DANTE 主干 x10
  7
CJK
  0
LWPOLYLINE
  5
1F7
330
17
100
AcDbEntity
  8
WIRES_DANTE
  6
CONTINUOUS
420
3640029
100
AcDbPolyline
 90
6
 70
0
 10
40.0
 20
-121.5
 10
30.0
 20
-121.5
 10
14.0
 20
-121.5
 10
14.0
 20
-5008.0
 10
219.1
 20
-5008.0
 10
219.1
 20
-5052.0
  0
MTEXT
  5
1F8
330
17
100
AcDbEntity
  8
WIRE_LABELS
420
3640029
100
AcDbMText
 10
14.0
 20
-118.5
 30
0.0
 40
7.0
 41
0.0
 71
7
  1
DANTE
  7
CJK
  0
LWPOLYLINE
  5
1F9
330
17
100
AcDbEntity
  8
WIRES_DANTE
  6
CONTINUOUS
420
3640029
100
AcDbPolyline
 90
6
 70
0
 10
40.0
 20
-244.5
 10
30.0
 20
-244.5
 10
14.0
 20
-244.5
 10
14.0
 20
-5008.0
 10
235.29999999999998
 20
-5008.0
 10
235.29999999999998
 20
-5052.0
  0
MTEXT
  5
1FA
330
17
100
AcDbEntity
  8
WIRE_LABELS
420
3640029
100
AcDbMText
 10
14.0
 20
-241.5
 30
0.0
 40
7.0
 41
0.0
 71
7
  1
DANTE
  7
CJK
  0
LWPOLYLINE
  5
1FB
330
17
100
AcDbEntity
  8
WIRES_DANTE
  6
CONTINUOUS
420
3640029
100
AcDbPolyline
 90
6
 70
0
 10
40.0
 20
-367.5
 10
30.0
 20
-367.5
 10
14.0
 20
-367.5
 10
14.0
 20
-5008.0
 10
251.5
 20
-5008.0
 10
251.5
 20
-5052.0
  0
MTEXT
  5
1FC
330
17
100
AcDbEntity
  8
WIRE_LABELS
420
3640029
100
AcDbMText
 10
14.0
 20
-364.5
 30
0.0
 40
7.0
 41
0.0
 71
7
  1
DANTE
  7
CJK
  0
LWPOLYLINE
  5
1FD
330
17
100
AcDbEntity
  8
WIRES_DANTE
  6
CONTINUOUS
420
3640029
100
AcDbPolyline
 90
6
 70
0
 10
40.0
 20
-490.5
 10
30.0
 20
-490.5
 10
14.0
 20
-490.5
 10
14.0
 20
-5008.0
 10
267.70000000000005
 20
-5008.0
 10
267.70000000000005
 20
-5052.0
  0
MTEXT
  5
1FE
330
17
100
AcDbEntity
  8
WIRE_LABELS
420
3640029
100
AcDbMText
 10
14.0
 20
-487.5
 30
0.0
 40
7.0
 41
0.0
 71
7
  1
DANTE
  7
CJK
  0
LWPOLYLINE
  5
1FF
330
17
100
AcDbEntity
  8
WIRES_DANTE
  6
CONTINUOUS
420
3640029
100
AcDbPolyline
 90
6
 70
0
 10
40.0
 20
-613.5
 10
30.0
 20
-613.5
 10
14.0
 20
-613.5
 10
14.0
 20
-5008.0
 10
283.90000000000003
 20
-5008.0
 10
283.90000000000003
 20
-5052.0
  0
MTEXT
  5
200
330
17
100
AcDbEntity
  8
WIRE_LABELS
420
3640029
100
AcDbMText
 10
14.0
 20
-610.5
 30
0.0
 40
7.0
 41
0.0
 71
7
  1
DANTE
  7
CJK
  0
LWPOLYLINE
  5
201
330
17
100
AcDbEntity
  8
WIRES_DANTE
  6
CONTINUOUS
420
3640029
100
AcDbPolyline
 90
6
 70
0
 10
40.0
 20
-736.5
 10
30.0
 20
-736.5
 10
14.0
 20
-736.5
 10
14.0
 20
-5008.0
 10
300.1
 20
-5008.0
 10
300.1
 20
-5052.0
  0
MTEXT
  5
202
330
17
100
AcDbEntity
  8
WIRE_LABELS
420
3640029
100
AcDbMText
 10
14.0
 20
-733.5
 30
0.0
 40
7.0
 41
0.0
 71
7
  1
DANTE
  7
CJK
  0
LWPOLYLINE
  5
203
330
17
100
AcDbEntity
  8
WIRES_DANTE
  6
CONTINUOUS
420
3640029
100
AcDbPolyline
 90
6
 70
0
 10
40.0
 20
-859.5
 10
30.0
 20
-859.5
 10
14.0
 20
-859.5
 10
14.0
 20
-5008.0
 10
316.3
 20
-5008.0
 10
316.3
 20
-5052.0
  0
MTEXT
  5
204
330
17
100
AcDbEntity
  8
WIRE_LABELS
420
3640029
100
AcDbMText
 10
14.0
 20
-856.5
 30
0.0
 40
7.0
 41
0.0
 71
7
  1
DANTE
  7
CJK
  0
LWPOLYLINE
  5
205
330
17
100
AcDbEntity
  8
WIRES_DANTE
  6
CONTINUOUS
420
3640029
100
AcDbPolyline
 90
6
 70
0
 10
40.0
 20
-982.5
 10
30.0
 20
-982.5
 10
14.0
 20
-982.5
 10
14.0
 20
-5008.0
 10
332.5
 20
-5008.0
 10
332.5
 20
-5052.0
  0
MTEXT
  5
206
330
17
100
AcDbEntity
  8
WIRE_LABELS
420
3640029
100
AcDbMText
 10
14.0
 20
-979.5
 30
0.0
 40
7.0
 41
0.0
 71
7
  1
DANTE
  7
CJK
  0
LWPOLYLINE
  5
207
330
17
100
AcDbEntity
  8
WIRES_DANTE
  6
CONTINUOUS
420
3640029
100
AcDbPolyline
 90
6
 70
0
 10
40.0
 20
-1105.5
 10
30.0
 20
-1105.5
 10
14.0
 20
-1105.5
 10
14.0
 20
-5008.0
 10
348.70000000000005
 20
-5008.0
 10
348.70000000000005
 20
-5052.0
  0
MTEXT
  5
208
330
17
100
AcDbEntity
  8
WIRE_LABELS
420
3640029
100
AcDbMText
 10
14.0
 20
-1102.5
 30
0.0
 40
7.0
 41
0.0
 71
7
  1
DANTE
  7
CJK
  0
LWPOLYLINE
  5
209
330
17
100
AcDbEntity
  8
WIRES_DANTE
  6
CONTINUOUS
420
3640029
100
AcDbPolyline
 90
6
 70
0
 10
40.0
 20
-1228.5
 10
30.0
 20
-1228.5
 10
14.0
 20
-1228.5
 10
14.0
 20
-5008.0
 10
364.9
 20
-5008.0
 10
364.9
 20
-5052.0
  0
MTEXT
  5
20A
330
17
100
AcDbEntity
  8
WIRE_LABELS
420
3640029
100
AcDbMText
 10
14.0
 20
-1225.5
 30
0.0
 40
7.0
 41
0.0
 71
7
  1
DANTE
  7
CJK
  0
CIRCLE
  5
20B
330
17
100
AcDbEntity
  8
PORTS
420
15230298
100
AcDbCircle
 10
287.0
 20
-77.5
 30
0.0
 40
2.4
  0
MTEXT
  5
20C
330
17
100
AcDbEntity
  8
LABELS
420
16119276
100
AcDbMText
 10
294.0
 20
-80.5
 30
0.0
 40
8.0
 41
0.0
 71
7
  1
SPK
  7
CJK
  0
CIRCLE
  5
20D
330
17
100
AcDbEntity
  8
PORTS
420
15230298
100
AcDbCircle
 10
287.0
 20
-156.5
 30
0.0
 40
2.4
  0
MTEXT
  5
20E
330
17
100
AcDbEntity
  8
LABELS
420
16119276
100
AcDbMText
 10
294.0
 20
-159.5
 30
0.0
 40
8.0
 41
0.0
 71
7
  1
SPK
  7
CJK
  0
CIRCLE
  5
20F
330
17
100
AcDbEntity
  8
PORTS
420
15230298
100
AcDbCircle
 10
287.0
 20
-235.5
 30
0.0
 40
2.4
  0
MTEXT
  5
210
330
17
100
AcDbEntity
  8
LABELS
420
16119276
100
AcDbMText
 10
294.0
 20
-238.5
 30
0.0
 40
8.0
 41
0.0
 71
7
  1
SPK
  7
CJK
  0
CIRCLE
  5
211
330
17
100
AcDbEntity
  8
PORTS
420
15230298
100
AcDbCircle
 10
287.0
 20
-314.5
 30
0.0
 40
2.4
  0
MTEXT
  5
212
330
17
100
AcDbEntity
  8
LABELS
420
16119276
100
AcDbMText
 10
294.0
 20
-317.5
 30
0.0
 40
8.0
 41
0.0
 71
7
  1
SPK
  7
CJK
  0
CIRCLE
  5
213
330
17
100
AcDbEntity
  8
PORTS
420
15230298
100
AcDbCircle
 10
287.0
 20
-393.5
 30
0.0
 40
2.4
  0
MTEXT
  5
214
330
17
100
AcDbEntity
  8
LABELS
420
16119276
100
AcDbMText
 10
294.0
 20
-396.5
 30
0.0
 40
8.0
 41
0.0
 71
7
  1
SPK
  7
CJK
  0
CIRCLE
  5
215
330
17
100
AcDbEntity
  8
PORTS
420
15230298
100
AcDbCircle
 10
287.0
 20
-472.5
 30
0.0
 40
2.4
  0
MTEXT
  5
216
330
17
100
AcDbEntity
  8
LABELS
420
16119276
100
AcDbMText
 10
294.0
 20
-475.5
 30
0.0
 40
8.0
 41
0.0
 71
7
  1
SPK
  7
CJK
  0
CIRCLE
  5
217
330
17
100
AcDbEntity
  8
PORTS
420
15230298
100
AcDbCircle
 10
287.0
 20
-551.5
 30
0.0
 40
2.4
  0
MTEXT
  5
218
330
17
100
AcDbEntity
  8
LABELS
420
16119276
100
AcDbMText
 10
294.0
 20
-554.5
 30
0.0
 40
8.0
 41
0.0
 71
7
  1
SPK
  7
CJK
  0
CIRCLE
  5
219
330
17
100
AcDbEntity
  8
PORTS
420
15230298
100
AcDbCircle
 10
287.0
 20
-630.5
 30
0.0
 40
2.4
  0
MTEXT
  5
21A
330
17
100
AcDbEntity
  8
LABELS
420
16119276
100
AcDbMText
 10
294.0
 20
-633.5
 30
0.0
 40
8.0
 41
0.0
 71
7
  1
SPK
  7
CJK
  0
CIRCLE
  5
21B
330
17
100
AcDbEntity
  8
PORTS
420
15230298
100
AcDbCircle
 10
287.0
 20
-709.5
 30
0.0
 40
2.4
  0
MTEXT
  5
21C
330
17
100
AcDbEntity
  8
LABELS
420
16119276
100
AcDbMText
 10
294.0
 20
-712.5
 30
0.0
 40
8.0
 41
0.0
 71
7
  1
SPK
  7
CJK
  0
CIRCLE
  5
21D
330
17
100
AcDbEntity
  8
PORTS
420
15230298
100
AcDbCircle
 10
287.0
 20
-788.5
 30
0.0
 40
2.4
  0
MTEXT
  5
21E
330
17
100
AcDbEntity
  8
LABELS
420
16119276
100
AcDbMText
 10
294.0
 20
-791.5
 30
0.0
 40
8.0
 41
0.0
 71
7
  1
SPK
  7
CJK
  0
CIRCLE
  5
21F
330
17
100
AcDbEntity
  8
PORTS
420
15230298
100
AcDbCircle
 10
287.0
 20
-867.5
 30
0.0
 40
2.4
  0
MTEXT
  5
220
330
17
100
AcDbEntity
  8
LABELS
420
16119276
100
AcDbMText
 10
294.0
 20
-870.5
 30
0.0
 40
8.0
 41
0.0
 71
7
  1
SPK
  7
CJK
  0
CIRCLE
  5
221
330
17
100
AcDbEntity
  8
PORTS
420
15230298
100
AcDbCircle
 10
287.0
 20
-946.5
 30
0.0
 40
2.4
  0
MTEXT
  5
222
330
17
100
AcDbEntity
  8
LABELS
420
16119276
100
AcDbMText
 10
294.0
 20
-949.5
 30
0.0
 40
8.0
 41
0.0
 71
7
  1
SPK
  7
CJK
  0
CIRCLE
  5
223
330
17
100
AcDbEntity
  8
PORTS
420
15230298
100
AcDbCircle
 10
287.0
 20
-1025.5
 30
0.0
 40
2.4
  0
MTEXT
  5
224
330
17
100
AcDbEntity
  8
LABELS
420
16119276
100
AcDbMText
 10
294.0
 20
-1028.5
 30
0.0
 40
8.0
 41
0.0
 71
7
  1
SPK
  7
CJK
  0
CIRCLE
  5
225
330
17
100
AcDbEntity
  8
PORTS
420
15230298
100
AcDbCircle
 10
287.0
 20
-1104.5
 30
0.0
 40
2.4
  0
MTEXT
  5
226
330
17
100
AcDbEntity
  8
LABELS
420
16119276
100
AcDbMText
 10
294.0
 20
-1107.5
 30
0.0
 40
8.0
 41
0.0
 71
7
  1
SPK
  7
CJK
  0
CIRCLE
  5
227
330
17
100
AcDbEntity
  8
PORTS
420
15230298
100
AcDbCircle
 10
287.0
 20
-1183.5
 30
0.0
 40
2.4
  0
MTEXT
  5
228
330
17
100
AcDbEntity
  8
LABELS
420
16119276
100
AcDbMText
 10
294.0
 20
-1186.5
 30
0.0
 40
8.0
 41
0.0
 71
7
  1
SPK
  7
CJK
  0
CIRCLE
  5
229
330
17
100
AcDbEntity
  8
PORTS
420
15230298
100
AcDbCircle
 10
287.0
 20
-1262.5
 30
0.0
 40
2.4
  0
MTEXT
  5
22A
330
17
100
AcDbEntity
  8
LABELS
420
16119276
100
AcDbMText
 10
294.0
 20
-1265.5
 30
0.0
 40
8.0
 41
0.0
 71
7
  1
SPK
  7
CJK
  0
CIRCLE
  5
22B
330
17
100
AcDbEntity
  8
PORTS
420
15230298
100
AcDbCircle
 10
287.0
 20
-1341.5
 30
0.0
 40
2.4
  0
MTEXT
  5
22C
330
17
100
AcDbEntity
  8
LABELS
420
16119276
100
AcDbMText
 10
294.0
 20
-1344.5
 30
0.0
 40
8.0
 41
0.0
 71
7
  1
SPK
  7
CJK
  0
CIRCLE
  5
22D
330
17
100
AcDbEntity
  8
PORTS
420
15230298
100
AcDbCircle
 10
287.0
 20
-1420.5
 30
0.0
 40
2.4
  0
MTEXT
  5
22E
330
17
100
AcDbEntity
  8
LABELS
420
16119276
100
AcDbMText
 10
294.0
 20
-1423.5
 30
0.0
 40
8.0
 41
0.0
 71
7
  1
SPK
  7
CJK
  0
CIRCLE
  5
22F
330
17
100
AcDbEntity
  8
PORTS
420
15230298
100
AcDbCircle
 10
287.0
 20
-1499.5
 30
0.0
 40
2.4
  0
MTEXT
  5
230
330
17
100
AcDbEntity
  8
LABELS
420
16119276
100
AcDbMText
 10
294.0
 20
-1502.5
 30
0.0
 40
8.0
 41
0.0
 71
7
  1
SPK
  7
CJK
  0
CIRCLE
  5
231
330
17
100
AcDbEntity
  8
PORTS
420
15230298
100
AcDbCircle
 10
287.0
 20
-1578.5
 30
0.0
 40
2.4
  0
MTEXT
  5
232
330
17
100
AcDbEntity
  8
LABELS
420
16119276
100
AcDbMText
 10
294.0
 20
-1581.5
 30
0.0
 40
8.0
 41
0.0
 71
7
  1
SPK
  7
CJK
  0
CIRCLE
  5
233
330
17
100
AcDbEntity
  8
PORTS
420
15230298
100
AcDbCircle
 10
287.0
 20
-1657.5
 30
0.0
 40
2.4
  0
MTEXT
  5
234
330
17
100
AcDbEntity
  8
LABELS
420
16119276
100
AcDbMText
 10
294.0
 20
-1660.5
 30
0.0
 40
8.0
 41
0.0
 71
7
  1
SPK
  7
CJK
  0
CIRCLE
  5
235
330
17
100
AcDbEntity
  8
PORTS
420
15230298
100
AcDbCircle
 10
287.0
 20
-1736.5
 30
0.0
 40
2.4
  0
MTEXT
  5
236
330
17
100
AcDbEntity
  8
LABELS
420
16119276
100
AcDbMText
 10
294.0
 20
-1739.5
 30
0.0
 40
8.0
 41
0.0
 71
7
  1
SPK
  7
CJK
  0
CIRCLE
  5
237
330
17
100
AcDbEntity
  8
PORTS
420
15230298
100
AcDbCircle
 10
287.0
 20
-1815.5
 30
0.0
 40
2.4
  0
MTEXT
  5
238
330
17
100
AcDbEntity
  8
LABELS
420
16119276
100
AcDbMText
 10
294.0
 20
-1818.5
 30
0.0
 40
8.0
 41
0.0
 71
7
  1
SPK
  7
CJK
  0
CIRCLE
  5
239
330
17
100
AcDbEntity
  8
PORTS
420
15230298
100
AcDbCircle
 10
287.0
 20
-1894.5
 30
0.0
 40
2.4
  0
MTEXT
  5
23A
330
17
100
AcDbEntity
  8
LABELS
420
16119276
100
AcDbMText
 10
294.0
 20
-1897.5
 30
0.0
 40
8.0
 41
0.0
 71
7
  1
SPK
  7
CJK
  0
CIRCLE
  5
23B
330
17
100
AcDbEntity
  8
PORTS
420
15230298
100
AcDbCircle
 10
287.0
 20
-1973.5
 30
0.0
 40
2.4
  0
MTEXT
  5
23C
330
17
100
AcDbEntity
  8
LABELS
420
16119276
100
AcDbMText
 10
294.0
 20
-1976.5
 30
0.0
 40
8.0
 41
0.0
 71
7
  1
SPK
  7
CJK
  0
CIRCLE
  5
23D
330
17
100
AcDbEntity
  8
PORTS
420
15230298
100
AcDbCircle
 10
287.0
 20
-2052.5
 30
0.0
 40
2.4
  0
MTEXT
  5
23E
330
17
100
AcDbEntity
  8
LABELS
420
16119276
100
AcDbMText
 10
294.0
 20
-2055.5
 30
0.0
 40
8.0
 41
0.0
 71
7
  1
SPK
  7
CJK
  0
CIRCLE
  5
23F
330
17
100
AcDbEntity
  8
PORTS
420
15230298
100
AcDbCircle
 10
287.0
 20
-2131.5
 30
0.0
 40
2.4
  0
MTEXT
  5
240
330
17
100
AcDbEntity
  8
LABELS
420
16119276
100
AcDbMText
 10
294.0
 20
-2134.5
 30
0.0
 40
8.0
 41
0.0
 71
7
  1
SPK
  7
CJK
  0
CIRCLE
  5
241
330
17
100
AcDbEntity
  8
PORTS
420
15230298
100
AcDbCircle
 10
287.0
 20
-2210.5
 30
0.0
 40
2.4
  0
MTEXT
  5
242
330
17
100
AcDbEntity
  8
LABELS
420
16119276
100
AcDbMText
 10
294.0
 20
-2213.5
 30
0.0
 40
8.0
 41
0.0
 71
7
  1
SPK
  7
CJK
  0
CIRCLE
  5
243
330
17
100
AcDbEntity
  8
PORTS
420
15230298
100
AcDbCircle
 10
287.0
 20
-2289.5
 30
0.0
 40
2.4
  0
MTEXT
  5
244
330
17
100
AcDbEntity
  8
LABELS
420
16119276
100
AcDbMText
 10
294.0
 20
-2292.5
 30
0.0
 40
8.0
 41
0.0
 71
7
  1
SPK
  7
CJK
  0
CIRCLE
  5
245
330
17
100
AcDbEntity
  8
PORTS
420
15230298
100
AcDbCircle
 10
287.0
 20
-2368.5
 30
0.0
 40
2.4
  0
MTEXT
  5
246
330
17
100
AcDbEntity
  8
LABELS
420
16119276
100
AcDbMText
 10
294.0
 20
-2371.5
 30
0.0
 40
8.0
 41
0.0
 71
7
  1
SPK
  7
CJK
  0
CIRCLE
  5
247
330
17
100
AcDbEntity
  8
PORTS
420
15230298
100
AcDbCircle
 10
287.0
 20
-2447.5
 30
0.0
 40
2.4
  0
MTEXT
  5
248
330
17
100
AcDbEntity
  8
LABELS
420
16119276
100
AcDbMText
 10
294.0
 20
-2450.5
 30
0.0
 40
8.0
 41
0.0
 71
7
  1
SPK1
  7
CJK
  0
CIRCLE
  5
249
330
17
100
AcDbEntity
  8
PORTS
420
15230298
100
AcDbCircle
 10
287.0
 20
-2458.5
 30
0.0
 40
2.4
  0
MTEXT
  5
24A
330
17
100
AcDbEntity
  8
LABELS
420
16119276
100
AcDbMText
 10
294.0
 20
-2461.5
 30
0.0
 40
8.0
 41
0.0
 71
7
  1
SPK2
  7
CJK
  0
CIRCLE
  5
24B
330
17
100
AcDbEntity
  8
PORTS
420
15230298
100
AcDbCircle
 10
287.0
 20
-2537.5
 30
0.0
 40
2.4
  0
MTEXT
  5
24C
330
17
100
AcDbEntity
  8
LABELS
420
16119276
100
AcDbMText
 10
294.0
 20
-2540.5
 30
0.0
 40
8.0
 41
0.0
 71
7
  1
SPK1
  7
CJK
  0
CIRCLE
  5
24D
330
17
100
AcDbEntity
  8
PORTS
420
15230298
100
AcDbCircle
 10
287.0
 20
-2548.5
 30
0.0
 40
2.4
  0
MTEXT
  5
24E
330
17
100
AcDbEntity
  8
LABELS
420
16119276
100
AcDbMText
 10
294.0
 20
-2551.5
 30
0.0
 40
8.0
 41
0.0
 71
7
  1
SPK2
  7
CJK
  0
CIRCLE
  5
24F
330
17
100
AcDbEntity
  8
PORTS
420
15230298
100
AcDbCircle
 10
287.0
 20
-2627.5
 30
0.0
 40
2.4
  0
MTEXT
  5
250
330
17
100
AcDbEntity
  8
LABELS
420
16119276
100
AcDbMText
 10
294.0
 20
-2630.5
 30
0.0
 40
8.0
 41
0.0
 71
7
  1
SPK1
  7
CJK
  0
CIRCLE
  5
251
330
17
100
AcDbEntity
  8
PORTS
420
15230298
100
AcDbCircle
 10
287.0
 20
-2638.5
 30
0.0
 40
2.4
  0
MTEXT
  5
252
330
17
100
AcDbEntity
  8
LABELS
420
16119276
100
AcDbMText
 10
294.0
 20
-2641.5
 30
0.0
 40
8.0
 41
0.0
 71
7
  1
SPK2
  7
CJK
  0
CIRCLE
  5
253
330
17
100
AcDbEntity
  8
PORTS
420
15230298
100
AcDbCircle
 10
287.0
 20
-2717.5
 30
0.0
 40
2.4
  0
MTEXT
  5
254
330
17
100
AcDbEntity
  8
LABELS
420
16119276
100
AcDbMText
 10
294.0
 20
-2720.5
 30
0.0
 40
8.0
 41
0.0
 71
7
  1
SPK1
  7
CJK
  0
CIRCLE
  5
255
330
17
100
AcDbEntity
  8
PORTS
420
15230298
100
AcDbCircle
 10
287.0
 20
-2728.5
 30
0.0
 40
2.4
  0
MTEXT
  5
256
330
17
100
AcDbEntity
  8
LABELS
420
16119276
100
AcDbMText
 10
294.0
 20
-2731.5
 30
0.0
 40
8.0
 41
0.0
 71
7
  1
SPK2
  7
CJK
  0
CIRCLE
  5
257
330
17
100
AcDbEntity
  8
PORTS
420
15230298
100
AcDbCircle
 10
287.0
 20
-2807.5
 30
0.0
 40
2.4
  0
MTEXT
  5
258
330
17
100
AcDbEntity
  8
LABELS
420
16119276
100
AcDbMText
 10
294.0
 20
-2810.5
 30
0.0
 40
8.0
 41
0.0
 71
7
  1
SPK
  7
CJK
  0
CIRCLE
  5
259
330
17
100
AcDbEntity
  8
PORTS
420
15230298
100
AcDbCircle
 10
287.0
 20
-2886.5
 30
0.0
 40
2.4
  0
MTEXT
  5
25A
330
17
100
AcDbEntity
  8
LABELS
420
16119276
100
AcDbMText
 10
294.0
 20
-2889.5
 30
0.0
 40
8.0
 41
0.0
 71
7
  1
SPK
  7
CJK
  0
CIRCLE
  5
25B
330
17
100
AcDbEntity
  8
PORTS
420
15230298
100
AcDbCircle
 10
287.0
 20
-2965.5
 30
0.0
 40
2.4
  0
MTEXT
  5
25C
330
17
100
AcDbEntity
  8
LABELS
420
16119276
100
AcDbMText
 10
294.0
 20
-2968.5
 30
0.0
 40
8.0
 41
0.0
 71
7
  1
SPK
  7
CJK
  0
CIRCLE
  5
25D
330
17
100
AcDbEntity
  8
PORTS
420
15230298
100
AcDbCircle
 10
287.0
 20
-3044.5
 30
0.0
 40
2.4
  0
MTEXT
  5
25E
330
17
100
AcDbEntity
  8
LABELS
420
16119276
100
AcDbMText
 10
294.0
 20
-3047.5
 30
0.0
 40
8.0
 41
0.0
 71
7
  1
SPK
  7
CJK
  0
CIRCLE
  5
25F
330
17
100
AcDbEntity
  8
PORTS
420
15230298
100
AcDbCircle
 10
287.0
 20
-3123.5
 30
0.0
 40
2.4
  0
MTEXT
  5
260
330
17
100
AcDbEntity
  8
LABELS
420
16119276
100
AcDbMText
 10
294.0
 20
-3126.5
 30
0.0
 40
8.0
 41
0.0
 71
7
  1
SPK
  7
CJK
  0
CIRCLE
  5
261
330
17
100
AcDbEntity
  8
PORTS
420
15230298
100
AcDbCircle
 10
287.0
 20
-3202.5
 30
0.0
 40
2.4
  0
MTEXT
  5
262
330
17
100
AcDbEntity
  8
LABELS
420
16119276
100
AcDbMText
 10
294.0
 20
-3205.5
 30
0.0
 40
8.0
 41
0.0
 71
7
  1
SPK
  7
CJK
  0
CIRCLE
  5
263
330
17
100
AcDbEntity
  8
PORTS
420
15230298
100
AcDbCircle
 10
287.0
 20
-3281.5
 30
0.0
 40
2.4
  0
MTEXT
  5
264
330
17
100
AcDbEntity
  8
LABELS
420
16119276
100
AcDbMText
 10
294.0
 20
-3284.5
 30
0.0
 40
8.0
 41
0.0
 71
7
  1
SPK
  7
CJK
  0
CIRCLE
  5
265
330
17
100
AcDbEntity
  8
PORTS
420
15230298
100
AcDbCircle
 10
287.0
 20
-3360.5
 30
0.0
 40
2.4
  0
MTEXT
  5
266
330
17
100
AcDbEntity
  8
LABELS
420
16119276
100
AcDbMText
 10
294.0
 20
-3363.5
 30
0.0
 40
8.0
 41
0.0
 71
7
  1
SPK
  7
CJK
  0
CIRCLE
  5
267
330
17
100
AcDbEntity
  8
PORTS
420
15230298
100
AcDbCircle
 10
287.0
 20
-3439.5
 30
0.0
 40
2.4
  0
MTEXT
  5
268
330
17
100
AcDbEntity
  8
LABELS
420
16119276
100
AcDbMText
 10
294.0
 20
-3442.5
 30
0.0
 40
8.0
 41
0.0
 71
7
  1
SPK
  7
CJK
  0
CIRCLE
  5
269
330
17
100
AcDbEntity
  8
PORTS
420
15230298
100
AcDbCircle
 10
287.0
 20
-3518.5
 30
0.0
 40
2.4
  0
MTEXT
  5
26A
330
17
100
AcDbEntity
  8
LABELS
420
16119276
100
AcDbMText
 10
294.0
 20
-3521.5
 30
0.0
 40
8.0
 41
0.0
 71
7
  1
SPK
  7
CJK
  0
CIRCLE
  5
26B
330
17
100
AcDbEntity
  8
PORTS
420
15230298
100
AcDbCircle
 10
287.0
 20
-3597.5
 30
0.0
 40
2.4
  0
MTEXT
  5
26C
330
17
100
AcDbEntity
  8
LABELS
420
16119276
100
AcDbMText
 10
294.0
 20
-3600.5
 30
0.0
 40
8.0
 41
0.0
 71
7
  1
SPK
  7
CJK
  0
CIRCLE
  5
26D
330
17
100
AcDbEntity
  8
PORTS
420
15230298
100
AcDbCircle
 10
287.0
 20
-3676.5
 30
0.0
 40
2.4
  0
MTEXT
  5
26E
330
17
100
AcDbEntity
  8
LABELS
420
16119276
100
AcDbMText
 10
294.0
 20
-3679.5
 30
0.0
 40
8.0
 41
0.0
 71
7
  1
SPK
  7
CJK
  0
CIRCLE
  5
26F
330
17
100
AcDbEntity
  8
PORTS
420
6146725
100
AcDbCircle
 10
40.0
 20
-77.5
 30
0.0
 40
2.4
  0
MTEXT
  5
270
330
17
100
AcDbEntity
  8
LABELS
420
16119276
100
AcDbMText
 10
47.0
 20
-80.5
 30
0.0
 40
8.0
 41
0.0
 71
7
  1
IN1
  7
CJK
  0
CIRCLE
  5
271
330
17
100
AcDbEntity
  8
PORTS
420
6146725
100
AcDbCircle
 10
40.0
 20
-88.5
 30
0.0
 40
2.4
  0
MTEXT
  5
272
330
17
100
AcDbEntity
  8
LABELS
420
16119276
100
AcDbMText
 10
47.0
 20
-91.5
 30
0.0
 40
8.0
 41
0.0
 71
7
  1
IN2
  7
CJK
  0
CIRCLE
  5
273
330
17
100
AcDbEntity
  8
PORTS
420
6146725
100
AcDbCircle
 10
40.0
 20
-99.5
 30
0.0
 40
2.4
  0
MTEXT
  5
274
330
17
100
AcDbEntity
  8
LABELS
420
16119276
100
AcDbMText
 10
47.0
 20
-102.5
 30
0.0
 40
8.0
 41
0.0
 71
7
  1
IN3
  7
CJK
  0
CIRCLE
  5
275
330
17
100
AcDbEntity
  8
PORTS
420
6146725
100
AcDbCircle
 10
40.0
 20
-110.5
 30
0.0
 40
2.4
  0
MTEXT
  5
276
330
17
100
AcDbEntity
  8
LABELS
420
16119276
100
AcDbMText
 10
47.0
 20
-113.5
 30
0.0
 40
8.0
 41
0.0
 71
7
  1
IN4
  7
CJK
  0
CIRCLE
  5
277
330
17
100
AcDbEntity
  8
PORTS
420
3640029
100
AcDbCircle
 10
40.0
 20
-121.5
 30
0.0
 40
2.4
  0
MTEXT
  5
278
330
17
100
AcDbEntity
  8
LABELS
420
16119276
100
AcDbMText
 10
47.0
 20
-124.5
 30
0.0
 40
8.0
 41
0.0
 71
7
  1
DANTE
  7
CJK
  0
CIRCLE
  5
279
330
17
100
AcDbEntity
  8
PORTS
420
11566297
100
AcDbCircle
 10
217.0
 20
-77.5
 30
0.0
 40
2.4
  0
MTEXT
  5
27A
330
17
100
AcDbEntity
  8
LABELS
420
16119276
100
AcDbMText
 10
210.0
 20
-80.5
 30
0.0
 40
8.0
 41
0.0
 71
9
  1
CTRL
  7
CJK
  0
CIRCLE
  5
27B
330
17
100
AcDbEntity
  8
PORTS
420
15230298
100
AcDbCircle
 10
217.0
 20
-88.5
 30
0.0
 40
2.4
  0
MTEXT
  5
27C
330
17
100
AcDbEntity
  8
LABELS
420
16119276
100
AcDbMText
 10
210.0
 20
-91.5
 30
0.0
 40
8.0
 41
0.0
 71
9
  1
SPK1
  7
CJK
  0
CIRCLE
  5
27D
330
17
100
AcDbEntity
  8
PORTS
420
15230298
100
AcDbCircle
 10
217.0
 20
-99.5
 30
0.0
 40
2.4
  0
MTEXT
  5
27E
330
17
100
AcDbEntity
  8
LABELS
420
16119276
100
AcDbMText
 10
210.0
 20
-102.5
 30
0.0
 40
8.0
 41
0.0
 71
9
  1
SPK2
  7
CJK
  0
CIRCLE
  5
27F
330
17
100
AcDbEntity
  8
PORTS
420
15230298
100
AcDbCircle
 10
217.0
 20
-110.5
 30
0.0
 40
2.4
  0
MTEXT
  5
280
330
17
100
AcDbEntity
  8
LABELS
420
16119276
100
AcDbMText
 10
210.0
 20
-113.5
 30
0.0
 40
8.0
 41
0.0
 71
9
  1
SPK3
  7
CJK
  0
CIRCLE
  5
281
330
17
100
AcDbEntity
  8
PORTS
420
15230298
100
AcDbCircle
 10
217.0
 20
-121.5
 30
0.0
 40
2.4
  0
MTEXT
  5
282
330
17
100
AcDbEntity
  8
LABELS
420
16119276
100
AcDbMText
 10
210.0
 20
-124.5
 30
0.0
 40
8.0
 41
0.0
 71
9
  1
SPK4
  7
CJK
  0
CIRCLE
  5
283
330
17
100
AcDbEntity
  8
PORTS
420
6146725
100
AcDbCircle
 10
40.0
 20
-200.5
 30
0.0
 40
2.4
  0
MTEXT
  5
284
330
17
100
AcDbEntity
  8
LABELS
420
16119276
100
AcDbMText
 10
47.0
 20
-203.5
 30
0.0
 40
8.0
 41
0.0
 71
7
  1
IN1
  7
CJK
  0
CIRCLE
  5
285
330
17
100
AcDbEntity
  8
PORTS
420
6146725
100
AcDbCircle
 10
40.0
 20
-211.5
 30
0.0
 40
2.4
  0
MTEXT
  5
286
330
17
100
AcDbEntity
  8
LABELS
420
16119276
100
AcDbMText
 10
47.0
 20
-214.5
 30
0.0
 40
8.0
 41
0.0
 71
7
  1
IN2
  7
CJK
  0
CIRCLE
  5
287
330
17
100
AcDbEntity
  8
PORTS
420
6146725
100
AcDbCircle
 10
40.0
 20
-222.5
 30
0.0
 40
2.4
  0
MTEXT
  5
288
330
17
100
AcDbEntity
  8
LABELS
420
16119276
100
AcDbMText
 10
47.0
 20
-225.5
 30
0.0
 40
8.0
 41
0.0
 71
7
  1
IN3
  7
CJK
  0
CIRCLE
  5
289
330
17
100
AcDbEntity
  8
PORTS
420
6146725
100
AcDbCircle
 10
40.0
 20
-233.5
 30
0.0
 40
2.4
  0
MTEXT
  5
28A
330
17
100
AcDbEntity
  8
LABELS
420
16119276
100
AcDbMText
 10
47.0
 20
-236.5
 30
0.0
 40
8.0
 41
0.0
 71
7
  1
IN4
  7
CJK
  0
CIRCLE
  5
28B
330
17
100
AcDbEntity
  8
PORTS
420
3640029
100
AcDbCircle
 10
40.0
 20
-244.5
 30
0.0
 40
2.4
  0
MTEXT
  5
28C
330
17
100
AcDbEntity
  8
LABELS
420
16119276
100
AcDbMText
 10
47.0
 20
-247.5
 30
0.0
 40
8.0
 41
0.0
 71
7
  1
DANTE
  7
CJK
  0
CIRCLE
  5
28D
330
17
100
AcDbEntity
  8
PORTS
420
11566297
100
AcDbCircle
 10
217.0
 20
-200.5
 30
0.0
 40
2.4
  0
MTEXT
  5
28E
330
17
100
AcDbEntity
  8
LABELS
420
16119276
100
AcDbMText
 10
210.0
 20
-203.5
 30
0.0
 40
8.0
 41
0.0
 71
9
  1
CTRL
  7
CJK
  0
CIRCLE
  5
28F
330
17
100
AcDbEntity
  8
PORTS
420
15230298
100
AcDbCircle
 10
217.0
 20
-211.5
 30
0.0
 40
2.4
  0
MTEXT
  5
290
330
17
100
AcDbEntity
  8
LABELS
420
16119276
100
AcDbMText
 10
210.0
 20
-214.5
 30
0.0
 40
8.0
 41
0.0
 71
9
  1
SPK1
  7
CJK
  0
CIRCLE
  5
291
330
17
100
AcDbEntity
  8
PORTS
420
15230298
100
AcDbCircle
 10
217.0
 20
-222.5
 30
0.0
 40
2.4
  0
MTEXT
  5
292
330
17
100
AcDbEntity
  8
LABELS
420
16119276
100
AcDbMText
 10
210.0
 20
-225.5
 30
0.0
 40
8.0
 41
0.0
 71
9
  1
SPK2
  7
CJK
  0
CIRCLE
  5
293
330
17
100
AcDbEntity
  8
PORTS
420
15230298
100
AcDbCircle
 10
217.0
 20
-233.5
 30
0.0
 40
2.4
  0
MTEXT
  5
294
330
17
100
AcDbEntity
  8
LABELS
420
16119276
100
AcDbMText
 10
210.0
 20
-236.5
 30
0.0
 40
8.0
 41
0.0
 71
9
  1
SPK3
  7
CJK
  0
CIRCLE
  5
295
330
17
100
AcDbEntity
  8
PORTS
420
15230298
100
AcDbCircle
 10
217.0
 20
-244.5
 30
0.0
 40
2.4
  0
MTEXT
  5
296
330
17
100
AcDbEntity
  8
LABELS
420
16119276
100
AcDbMText
 10
210.0
 20
-247.5
 30
0.0
 40
8.0
 41
0.0
 71
9
  1
SPK4
  7
CJK
  0
CIRCLE
  5
297
330
17
100
AcDbEntity
  8
PORTS
420
6146725
100
AcDbCircle
 10
40.0
 20
-323.5
 30
0.0
 40
2.4
  0
MTEXT
  5
298
330
17
100
AcDbEntity
  8
LABELS
420
16119276
100
AcDbMText
 10
47.0
 20
-326.5
 30
0.0
 40
8.0
 41
0.0
 71
7
  1
IN1
  7
CJK
  0
CIRCLE
  5
299
330
17
100
AcDbEntity
  8
PORTS
420
6146725
100
AcDbCircle
 10
40.0
 20
-334.5
 30
0.0
 40
2.4
  0
MTEXT
  5
29A
330
17
100
AcDbEntity
  8
LABELS
420
16119276
100
AcDbMText
 10
47.0
 20
-337.5
 30
0.0
 40
8.0
 41
0.0
 71
7
  1
IN2
  7
CJK
  0
CIRCLE
  5
29B
330
17
100
AcDbEntity
  8
PORTS
420
6146725
100
AcDbCircle
 10
40.0
 20
-345.5
 30
0.0
 40
2.4
  0
MTEXT
  5
29C
330
17
100
AcDbEntity
  8
LABELS
420
16119276
100
AcDbMText
 10
47.0
 20
-348.5
 30
0.0
 40
8.0
 41
0.0
 71
7
  1
IN3
  7
CJK
  0
CIRCLE
  5
29D
330
17
100
AcDbEntity
  8
PORTS
420
6146725
100
AcDbCircle
 10
40.0
 20
-356.5
 30
0.0
 40
2.4
  0
MTEXT
  5
29E
330
17
100
AcDbEntity
  8
LABELS
420
16119276
100
AcDbMText
 10
47.0
 20
-359.5
 30
0.0
 40
8.0
 41
0.0
 71
7
  1
IN4
  7
CJK
  0
CIRCLE
  5
29F
330
17
100
AcDbEntity
  8
PORTS
420
3640029
100
AcDbCircle
 10
40.0
 20
-367.5
 30
0.0
 40
2.4
  0
MTEXT
  5
2A0
330
17
100
AcDbEntity
  8
LABELS
420
16119276
100
AcDbMText
 10
47.0
 20
-370.5
 30
0.0
 40
8.0
 41
0.0
 71
7
  1
DANTE
  7
CJK
  0
CIRCLE
  5
2A1
330
17
100
AcDbEntity
  8
PORTS
420
11566297
100
AcDbCircle
 10
217.0
 20
-323.5
 30
0.0
 40
2.4
  0
MTEXT
  5
2A2
330
17
100
AcDbEntity
  8
LABELS
420
16119276
100
AcDbMText
 10
210.0
 20
-326.5
 30
0.0
 40
8.0
 41
0.0
 71
9
  1
CTRL
  7
CJK
  0
CIRCLE
  5
2A3
330
17
100
AcDbEntity
  8
PORTS
420
15230298
100
AcDbCircle
 10
217.0
 20
-334.5
 30
0.0
 40
2.4
  0
MTEXT
  5
2A4
330
17
100
AcDbEntity
  8
LABELS
420
16119276
100
AcDbMText
 10
210.0
 20
-337.5
 30
0.0
 40
8.0
 41
0.0
 71
9
  1
SPK1
  7
CJK
  0
CIRCLE
  5
2A5
330
17
100
AcDbEntity
  8
PORTS
420
15230298
100
AcDbCircle
 10
217.0
 20
-345.5
 30
0.0
 40
2.4
  0
MTEXT
  5
2A6
330
17
100
AcDbEntity
  8
LABELS
420
16119276
100
AcDbMText
 10
210.0
 20
-348.5
 30
0.0
 40
8.0
 41
0.0
 71
9
  1
SPK2
  7
CJK
  0
CIRCLE
  5
2A7
330
17
100
AcDbEntity
  8
PORTS
420
15230298
100
AcDbCircle
 10
217.0
 20
-356.5
 30
0.0
 40
2.4
  0
MTEXT
  5
2A8
330
17
100
AcDbEntity
  8
LABELS
420
16119276
100
AcDbMText
 10
210.0
 20
-359.5
 30
0.0
 40
8.0
 41
0.0
 71
9
  1
SPK3
  7
CJK
  0
CIRCLE
  5
2A9
330
17
100
AcDbEntity
  8
PORTS
420
15230298
100
AcDbCircle
 10
217.0
 20
-367.5
 30
0.0
 40
2.4
  0
MTEXT
  5
2AA
330
17
100
AcDbEntity
  8
LABELS
420
16119276
100
AcDbMText
 10
210.0
 20
-370.5
 30
0.0
 40
8.0
 41
0.0
 71
9
  1
SPK4
  7
CJK
  0
CIRCLE
  5
2AB
330
17
100
AcDbEntity
  8
PORTS
420
6146725
100
AcDbCircle
 10
40.0
 20
-446.5
 30
0.0
 40
2.4
  0
MTEXT
  5
2AC
330
17
100
AcDbEntity
  8
LABELS
420
16119276
100
AcDbMText
 10
47.0
 20
-449.5
 30
0.0
 40
8.0
 41
0.0
 71
7
  1
IN1
  7
CJK
  0
CIRCLE
  5
2AD
330
17
100
AcDbEntity
  8
PORTS
420
6146725
100
AcDbCircle
 10
40.0
 20
-457.5
 30
0.0
 40
2.4
  0
MTEXT
  5
2AE
330
17
100
AcDbEntity
  8
LABELS
420
16119276
100
AcDbMText
 10
47.0
 20
-460.5
 30
0.0
 40
8.0
 41
0.0
 71
7
  1
IN2
  7
CJK
  0
CIRCLE
  5
2AF
330
17
100
AcDbEntity
  8
PORTS
420
6146725
100
AcDbCircle
 10
40.0
 20
-468.5
 30
0.0
 40
2.4
  0
MTEXT
  5
2B0
330
17
100
AcDbEntity
  8
LABELS
420
16119276
100
AcDbMText
 10
47.0
 20
-471.5
 30
0.0
 40
8.0
 41
0.0
 71
7
  1
IN3
  7
CJK
  0
CIRCLE
  5
2B1
330
17
100
AcDbEntity
  8
PORTS
420
6146725
100
AcDbCircle
 10
40.0
 20
-479.5
 30
0.0
 40
2.4
  0
MTEXT
  5
2B2
330
17
100
AcDbEntity
  8
LABELS
420
16119276
100
AcDbMText
 10
47.0
 20
-482.5
 30
0.0
 40
8.0
 41
0.0
 71
7
  1
IN4
  7
CJK
  0
CIRCLE
  5
2B3
330
17
100
AcDbEntity
  8
PORTS
420
3640029
100
AcDbCircle
 10
40.0
 20
-490.5
 30
0.0
 40
2.4
  0
MTEXT
  5
2B4
330
17
100
AcDbEntity
  8
LABELS
420
16119276
100
AcDbMText
 10
47.0
 20
-493.5
 30
0.0
 40
8.0
 41
0.0
 71
7
  1
DANTE
  7
CJK
  0
CIRCLE
  5
2B5
330
17
100
AcDbEntity
  8
PORTS
420
11566297
100
AcDbCircle
 10
217.0
 20
-446.5
 30
0.0
 40
2.4
  0
MTEXT
  5
2B6
330
17
100
AcDbEntity
  8
LABELS
420
16119276
100
AcDbMText
 10
210.0
 20
-449.5
 30
0.0
 40
8.0
 41
0.0
 71
9
  1
CTRL
  7
CJK
  0
CIRCLE
  5
2B7
330
17
100
AcDbEntity
  8
PORTS
420
15230298
100
AcDbCircle
 10
217.0
 20
-457.5
 30
0.0
 40
2.4
  0
MTEXT
  5
2B8
330
17
100
AcDbEntity
  8
LABELS
420
16119276
100
AcDbMText
 10
210.0
 20
-460.5
 30
0.0
 40
8.0
 41
0.0
 71
9
  1
SPK1
  7
CJK
  0
CIRCLE
  5
2B9
330
17
100
AcDbEntity
  8
PORTS
420
15230298
100
AcDbCircle
 10
217.0
 20
-468.5
 30
0.0
 40
2.4
  0
MTEXT
  5
2BA
330
17
100
AcDbEntity
  8
LABELS
420
16119276
100
AcDbMText
 10
210.0
 20
-471.5
 30
0.0
 40
8.0
 41
0.0
 71
9
  1
SPK2
  7
CJK
  0
CIRCLE
  5
2BB
330
17
100
AcDbEntity
  8
PORTS
420
15230298
100
AcDbCircle
 10
217.0
 20
-479.5
 30
0.0
 40
2.4
  0
MTEXT
  5
2BC
330
17
100
AcDbEntity
  8
LABELS
420
16119276
100
AcDbMText
 10
210.0
 20
-482.5
 30
0.0
 40
8.0
 41
0.0
 71
9
  1
SPK3
  7
CJK
  0
CIRCLE
  5
2BD
330
17
100
AcDbEntity
  8
PORTS
420
15230298
100
AcDbCircle
 10
217.0
 20
-490.5
 30
0.0
 40
2.4
  0
MTEXT
  5
2BE
330
17
100
AcDbEntity
  8
LABELS
420
16119276
100
AcDbMText
 10
210.0
 20
-493.5
 30
0.0
 40
8.0
 41
0.0
 71
9
  1
SPK4
  7
CJK
  0
CIRCLE
  5
2BF
330
17
100
AcDbEntity
  8
PORTS
420
6146725
100
AcDbCircle
 10
40.0
 20
-569.5
 30
0.0
 40
2.4
  0
MTEXT
  5
2C0
330
17
100
AcDbEntity
  8
LABELS
420
16119276
100
AcDbMText
 10
47.0
 20
-572.5
 30
0.0
 40
8.0
 41
0.0
 71
7
  1
IN1
  7
CJK
  0
CIRCLE
  5
2C1
330
17
100
AcDbEntity
  8
PORTS
420
6146725
100
AcDbCircle
 10
40.0
 20
-580.5
 30
0.0
 40
2.4
  0
MTEXT
  5
2C2
330
17
100
AcDbEntity
  8
LABELS
420
16119276
100
AcDbMText
 10
47.0
 20
-583.5
 30
0.0
 40
8.0
 41
0.0
 71
7
  1
IN2
  7
CJK
  0
CIRCLE
  5
2C3
330
17
100
AcDbEntity
  8
PORTS
420
6146725
100
AcDbCircle
 10
40.0
 20
-591.5
 30
0.0
 40
2.4
  0
MTEXT
  5
2C4
330
17
100
AcDbEntity
  8
LABELS
420
16119276
100
AcDbMText
 10
47.0
 20
-594.5
 30
0.0
 40
8.0
 41
0.0
 71
7
  1
IN3
  7
CJK
  0
CIRCLE
  5
2C5
330
17
100
AcDbEntity
  8
PORTS
420
6146725
100
AcDbCircle
 10
40.0
 20
-602.5
 30
0.0
 40
2.4
  0
MTEXT
  5
2C6
330
17
100
AcDbEntity
  8
LABELS
420
16119276
100
AcDbMText
 10
47.0
 20
-605.5
 30
0.0
 40
8.0
 41
0.0
 71
7
  1
IN4
  7
CJK
  0
CIRCLE
  5
2C7
330
17
100
AcDbEntity
  8
PORTS
420
3640029
100
AcDbCircle
 10
40.0
 20
-613.5
 30
0.0
 40
2.4
  0
MTEXT
  5
2C8
330
17
100
AcDbEntity
  8
LABELS
420
16119276
100
AcDbMText
 10
47.0
 20
-616.5
 30
0.0
 40
8.0
 41
0.0
 71
7
  1
DANTE
  7
CJK
  0
CIRCLE
  5
2C9
330
17
100
AcDbEntity
  8
PORTS
420
11566297
100
AcDbCircle
 10
217.0
 20
-569.5
 30
0.0
 40
2.4
  0
MTEXT
  5
2CA
330
17
100
AcDbEntity
  8
LABELS
420
16119276
100
AcDbMText
 10
210.0
 20
-572.5
 30
0.0
 40
8.0
 41
0.0
 71
9
  1
CTRL
  7
CJK
  0
CIRCLE
  5
2CB
330
17
100
AcDbEntity
  8
PORTS
420
15230298
100
AcDbCircle
 10
217.0
 20
-580.5
 30
0.0
 40
2.4
  0
MTEXT
  5
2CC
330
17
100
AcDbEntity
  8
LABELS
420
16119276
100
AcDbMText
 10
210.0
 20
-583.5
 30
0.0
 40
8.0
 41
0.0
 71
9
  1
SPK1
  7
CJK
  0
CIRCLE
  5
2CD
330
17
100
AcDbEntity
  8
PORTS
420
15230298
100
AcDbCircle
 10
217.0
 20
-591.5
 30
0.0
 40
2.4
  0
MTEXT
  5
2CE
330
17
100
AcDbEntity
  8
LABELS
420
16119276
100
AcDbMText
 10
210.0
 20
-594.5
 30
0.0
 40
8.0
 41
0.0
 71
9
  1
SPK2
  7
CJK
  0
CIRCLE
  5
2CF
330
17
100
AcDbEntity
  8
PORTS
420
15230298
100
AcDbCircle
 10
217.0
 20
-602.5
 30
0.0
 40
2.4
  0
MTEXT
  5
2D0
330
17
100
AcDbEntity
  8
LABELS
420
16119276
100
AcDbMText
 10
210.0
 20
-605.5
 30
0.0
 40
8.0
 41
0.0
 71
9
  1
SPK3
  7
CJK
  0
CIRCLE
  5
2D1
330
17
100
AcDbEntity
  8
PORTS
420
15230298
100
AcDbCircle
 10
217.0
 20
-613.5
 30
0.0
 40
2.4
  0
MTEXT
  5
2D2
330
17
100
AcDbEntity
  8
LABELS
420
16119276
100
AcDbMText
 10
210.0
 20
-616.5
 30
0.0
 40
8.0
 41
0.0
 71
9
  1
SPK4
  7
CJK
  0
CIRCLE
  5
2D3
330
17
100
AcDbEntity
  8
PORTS
420
6146725
100
AcDbCircle
 10
40.0
 20
-692.5
 30
0.0
 40
2.4
  0
MTEXT
  5
2D4
330
17
100
AcDbEntity
  8
LABELS
420
16119276
100
AcDbMText
 10
47.0
 20
-695.5
 30
0.0
 40
8.0
 41
0.0
 71
7
  1
IN1
  7
CJK
  0
CIRCLE
  5
2D5
330
17
100
AcDbEntity
  8
PORTS
420
6146725
100
AcDbCircle
 10
40.0
 20
-703.5
 30
0.0
 40
2.4
  0
MTEXT
  5
2D6
330
17
100
AcDbEntity
  8
LABELS
420
16119276
100
AcDbMText
 10
47.0
 20
-706.5
 30
0.0
 40
8.0
 41
0.0
 71
7
  1
IN2
  7
CJK
  0
CIRCLE
  5
2D7
330
17
100
AcDbEntity
  8
PORTS
420
6146725
100
AcDbCircle
 10
40.0
 20
-714.5
 30
0.0
 40
2.4
  0
MTEXT
  5
2D8
330
17
100
AcDbEntity
  8
LABELS
420
16119276
100
AcDbMText
 10
47.0
 20
-717.5
 30
0.0
 40
8.0
 41
0.0
 71
7
  1
IN3
  7
CJK
  0
CIRCLE
  5
2D9
330
17
100
AcDbEntity
  8
PORTS
420
6146725
100
AcDbCircle
 10
40.0
 20
-725.5
 30
0.0
 40
2.4
  0
MTEXT
  5
2DA
330
17
100
AcDbEntity
  8
LABELS
420
16119276
100
AcDbMText
 10
47.0
 20
-728.5
 30
0.0
 40
8.0
 41
0.0
 71
7
  1
IN4
  7
CJK
  0
CIRCLE
  5
2DB
330
17
100
AcDbEntity
  8
PORTS
420
3640029
100
AcDbCircle
 10
40.0
 20
-736.5
 30
0.0
 40
2.4
  0
MTEXT
  5
2DC
330
17
100
AcDbEntity
  8
LABELS
420
16119276
100
AcDbMText
 10
47.0
 20
-739.5
 30
0.0
 40
8.0
 41
0.0
 71
7
  1
DANTE
  7
CJK
  0
CIRCLE
  5
2DD
330
17
100
AcDbEntity
  8
PORTS
420
11566297
100
AcDbCircle
 10
217.0
 20
-692.5
 30
0.0
 40
2.4
  0
MTEXT
  5
2DE
330
17
100
AcDbEntity
  8
LABELS
420
16119276
100
AcDbMText
 10
210.0
 20
-695.5
 30
0.0
 40
8.0
 41
0.0
 71
9
  1
CTRL
  7
CJK
  0
CIRCLE
  5
2DF
330
17
100
AcDbEntity
  8
PORTS
420
15230298
100
AcDbCircle
 10
217.0
 20
-703.5
 30
0.0
 40
2.4
  0
MTEXT
  5
2E0
330
17
100
AcDbEntity
  8
LABELS
420
16119276
100
AcDbMText
 10
210.0
 20
-706.5
 30
0.0
 40
8.0
 41
0.0
 71
9
  1
SPK1
  7
CJK
  0
CIRCLE
  5
2E1
330
17
100
AcDbEntity
  8
PORTS
420
15230298
100
AcDbCircle
 10
217.0
 20
-714.5
 30
0.0
 40
2.4
  0
MTEXT
  5
2E2
330
17
100
AcDbEntity
  8
LABELS
420
16119276
100
AcDbMText
 10
210.0
 20
-717.5
 30
0.0
 40
8.0
 41
0.0
 71
9
  1
SPK2
  7
CJK
  0
CIRCLE
  5
2E3
330
17
100
AcDbEntity
  8
PORTS
420
15230298
100
AcDbCircle
 10
217.0
 20
-725.5
 30
0.0
 40
2.4
  0
MTEXT
  5
2E4
330
17
100
AcDbEntity
  8
LABELS
420
16119276
100
AcDbMText
 10
210.0
 20
-728.5
 30
0.0
 40
8.0
 41
0.0
 71
9
  1
SPK3
  7
CJK
  0
CIRCLE
  5
2E5
330
17
100
AcDbEntity
  8
PORTS
420
15230298
100
AcDbCircle
 10
217.0
 20
-736.5
 30
0.0
 40
2.4
  0
MTEXT
  5
2E6
330
17
100
AcDbEntity
  8
LABELS
420
16119276
100
AcDbMText
 10
210.0
 20
-739.5
 30
0.0
 40
8.0
 41
0.0
 71
9
  1
SPK4
  7
CJK
  0
CIRCLE
  5
2E7
330
17
100
AcDbEntity
  8
PORTS
420
6146725
100
AcDbCircle
 10
40.0
 20
-815.5
 30
0.0
 40
2.4
  0
MTEXT
  5
2E8
330
17
100
AcDbEntity
  8
LABELS
420
16119276
100
AcDbMText
 10
47.0
 20
-818.5
 30
0.0
 40
8.0
 41
0.0
 71
7
  1
IN1
  7
CJK
  0
CIRCLE
  5
2E9
330
17
100
AcDbEntity
  8
PORTS
420
6146725
100
AcDbCircle
 10
40.0
 20
-826.5
 30
0.0
 40
2.4
  0
MTEXT
  5
2EA
330
17
100
AcDbEntity
  8
LABELS
420
16119276
100
AcDbMText
 10
47.0
 20
-829.5
 30
0.0
 40
8.0
 41
0.0
 71
7
  1
IN2
  7
CJK
  0
CIRCLE
  5
2EB
330
17
100
AcDbEntity
  8
PORTS
420
6146725
100
AcDbCircle
 10
40.0
 20
-837.5
 30
0.0
 40
2.4
  0
MTEXT
  5
2EC
330
17
100
AcDbEntity
  8
LABELS
420
16119276
100
AcDbMText
 10
47.0
 20
-840.5
 30
0.0
 40
8.0
 41
0.0
 71
7
  1
IN3
  7
CJK
  0
CIRCLE
  5
2ED
330
17
100
AcDbEntity
  8
PORTS
420
6146725
100
AcDbCircle
 10
40.0
 20
-848.5
 30
0.0
 40
2.4
  0
MTEXT
  5
2EE
330
17
100
AcDbEntity
  8
LABELS
420
16119276
100
AcDbMText
 10
47.0
 20
-851.5
 30
0.0
 40
8.0
 41
0.0
 71
7
  1
IN4
  7
CJK
  0
CIRCLE
  5
2EF
330
17
100
AcDbEntity
  8
PORTS
420
3640029
100
AcDbCircle
 10
40.0
 20
-859.5
 30
0.0
 40
2.4
  0
MTEXT
  5
2F0
330
17
100
AcDbEntity
  8
LABELS
420
16119276
100
AcDbMText
 10
47.0
 20
-862.5
 30
0.0
 40
8.0
 41
0.0
 71
7
  1
DANTE
  7
CJK
  0
CIRCLE
  5
2F1
330
17
100
AcDbEntity
  8
PORTS
420
11566297
100
AcDbCircle
 10
217.0
 20
-815.5
 30
0.0
 40
2.4
  0
MTEXT
  5
2F2
330
17
100
AcDbEntity
  8
LABELS
420
16119276
100
AcDbMText
 10
210.0
 20
-818.5
 30
0.0
 40
8.0
 41
0.0
 71
9
  1
CTRL
  7
CJK
  0
CIRCLE
  5
2F3
330
17
100
AcDbEntity
  8
PORTS
420
15230298
100
AcDbCircle
 10
217.0
 20
-826.5
 30
0.0
 40
2.4
  0
MTEXT
  5
2F4
330
17
100
AcDbEntity
  8
LABELS
420
16119276
100
AcDbMText
 10
210.0
 20
-829.5
 30
0.0
 40
8.0
 41
0.0
 71
9
  1
SPK1
  7
CJK
  0
CIRCLE
  5
2F5
330
17
100
AcDbEntity
  8
PORTS
420
15230298
100
AcDbCircle
 10
217.0
 20
-837.5
 30
0.0
 40
2.4
  0
MTEXT
  5
2F6
330
17
100
AcDbEntity
  8
LABELS
420
16119276
100
AcDbMText
 10
210.0
 20
-840.5
 30
0.0
 40
8.0
 41
0.0
 71
9
  1
SPK2
  7
CJK
  0
CIRCLE
  5
2F7
330
17
100
AcDbEntity
  8
PORTS
420
15230298
100
AcDbCircle
 10
217.0
 20
-848.5
 30
0.0
 40
2.4
  0
MTEXT
  5
2F8
330
17
100
AcDbEntity
  8
LABELS
420
16119276
100
AcDbMText
 10
210.0
 20
-851.5
 30
0.0
 40
8.0
 41
0.0
 71
9
  1
SPK3
  7
CJK
  0
CIRCLE
  5
2F9
330
17
100
AcDbEntity
  8
PORTS
420
15230298
100
AcDbCircle
 10
217.0
 20
-859.5
 30
0.0
 40
2.4
  0
MTEXT
  5
2FA
330
17
100
AcDbEntity
  8
LABELS
420
16119276
100
AcDbMText
 10
210.0
 20
-862.5
 30
0.0
 40
8.0
 41
0.0
 71
9
  1
SPK4
  7
CJK
  0
CIRCLE
  5
2FB
330
17
100
AcDbEntity
  8
PORTS
420
6146725
100
AcDbCircle
 10
40.0
 20
-938.5
 30
0.0
 40
2.4
  0
MTEXT
  5
2FC
330
17
100
AcDbEntity
  8
LABELS
420
16119276
100
AcDbMText
 10
47.0
 20
-941.5
 30
0.0
 40
8.0
 41
0.0
 71
7
  1
IN1
  7
CJK
  0
CIRCLE
  5
2FD
330
17
100
AcDbEntity
  8
PORTS
420
6146725
100
AcDbCircle
 10
40.0
 20
-949.5
 30
0.0
 40
2.4
  0
MTEXT
  5
2FE
330
17
100
AcDbEntity
  8
LABELS
420
16119276
100
AcDbMText
 10
47.0
 20
-952.5
 30
0.0
 40
8.0
 41
0.0
 71
7
  1
IN2
  7
CJK
  0
CIRCLE
  5
2FF
330
17
100
AcDbEntity
  8
PORTS
420
6146725
100
AcDbCircle
 10
40.0
 20
-960.5
 30
0.0
 40
2.4
  0
MTEXT
  5
300
330
17
100
AcDbEntity
  8
LABELS
420
16119276
100
AcDbMText
 10
47.0
 20
-963.5
 30
0.0
 40
8.0
 41
0.0
 71
7
  1
IN3
  7
CJK
  0
CIRCLE
  5
301
330
17
100
AcDbEntity
  8
PORTS
420
6146725
100
AcDbCircle
 10
40.0
 20
-971.5
 30
0.0
 40
2.4
  0
MTEXT
  5
302
330
17
100
AcDbEntity
  8
LABELS
420
16119276
100
AcDbMText
 10
47.0
 20
-974.5
 30
0.0
 40
8.0
 41
0.0
 71
7
  1
IN4
  7
CJK
  0
CIRCLE
  5
303
330
17
100
AcDbEntity
  8
PORTS
420
3640029
100
AcDbCircle
 10
40.0
 20
-982.5
 30
0.0
 40
2.4
  0
MTEXT
  5
304
330
17
100
AcDbEntity
  8
LABELS
420
16119276
100
AcDbMText
 10
47.0
 20
-985.5
 30
0.0
 40
8.0
 41
0.0
 71
7
  1
DANTE
  7
CJK
  0
CIRCLE
  5
305
330
17
100
AcDbEntity
  8
PORTS
420
11566297
100
AcDbCircle
 10
217.0
 20
-938.5
 30
0.0
 40
2.4
  0
MTEXT
  5
306
330
17
100
AcDbEntity
  8
LABELS
420
16119276
100
AcDbMText
 10
210.0
 20
-941.5
 30
0.0
 40
8.0
 41
0.0
 71
9
  1
CTRL
  7
CJK
  0
CIRCLE
  5
307
330
17
100
AcDbEntity
  8
PORTS
420
15230298
100
AcDbCircle
 10
217.0
 20
-949.5
 30
0.0
 40
2.4
  0
MTEXT
  5
308
330
17
100
AcDbEntity
  8
LABELS
420
16119276
100
AcDbMText
 10
210.0
 20
-952.5
 30
0.0
 40
8.0
 41
0.0
 71
9
  1
SPK1
  7
CJK
  0
CIRCLE
  5
309
330
17
100
AcDbEntity
  8
PORTS
420
15230298
100
AcDbCircle
 10
217.0
 20
-960.5
 30
0.0
 40
2.4
  0
MTEXT
  5
30A
330
17
100
AcDbEntity
  8
LABELS
420
16119276
100
AcDbMText
 10
210.0
 20
-963.5
 30
0.0
 40
8.0
 41
0.0
 71
9
  1
SPK2
  7
CJK
  0
CIRCLE
  5
30B
330
17
100
AcDbEntity
  8
PORTS
420
15230298
100
AcDbCircle
 10
217.0
 20
-971.5
 30
0.0
 40
2.4
  0
MTEXT
  5
30C
330
17
100
AcDbEntity
  8
LABELS
420
16119276
100
AcDbMText
 10
210.0
 20
-974.5
 30
0.0
 40
8.0
 41
0.0
 71
9
  1
SPK3
  7
CJK
  0
CIRCLE
  5
30D
330
17
100
AcDbEntity
  8
PORTS
420
15230298
100
AcDbCircle
 10
217.0
 20
-982.5
 30
0.0
 40
2.4
  0
MTEXT
  5
30E
330
17
100
AcDbEntity
  8
LABELS
420
16119276
100
AcDbMText
 10
210.0
 20
-985.5
 30
0.0
 40
8.0
 41
0.0
 71
9
  1
SPK4
  7
CJK
  0
CIRCLE
  5
30F
330
17
100
AcDbEntity
  8
PORTS
420
6146725
100
AcDbCircle
 10
40.0
 20
-1061.5
 30
0.0
 40
2.4
  0
MTEXT
  5
310
330
17
100
AcDbEntity
  8
LABELS
420
16119276
100
AcDbMText
 10
47.0
 20
-1064.5
 30
0.0
 40
8.0
 41
0.0
 71
7
  1
IN1
  7
CJK
  0
CIRCLE
  5
311
330
17
100
AcDbEntity
  8
PORTS
420
6146725
100
AcDbCircle
 10
40.0
 20
-1072.5
 30
0.0
 40
2.4
  0
MTEXT
  5
312
330
17
100
AcDbEntity
  8
LABELS
420
16119276
100
AcDbMText
 10
47.0
 20
-1075.5
 30
0.0
 40
8.0
 41
0.0
 71
7
  1
IN2
  7
CJK
  0
CIRCLE
  5
313
330
17
100
AcDbEntity
  8
PORTS
420
6146725
100
AcDbCircle
 10
40.0
 20
-1083.5
 30
0.0
 40
2.4
  0
MTEXT
  5
314
330
17
100
AcDbEntity
  8
LABELS
420
16119276
100
AcDbMText
 10
47.0
 20
-1086.5
 30
0.0
 40
8.0
 41
0.0
 71
7
  1
IN3
  7
CJK
  0
CIRCLE
  5
315
330
17
100
AcDbEntity
  8
PORTS
420
6146725
100
AcDbCircle
 10
40.0
 20
-1094.5
 30
0.0
 40
2.4
  0
MTEXT
  5
316
330
17
100
AcDbEntity
  8
LABELS
420
16119276
100
AcDbMText
 10
47.0
 20
-1097.5
 30
0.0
 40
8.0
 41
0.0
 71
7
  1
IN4
  7
CJK
  0
CIRCLE
  5
317
330
17
100
AcDbEntity
  8
PORTS
420
3640029
100
AcDbCircle
 10
40.0
 20
-1105.5
 30
0.0
 40
2.4
  0
MTEXT
  5
318
330
17
100
AcDbEntity
  8
LABELS
420
16119276
100
AcDbMText
 10
47.0
 20
-1108.5
 30
0.0
 40
8.0
 41
0.0
 71
7
  1
DANTE
  7
CJK
  0
CIRCLE
  5
319
330
17
100
AcDbEntity
  8
PORTS
420
11566297
100
AcDbCircle
 10
217.0
 20
-1061.5
 30
0.0
 40
2.4
  0
MTEXT
  5
31A
330
17
100
AcDbEntity
  8
LABELS
420
16119276
100
AcDbMText
 10
210.0
 20
-1064.5
 30
0.0
 40
8.0
 41
0.0
 71
9
  1
CTRL
  7
CJK
  0
CIRCLE
  5
31B
330
17
100
AcDbEntity
  8
PORTS
420
15230298
100
AcDbCircle
 10
217.0
 20
-1072.5
 30
0.0
 40
2.4
  0
MTEXT
  5
31C
330
17
100
AcDbEntity
  8
LABELS
420
16119276
100
AcDbMText
 10
210.0
 20
-1075.5
 30
0.0
 40
8.0
 41
0.0
 71
9
  1
SPK1
  7
CJK
  0
CIRCLE
  5
31D
330
17
100
AcDbEntity
  8
PORTS
420
15230298
100
AcDbCircle
 10
217.0
 20
-1083.5
 30
0.0
 40
2.4
  0
MTEXT
  5
31E
330
17
100
AcDbEntity
  8
LABELS
420
16119276
100
AcDbMText
 10
210.0
 20
-1086.5
 30
0.0
 40
8.0
 41
0.0
 71
9
  1
SPK2
  7
CJK
  0
CIRCLE
  5
31F
330
17
100
AcDbEntity
  8
PORTS
420
15230298
100
AcDbCircle
 10
217.0
 20
-1094.5
 30
0.0
 40
2.4
  0
MTEXT
  5
320
330
17
100
AcDbEntity
  8
LABELS
420
16119276
100
AcDbMText
 10
210.0
 20
-1097.5
 30
0.0
 40
8.0
 41
0.0
 71
9
  1
SPK3
  7
CJK
  0
CIRCLE
  5
321
330
17
100
AcDbEntity
  8
PORTS
420
15230298
100
AcDbCircle
 10
217.0
 20
-1105.5
 30
0.0
 40
2.4
  0
MTEXT
  5
322
330
17
100
AcDbEntity
  8
LABELS
420
16119276
100
AcDbMText
 10
210.0
 20
-1108.5
 30
0.0
 40
8.0
 41
0.0
 71
9
  1
SPK4
  7
CJK
  0
CIRCLE
  5
323
330
17
100
AcDbEntity
  8
PORTS
420
6146725
100
AcDbCircle
 10
40.0
 20
-1184.5
 30
0.0
 40
2.4
  0
MTEXT
  5
324
330
17
100
AcDbEntity
  8
LABELS
420
16119276
100
AcDbMText
 10
47.0
 20
-1187.5
 30
0.0
 40
8.0
 41
0.0
 71
7
  1
IN1
  7
CJK
  0
CIRCLE
  5
325
330
17
100
AcDbEntity
  8
PORTS
420
6146725
100
AcDbCircle
 10
40.0
 20
-1195.5
 30
0.0
 40
2.4
  0
MTEXT
  5
326
330
17
100
AcDbEntity
  8
LABELS
420
16119276
100
AcDbMText
 10
47.0
 20
-1198.5
 30
0.0
 40
8.0
 41
0.0
 71
7
  1
IN2
  7
CJK
  0
CIRCLE
  5
327
330
17
100
AcDbEntity
  8
PORTS
420
6146725
100
AcDbCircle
 10
40.0
 20
-1206.5
 30
0.0
 40
2.4
  0
MTEXT
  5
328
330
17
100
AcDbEntity
  8
LABELS
420
16119276
100
AcDbMText
 10
47.0
 20
-1209.5
 30
0.0
 40
8.0
 41
0.0
 71
7
  1
IN3
  7
CJK
  0
CIRCLE
  5
329
330
17
100
AcDbEntity
  8
PORTS
420
6146725
100
AcDbCircle
 10
40.0
 20
-1217.5
 30
0.0
 40
2.4
  0
MTEXT
  5
32A
330
17
100
AcDbEntity
  8
LABELS
420
16119276
100
AcDbMText
 10
47.0
 20
-1220.5
 30
0.0
 40
8.0
 41
0.0
 71
7
  1
IN4
  7
CJK
  0
CIRCLE
  5
32B
330
17
100
AcDbEntity
  8
PORTS
420
3640029
100
AcDbCircle
 10
40.0
 20
-1228.5
 30
0.0
 40
2.4
  0
MTEXT
  5
32C
330
17
100
AcDbEntity
  8
LABELS
420
16119276
100
AcDbMText
 10
47.0
 20
-1231.5
 30
0.0
 40
8.0
 41
0.0
 71
7
  1
DANTE
  7
CJK
  0
CIRCLE
  5
32D
330
17
100
AcDbEntity
  8
PORTS
420
11566297
100
AcDbCircle
 10
217.0
 20
-1184.5
 30
0.0
 40
2.4
  0
MTEXT
  5
32E
330
17
100
AcDbEntity
  8
LABELS
420
16119276
100
AcDbMText
 10
210.0
 20
-1187.5
 30
0.0
 40
8.0
 41
0.0
 71
9
  1
CTRL
  7
CJK
  0
CIRCLE
  5
32F
330
17
100
AcDbEntity
  8
PORTS
420
15230298
100
AcDbCircle
 10
217.0
 20
-1195.5
 30
0.0
 40
2.4
  0
MTEXT
  5
330
330
17
100
AcDbEntity
  8
LABELS
420
16119276
100
AcDbMText
 10
210.0
 20
-1198.5
 30
0.0
 40
8.0
 41
0.0
 71
9
  1
SPK1
  7
CJK
  0
CIRCLE
  5
331
330
17
100
AcDbEntity
  8
PORTS
420
15230298
100
AcDbCircle
 10
217.0
 20
-1206.5
 30
0.0
 40
2.4
  0
MTEXT
  5
332
330
17
100
AcDbEntity
  8
LABELS
420
16119276
100
AcDbMText
 10
210.0
 20
-1209.5
 30
0.0
 40
8.0
 41
0.0
 71
9
  1
SPK2
  7
CJK
  0
CIRCLE
  5
333
330
17
100
AcDbEntity
  8
PORTS
420
15230298
100
AcDbCircle
 10
217.0
 20
-1217.5
 30
0.0
 40
2.4
  0
MTEXT
  5
334
330
17
100
AcDbEntity
  8
LABELS
420
16119276
100
AcDbMText
 10
210.0
 20
-1220.5
 30
0.0
 40
8.0
 41
0.0
 71
9
  1
SPK3
  7
CJK
  0
CIRCLE
  5
335
330
17
100
AcDbEntity
  8
PORTS
420
15230298
100
AcDbCircle
 10
217.0
 20
-1228.5
 30
0.0
 40
2.4
  0
MTEXT
  5
336
330
17
100
AcDbEntity
  8
LABELS
420
16119276
100
AcDbMText
 10
210.0
 20
-1231.5
 30
0.0
 40
8.0
 41
0.0
 71
9
  1
SPK4
  7
CJK
  0
CIRCLE
  5
337
330
17
100
AcDbEntity
  8
PORTS
420
6146725
100
AcDbCircle
 10
40.0
 20
-1307.5
 30
0.0
 40
2.4
  0
MTEXT
  5
338
330
17
100
AcDbEntity
  8
LABELS
420
16119276
100
AcDbMText
 10
47.0
 20
-1310.5
 30
0.0
 40
8.0
 41
0.0
 71
7
  1
IN1
  7
CJK
  0
CIRCLE
  5
339
330
17
100
AcDbEntity
  8
PORTS
420
6146725
100
AcDbCircle
 10
40.0
 20
-1318.5
 30
0.0
 40
2.4
  0
MTEXT
  5
33A
330
17
100
AcDbEntity
  8
LABELS
420
16119276
100
AcDbMText
 10
47.0
 20
-1321.5
 30
0.0
 40
8.0
 41
0.0
 71
7
  1
IN2
  7
CJK
  0
CIRCLE
  5
33B
330
17
100
AcDbEntity
  8
PORTS
420
6146725
100
AcDbCircle
 10
40.0
 20
-1329.5
 30
0.0
 40
2.4
  0
MTEXT
  5
33C
330
17
100
AcDbEntity
  8
LABELS
420
16119276
100
AcDbMText
 10
47.0
 20
-1332.5
 30
0.0
 40
8.0
 41
0.0
 71
7
  1
IN3
  7
CJK
  0
CIRCLE
  5
33D
330
17
100
AcDbEntity
  8
PORTS
420
6146725
100
AcDbCircle
 10
40.0
 20
-1340.5
 30
0.0
 40
2.4
  0
MTEXT
  5
33E
330
17
100
AcDbEntity
  8
LABELS
420
16119276
100
AcDbMText
 10
47.0
 20
-1343.5
 30
0.0
 40
8.0
 41
0.0
 71
7
  1
IN4
  7
CJK
  0
CIRCLE
  5
33F
330
17
100
AcDbEntity
  8
PORTS
420
3640029
100
AcDbCircle
 10
40.0
 20
-1351.5
 30
0.0
 40
2.4
  0
MTEXT
  5
340
330
17
100
AcDbEntity
  8
LABELS
420
16119276
100
AcDbMText
 10
47.0
 20
-1354.5
 30
0.0
 40
8.0
 41
0.0
 71
7
  1
DANTE
  7
CJK
  0
CIRCLE
  5
341
330
17
100
AcDbEntity
  8
PORTS
420
11566297
100
AcDbCircle
 10
217.0
 20
-1307.5
 30
0.0
 40
2.4
  0
MTEXT
  5
342
330
17
100
AcDbEntity
  8
LABELS
420
16119276
100
AcDbMText
 10
210.0
 20
-1310.5
 30
0.0
 40
8.0
 41
0.0
 71
9
  1
CTRL
  7
CJK
  0
CIRCLE
  5
343
330
17
100
AcDbEntity
  8
PORTS
420
15230298
100
AcDbCircle
 10
217.0
 20
-1318.5
 30
0.0
 40
2.4
  0
MTEXT
  5
344
330
17
100
AcDbEntity
  8
LABELS
420
16119276
100
AcDbMText
 10
210.0
 20
-1321.5
 30
0.0
 40
8.0
 41
0.0
 71
9
  1
SPK1
  7
CJK
  0
CIRCLE
  5
345
330
17
100
AcDbEntity
  8
PORTS
420
15230298
100
AcDbCircle
 10
217.0
 20
-1329.5
 30
0.0
 40
2.4
  0
MTEXT
  5
346
330
17
100
AcDbEntity
  8
LABELS
420
16119276
100
AcDbMText
 10
210.0
 20
-1332.5
 30
0.0
 40
8.0
 41
0.0
 71
9
  1
SPK2
  7
CJK
  0
CIRCLE
  5
347
330
17
100
AcDbEntity
  8
PORTS
420
15230298
100
AcDbCircle
 10
217.0
 20
-1340.5
 30
0.0
 40
2.4
  0
MTEXT
  5
348
330
17
100
AcDbEntity
  8
LABELS
420
16119276
100
AcDbMText
 10
210.0
 20
-1343.5
 30
0.0
 40
8.0
 41
0.0
 71
9
  1
SPK3
  7
CJK
  0
CIRCLE
  5
349
330
17
100
AcDbEntity
  8
PORTS
420
15230298
100
AcDbCircle
 10
217.0
 20
-1351.5
 30
0.0
 40
2.4
  0
MTEXT
  5
34A
330
17
100
AcDbEntity
  8
LABELS
420
16119276
100
AcDbMText
 10
210.0
 20
-1354.5
 30
0.0
 40
8.0
 41
0.0
 71
9
  1
SPK4
  7
CJK
  0
CIRCLE
  5
34B
330
17
100
AcDbEntity
  8
PORTS
420
6146725
100
AcDbCircle
 10
40.0
 20
-1430.5
 30
0.0
 40
2.4
  0
MTEXT
  5
34C
330
17
100
AcDbEntity
  8
LABELS
420
16119276
100
AcDbMText
 10
47.0
 20
-1433.5
 30
0.0
 40
8.0
 41
0.0
 71
7
  1
IN1
  7
CJK
  0
CIRCLE
  5
34D
330
17
100
AcDbEntity
  8
PORTS
420
6146725
100
AcDbCircle
 10
40.0
 20
-1441.5
 30
0.0
 40
2.4
  0
MTEXT
  5
34E
330
17
100
AcDbEntity
  8
LABELS
420
16119276
100
AcDbMText
 10
47.0
 20
-1444.5
 30
0.0
 40
8.0
 41
0.0
 71
7
  1
IN2
  7
CJK
  0
CIRCLE
  5
34F
330
17
100
AcDbEntity
  8
PORTS
420
6146725
100
AcDbCircle
 10
40.0
 20
-1452.5
 30
0.0
 40
2.4
  0
MTEXT
  5
350
330
17
100
AcDbEntity
  8
LABELS
420
16119276
100
AcDbMText
 10
47.0
 20
-1455.5
 30
0.0
 40
8.0
 41
0.0
 71
7
  1
IN3
  7
CJK
  0
CIRCLE
  5
351
330
17
100
AcDbEntity
  8
PORTS
420
6146725
100
AcDbCircle
 10
40.0
 20
-1463.5
 30
0.0
 40
2.4
  0
MTEXT
  5
352
330
17
100
AcDbEntity
  8
LABELS
420
16119276
100
AcDbMText
 10
47.0
 20
-1466.5
 30
0.0
 40
8.0
 41
0.0
 71
7
  1
IN4
  7
CJK
  0
CIRCLE
  5
353
330
17
100
AcDbEntity
  8
PORTS
420
3640029
100
AcDbCircle
 10
40.0
 20
-1474.5
 30
0.0
 40
2.4
  0
MTEXT
  5
354
330
17
100
AcDbEntity
  8
LABELS
420
16119276
100
AcDbMText
 10
47.0
 20
-1477.5
 30
0.0
 40
8.0
 41
0.0
 71
7
  1
DANTE
  7
CJK
  0
CIRCLE
  5
355
330
17
100
AcDbEntity
  8
PORTS
420
11566297
100
AcDbCircle
 10
217.0
 20
-1430.5
 30
0.0
 40
2.4
  0
MTEXT
  5
356
330
17
100
AcDbEntity
  8
LABELS
420
16119276
100
AcDbMText
 10
210.0
 20
-1433.5
 30
0.0
 40
8.0
 41
0.0
 71
9
  1
CTRL
  7
CJK
  0
CIRCLE
  5
357
330
17
100
AcDbEntity
  8
PORTS
420
15230298
100
AcDbCircle
 10
217.0
 20
-1441.5
 30
0.0
 40
2.4
  0
MTEXT
  5
358
330
17
100
AcDbEntity
  8
LABELS
420
16119276
100
AcDbMText
 10
210.0
 20
-1444.5
 30
0.0
 40
8.0
 41
0.0
 71
9
  1
SPK1
  7
CJK
  0
CIRCLE
  5
359
330
17
100
AcDbEntity
  8
PORTS
420
15230298
100
AcDbCircle
 10
217.0
 20
-1452.5
 30
0.0
 40
2.4
  0
MTEXT
  5
35A
330
17
100
AcDbEntity
  8
LABELS
420
16119276
100
AcDbMText
 10
210.0
 20
-1455.5
 30
0.0
 40
8.0
 41
0.0
 71
9
  1
SPK2
  7
CJK
  0
CIRCLE
  5
35B
330
17
100
AcDbEntity
  8
PORTS
420
15230298
100
AcDbCircle
 10
217.0
 20
-1463.5
 30
0.0
 40
2.4
  0
MTEXT
  5
35C
330
17
100
AcDbEntity
  8
LABELS
420
16119276
100
AcDbMText
 10
210.0
 20
-1466.5
 30
0.0
 40
8.0
 41
0.0
 71
9
  1
SPK3
  7
CJK
  0
CIRCLE
  5
35D
330
17
100
AcDbEntity
  8
PORTS
420
15230298
100
AcDbCircle
 10
217.0
 20
-1474.5
 30
0.0
 40
2.4
  0
MTEXT
  5
35E
330
17
100
AcDbEntity
  8
LABELS
420
16119276
100
AcDbMText
 10
210.0
 20
-1477.5
 30
0.0
 40
8.0
 41
0.0
 71
9
  1
SPK4
  7
CJK
  0
CIRCLE
  5
35F
330
17
100
AcDbEntity
  8
PORTS
420
6146725
100
AcDbCircle
 10
40.0
 20
-1553.5
 30
0.0
 40
2.4
  0
MTEXT
  5
360
330
17
100
AcDbEntity
  8
LABELS
420
16119276
100
AcDbMText
 10
47.0
 20
-1556.5
 30
0.0
 40
8.0
 41
0.0
 71
7
  1
IN1
  7
CJK
  0
CIRCLE
  5
361
330
17
100
AcDbEntity
  8
PORTS
420
6146725
100
AcDbCircle
 10
40.0
 20
-1564.5
 30
0.0
 40
2.4
  0
MTEXT
  5
362
330
17
100
AcDbEntity
  8
LABELS
420
16119276
100
AcDbMText
 10
47.0
 20
-1567.5
 30
0.0
 40
8.0
 41
0.0
 71
7
  1
IN2
  7
CJK
  0
CIRCLE
  5
363
330
17
100
AcDbEntity
  8
PORTS
420
6146725
100
AcDbCircle
 10
40.0
 20
-1575.5
 30
0.0
 40
2.4
  0
MTEXT
  5
364
330
17
100
AcDbEntity
  8
LABELS
420
16119276
100
AcDbMText
 10
47.0
 20
-1578.5
 30
0.0
 40
8.0
 41
0.0
 71
7
  1
IN3
  7
CJK
  0
CIRCLE
  5
365
330
17
100
AcDbEntity
  8
PORTS
420
6146725
100
AcDbCircle
 10
40.0
 20
-1586.5
 30
0.0
 40
2.4
  0
MTEXT
  5
366
330
17
100
AcDbEntity
  8
LABELS
420
16119276
100
AcDbMText
 10
47.0
 20
-1589.5
 30
0.0
 40
8.0
 41
0.0
 71
7
  1
IN4
  7
CJK
  0
CIRCLE
  5
367
330
17
100
AcDbEntity
  8
PORTS
420
3640029
100
AcDbCircle
 10
40.0
 20
-1597.5
 30
0.0
 40
2.4
  0
MTEXT
  5
368
330
17
100
AcDbEntity
  8
LABELS
420
16119276
100
AcDbMText
 10
47.0
 20
-1600.5
 30
0.0
 40
8.0
 41
0.0
 71
7
  1
DANTE
  7
CJK
  0
CIRCLE
  5
369
330
17
100
AcDbEntity
  8
PORTS
420
11566297
100
AcDbCircle
 10
217.0
 20
-1553.5
 30
0.0
 40
2.4
  0
MTEXT
  5
36A
330
17
100
AcDbEntity
  8
LABELS
420
16119276
100
AcDbMText
 10
210.0
 20
-1556.5
 30
0.0
 40
8.0
 41
0.0
 71
9
  1
CTRL
  7
CJK
  0
CIRCLE
  5
36B
330
17
100
AcDbEntity
  8
PORTS
420
15230298
100
AcDbCircle
 10
217.0
 20
-1564.5
 30
0.0
 40
2.4
  0
MTEXT
  5
36C
330
17
100
AcDbEntity
  8
LABELS
420
16119276
100
AcDbMText
 10
210.0
 20
-1567.5
 30
0.0
 40
8.0
 41
0.0
 71
9
  1
SPK1
  7
CJK
  0
CIRCLE
  5
36D
330
17
100
AcDbEntity
  8
PORTS
420
15230298
100
AcDbCircle
 10
217.0
 20
-1575.5
 30
0.0
 40
2.4
  0
MTEXT
  5
36E
330
17
100
AcDbEntity
  8
LABELS
420
16119276
100
AcDbMText
 10
210.0
 20
-1578.5
 30
0.0
 40
8.0
 41
0.0
 71
9
  1
SPK2
  7
CJK
  0
CIRCLE
  5
36F
330
17
100
AcDbEntity
  8
PORTS
420
15230298
100
AcDbCircle
 10
217.0
 20
-1586.5
 30
0.0
 40
2.4
  0
MTEXT
  5
370
330
17
100
AcDbEntity
  8
LABELS
420
16119276
100
AcDbMText
 10
210.0
 20
-1589.5
 30
0.0
 40
8.0
 41
0.0
 71
9
  1
SPK3
  7
CJK
  0
CIRCLE
  5
371
330
17
100
AcDbEntity
  8
PORTS
420
15230298
100
AcDbCircle
 10
217.0
 20
-1597.5
 30
0.0
 40
2.4
  0
MTEXT
  5
372
330
17
100
AcDbEntity
  8
LABELS
420
16119276
100
AcDbMText
 10
210.0
 20
-1600.5
 30
0.0
 40
8.0
 41
0.0
 71
9
  1
SPK4
  7
CJK
  0
CIRCLE
  5
373
330
17
100
AcDbEntity
  8
PORTS
420
3640029
100
AcDbCircle
 10
219.1
 20
-5052.0
 30
0.0
 40
2.4
  0
MTEXT
  5
374
330
17
100
AcDbEntity
  8
LABELS
420
16119276
100
AcDbMText
 10
219.1
 20
-5091.0
 30
0.0
 40
8.0
 41
0.0
 71
8
  1
1
  7
CJK
  0
CIRCLE
  5
375
330
17
100
AcDbEntity
  8
PORTS
420
3640029
100
AcDbCircle
 10
235.29999999999998
 20
-5052.0
 30
0.0
 40
2.4
  0
MTEXT
  5
376
330
17
100
AcDbEntity
  8
LABELS
420
16119276
100
AcDbMText
 10
235.29999999999998
 20
-5091.0
 30
0.0
 40
8.0
 41
0.0
 71
8
  1
2
  7
CJK
  0
CIRCLE
  5
377
330
17
100
AcDbEntity
  8
PORTS
420
3640029
100
AcDbCircle
 10
251.5
 20
-5052.0
 30
0.0
 40
2.4
  0
MTEXT
  5
378
330
17
100
AcDbEntity
  8
LABELS
420
16119276
100
AcDbMText
 10
251.5
 20
-5091.0
 30
0.0
 40
8.0
 41
0.0
 71
8
  1
3
  7
CJK
  0
CIRCLE
  5
379
330
17
100
AcDbEntity
  8
PORTS
420
3640029
100
AcDbCircle
 10
267.70000000000005
 20
-5052.0
 30
0.0
 40
2.4
  0
MTEXT
  5
37A
330
17
100
AcDbEntity
  8
LABELS
420
16119276
100
AcDbMText
 10
267.70000000000005
 20
-5091.0
 30
0.0
 40
8.0
 41
0.0
 71
8
  1
4
  7
CJK
  0
CIRCLE
  5
37B
330
17
100
AcDbEntity
  8
PORTS
420
3640029
100
AcDbCircle
 10
283.90000000000003
 20
-5052.0
 30
0.0
 40
2.4
  0
MTEXT
  5
37C
330
17
100
AcDbEntity
  8
LABELS
420
16119276
100
AcDbMText
 10
283.90000000000003
 20
-5091.0
 30
0.0
 40
8.0
 41
0.0
 71
8
  1
5
  7
CJK
  0
CIRCLE
  5
37D
330
17
100
AcDbEntity
  8
PORTS
420
3640029
100
AcDbCircle
 10
300.1
 20
-5052.0
 30
0.0
 40
2.4
  0
MTEXT
  5
37E
330
17
100
AcDbEntity
  8
LABELS
420
16119276
100
AcDbMText
 10
300.1
 20
-5091.0
 30
0.0
 40
8.0
 41
0.0
 71
8
  1
6
  7
CJK
  0
CIRCLE
  5
37F
330
17
100
AcDbEntity
  8
PORTS
420
3640029
100
AcDbCircle
 10
316.3
 20
-5052.0
 30
0.0
 40
2.4
  0
MTEXT
  5
380
330
17
100
AcDbEntity
  8
LABELS
420
16119276
100
AcDbMText
 10
316.3
 20
-5091.0
 30
0.0
 40
8.0
 41
0.0
 71
8
  1
7
  7
CJK
  0
CIRCLE
  5
381
330
17
100
AcDbEntity
  8
PORTS
420
3640029
100
AcDbCircle
 10
332.5
 20
-5052.0
 30
0.0
 40
2.4
  0
MTEXT
  5
382
330
17
100
AcDbEntity
  8
LABELS
420
16119276
100
AcDbMText
 10
332.5
 20
-5091.0
 30
0.0
 40
8.0
 41
0.0
 71
8
  1
8
  7
CJK
  0
CIRCLE
  5
383
330
17
100
AcDbEntity
  8
PORTS
420
3640029
100
AcDbCircle
 10
348.70000000000005
 20
-5052.0
 30
0.0
 40
2.4
  0
MTEXT
  5
384
330
17
100
AcDbEntity
  8
LABELS
420
16119276
100
AcDbMText
 10
348.70000000000005
 20
-5091.0
 30
0.0
 40
8.0
 41
0.0
 71
8
  1
9
  7
CJK
  0
CIRCLE
  5
385
330
17
100
AcDbEntity
  8
PORTS
420
3640029
100
AcDbCircle
 10
364.9
 20
-5052.0
 30
0.0
 40
2.4
  0
MTEXT
  5
386
330
17
100
AcDbEntity
  8
LABELS
420
16119276
100
AcDbMText
 10
364.9
 20
-5091.0
 30
0.0
 40
8.0
 41
0.0
 71
8
  1
10
  7
CJK
  0
CIRCLE
  5
387
330
17
100
AcDbEntity
  8
PORTS
420
15230298
100
AcDbCircle
 10
287.0
 20
-3755.5
 30
0.0
 40
2.4
  0
MTEXT
  5
388
330
17
100
AcDbEntity
  8
LABELS
420
16119276
100
AcDbMText
 10
294.0
 20
-3758.5
 30
0.0
 40
8.0
 41
0.0
 71
7
  1
SPK
  7
CJK
  0
CIRCLE
  5
389
330
17
100
AcDbEntity
  8
PORTS
420
15230298
100
AcDbCircle
 10
287.0
 20
-3834.5
 30
0.0
 40
2.4
  0
MTEXT
  5
38A
330
17
100
AcDbEntity
  8
LABELS
420
16119276
100
AcDbMText
 10
294.0
 20
-3837.5
 30
0.0
 40
8.0
 41
0.0
 71
7
  1
SPK
  7
CJK
  0
CIRCLE
  5
38B
330
17
100
AcDbEntity
  8
PORTS
420
15230298
100
AcDbCircle
 10
287.0
 20
-3913.5
 30
0.0
 40
2.4
  0
MTEXT
  5
38C
330
17
100
AcDbEntity
  8
LABELS
420
16119276
100
AcDbMText
 10
294.0
 20
-3916.5
 30
0.0
 40
8.0
 41
0.0
 71
7
  1
SPK
  7
CJK
  0
CIRCLE
  5
38D
330
17
100
AcDbEntity
  8
PORTS
420
15230298
100
AcDbCircle
 10
287.0
 20
-3992.5
 30
0.0
 40
2.4
  0
MTEXT
  5
38E
330
17
100
AcDbEntity
  8
LABELS
420
16119276
100
AcDbMText
 10
294.0
 20
-3995.5
 30
0.0
 40
8.0
 41
0.0
 71
7
  1
SPK
  7
CJK
  0
CIRCLE
  5
38F
330
17
100
AcDbEntity
  8
PORTS
420
15230298
100
AcDbCircle
 10
287.0
 20
-4071.5
 30
0.0
 40
2.4
  0
MTEXT
  5
390
330
17
100
AcDbEntity
  8
LABELS
420
16119276
100
AcDbMText
 10
294.0
 20
-4074.5
 30
0.0
 40
8.0
 41
0.0
 71
7
  1
SPK
  7
CJK
  0
CIRCLE
  5
391
330
17
100
AcDbEntity
  8
PORTS
420
15230298
100
AcDbCircle
 10
287.0
 20
-4150.5
 30
0.0
 40
2.4
  0
MTEXT
  5
392
330
17
100
AcDbEntity
  8
LABELS
420
16119276
100
AcDbMText
 10
294.0
 20
-4153.5
 30
0.0
 40
8.0
 41
0.0
 71
7
  1
SPK
  7
CJK
  0
CIRCLE
  5
393
330
17
100
AcDbEntity
  8
PORTS
420
15230298
100
AcDbCircle
 10
287.0
 20
-4229.5
 30
0.0
 40
2.4
  0
MTEXT
  5
394
330
17
100
AcDbEntity
  8
LABELS
420
16119276
100
AcDbMText
 10
294.0
 20
-4232.5
 30
0.0
 40
8.0
 41
0.0
 71
7
  1
SPK
  7
CJK
  0
CIRCLE
  5
395
330
17
100
AcDbEntity
  8
PORTS
420
15230298
100
AcDbCircle
 10
287.0
 20
-4308.5
 30
0.0
 40
2.4
  0
MTEXT
  5
396
330
17
100
AcDbEntity
  8
LABELS
420
16119276
100
AcDbMText
 10
294.0
 20
-4311.5
 30
0.0
 40
8.0
 41
0.0
 71
7
  1
SPK
  7
CJK
  0
CIRCLE
  5
397
330
17
100
AcDbEntity
  8
PORTS
420
15230298
100
AcDbCircle
 10
287.0
 20
-4387.5
 30
0.0
 40
2.4
  0
MTEXT
  5
398
330
17
100
AcDbEntity
  8
LABELS
420
16119276
100
AcDbMText
 10
294.0
 20
-4390.5
 30
0.0
 40
8.0
 41
0.0
 71
7
  1
SPK
  7
CJK
  0
CIRCLE
  5
399
330
17
100
AcDbEntity
  8
PORTS
420
15230298
100
AcDbCircle
 10
287.0
 20
-4466.5
 30
0.0
 40
2.4
  0
MTEXT
  5
39A
330
17
100
AcDbEntity
  8
LABELS
420
16119276
100
AcDbMText
 10
294.0
 20
-4469.5
 30
0.0
 40
8.0
 41
0.0
 71
7
  1
SPK
  7
CJK
  0
CIRCLE
  5
39B
330
17
100
AcDbEntity
  8
PORTS
420
15230298
100
AcDbCircle
 10
287.0
 20
-4545.5
 30
0.0
 40
2.4
  0
MTEXT
  5
39C
330
17
100
AcDbEntity
  8
LABELS
420
16119276
100
AcDbMText
 10
294.0
 20
-4548.5
 30
0.0
 40
8.0
 41
0.0
 71
7
  1
SPK
  7
CJK
  0
CIRCLE
  5
39D
330
17
100
AcDbEntity
  8
PORTS
420
15230298
100
AcDbCircle
 10
287.0
 20
-4624.5
 30
0.0
 40
2.4
  0
MTEXT
  5
39E
330
17
100
AcDbEntity
  8
LABELS
420
16119276
100
AcDbMText
 10
294.0
 20
-4627.5
 30
0.0
 40
8.0
 41
0.0
 71
7
  1
SPK
  7
CJK
  0
CIRCLE
  5
39F
330
17
100
AcDbEntity
  8
PORTS
420
15230298
100
AcDbCircle
 10
287.0
 20
-4703.5
 30
0.0
 40
2.4
  0
MTEXT
  5
3A0
330
17
100
AcDbEntity
  8
LABELS
420
16119276
100
AcDbMText
 10
294.0
 20
-4706.5
 30
0.0
 40
8.0
 41
0.0
 71
7
  1
SPK
  7
CJK
  0
CIRCLE
  5
3A1
330
17
100
AcDbEntity
  8
PORTS
420
15230298
100
AcDbCircle
 10
287.0
 20
-4782.5
 30
0.0
 40
2.4
  0
MTEXT
  5
3A2
330
17
100
AcDbEntity
  8
LABELS
420
16119276
100
AcDbMText
 10
294.0
 20
-4785.5
 30
0.0
 40
8.0
 41
0.0
 71
7
  1
SPK
  7
CJK
  0
CIRCLE
  5
3A3
330
17
100
AcDbEntity
  8
PORTS
420
15230298
100
AcDbCircle
 10
287.0
 20
-4861.5
 30
0.0
 40
2.4
  0
MTEXT
  5
3A4
330
17
100
AcDbEntity
  8
LABELS
420
16119276
100
AcDbMText
 10
294.0
 20
-4864.5
 30
0.0
 40
8.0
 41
0.0
 71
7
  1
SPK
  7
CJK
  0
CIRCLE
  5
3A5
330
17
100
AcDbEntity
  8
PORTS
420
15230298
100
AcDbCircle
 10
287.0
 20
-4940.5
 30
0.0
 40
2.4
  0
MTEXT
  5
3A6
330
17
100
AcDbEntity
  8
LABELS
420
16119276
100
AcDbMText
 10
294.0
 20
-4943.5
 30
0.0
 40
8.0
 41
0.0
 71
7
  1
SPK
  7
CJK
  0
CIRCLE
  5
3A7
330
17
100
AcDbEntity
  8
PORTS
420
6146725
100
AcDbCircle
 10
40.0
 20
-1676.5
 30
0.0
 40
2.4
  0
MTEXT
  5
3A8
330
17
100
AcDbEntity
  8
LABELS
420
16119276
100
AcDbMText
 10
47.0
 20
-1679.5
 30
0.0
 40
8.0
 41
0.0
 71
7
  1
IN1
  7
CJK
  0
CIRCLE
  5
3A9
330
17
100
AcDbEntity
  8
PORTS
420
6146725
100
AcDbCircle
 10
40.0
 20
-1687.5
 30
0.0
 40
2.4
  0
MTEXT
  5
3AA
330
17
100
AcDbEntity
  8
LABELS
420
16119276
100
AcDbMText
 10
47.0
 20
-1690.5
 30
0.0
 40
8.0
 41
0.0
 71
7
  1
IN2
  7
CJK
  0
CIRCLE
  5
3AB
330
17
100
AcDbEntity
  8
PORTS
420
6146725
100
AcDbCircle
 10
40.0
 20
-1698.5
 30
0.0
 40
2.4
  0
MTEXT
  5
3AC
330
17
100
AcDbEntity
  8
LABELS
420
16119276
100
AcDbMText
 10
47.0
 20
-1701.5
 30
0.0
 40
8.0
 41
0.0
 71
7
  1
IN3
  7
CJK
  0
CIRCLE
  5
3AD
330
17
100
AcDbEntity
  8
PORTS
420
6146725
100
AcDbCircle
 10
40.0
 20
-1709.5
 30
0.0
 40
2.4
  0
MTEXT
  5
3AE
330
17
100
AcDbEntity
  8
LABELS
420
16119276
100
AcDbMText
 10
47.0
 20
-1712.5
 30
0.0
 40
8.0
 41
0.0
 71
7
  1
IN4
  7
CJK
  0
CIRCLE
  5
3AF
330
17
100
AcDbEntity
  8
PORTS
420
3640029
100
AcDbCircle
 10
40.0
 20
-1720.5
 30
0.0
 40
2.4
  0
MTEXT
  5
3B0
330
17
100
AcDbEntity
  8
LABELS
420
16119276
100
AcDbMText
 10
47.0
 20
-1723.5
 30
0.0
 40
8.0
 41
0.0
 71
7
  1
DANTE
  7
CJK
  0
CIRCLE
  5
3B1
330
17
100
AcDbEntity
  8
PORTS
420
11566297
100
AcDbCircle
 10
217.0
 20
-1676.5
 30
0.0
 40
2.4
  0
MTEXT
  5
3B2
330
17
100
AcDbEntity
  8
LABELS
420
16119276
100
AcDbMText
 10
210.0
 20
-1679.5
 30
0.0
 40
8.0
 41
0.0
 71
9
  1
CTRL
  7
CJK
  0
CIRCLE
  5
3B3
330
17
100
AcDbEntity
  8
PORTS
420
15230298
100
AcDbCircle
 10
217.0
 20
-1687.5
 30
0.0
 40
2.4
  0
MTEXT
  5
3B4
330
17
100
AcDbEntity
  8
LABELS
420
16119276
100
AcDbMText
 10
210.0
 20
-1690.5
 30
0.0
 40
8.0
 41
0.0
 71
9
  1
SPK1
  7
CJK
  0
CIRCLE
  5
3B5
330
17
100
AcDbEntity
  8
PORTS
420
15230298
100
AcDbCircle
 10
217.0
 20
-1698.5
 30
0.0
 40
2.4
  0
MTEXT
  5
3B6
330
17
100
AcDbEntity
  8
LABELS
420
16119276
100
AcDbMText
 10
210.0
 20
-1701.5
 30
0.0
 40
8.0
 41
0.0
 71
9
  1
SPK2
  7
CJK
  0
CIRCLE
  5
3B7
330
17
100
AcDbEntity
  8
PORTS
420
15230298
100
AcDbCircle
 10
217.0
 20
-1709.5
 30
0.0
 40
2.4
  0
MTEXT
  5
3B8
330
17
100
AcDbEntity
  8
LABELS
420
16119276
100
AcDbMText
 10
210.0
 20
-1712.5
 30
0.0
 40
8.0
 41
0.0
 71
9
  1
SPK3
  7
CJK
  0
CIRCLE
  5
3B9
330
17
100
AcDbEntity
  8
PORTS
420
15230298
100
AcDbCircle
 10
217.0
 20
-1720.5
 30
0.0
 40
2.4
  0
MTEXT
  5
3BA
330
17
100
AcDbEntity
  8
LABELS
420
16119276
100
AcDbMText
 10
210.0
 20
-1723.5
 30
0.0
 40
8.0
 41
0.0
 71
9
  1
SPK4
  7
CJK
  0
CIRCLE
  5
3BB
330
17
100
AcDbEntity
  8
PORTS
420
6146725
100
AcDbCircle
 10
40.0
 20
-1799.5
 30
0.0
 40
2.4
  0
MTEXT
  5
3BC
330
17
100
AcDbEntity
  8
LABELS
420
16119276
100
AcDbMText
 10
47.0
 20
-1802.5
 30
0.0
 40
8.0
 41
0.0
 71
7
  1
IN1
  7
CJK
  0
CIRCLE
  5
3BD
330
17
100
AcDbEntity
  8
PORTS
420
6146725
100
AcDbCircle
 10
40.0
 20
-1810.5
 30
0.0
 40
2.4
  0
MTEXT
  5
3BE
330
17
100
AcDbEntity
  8
LABELS
420
16119276
100
AcDbMText
 10
47.0
 20
-1813.5
 30
0.0
 40
8.0
 41
0.0
 71
7
  1
IN2
  7
CJK
  0
CIRCLE
  5
3BF
330
17
100
AcDbEntity
  8
PORTS
420
6146725
100
AcDbCircle
 10
40.0
 20
-1821.5
 30
0.0
 40
2.4
  0
MTEXT
  5
3C0
330
17
100
AcDbEntity
  8
LABELS
420
16119276
100
AcDbMText
 10
47.0
 20
-1824.5
 30
0.0
 40
8.0
 41
0.0
 71
7
  1
IN3
  7
CJK
  0
CIRCLE
  5
3C1
330
17
100
AcDbEntity
  8
PORTS
420
6146725
100
AcDbCircle
 10
40.0
 20
-1832.5
 30
0.0
 40
2.4
  0
MTEXT
  5
3C2
330
17
100
AcDbEntity
  8
LABELS
420
16119276
100
AcDbMText
 10
47.0
 20
-1835.5
 30
0.0
 40
8.0
 41
0.0
 71
7
  1
IN4
  7
CJK
  0
CIRCLE
  5
3C3
330
17
100
AcDbEntity
  8
PORTS
420
3640029
100
AcDbCircle
 10
40.0
 20
-1843.5
 30
0.0
 40
2.4
  0
MTEXT
  5
3C4
330
17
100
AcDbEntity
  8
LABELS
420
16119276
100
AcDbMText
 10
47.0
 20
-1846.5
 30
0.0
 40
8.0
 41
0.0
 71
7
  1
DANTE
  7
CJK
  0
CIRCLE
  5
3C5
330
17
100
AcDbEntity
  8
PORTS
420
11566297
100
AcDbCircle
 10
217.0
 20
-1799.5
 30
0.0
 40
2.4
  0
MTEXT
  5
3C6
330
17
100
AcDbEntity
  8
LABELS
420
16119276
100
AcDbMText
 10
210.0
 20
-1802.5
 30
0.0
 40
8.0
 41
0.0
 71
9
  1
CTRL
  7
CJK
  0
CIRCLE
  5
3C7
330
17
100
AcDbEntity
  8
PORTS
420
15230298
100
AcDbCircle
 10
217.0
 20
-1810.5
 30
0.0
 40
2.4
  0
MTEXT
  5
3C8
330
17
100
AcDbEntity
  8
LABELS
420
16119276
100
AcDbMText
 10
210.0
 20
-1813.5
 30
0.0
 40
8.0
 41
0.0
 71
9
  1
SPK1
  7
CJK
  0
CIRCLE
  5
3C9
330
17
100
AcDbEntity
  8
PORTS
420
15230298
100
AcDbCircle
 10
217.0
 20
-1821.5
 30
0.0
 40
2.4
  0
MTEXT
  5
3CA
330
17
100
AcDbEntity
  8
LABELS
420
16119276
100
AcDbMText
 10
210.0
 20
-1824.5
 30
0.0
 40
8.0
 41
0.0
 71
9
  1
SPK2
  7
CJK
  0
CIRCLE
  5
3CB
330
17
100
AcDbEntity
  8
PORTS
420
15230298
100
AcDbCircle
 10
217.0
 20
-1832.5
 30
0.0
 40
2.4
  0
MTEXT
  5
3CC
330
17
100
AcDbEntity
  8
LABELS
420
16119276
100
AcDbMText
 10
210.0
 20
-1835.5
 30
0.0
 40
8.0
 41
0.0
 71
9
  1
SPK3
  7
CJK
  0
CIRCLE
  5
3CD
330
17
100
AcDbEntity
  8
PORTS
420
15230298
100
AcDbCircle
 10
217.0
 20
-1843.5
 30
0.0
 40
2.4
  0
MTEXT
  5
3CE
330
17
100
AcDbEntity
  8
LABELS
420
16119276
100
AcDbMText
 10
210.0
 20
-1846.5
 30
0.0
 40
8.0
 41
0.0
 71
9
  1
SPK4
  7
CJK
  0
CIRCLE
  5
3CF
330
17
100
AcDbEntity
  8
PORTS
420
6146725
100
AcDbCircle
 10
40.0
 20
-1922.5
 30
0.0
 40
2.4
  0
MTEXT
  5
3D0
330
17
100
AcDbEntity
  8
LABELS
420
16119276
100
AcDbMText
 10
47.0
 20
-1925.5
 30
0.0
 40
8.0
 41
0.0
 71
7
  1
IN1
  7
CJK
  0
CIRCLE
  5
3D1
330
17
100
AcDbEntity
  8
PORTS
420
6146725
100
AcDbCircle
 10
40.0
 20
-1933.5
 30
0.0
 40
2.4
  0
MTEXT
  5
3D2
330
17
100
AcDbEntity
  8
LABELS
420
16119276
100
AcDbMText
 10
47.0
 20
-1936.5
 30
0.0
 40
8.0
 41
0.0
 71
7
  1
IN2
  7
CJK
  0
CIRCLE
  5
3D3
330
17
100
AcDbEntity
  8
PORTS
420
6146725
100
AcDbCircle
 10
40.0
 20
-1944.5
 30
0.0
 40
2.4
  0
MTEXT
  5
3D4
330
17
100
AcDbEntity
  8
LABELS
420
16119276
100
AcDbMText
 10
47.0
 20
-1947.5
 30
0.0
 40
8.0
 41
0.0
 71
7
  1
IN3
  7
CJK
  0
CIRCLE
  5
3D5
330
17
100
AcDbEntity
  8
PORTS
420
6146725
100
AcDbCircle
 10
40.0
 20
-1955.5
 30
0.0
 40
2.4
  0
MTEXT
  5
3D6
330
17
100
AcDbEntity
  8
LABELS
420
16119276
100
AcDbMText
 10
47.0
 20
-1958.5
 30
0.0
 40
8.0
 41
0.0
 71
7
  1
IN4
  7
CJK
  0
CIRCLE
  5
3D7
330
17
100
AcDbEntity
  8
PORTS
420
3640029
100
AcDbCircle
 10
40.0
 20
-1966.5
 30
0.0
 40
2.4
  0
MTEXT
  5
3D8
330
17
100
AcDbEntity
  8
LABELS
420
16119276
100
AcDbMText
 10
47.0
 20
-1969.5
 30
0.0
 40
8.0
 41
0.0
 71
7
  1
DANTE
  7
CJK
  0
CIRCLE
  5
3D9
330
17
100
AcDbEntity
  8
PORTS
420
11566297
100
AcDbCircle
 10
217.0
 20
-1922.5
 30
0.0
 40
2.4
  0
MTEXT
  5
3DA
330
17
100
AcDbEntity
  8
LABELS
420
16119276
100
AcDbMText
 10
210.0
 20
-1925.5
 30
0.0
 40
8.0
 41
0.0
 71
9
  1
CTRL
  7
CJK
  0
CIRCLE
  5
3DB
330
17
100
AcDbEntity
  8
PORTS
420
15230298
100
AcDbCircle
 10
217.0
 20
-1933.5
 30
0.0
 40
2.4
  0
MTEXT
  5
3DC
330
17
100
AcDbEntity
  8
LABELS
420
16119276
100
AcDbMText
 10
210.0
 20
-1936.5
 30
0.0
 40
8.0
 41
0.0
 71
9
  1
SPK1
  7
CJK
  0
CIRCLE
  5
3DD
330
17
100
AcDbEntity
  8
PORTS
420
15230298
100
AcDbCircle
 10
217.0
 20
-1944.5
 30
0.0
 40
2.4
  0
MTEXT
  5
3DE
330
17
100
AcDbEntity
  8
LABELS
420
16119276
100
AcDbMText
 10
210.0
 20
-1947.5
 30
0.0
 40
8.0
 41
0.0
 71
9
  1
SPK2
  7
CJK
  0
CIRCLE
  5
3DF
330
17
100
AcDbEntity
  8
PORTS
420
15230298
100
AcDbCircle
 10
217.0
 20
-1955.5
 30
0.0
 40
2.4
  0
MTEXT
  5
3E0
330
17
100
AcDbEntity
  8
LABELS
420
16119276
100
AcDbMText
 10
210.0
 20
-1958.5
 30
0.0
 40
8.0
 41
0.0
 71
9
  1
SPK3
  7
CJK
  0
CIRCLE
  5
3E1
330
17
100
AcDbEntity
  8
PORTS
420
15230298
100
AcDbCircle
 10
217.0
 20
-1966.5
 30
0.0
 40
2.4
  0
MTEXT
  5
3E2
330
17
100
AcDbEntity
  8
LABELS
420
16119276
100
AcDbMText
 10
210.0
 20
-1969.5
 30
0.0
 40
8.0
 41
0.0
 71
9
  1
SPK4
  7
CJK
  0
CIRCLE
  5
3E3
330
17
100
AcDbEntity
  8
PORTS
420
6146725
100
AcDbCircle
 10
40.0
 20
-2045.5
 30
0.0
 40
2.4
  0
MTEXT
  5
3E4
330
17
100
AcDbEntity
  8
LABELS
420
16119276
100
AcDbMText
 10
47.0
 20
-2048.5
 30
0.0
 40
8.0
 41
0.0
 71
7
  1
IN1
  7
CJK
  0
CIRCLE
  5
3E5
330
17
100
AcDbEntity
  8
PORTS
420
6146725
100
AcDbCircle
 10
40.0
 20
-2056.5
 30
0.0
 40
2.4
  0
MTEXT
  5
3E6
330
17
100
AcDbEntity
  8
LABELS
420
16119276
100
AcDbMText
 10
47.0
 20
-2059.5
 30
0.0
 40
8.0
 41
0.0
 71
7
  1
IN2
  7
CJK
  0
CIRCLE
  5
3E7
330
17
100
AcDbEntity
  8
PORTS
420
6146725
100
AcDbCircle
 10
40.0
 20
-2067.5
 30
0.0
 40
2.4
  0
MTEXT
  5
3E8
330
17
100
AcDbEntity
  8
LABELS
420
16119276
100
AcDbMText
 10
47.0
 20
-2070.5
 30
0.0
 40
8.0
 41
0.0
 71
7
  1
IN3
  7
CJK
  0
CIRCLE
  5
3E9
330
17
100
AcDbEntity
  8
PORTS
420
6146725
100
AcDbCircle
 10
40.0
 20
-2078.5
 30
0.0
 40
2.4
  0
MTEXT
  5
3EA
330
17
100
AcDbEntity
  8
LABELS
420
16119276
100
AcDbMText
 10
47.0
 20
-2081.5
 30
0.0
 40
8.0
 41
0.0
 71
7
  1
IN4
  7
CJK
  0
CIRCLE
  5
3EB
330
17
100
AcDbEntity
  8
PORTS
420
3640029
100
AcDbCircle
 10
40.0
 20
-2089.5
 30
0.0
 40
2.4
  0
MTEXT
  5
3EC
330
17
100
AcDbEntity
  8
LABELS
420
16119276
100
AcDbMText
 10
47.0
 20
-2092.5
 30
0.0
 40
8.0
 41
0.0
 71
7
  1
DANTE
  7
CJK
  0
CIRCLE
  5
3ED
330
17
100
AcDbEntity
  8
PORTS
420
11566297
100
AcDbCircle
 10
217.0
 20
-2045.5
 30
0.0
 40
2.4
  0
MTEXT
  5
3EE
330
17
100
AcDbEntity
  8
LABELS
420
16119276
100
AcDbMText
 10
210.0
 20
-2048.5
 30
0.0
 40
8.0
 41
0.0
 71
9
  1
CTRL
  7
CJK
  0
CIRCLE
  5
3EF
330
17
100
AcDbEntity
  8
PORTS
420
15230298
100
AcDbCircle
 10
217.0
 20
-2056.5
 30
0.0
 40
2.4
  0
MTEXT
  5
3F0
330
17
100
AcDbEntity
  8
LABELS
420
16119276
100
AcDbMText
 10
210.0
 20
-2059.5
 30
0.0
 40
8.0
 41
0.0
 71
9
  1
SPK1
  7
CJK
  0
CIRCLE
  5
3F1
330
17
100
AcDbEntity
  8
PORTS
420
15230298
100
AcDbCircle
 10
217.0
 20
-2067.5
 30
0.0
 40
2.4
  0
MTEXT
  5
3F2
330
17
100
AcDbEntity
  8
LABELS
420
16119276
100
AcDbMText
 10
210.0
 20
-2070.5
 30
0.0
 40
8.0
 41
0.0
 71
9
  1
SPK2
  7
CJK
  0
CIRCLE
  5
3F3
330
17
100
AcDbEntity
  8
PORTS
420
15230298
100
AcDbCircle
 10
217.0
 20
-2078.5
 30
0.0
 40
2.4
  0
MTEXT
  5
3F4
330
17
100
AcDbEntity
  8
LABELS
420
16119276
100
AcDbMText
 10
210.0
 20
-2081.5
 30
0.0
 40
8.0
 41
0.0
 71
9
  1
SPK3
  7
CJK
  0
CIRCLE
  5
3F5
330
17
100
AcDbEntity
  8
PORTS
420
15230298
100
AcDbCircle
 10
217.0
 20
-2089.5
 30
0.0
 40
2.4
  0
MTEXT
  5
3F6
330
17
100
AcDbEntity
  8
LABELS
420
16119276
100
AcDbMText
 10
210.0
 20
-2092.5
 30
0.0
 40
8.0
 41
0.0
 71
9
  1
SPK4
  7
CJK
  0
CIRCLE
  5
3F7
330
17
100
AcDbEntity
  8
PORTS
420
3640029
100
AcDbCircle
 10
219.1
 20
-5052.0
 30
0.0
 40
2.4
  0
MTEXT
  5
3F8
330
17
100
AcDbEntity
  8
LABELS
420
16119276
100
AcDbMText
 10
219.1
 20
-5091.0
 30
0.0
 40
8.0
 41
0.0
 71
8
  1
1
  7
CJK
  0
CIRCLE
  5
3F9
330
17
100
AcDbEntity
  8
PORTS
420
3640029
100
AcDbCircle
 10
235.29999999999998
 20
-5052.0
 30
0.0
 40
2.4
  0
MTEXT
  5
3FA
330
17
100
AcDbEntity
  8
LABELS
420
16119276
100
AcDbMText
 10
235.29999999999998
 20
-5091.0
 30
0.0
 40
8.0
 41
0.0
 71
8
  1
2
  7
CJK
  0
CIRCLE
  5
3FB
330
17
100
AcDbEntity
  8
PORTS
420
3640029
100
AcDbCircle
 10
251.5
 20
-5052.0
 30
0.0
 40
2.4
  0
MTEXT
  5
3FC
330
17
100
AcDbEntity
  8
LABELS
420
16119276
100
AcDbMText
 10
251.5
 20
-5091.0
 30
0.0
 40
8.0
 41
0.0
 71
8
  1
3
  7
CJK
  0
CIRCLE
  5
3FD
330
17
100
AcDbEntity
  8
PORTS
420
3640029
100
AcDbCircle
 10
267.70000000000005
 20
-5052.0
 30
0.0
 40
2.4
  0
MTEXT
  5
3FE
330
17
100
AcDbEntity
  8
LABELS
420
16119276
100
AcDbMText
 10
267.70000000000005
 20
-5091.0
 30
0.0
 40
8.0
 41
0.0
 71
8
  1
4
  7
CJK
  0
CIRCLE
  5
3FF
330
17
100
AcDbEntity
  8
PORTS
420
3640029
100
AcDbCircle
 10
283.90000000000003
 20
-5052.0
 30
0.0
 40
2.4
  0
MTEXT
  5
400
330
17
100
AcDbEntity
  8
LABELS
420
16119276
100
AcDbMText
 10
283.90000000000003
 20
-5091.0
 30
0.0
 40
8.0
 41
0.0
 71
8
  1
5
  7
CJK
  0
CIRCLE
  5
401
330
17
100
AcDbEntity
  8
PORTS
420
3640029
100
AcDbCircle
 10
300.1
 20
-5052.0
 30
0.0
 40
2.4
  0
MTEXT
  5
402
330
17
100
AcDbEntity
  8
LABELS
420
16119276
100
AcDbMText
 10
300.1
 20
-5091.0
 30
0.0
 40
8.0
 41
0.0
 71
8
  1
6
  7
CJK
  0
CIRCLE
  5
403
330
17
100
AcDbEntity
  8
PORTS
420
3640029
100
AcDbCircle
 10
316.3
 20
-5052.0
 30
0.0
 40
2.4
  0
MTEXT
  5
404
330
17
100
AcDbEntity
  8
LABELS
420
16119276
100
AcDbMText
 10
316.3
 20
-5091.0
 30
0.0
 40
8.0
 41
0.0
 71
8
  1
7
  7
CJK
  0
CIRCLE
  5
405
330
17
100
AcDbEntity
  8
PORTS
420
3640029
100
AcDbCircle
 10
332.5
 20
-5052.0
 30
0.0
 40
2.4
  0
MTEXT
  5
406
330
17
100
AcDbEntity
  8
LABELS
420
16119276
100
AcDbMText
 10
332.5
 20
-5091.0
 30
0.0
 40
8.0
 41
0.0
 71
8
  1
8
  7
CJK
  0
CIRCLE
  5
407
330
17
100
AcDbEntity
  8
PORTS
420
3640029
100
AcDbCircle
 10
348.70000000000005
 20
-5052.0
 30
0.0
 40
2.4
  0
MTEXT
  5
408
330
17
100
AcDbEntity
  8
LABELS
420
16119276
100
AcDbMText
 10
348.70000000000005
 20
-5091.0
 30
0.0
 40
8.0
 41
0.0
 71
8
  1
9
  7
CJK
  0
CIRCLE
  5
409
330
17
100
AcDbEntity
  8
PORTS
420
3640029
100
AcDbCircle
 10
364.9
 20
-5052.0
 30
0.0
 40
2.4
  0
MTEXT
  5
40A
330
17
100
AcDbEntity
  8
LABELS
420
16119276
100
AcDbMText
 10
364.9
 20
-5091.0
 30
0.0
 40
8.0
 41
0.0
 71
8
  1
10
  7
CJK
  0
LWPOLYLINE
  5
40B
330
17
100
AcDbEntity
  8
LEGEND
 62
7
370
25
420
9078136
100
AcDbPolyline
 90
5
 70
0
 10
2.0
 20
-5138.0
 10
208.0
 20
-5138.0
 10
208.0
 20
-5196.0
 10
2.0
 20
-5196.0
 10
2.0
 20
-5138.0
  0
MTEXT
  5
40C
330
17
100
AcDbEntity
  8
LEGEND
420
15855592
100
AcDbMText
 10
12.0
 20
-5152.0
 30
0.0
 40
10.0
 41
0.0
 71
7
  1
线型说明
  7
CJK
  0
LINE
  5
40D
330
17
100
AcDbEntity
  8
LEGEND
  6
CONTINUOUS
420
3640029
100
AcDbLine
 10
14.0
 20
-5161.0
 30
0.0
 11
44.0
 21
-5161.0
 31
0.0
  0
MTEXT
  5
40E
330
17
100
AcDbEntity
  8
LEGEND
420
15263453
100
AcDbMText
 10
52.0
 20
-5164.0
 30
0.0
 40
8.0
 41
0.0
 71
7
  1
Dante 网络音频
  7
CJK
  0
LINE
  5
40F
330
17
100
AcDbEntity
  8
LEGEND
  6
CONTINUOUS
420
15230298
100
AcDbLine
 10
14.0
 20
-5175.0
 30
0.0
 11
44.0
 21
-5175.0
 31
0.0
  0
MTEXT
  5
410
330
17
100
AcDbEntity
  8
LEGEND
420
15263453
100
AcDbMText
 10
52.0
 20
-5178.0
 30
0.0
 40
8.0
 41
0.0
 71
7
  1
扬声器功率线
  7
CJK
  0
ENDSEC
  0
SECTION
  2
OBJECTS
  0
DICTIONARY
  5
A
330
0
100
AcDbDictionary
281
1
  3
ACAD_COLOR
350
B
  3
ACAD_GROUP
350
C
  3
ACAD_LAYOUT
350
D
  3
ACAD_MATERIAL
350
E
  3
ACAD_MLEADERSTYLE
350
F
  3
ACAD_MLINESTYLE
350
10
  3
ACAD_PLOTSETTINGS
350
11
  3
ACAD_PLOTSTYLENAME
350
12
  3
ACAD_SCALELIST
350
14
  3
ACAD_TABLESTYLE
350
15
  3
ACAD_VISUALSTYLE
350
16
  3
EZDXF_META
350
2D
  0
DICTIONARY
  5
B
330
A
100
AcDbDictionary
281
1
  0
DICTIONARY
  5
C
330
A
100
AcDbDictionary
281
1
  0
DICTIONARY
  5
D
330
A
100
AcDbDictionary
281
1
  3
Model
350
1A
  3
Layout1
350
1E
  0
DICTIONARY
  5
E
330
A
100
AcDbDictionary
281
1
  3
ByBlock
350
1F
  3
ByLayer
350
20
  3
Global
350
21
  0
DICTIONARY
  5
F
330
A
100
AcDbDictionary
281
1
  3
Standard
350
2C
  0
DICTIONARY
  5
10
330
A
100
AcDbDictionary
281
1
  3
Standard
350
22
  0
DICTIONARY
  5
11
330
A
100
AcDbDictionary
281
1
  0
ACDBDICTIONARYWDFLT
  5
12
330
A
100
AcDbDictionary
281
1
  3
Normal
350
13
100
AcDbDictionaryWithDefault
340
13
  0
ACDBPLACEHOLDER
  5
13
330
12
  0
DICTIONARY
  5
14
330
A
100
AcDbDictionary
281
1
  0
DICTIONARY
  5
15
330
A
100
AcDbDictionary
281
1
  0
DICTIONARY
  5
16
330
A
100
AcDbDictionary
281
1
  0
LAYOUT
  5
1A
330
D
100
AcDbPlotSettings
  1

  4
A3
  6

 40
7.5
 41
20.0
 42
7.5
 43
20.0
 44
420.0
 45
297.0
 46
0.0
 47
0.0
 48
0.0
 49
0.0
140
0.0
141
0.0
142
1.0
143
1.0
 70
1024
 72
1
 73
0
 74
5
  7

 75
16
 76
0
 77
2
 78
300
147
1.0
148
0.0
149
0.0
100
AcDbLayout
  1
Model
 70
1
 71
0
 10
0.0
 20
0.0
 11
420.0
 21
297.0
 12
0.0
 22
0.0
 32
0.0
 14
1e+20
 24
1e+20
 34
1e+20
 15
-1e+20
 25
-1e+20
 35
-1e+20
146
0.0
 13
0.0
 23
0.0
 33
0.0
 16
1.0
 26
0.0
 36
0.0
 17
0.0
 27
1.0
 37
0.0
 76
1
330
17
  0
LAYOUT
  5
1E
330
D
100
AcDbPlotSettings
  1

  4
A3
  6

 40
7.5
 41
20.0
 42
7.5
 43
20.0
 44
420.0
 45
297.0
 46
0.0
 47
0.0
 48
0.0
 49
0.0
140
0.0
141
0.0
142
1.0
143
1.0
 70
0
 72
1
 73
0
 74
5
  7

 75
16
 76
0
 77
2
 78
300
147
1.0
148
0.0
149
0.0
100
AcDbLayout
  1
Layout1
 70
1
 71
1
 10
0.0
 20
0.0
 11
420.0
 21
297.0
 12
0.0
 22
0.0
 32
0.0
 14
1e+20
 24
1e+20
 34
1e+20
 15
-1e+20
 25
-1e+20
 35
-1e+20
146
0.0
 13
0.0
 23
0.0
 33
0.0
 16
1.0
 26
0.0
 36
0.0
 17
0.0
 27
1.0
 37
0.0
 76
1
330
1B
  0
MATERIAL
  5
1F
102
{ACAD_REACTORS
330
E
102
}
330
E
100
AcDbMaterial
  1
ByBlock
  2

 70
0
 40
1.0
 71
1
 41
1.0
 91
-1023410177
 42
1.0
 72
1
  3

 73
1
 74
1
 75
1
 44
0.5
 73
0
 45
1.0
 46
1.0
 77
1
  4

 78
1
 79
1
170
1
 48
1.0
171
1
  6

172
1
173
1
174
1
140
1.0
141
1.0
175
1
  7

176
1
177
1
178
1
143
1.0
179
1
  8

270
1
271
1
272
1
145
1.0
146
1.0
273
1
  9

274
1
275
1
276
1
 42
1.0
 72
1
  3

 73
1
 74
1
 75
1
 94
63
  0
MATERIAL
  5
20
102
{ACAD_REACTORS
330
E
102
}
330
E
100
AcDbMaterial
  1
ByLayer
  2

 70
0
 40
1.0
 71
1
 41
1.0
 91
-1023410177
 42
1.0
 72
1
  3

 73
1
 74
1
 75
1
 44
0.5
 73
0
 45
1.0
 46
1.0
 77
1
  4

 78
1
 79
1
170
1
 48
1.0
171
1
  6

172
1
173
1
174
1
140
1.0
141
1.0
175
1
  7

176
1
177
1
178
1
143
1.0
179
1
  8

270
1
271
1
272
1
145
1.0
146
1.0
273
1
  9

274
1
275
1
276
1
 42
1.0
 72
1
  3

 73
1
 74
1
 75
1
 94
63
  0
MATERIAL
  5
21
102
{ACAD_REACTORS
330
E
102
}
330
E
100
AcDbMaterial
  1
Global
  2

 70
0
 40
1.0
 71
1
 41
1.0
 91
-1023410177
 42
1.0
 72
1
  3

 73
1
 74
1
 75
1
 44
0.5
 73
0
 45
1.0
 46
1.0
 77
1
  4

 78
1
 79
1
170
1
 48
1.0
171
1
  6

172
1
173
1
174
1
140
1.0
141
1.0
175
1
  7

176
1
177
1
178
1
143
1.0
179
1
  8

270
1
271
1
272
1
145
1.0
146
1.0
273
1
  9

274
1
275
1
276
1
 42
1.0
 72
1
  3

 73
1
 74
1
 75
1
 94
63
  0
MLINESTYLE
  5
22
102
{ACAD_REACTORS
330
10
102
}
330
10
100
AcDbMlineStyle
  2
Standard
 70
0
  3

 62
256
 51
90.0
 52
90.0
 71
2
 49
0.5
 62
256
  6
BYLAYER
 49
-0.5
 62
256
  6
BYLAYER
  0
MLEADERSTYLE
  5
2C
102
{ACAD_REACTORS
330
F
102
}
330
F
100
AcDbMLeaderStyle
179
2
170
2
171
1
172
0
 90
2
 40
0.0
 41
0.0
173
1
 91
-1056964608
 92
-2
290
1
 42
2.0
291
1
 43
8.0
  3
Standard
 44
4.0
300

342
29
174
1
175
1
176
0
178
1
 93
-1056964608
 45
4.0
292
0
297
0
 46
4.0
 94
-1056964608
 47
1.0
 49
1.0
140
1.0
294
1
141
0.0
177
0
142
1.0
295
0
296
0
143
3.75
271
0
272
9
273
9
  0
DICTIONARY
  5
2D
330
A
100
AcDbDictionary
280
1
281
1
  3
CREATED_BY_EZDXF
350
2E
  3
WRITTEN_BY_EZDXF
350
413
  0
DICTIONARYVAR
  5
2E
330
2D
100
DictionaryVariables
280
0
  1
1.4.4 @ 2026-08-31T04:46:29.516250+00:00
  0
DICTIONARYVAR
  5
413
330
2D
100
DictionaryVariables
280
0
  1
1.4.4 @ 2026-08-31T04:46:29.526914+00:00
  0
ENDSEC
  0
EOF
