<svg xmlns="http://www.w3.org/2000/svg" viewBox="6 0 248 208" width="100%" font-family="PingFang SC, Microsoft YaHei, Noto Sans CJK SC, sans-serif" style="background:#16161a">
<rect x="6" y="0" width="248" height="208" fill="#16161a"/>
<rect x="30.0" y="24.0" width="138.0" height="97.0" fill="#26261f" stroke="#b4b2a9" stroke-width="1.4" rx="3"/>
<text x="99.0" y="34.0" fill="#f1efe8" font-size="9" text-anchor="middle" font-weight="bold">无线会讨天线盒</text>
<text x="99.0" y="44.0" fill="#c4c2b8" font-size="8" text-anchor="middle">IPS</text>
<text x="99.0" y="53.0" fill="#9a978d" font-size="7" text-anchor="middle">CF6300WB</text>
<circle cx="30.0" cy="61.5" r="2.4" fill="#5dcaa5"/>
<text x="37.0" y="64.5" fill="#f5f5ec" font-size="8" text-anchor="start" font-weight="bold">DIN1</text>
<circle cx="30.0" cy="72.5" r="2.4" fill="#5dcaa5"/>
<text x="37.0" y="75.5" fill="#f5f5ec" font-size="8" text-anchor="start" font-weight="bold">DIN2</text>
<circle cx="30.0" cy="83.5" r="2.4" fill="#5dcaa5"/>
<text x="37.0" y="86.5" fill="#f5f5ec" font-size="8" text-anchor="start" font-weight="bold">DIN3</text>
<circle cx="30.0" cy="94.5" r="2.4" fill="#5dcaa5"/>
<text x="37.0" y="97.5" fill="#f5f5ec" font-size="8" text-anchor="start" font-weight="bold">DIN4</text>
<circle cx="30.0" cy="105.5" r="2.4" fill="#5dcaa5"/>
<text x="37.0" y="108.5" fill="#f5f5ec" font-size="8" text-anchor="start" font-weight="bold">IN</text>
<circle cx="57.6" cy="24.0" r="2.4" fill="#b07cd9"/>
<text x="57.6" y="63.0" fill="#f5f5ec" font-size="8" text-anchor="middle" font-weight="bold">RJ45</text>
<circle cx="85.2" cy="24.0" r="2.4" fill="#b07cd9"/>
<text x="85.2" y="63.0" fill="#f5f5ec" font-size="8" text-anchor="middle" font-weight="bold">UPDATE</text>
<circle cx="112.8" cy="24.0" r="2.4" fill="#b07cd9"/>
<text x="112.8" y="63.0" fill="#f5f5ec" font-size="8" text-anchor="middle" font-weight="bold">RS485</text>
<circle cx="140.4" cy="24.0" r="2.4" fill="#b07cd9"/>
<text x="140.4" y="63.0" fill="#f5f5ec" font-size="8" text-anchor="middle" font-weight="bold">RS232</text>
</svg>